%TF.GenerationSoftware,KiCad,Pcbnew,(5.1.6)-1*%
%TF.CreationDate,2021-03-13T16:13:42+00:00*%
%TF.ProjectId,expander,65787061-6e64-4657-922e-6b696361645f,rev?*%
%TF.SameCoordinates,Original*%
%TF.FileFunction,Profile,NP*%
%FSLAX46Y46*%
G04 Gerber Fmt 4.6, Leading zero omitted, Abs format (unit mm)*
G04 Created by KiCad (PCBNEW (5.1.6)-1) date 2021-03-13 16:13:42*
%MOMM*%
%LPD*%
G01*
G04 APERTURE LIST*
%TA.AperFunction,Profile*%
%ADD10C,0.050000*%
%TD*%
G04 APERTURE END LIST*
D10*
X42597000Y-121285000D02*
G75*
G03*
X42597000Y-121285000I-3100000J0D01*
G01*
X41910000Y-77597000D02*
X41910000Y-65405000D01*
X29210000Y-77597000D02*
X41910000Y-77597000D01*
X29210000Y-65405000D02*
X29210000Y-77597000D01*
X29210000Y-65405000D02*
X41910000Y-65405000D01*
X45720000Y-153670000D02*
X25400000Y-153670000D01*
X48260000Y-121412000D02*
X48260000Y-59944000D01*
X48260000Y-141605000D02*
X48260000Y-127762000D01*
X68580000Y-141605000D02*
X48260000Y-141605000D01*
X68580000Y-37338000D02*
X68580000Y-141605000D01*
X48260000Y-37338000D02*
X68580000Y-37338000D01*
X48260000Y-53594000D02*
X48260000Y-37338000D01*
X45720000Y-53594000D02*
X45720000Y-25400000D01*
X45720000Y-121412000D02*
X45720000Y-59944000D01*
X45720000Y-127762000D02*
X45720000Y-153670000D01*
X45720000Y-121412000D02*
G75*
G03*
X48260000Y-121412000I1270000J0D01*
G01*
X48260000Y-127762000D02*
G75*
G03*
X45720000Y-127762000I-1270000J0D01*
G01*
X45720000Y-53594000D02*
G75*
G03*
X48260000Y-53594000I1270000J0D01*
G01*
X48260000Y-59944000D02*
G75*
G03*
X45720000Y-59944000I-1270000J0D01*
G01*
X34723000Y-136525000D02*
G75*
G03*
X34723000Y-136525000I-3100000J0D01*
G01*
X34723000Y-106045000D02*
G75*
G03*
X34723000Y-106045000I-3100000J0D01*
G01*
X42597000Y-90805000D02*
G75*
G03*
X42597000Y-90805000I-3100000J0D01*
G01*
X38660000Y-56515000D02*
G75*
G03*
X38660000Y-56515000I-3100000J0D01*
G01*
X38660000Y-43561000D02*
G75*
G03*
X38660000Y-43561000I-3100000J0D01*
G01*
X25400000Y-25400000D02*
X25400000Y-153670000D01*
X45720000Y-25400000D02*
X25400000Y-25400000D01*
M02*
