M48
; DRILL file {KiCad (5.1.6)-1} date 03/13/21 16:13:45
; FORMAT={-:-/ absolute / inch / decimal}
; #@! TF.CreationDate,2021-03-13T16:13:45+00:00
; #@! TF.GenerationSoftware,Kicad,Pcbnew,(5.1.6)-1
FMAT,2
INCH
T1C0.0157
T2C0.0362
T3C0.0394
T4C0.0480
T5C0.0559
T6C0.0563
T7C0.0906
T8C0.0197
T9C0.0670
T10C0.1299
%
G90
G05
T1
X1.95Y-4.88
X1.9628Y-4.5883
X1.9887Y-4.3966
X2.0052Y-3.3239
X2.05Y-5.275
X2.0625Y-4.131
X2.075Y-2.625
X2.0765Y-2.3564
X2.0957Y-3.9972
X2.1037Y-4.5576
X2.105Y-3.505
X2.105Y-3.795
X2.11Y-2.93
X2.125Y-4.715
X2.128Y-2.0465
X2.17Y-1.78
X2.17Y-2.1
X2.18Y-3.03
X2.2009Y-3.3409
X2.201Y-3.414
X2.215Y-4.365
X2.225Y-2.475
X2.225Y-4.325
X2.235Y-3.755
X2.2464Y-3.9036
X2.2605Y-1.6919
X2.2651Y-3.7234
X2.2892Y-3.0202
X2.299Y-2.324
X2.3074Y-2.8351
X2.3165Y-4.2411
X2.325Y-4.925
X2.3356Y-3.1096
X2.371Y-3.4963
X2.3719Y-3.1633
X2.3792Y-2.0351
X2.3857Y-3.2454
X2.41Y-3.66
X2.42Y-2.39
X2.4213Y-2.3006
X2.4245Y-1.6947
X2.4316Y-4.11
X2.4326Y-5.1555
X2.4368Y-4.8383
X2.4447Y-3.0734
X2.4788Y-4.7381
X2.4841Y-5.1606
X2.4932Y-2.9835
X2.51Y-4.14
X2.52Y-2.6399
X2.55Y-5.35
X2.575Y-3.15
X2.625Y-3.325
X2.6642Y-5.0566
X2.6664Y-2.8467
T2
X2.25Y-2.75
X2.25Y-2.876
X2.3484Y-2.75
X2.3484Y-2.876
T3
X2.52Y-1.57
X2.52Y-1.67
X2.52Y-1.77
X2.52Y-1.87
X2.52Y-1.97
X2.52Y-2.07
X2.52Y-2.17
X2.52Y-2.27
X2.62Y-1.57
X2.62Y-1.67
X2.62Y-1.77
X2.62Y-1.87
X2.62Y-1.97
X2.62Y-2.07
X2.62Y-2.17
X2.62Y-2.27
X2.33Y-4.4
X2.33Y-4.5
X2.43Y-4.4
X2.43Y-4.5
X2.53Y-4.4
X2.53Y-4.5
X2.63Y-4.4
X2.63Y-4.5
X1.97Y-1.57
X1.97Y-1.67
X1.97Y-1.77
X1.97Y-1.87
X1.97Y-1.97
X2.07Y-1.57
X2.07Y-1.67
X2.07Y-1.77
X2.07Y-1.87
X2.07Y-1.97
T4
X2.4Y-5.375
X2.2Y-3.575
X2.3Y-1.97
X2.3Y-1.97
X2.4Y-4.175
X2.2Y-4.775
T5
X2.322Y-4.775
X2.278Y-5.375
X2.322Y-3.575
X2.3Y-1.848
X2.3Y-2.092
X2.278Y-4.175
T6
X2.3Y-2.4188
X1.9512Y-4.175
X2.6488Y-4.775
X1.9512Y-5.375
X2.6488Y-3.575
X2.3Y-1.5212
T7
X2.0622Y-2.8567
X2.5362Y-2.8567
T8
X1.8Y-2.1569
X1.8Y-2.1963
X1.8Y-2.2356
X1.8Y-2.275
X1.8Y-2.3144
X1.8Y-4.8263
X1.8Y-4.8656
X1.8Y-4.905
X1.8Y-4.9444
X1.8Y-4.9837
X1.9Y-2.1569
X1.9Y-2.1963
X1.9Y-2.2356
X1.9Y-2.275
X1.9Y-2.3144
X1.9Y-4.8263
X1.9Y-4.8656
X1.9Y-4.905
X1.9Y-4.9444
X1.9Y-4.9837
T9
G00X1.18Y-3.525
M15
G01X1.18Y-3.525
M16
G05
G00X1.18Y-3.625
M15
G01X1.18Y-3.625
M16
G05
G00X1.62Y-4.125
M15
G01X1.62Y-4.125
M16
G05
G00X1.62Y-5.325
M15
G01X1.62Y-5.325
M16
G05
G00X1.18Y-4.725
M15
G01X1.18Y-4.725
M16
G05
G00X1.62Y-4.225
M15
G01X1.62Y-4.225
M16
G05
G00X1.18Y-4.825
M15
G01X1.18Y-4.825
M16
G05
G00X1.62Y-5.425
M15
G01X1.62Y-5.425
M16
G05
T10
G00X1.4555Y-5.9319
M15
G01X1.5579Y-5.9319
M16
G05
G00X1.4555Y-1.1181
M15
G01X1.5579Y-1.1181
M16
G05
T0
M30
