%TF.GenerationSoftware,KiCad,Pcbnew,(5.1.6)-1*%
%TF.CreationDate,2021-03-13T16:13:42+00:00*%
%TF.ProjectId,expander,65787061-6e64-4657-922e-6b696361645f,rev?*%
%TF.SameCoordinates,Original*%
%TF.FileFunction,Paste,Top*%
%TF.FilePolarity,Positive*%
%FSLAX46Y46*%
G04 Gerber Fmt 4.6, Leading zero omitted, Abs format (unit mm)*
G04 Created by KiCad (PCBNEW (5.1.6)-1) date 2021-03-13 16:13:42*
%MOMM*%
%LPD*%
G01*
G04 APERTURE LIST*
%ADD10R,0.400000X0.650000*%
%ADD11R,1.000000X3.000000*%
%ADD12R,1.400000X0.300000*%
%ADD13R,0.800000X0.900000*%
G04 APERTURE END LIST*
%TO.C,D8*%
G36*
G01*
X42223000Y-138480000D02*
X42223000Y-137110000D01*
G75*
G02*
X42413000Y-136920000I190000J0D01*
G01*
X42983000Y-136920000D01*
G75*
G02*
X43173000Y-137110000I0J-190000D01*
G01*
X43173000Y-138480000D01*
G75*
G02*
X42983000Y-138670000I-190000J0D01*
G01*
X42413000Y-138670000D01*
G75*
G02*
X42223000Y-138480000I0J190000D01*
G01*
G37*
G36*
G01*
X39123000Y-138480000D02*
X39123000Y-137110000D01*
G75*
G02*
X39313000Y-136920000I190000J0D01*
G01*
X39883000Y-136920000D01*
G75*
G02*
X40073000Y-137110000I0J-190000D01*
G01*
X40073000Y-138480000D01*
G75*
G02*
X39883000Y-138670000I-190000J0D01*
G01*
X39313000Y-138670000D01*
G75*
G02*
X39123000Y-138480000I0J190000D01*
G01*
G37*
%TD*%
%TO.C,D7*%
G36*
G01*
X40073000Y-134570000D02*
X40073000Y-135940000D01*
G75*
G02*
X39883000Y-136130000I-190000J0D01*
G01*
X39313000Y-136130000D01*
G75*
G02*
X39123000Y-135940000I0J190000D01*
G01*
X39123000Y-134570000D01*
G75*
G02*
X39313000Y-134380000I190000J0D01*
G01*
X39883000Y-134380000D01*
G75*
G02*
X40073000Y-134570000I0J-190000D01*
G01*
G37*
G36*
G01*
X43173000Y-134570000D02*
X43173000Y-135940000D01*
G75*
G02*
X42983000Y-136130000I-190000J0D01*
G01*
X42413000Y-136130000D01*
G75*
G02*
X42223000Y-135940000I0J190000D01*
G01*
X42223000Y-134570000D01*
G75*
G02*
X42413000Y-134380000I190000J0D01*
G01*
X42983000Y-134380000D01*
G75*
G02*
X43173000Y-134570000I0J-190000D01*
G01*
G37*
%TD*%
%TO.C,D6*%
G36*
G01*
X31047000Y-123240000D02*
X31047000Y-121870000D01*
G75*
G02*
X31237000Y-121680000I190000J0D01*
G01*
X31807000Y-121680000D01*
G75*
G02*
X31997000Y-121870000I0J-190000D01*
G01*
X31997000Y-123240000D01*
G75*
G02*
X31807000Y-123430000I-190000J0D01*
G01*
X31237000Y-123430000D01*
G75*
G02*
X31047000Y-123240000I0J190000D01*
G01*
G37*
G36*
G01*
X27947000Y-123240000D02*
X27947000Y-121870000D01*
G75*
G02*
X28137000Y-121680000I190000J0D01*
G01*
X28707000Y-121680000D01*
G75*
G02*
X28897000Y-121870000I0J-190000D01*
G01*
X28897000Y-123240000D01*
G75*
G02*
X28707000Y-123430000I-190000J0D01*
G01*
X28137000Y-123430000D01*
G75*
G02*
X27947000Y-123240000I0J190000D01*
G01*
G37*
%TD*%
%TO.C,D5*%
G36*
G01*
X28897000Y-119330000D02*
X28897000Y-120700000D01*
G75*
G02*
X28707000Y-120890000I-190000J0D01*
G01*
X28137000Y-120890000D01*
G75*
G02*
X27947000Y-120700000I0J190000D01*
G01*
X27947000Y-119330000D01*
G75*
G02*
X28137000Y-119140000I190000J0D01*
G01*
X28707000Y-119140000D01*
G75*
G02*
X28897000Y-119330000I0J-190000D01*
G01*
G37*
G36*
G01*
X31997000Y-119330000D02*
X31997000Y-120700000D01*
G75*
G02*
X31807000Y-120890000I-190000J0D01*
G01*
X31237000Y-120890000D01*
G75*
G02*
X31047000Y-120700000I0J190000D01*
G01*
X31047000Y-119330000D01*
G75*
G02*
X31237000Y-119140000I190000J0D01*
G01*
X31807000Y-119140000D01*
G75*
G02*
X31997000Y-119330000I0J-190000D01*
G01*
G37*
%TD*%
%TO.C,D4*%
G36*
G01*
X42223000Y-108000000D02*
X42223000Y-106630000D01*
G75*
G02*
X42413000Y-106440000I190000J0D01*
G01*
X42983000Y-106440000D01*
G75*
G02*
X43173000Y-106630000I0J-190000D01*
G01*
X43173000Y-108000000D01*
G75*
G02*
X42983000Y-108190000I-190000J0D01*
G01*
X42413000Y-108190000D01*
G75*
G02*
X42223000Y-108000000I0J190000D01*
G01*
G37*
G36*
G01*
X39123000Y-108000000D02*
X39123000Y-106630000D01*
G75*
G02*
X39313000Y-106440000I190000J0D01*
G01*
X39883000Y-106440000D01*
G75*
G02*
X40073000Y-106630000I0J-190000D01*
G01*
X40073000Y-108000000D01*
G75*
G02*
X39883000Y-108190000I-190000J0D01*
G01*
X39313000Y-108190000D01*
G75*
G02*
X39123000Y-108000000I0J190000D01*
G01*
G37*
%TD*%
%TO.C,D3*%
G36*
G01*
X40073000Y-104090000D02*
X40073000Y-105460000D01*
G75*
G02*
X39883000Y-105650000I-190000J0D01*
G01*
X39313000Y-105650000D01*
G75*
G02*
X39123000Y-105460000I0J190000D01*
G01*
X39123000Y-104090000D01*
G75*
G02*
X39313000Y-103900000I190000J0D01*
G01*
X39883000Y-103900000D01*
G75*
G02*
X40073000Y-104090000I0J-190000D01*
G01*
G37*
G36*
G01*
X43173000Y-104090000D02*
X43173000Y-105460000D01*
G75*
G02*
X42983000Y-105650000I-190000J0D01*
G01*
X42413000Y-105650000D01*
G75*
G02*
X42223000Y-105460000I0J190000D01*
G01*
X42223000Y-104090000D01*
G75*
G02*
X42413000Y-103900000I190000J0D01*
G01*
X42983000Y-103900000D01*
G75*
G02*
X43173000Y-104090000I0J-190000D01*
G01*
G37*
%TD*%
%TO.C,D2*%
G36*
G01*
X31047000Y-92760000D02*
X31047000Y-91390000D01*
G75*
G02*
X31237000Y-91200000I190000J0D01*
G01*
X31807000Y-91200000D01*
G75*
G02*
X31997000Y-91390000I0J-190000D01*
G01*
X31997000Y-92760000D01*
G75*
G02*
X31807000Y-92950000I-190000J0D01*
G01*
X31237000Y-92950000D01*
G75*
G02*
X31047000Y-92760000I0J190000D01*
G01*
G37*
G36*
G01*
X27947000Y-92760000D02*
X27947000Y-91390000D01*
G75*
G02*
X28137000Y-91200000I190000J0D01*
G01*
X28707000Y-91200000D01*
G75*
G02*
X28897000Y-91390000I0J-190000D01*
G01*
X28897000Y-92760000D01*
G75*
G02*
X28707000Y-92950000I-190000J0D01*
G01*
X28137000Y-92950000D01*
G75*
G02*
X27947000Y-92760000I0J190000D01*
G01*
G37*
%TD*%
%TO.C,D1*%
G36*
G01*
X28897000Y-88850000D02*
X28897000Y-90220000D01*
G75*
G02*
X28707000Y-90410000I-190000J0D01*
G01*
X28137000Y-90410000D01*
G75*
G02*
X27947000Y-90220000I0J190000D01*
G01*
X27947000Y-88850000D01*
G75*
G02*
X28137000Y-88660000I190000J0D01*
G01*
X28707000Y-88660000D01*
G75*
G02*
X28897000Y-88850000I0J-190000D01*
G01*
G37*
G36*
G01*
X31997000Y-88850000D02*
X31997000Y-90220000D01*
G75*
G02*
X31807000Y-90410000I-190000J0D01*
G01*
X31237000Y-90410000D01*
G75*
G02*
X31047000Y-90220000I0J190000D01*
G01*
X31047000Y-88850000D01*
G75*
G02*
X31237000Y-88660000I190000J0D01*
G01*
X31807000Y-88660000D01*
G75*
G02*
X31997000Y-88850000I0J-190000D01*
G01*
G37*
%TD*%
D10*
%TO.C,U2*%
X64150000Y-63307000D03*
X62850000Y-63307000D03*
X63500000Y-61407000D03*
X62850000Y-61407000D03*
X64150000Y-61407000D03*
%TD*%
D11*
%TO.C,J11*%
X36322000Y-110510000D03*
X36322000Y-115550000D03*
X38862000Y-110510000D03*
X38862000Y-115550000D03*
X41402000Y-110510000D03*
X41402000Y-115550000D03*
X43942000Y-110510000D03*
X43942000Y-115550000D03*
%TD*%
%TO.C,R29*%
G36*
G01*
X59746500Y-63243750D02*
X59746500Y-63756250D01*
G75*
G02*
X59527750Y-63975000I-218750J0D01*
G01*
X59090250Y-63975000D01*
G75*
G02*
X58871500Y-63756250I0J218750D01*
G01*
X58871500Y-63243750D01*
G75*
G02*
X59090250Y-63025000I218750J0D01*
G01*
X59527750Y-63025000D01*
G75*
G02*
X59746500Y-63243750I0J-218750D01*
G01*
G37*
G36*
G01*
X61321500Y-63243750D02*
X61321500Y-63756250D01*
G75*
G02*
X61102750Y-63975000I-218750J0D01*
G01*
X60665250Y-63975000D01*
G75*
G02*
X60446500Y-63756250I0J218750D01*
G01*
X60446500Y-63243750D01*
G75*
G02*
X60665250Y-63025000I218750J0D01*
G01*
X61102750Y-63025000D01*
G75*
G02*
X61321500Y-63243750I0J-218750D01*
G01*
G37*
%TD*%
%TO.C,U8*%
G36*
G01*
X54841000Y-86209000D02*
X55141000Y-86209000D01*
G75*
G02*
X55291000Y-86359000I0J-150000D01*
G01*
X55291000Y-88009000D01*
G75*
G02*
X55141000Y-88159000I-150000J0D01*
G01*
X54841000Y-88159000D01*
G75*
G02*
X54691000Y-88009000I0J150000D01*
G01*
X54691000Y-86359000D01*
G75*
G02*
X54841000Y-86209000I150000J0D01*
G01*
G37*
G36*
G01*
X53571000Y-86209000D02*
X53871000Y-86209000D01*
G75*
G02*
X54021000Y-86359000I0J-150000D01*
G01*
X54021000Y-88009000D01*
G75*
G02*
X53871000Y-88159000I-150000J0D01*
G01*
X53571000Y-88159000D01*
G75*
G02*
X53421000Y-88009000I0J150000D01*
G01*
X53421000Y-86359000D01*
G75*
G02*
X53571000Y-86209000I150000J0D01*
G01*
G37*
G36*
G01*
X52301000Y-86209000D02*
X52601000Y-86209000D01*
G75*
G02*
X52751000Y-86359000I0J-150000D01*
G01*
X52751000Y-88009000D01*
G75*
G02*
X52601000Y-88159000I-150000J0D01*
G01*
X52301000Y-88159000D01*
G75*
G02*
X52151000Y-88009000I0J150000D01*
G01*
X52151000Y-86359000D01*
G75*
G02*
X52301000Y-86209000I150000J0D01*
G01*
G37*
G36*
G01*
X51031000Y-86209000D02*
X51331000Y-86209000D01*
G75*
G02*
X51481000Y-86359000I0J-150000D01*
G01*
X51481000Y-88009000D01*
G75*
G02*
X51331000Y-88159000I-150000J0D01*
G01*
X51031000Y-88159000D01*
G75*
G02*
X50881000Y-88009000I0J150000D01*
G01*
X50881000Y-86359000D01*
G75*
G02*
X51031000Y-86209000I150000J0D01*
G01*
G37*
G36*
G01*
X51031000Y-81259000D02*
X51331000Y-81259000D01*
G75*
G02*
X51481000Y-81409000I0J-150000D01*
G01*
X51481000Y-83059000D01*
G75*
G02*
X51331000Y-83209000I-150000J0D01*
G01*
X51031000Y-83209000D01*
G75*
G02*
X50881000Y-83059000I0J150000D01*
G01*
X50881000Y-81409000D01*
G75*
G02*
X51031000Y-81259000I150000J0D01*
G01*
G37*
G36*
G01*
X52301000Y-81259000D02*
X52601000Y-81259000D01*
G75*
G02*
X52751000Y-81409000I0J-150000D01*
G01*
X52751000Y-83059000D01*
G75*
G02*
X52601000Y-83209000I-150000J0D01*
G01*
X52301000Y-83209000D01*
G75*
G02*
X52151000Y-83059000I0J150000D01*
G01*
X52151000Y-81409000D01*
G75*
G02*
X52301000Y-81259000I150000J0D01*
G01*
G37*
G36*
G01*
X53571000Y-81259000D02*
X53871000Y-81259000D01*
G75*
G02*
X54021000Y-81409000I0J-150000D01*
G01*
X54021000Y-83059000D01*
G75*
G02*
X53871000Y-83209000I-150000J0D01*
G01*
X53571000Y-83209000D01*
G75*
G02*
X53421000Y-83059000I0J150000D01*
G01*
X53421000Y-81409000D01*
G75*
G02*
X53571000Y-81259000I150000J0D01*
G01*
G37*
G36*
G01*
X54841000Y-81259000D02*
X55141000Y-81259000D01*
G75*
G02*
X55291000Y-81409000I0J-150000D01*
G01*
X55291000Y-83059000D01*
G75*
G02*
X55141000Y-83209000I-150000J0D01*
G01*
X54841000Y-83209000D01*
G75*
G02*
X54691000Y-83059000I0J150000D01*
G01*
X54691000Y-81409000D01*
G75*
G02*
X54841000Y-81259000I150000J0D01*
G01*
G37*
%TD*%
%TO.C,U7*%
G36*
G01*
X65255000Y-131929000D02*
X65555000Y-131929000D01*
G75*
G02*
X65705000Y-132079000I0J-150000D01*
G01*
X65705000Y-133729000D01*
G75*
G02*
X65555000Y-133879000I-150000J0D01*
G01*
X65255000Y-133879000D01*
G75*
G02*
X65105000Y-133729000I0J150000D01*
G01*
X65105000Y-132079000D01*
G75*
G02*
X65255000Y-131929000I150000J0D01*
G01*
G37*
G36*
G01*
X63985000Y-131929000D02*
X64285000Y-131929000D01*
G75*
G02*
X64435000Y-132079000I0J-150000D01*
G01*
X64435000Y-133729000D01*
G75*
G02*
X64285000Y-133879000I-150000J0D01*
G01*
X63985000Y-133879000D01*
G75*
G02*
X63835000Y-133729000I0J150000D01*
G01*
X63835000Y-132079000D01*
G75*
G02*
X63985000Y-131929000I150000J0D01*
G01*
G37*
G36*
G01*
X62715000Y-131929000D02*
X63015000Y-131929000D01*
G75*
G02*
X63165000Y-132079000I0J-150000D01*
G01*
X63165000Y-133729000D01*
G75*
G02*
X63015000Y-133879000I-150000J0D01*
G01*
X62715000Y-133879000D01*
G75*
G02*
X62565000Y-133729000I0J150000D01*
G01*
X62565000Y-132079000D01*
G75*
G02*
X62715000Y-131929000I150000J0D01*
G01*
G37*
G36*
G01*
X61445000Y-131929000D02*
X61745000Y-131929000D01*
G75*
G02*
X61895000Y-132079000I0J-150000D01*
G01*
X61895000Y-133729000D01*
G75*
G02*
X61745000Y-133879000I-150000J0D01*
G01*
X61445000Y-133879000D01*
G75*
G02*
X61295000Y-133729000I0J150000D01*
G01*
X61295000Y-132079000D01*
G75*
G02*
X61445000Y-131929000I150000J0D01*
G01*
G37*
G36*
G01*
X61445000Y-126979000D02*
X61745000Y-126979000D01*
G75*
G02*
X61895000Y-127129000I0J-150000D01*
G01*
X61895000Y-128779000D01*
G75*
G02*
X61745000Y-128929000I-150000J0D01*
G01*
X61445000Y-128929000D01*
G75*
G02*
X61295000Y-128779000I0J150000D01*
G01*
X61295000Y-127129000D01*
G75*
G02*
X61445000Y-126979000I150000J0D01*
G01*
G37*
G36*
G01*
X62715000Y-126979000D02*
X63015000Y-126979000D01*
G75*
G02*
X63165000Y-127129000I0J-150000D01*
G01*
X63165000Y-128779000D01*
G75*
G02*
X63015000Y-128929000I-150000J0D01*
G01*
X62715000Y-128929000D01*
G75*
G02*
X62565000Y-128779000I0J150000D01*
G01*
X62565000Y-127129000D01*
G75*
G02*
X62715000Y-126979000I150000J0D01*
G01*
G37*
G36*
G01*
X63985000Y-126979000D02*
X64285000Y-126979000D01*
G75*
G02*
X64435000Y-127129000I0J-150000D01*
G01*
X64435000Y-128779000D01*
G75*
G02*
X64285000Y-128929000I-150000J0D01*
G01*
X63985000Y-128929000D01*
G75*
G02*
X63835000Y-128779000I0J150000D01*
G01*
X63835000Y-127129000D01*
G75*
G02*
X63985000Y-126979000I150000J0D01*
G01*
G37*
G36*
G01*
X65255000Y-126979000D02*
X65555000Y-126979000D01*
G75*
G02*
X65705000Y-127129000I0J-150000D01*
G01*
X65705000Y-128779000D01*
G75*
G02*
X65555000Y-128929000I-150000J0D01*
G01*
X65255000Y-128929000D01*
G75*
G02*
X65105000Y-128779000I0J150000D01*
G01*
X65105000Y-127129000D01*
G75*
G02*
X65255000Y-126979000I150000J0D01*
G01*
G37*
%TD*%
%TO.C,U6*%
G36*
G01*
X55095000Y-116689000D02*
X55395000Y-116689000D01*
G75*
G02*
X55545000Y-116839000I0J-150000D01*
G01*
X55545000Y-118489000D01*
G75*
G02*
X55395000Y-118639000I-150000J0D01*
G01*
X55095000Y-118639000D01*
G75*
G02*
X54945000Y-118489000I0J150000D01*
G01*
X54945000Y-116839000D01*
G75*
G02*
X55095000Y-116689000I150000J0D01*
G01*
G37*
G36*
G01*
X53825000Y-116689000D02*
X54125000Y-116689000D01*
G75*
G02*
X54275000Y-116839000I0J-150000D01*
G01*
X54275000Y-118489000D01*
G75*
G02*
X54125000Y-118639000I-150000J0D01*
G01*
X53825000Y-118639000D01*
G75*
G02*
X53675000Y-118489000I0J150000D01*
G01*
X53675000Y-116839000D01*
G75*
G02*
X53825000Y-116689000I150000J0D01*
G01*
G37*
G36*
G01*
X52555000Y-116689000D02*
X52855000Y-116689000D01*
G75*
G02*
X53005000Y-116839000I0J-150000D01*
G01*
X53005000Y-118489000D01*
G75*
G02*
X52855000Y-118639000I-150000J0D01*
G01*
X52555000Y-118639000D01*
G75*
G02*
X52405000Y-118489000I0J150000D01*
G01*
X52405000Y-116839000D01*
G75*
G02*
X52555000Y-116689000I150000J0D01*
G01*
G37*
G36*
G01*
X51285000Y-116689000D02*
X51585000Y-116689000D01*
G75*
G02*
X51735000Y-116839000I0J-150000D01*
G01*
X51735000Y-118489000D01*
G75*
G02*
X51585000Y-118639000I-150000J0D01*
G01*
X51285000Y-118639000D01*
G75*
G02*
X51135000Y-118489000I0J150000D01*
G01*
X51135000Y-116839000D01*
G75*
G02*
X51285000Y-116689000I150000J0D01*
G01*
G37*
G36*
G01*
X51285000Y-111739000D02*
X51585000Y-111739000D01*
G75*
G02*
X51735000Y-111889000I0J-150000D01*
G01*
X51735000Y-113539000D01*
G75*
G02*
X51585000Y-113689000I-150000J0D01*
G01*
X51285000Y-113689000D01*
G75*
G02*
X51135000Y-113539000I0J150000D01*
G01*
X51135000Y-111889000D01*
G75*
G02*
X51285000Y-111739000I150000J0D01*
G01*
G37*
G36*
G01*
X52555000Y-111739000D02*
X52855000Y-111739000D01*
G75*
G02*
X53005000Y-111889000I0J-150000D01*
G01*
X53005000Y-113539000D01*
G75*
G02*
X52855000Y-113689000I-150000J0D01*
G01*
X52555000Y-113689000D01*
G75*
G02*
X52405000Y-113539000I0J150000D01*
G01*
X52405000Y-111889000D01*
G75*
G02*
X52555000Y-111739000I150000J0D01*
G01*
G37*
G36*
G01*
X53825000Y-111739000D02*
X54125000Y-111739000D01*
G75*
G02*
X54275000Y-111889000I0J-150000D01*
G01*
X54275000Y-113539000D01*
G75*
G02*
X54125000Y-113689000I-150000J0D01*
G01*
X53825000Y-113689000D01*
G75*
G02*
X53675000Y-113539000I0J150000D01*
G01*
X53675000Y-111889000D01*
G75*
G02*
X53825000Y-111739000I150000J0D01*
G01*
G37*
G36*
G01*
X55095000Y-111739000D02*
X55395000Y-111739000D01*
G75*
G02*
X55545000Y-111889000I0J-150000D01*
G01*
X55545000Y-113539000D01*
G75*
G02*
X55395000Y-113689000I-150000J0D01*
G01*
X55095000Y-113689000D01*
G75*
G02*
X54945000Y-113539000I0J150000D01*
G01*
X54945000Y-111889000D01*
G75*
G02*
X55095000Y-111739000I150000J0D01*
G01*
G37*
%TD*%
%TO.C,U5*%
G36*
G01*
X65255000Y-101449000D02*
X65555000Y-101449000D01*
G75*
G02*
X65705000Y-101599000I0J-150000D01*
G01*
X65705000Y-103249000D01*
G75*
G02*
X65555000Y-103399000I-150000J0D01*
G01*
X65255000Y-103399000D01*
G75*
G02*
X65105000Y-103249000I0J150000D01*
G01*
X65105000Y-101599000D01*
G75*
G02*
X65255000Y-101449000I150000J0D01*
G01*
G37*
G36*
G01*
X63985000Y-101449000D02*
X64285000Y-101449000D01*
G75*
G02*
X64435000Y-101599000I0J-150000D01*
G01*
X64435000Y-103249000D01*
G75*
G02*
X64285000Y-103399000I-150000J0D01*
G01*
X63985000Y-103399000D01*
G75*
G02*
X63835000Y-103249000I0J150000D01*
G01*
X63835000Y-101599000D01*
G75*
G02*
X63985000Y-101449000I150000J0D01*
G01*
G37*
G36*
G01*
X62715000Y-101449000D02*
X63015000Y-101449000D01*
G75*
G02*
X63165000Y-101599000I0J-150000D01*
G01*
X63165000Y-103249000D01*
G75*
G02*
X63015000Y-103399000I-150000J0D01*
G01*
X62715000Y-103399000D01*
G75*
G02*
X62565000Y-103249000I0J150000D01*
G01*
X62565000Y-101599000D01*
G75*
G02*
X62715000Y-101449000I150000J0D01*
G01*
G37*
G36*
G01*
X61445000Y-101449000D02*
X61745000Y-101449000D01*
G75*
G02*
X61895000Y-101599000I0J-150000D01*
G01*
X61895000Y-103249000D01*
G75*
G02*
X61745000Y-103399000I-150000J0D01*
G01*
X61445000Y-103399000D01*
G75*
G02*
X61295000Y-103249000I0J150000D01*
G01*
X61295000Y-101599000D01*
G75*
G02*
X61445000Y-101449000I150000J0D01*
G01*
G37*
G36*
G01*
X61445000Y-96499000D02*
X61745000Y-96499000D01*
G75*
G02*
X61895000Y-96649000I0J-150000D01*
G01*
X61895000Y-98299000D01*
G75*
G02*
X61745000Y-98449000I-150000J0D01*
G01*
X61445000Y-98449000D01*
G75*
G02*
X61295000Y-98299000I0J150000D01*
G01*
X61295000Y-96649000D01*
G75*
G02*
X61445000Y-96499000I150000J0D01*
G01*
G37*
G36*
G01*
X62715000Y-96499000D02*
X63015000Y-96499000D01*
G75*
G02*
X63165000Y-96649000I0J-150000D01*
G01*
X63165000Y-98299000D01*
G75*
G02*
X63015000Y-98449000I-150000J0D01*
G01*
X62715000Y-98449000D01*
G75*
G02*
X62565000Y-98299000I0J150000D01*
G01*
X62565000Y-96649000D01*
G75*
G02*
X62715000Y-96499000I150000J0D01*
G01*
G37*
G36*
G01*
X63985000Y-96499000D02*
X64285000Y-96499000D01*
G75*
G02*
X64435000Y-96649000I0J-150000D01*
G01*
X64435000Y-98299000D01*
G75*
G02*
X64285000Y-98449000I-150000J0D01*
G01*
X63985000Y-98449000D01*
G75*
G02*
X63835000Y-98299000I0J150000D01*
G01*
X63835000Y-96649000D01*
G75*
G02*
X63985000Y-96499000I150000J0D01*
G01*
G37*
G36*
G01*
X65255000Y-96499000D02*
X65555000Y-96499000D01*
G75*
G02*
X65705000Y-96649000I0J-150000D01*
G01*
X65705000Y-98299000D01*
G75*
G02*
X65555000Y-98449000I-150000J0D01*
G01*
X65255000Y-98449000D01*
G75*
G02*
X65105000Y-98299000I0J150000D01*
G01*
X65105000Y-96649000D01*
G75*
G02*
X65255000Y-96499000I150000J0D01*
G01*
G37*
%TD*%
D12*
%TO.C,U4*%
X64684000Y-75962000D03*
X64684000Y-76462000D03*
X64684000Y-76962000D03*
X64684000Y-77462000D03*
X64684000Y-77962000D03*
X60284000Y-77962000D03*
X60284000Y-77462000D03*
X60284000Y-76962000D03*
X60284000Y-76462000D03*
X60284000Y-75962000D03*
%TD*%
%TO.C,U3*%
G36*
G01*
X53825000Y-60809000D02*
X54125000Y-60809000D01*
G75*
G02*
X54275000Y-60959000I0J-150000D01*
G01*
X54275000Y-62609000D01*
G75*
G02*
X54125000Y-62759000I-150000J0D01*
G01*
X53825000Y-62759000D01*
G75*
G02*
X53675000Y-62609000I0J150000D01*
G01*
X53675000Y-60959000D01*
G75*
G02*
X53825000Y-60809000I150000J0D01*
G01*
G37*
G36*
G01*
X52555000Y-60809000D02*
X52855000Y-60809000D01*
G75*
G02*
X53005000Y-60959000I0J-150000D01*
G01*
X53005000Y-62609000D01*
G75*
G02*
X52855000Y-62759000I-150000J0D01*
G01*
X52555000Y-62759000D01*
G75*
G02*
X52405000Y-62609000I0J150000D01*
G01*
X52405000Y-60959000D01*
G75*
G02*
X52555000Y-60809000I150000J0D01*
G01*
G37*
G36*
G01*
X51285000Y-60809000D02*
X51585000Y-60809000D01*
G75*
G02*
X51735000Y-60959000I0J-150000D01*
G01*
X51735000Y-62609000D01*
G75*
G02*
X51585000Y-62759000I-150000J0D01*
G01*
X51285000Y-62759000D01*
G75*
G02*
X51135000Y-62609000I0J150000D01*
G01*
X51135000Y-60959000D01*
G75*
G02*
X51285000Y-60809000I150000J0D01*
G01*
G37*
G36*
G01*
X50015000Y-60809000D02*
X50315000Y-60809000D01*
G75*
G02*
X50465000Y-60959000I0J-150000D01*
G01*
X50465000Y-62609000D01*
G75*
G02*
X50315000Y-62759000I-150000J0D01*
G01*
X50015000Y-62759000D01*
G75*
G02*
X49865000Y-62609000I0J150000D01*
G01*
X49865000Y-60959000D01*
G75*
G02*
X50015000Y-60809000I150000J0D01*
G01*
G37*
G36*
G01*
X50015000Y-55859000D02*
X50315000Y-55859000D01*
G75*
G02*
X50465000Y-56009000I0J-150000D01*
G01*
X50465000Y-57659000D01*
G75*
G02*
X50315000Y-57809000I-150000J0D01*
G01*
X50015000Y-57809000D01*
G75*
G02*
X49865000Y-57659000I0J150000D01*
G01*
X49865000Y-56009000D01*
G75*
G02*
X50015000Y-55859000I150000J0D01*
G01*
G37*
G36*
G01*
X51285000Y-55859000D02*
X51585000Y-55859000D01*
G75*
G02*
X51735000Y-56009000I0J-150000D01*
G01*
X51735000Y-57659000D01*
G75*
G02*
X51585000Y-57809000I-150000J0D01*
G01*
X51285000Y-57809000D01*
G75*
G02*
X51135000Y-57659000I0J150000D01*
G01*
X51135000Y-56009000D01*
G75*
G02*
X51285000Y-55859000I150000J0D01*
G01*
G37*
G36*
G01*
X52555000Y-55859000D02*
X52855000Y-55859000D01*
G75*
G02*
X53005000Y-56009000I0J-150000D01*
G01*
X53005000Y-57659000D01*
G75*
G02*
X52855000Y-57809000I-150000J0D01*
G01*
X52555000Y-57809000D01*
G75*
G02*
X52405000Y-57659000I0J150000D01*
G01*
X52405000Y-56009000D01*
G75*
G02*
X52555000Y-55859000I150000J0D01*
G01*
G37*
G36*
G01*
X53825000Y-55859000D02*
X54125000Y-55859000D01*
G75*
G02*
X54275000Y-56009000I0J-150000D01*
G01*
X54275000Y-57659000D01*
G75*
G02*
X54125000Y-57809000I-150000J0D01*
G01*
X53825000Y-57809000D01*
G75*
G02*
X53675000Y-57659000I0J150000D01*
G01*
X53675000Y-56009000D01*
G75*
G02*
X53825000Y-55859000I150000J0D01*
G01*
G37*
%TD*%
D13*
%TO.C,U1*%
X58547000Y-87741000D03*
X57597000Y-85741000D03*
X59497000Y-85741000D03*
%TD*%
%TO.C,R28*%
G36*
G01*
X52194750Y-90774000D02*
X52707250Y-90774000D01*
G75*
G02*
X52926000Y-90992750I0J-218750D01*
G01*
X52926000Y-91430250D01*
G75*
G02*
X52707250Y-91649000I-218750J0D01*
G01*
X52194750Y-91649000D01*
G75*
G02*
X51976000Y-91430250I0J218750D01*
G01*
X51976000Y-90992750D01*
G75*
G02*
X52194750Y-90774000I218750J0D01*
G01*
G37*
G36*
G01*
X52194750Y-89199000D02*
X52707250Y-89199000D01*
G75*
G02*
X52926000Y-89417750I0J-218750D01*
G01*
X52926000Y-89855250D01*
G75*
G02*
X52707250Y-90074000I-218750J0D01*
G01*
X52194750Y-90074000D01*
G75*
G02*
X51976000Y-89855250I0J218750D01*
G01*
X51976000Y-89417750D01*
G75*
G02*
X52194750Y-89199000I218750J0D01*
G01*
G37*
%TD*%
%TO.C,R27*%
G36*
G01*
X67312250Y-127844000D02*
X66799750Y-127844000D01*
G75*
G02*
X66581000Y-127625250I0J218750D01*
G01*
X66581000Y-127187750D01*
G75*
G02*
X66799750Y-126969000I218750J0D01*
G01*
X67312250Y-126969000D01*
G75*
G02*
X67531000Y-127187750I0J-218750D01*
G01*
X67531000Y-127625250D01*
G75*
G02*
X67312250Y-127844000I-218750J0D01*
G01*
G37*
G36*
G01*
X67312250Y-126269000D02*
X66799750Y-126269000D01*
G75*
G02*
X66581000Y-126050250I0J218750D01*
G01*
X66581000Y-125612750D01*
G75*
G02*
X66799750Y-125394000I218750J0D01*
G01*
X67312250Y-125394000D01*
G75*
G02*
X67531000Y-125612750I0J-218750D01*
G01*
X67531000Y-126050250D01*
G75*
G02*
X67312250Y-126269000I-218750J0D01*
G01*
G37*
%TD*%
%TO.C,R26*%
G36*
G01*
X63469000Y-118874250D02*
X63469000Y-118361750D01*
G75*
G02*
X63687750Y-118143000I218750J0D01*
G01*
X64125250Y-118143000D01*
G75*
G02*
X64344000Y-118361750I0J-218750D01*
G01*
X64344000Y-118874250D01*
G75*
G02*
X64125250Y-119093000I-218750J0D01*
G01*
X63687750Y-119093000D01*
G75*
G02*
X63469000Y-118874250I0J218750D01*
G01*
G37*
G36*
G01*
X61894000Y-118874250D02*
X61894000Y-118361750D01*
G75*
G02*
X62112750Y-118143000I218750J0D01*
G01*
X62550250Y-118143000D01*
G75*
G02*
X62769000Y-118361750I0J-218750D01*
G01*
X62769000Y-118874250D01*
G75*
G02*
X62550250Y-119093000I-218750J0D01*
G01*
X62112750Y-119093000D01*
G75*
G02*
X61894000Y-118874250I0J218750D01*
G01*
G37*
%TD*%
%TO.C,R25*%
G36*
G01*
X54514000Y-103756750D02*
X54514000Y-104269250D01*
G75*
G02*
X54295250Y-104488000I-218750J0D01*
G01*
X53857750Y-104488000D01*
G75*
G02*
X53639000Y-104269250I0J218750D01*
G01*
X53639000Y-103756750D01*
G75*
G02*
X53857750Y-103538000I218750J0D01*
G01*
X54295250Y-103538000D01*
G75*
G02*
X54514000Y-103756750I0J-218750D01*
G01*
G37*
G36*
G01*
X56089000Y-103756750D02*
X56089000Y-104269250D01*
G75*
G02*
X55870250Y-104488000I-218750J0D01*
G01*
X55432750Y-104488000D01*
G75*
G02*
X55214000Y-104269250I0J218750D01*
G01*
X55214000Y-103756750D01*
G75*
G02*
X55432750Y-103538000I218750J0D01*
G01*
X55870250Y-103538000D01*
G75*
G02*
X56089000Y-103756750I0J-218750D01*
G01*
G37*
%TD*%
%TO.C,R24*%
G36*
G01*
X67566250Y-87153000D02*
X67053750Y-87153000D01*
G75*
G02*
X66835000Y-86934250I0J218750D01*
G01*
X66835000Y-86496750D01*
G75*
G02*
X67053750Y-86278000I218750J0D01*
G01*
X67566250Y-86278000D01*
G75*
G02*
X67785000Y-86496750I0J-218750D01*
G01*
X67785000Y-86934250D01*
G75*
G02*
X67566250Y-87153000I-218750J0D01*
G01*
G37*
G36*
G01*
X67566250Y-88728000D02*
X67053750Y-88728000D01*
G75*
G02*
X66835000Y-88509250I0J218750D01*
G01*
X66835000Y-88071750D01*
G75*
G02*
X67053750Y-87853000I218750J0D01*
G01*
X67566250Y-87853000D01*
G75*
G02*
X67785000Y-88071750I0J-218750D01*
G01*
X67785000Y-88509250D01*
G75*
G02*
X67566250Y-88728000I-218750J0D01*
G01*
G37*
%TD*%
%TO.C,R23*%
G36*
G01*
X67058250Y-136556000D02*
X66545750Y-136556000D01*
G75*
G02*
X66327000Y-136337250I0J218750D01*
G01*
X66327000Y-135899750D01*
G75*
G02*
X66545750Y-135681000I218750J0D01*
G01*
X67058250Y-135681000D01*
G75*
G02*
X67277000Y-135899750I0J-218750D01*
G01*
X67277000Y-136337250D01*
G75*
G02*
X67058250Y-136556000I-218750J0D01*
G01*
G37*
G36*
G01*
X67058250Y-138131000D02*
X66545750Y-138131000D01*
G75*
G02*
X66327000Y-137912250I0J218750D01*
G01*
X66327000Y-137474750D01*
G75*
G02*
X66545750Y-137256000I218750J0D01*
G01*
X67058250Y-137256000D01*
G75*
G02*
X67277000Y-137474750I0J-218750D01*
G01*
X67277000Y-137912250D01*
G75*
G02*
X67058250Y-138131000I-218750J0D01*
G01*
G37*
%TD*%
%TO.C,R22*%
G36*
G01*
X66071000Y-118361750D02*
X66071000Y-118874250D01*
G75*
G02*
X65852250Y-119093000I-218750J0D01*
G01*
X65414750Y-119093000D01*
G75*
G02*
X65196000Y-118874250I0J218750D01*
G01*
X65196000Y-118361750D01*
G75*
G02*
X65414750Y-118143000I218750J0D01*
G01*
X65852250Y-118143000D01*
G75*
G02*
X66071000Y-118361750I0J-218750D01*
G01*
G37*
G36*
G01*
X67646000Y-118361750D02*
X67646000Y-118874250D01*
G75*
G02*
X67427250Y-119093000I-218750J0D01*
G01*
X66989750Y-119093000D01*
G75*
G02*
X66771000Y-118874250I0J218750D01*
G01*
X66771000Y-118361750D01*
G75*
G02*
X66989750Y-118143000I218750J0D01*
G01*
X67427250Y-118143000D01*
G75*
G02*
X67646000Y-118361750I0J-218750D01*
G01*
G37*
%TD*%
%TO.C,R21*%
G36*
G01*
X53563000Y-106301250D02*
X53563000Y-105788750D01*
G75*
G02*
X53781750Y-105570000I218750J0D01*
G01*
X54219250Y-105570000D01*
G75*
G02*
X54438000Y-105788750I0J-218750D01*
G01*
X54438000Y-106301250D01*
G75*
G02*
X54219250Y-106520000I-218750J0D01*
G01*
X53781750Y-106520000D01*
G75*
G02*
X53563000Y-106301250I0J218750D01*
G01*
G37*
G36*
G01*
X51988000Y-106301250D02*
X51988000Y-105788750D01*
G75*
G02*
X52206750Y-105570000I218750J0D01*
G01*
X52644250Y-105570000D01*
G75*
G02*
X52863000Y-105788750I0J-218750D01*
G01*
X52863000Y-106301250D01*
G75*
G02*
X52644250Y-106520000I-218750J0D01*
G01*
X52206750Y-106520000D01*
G75*
G02*
X51988000Y-106301250I0J218750D01*
G01*
G37*
%TD*%
%TO.C,R20*%
G36*
G01*
X53845750Y-79217000D02*
X54358250Y-79217000D01*
G75*
G02*
X54577000Y-79435750I0J-218750D01*
G01*
X54577000Y-79873250D01*
G75*
G02*
X54358250Y-80092000I-218750J0D01*
G01*
X53845750Y-80092000D01*
G75*
G02*
X53627000Y-79873250I0J218750D01*
G01*
X53627000Y-79435750D01*
G75*
G02*
X53845750Y-79217000I218750J0D01*
G01*
G37*
G36*
G01*
X53845750Y-77642000D02*
X54358250Y-77642000D01*
G75*
G02*
X54577000Y-77860750I0J-218750D01*
G01*
X54577000Y-78298250D01*
G75*
G02*
X54358250Y-78517000I-218750J0D01*
G01*
X53845750Y-78517000D01*
G75*
G02*
X53627000Y-78298250I0J218750D01*
G01*
X53627000Y-77860750D01*
G75*
G02*
X53845750Y-77642000I218750J0D01*
G01*
G37*
%TD*%
%TO.C,R19*%
G36*
G01*
X64039000Y-125219750D02*
X64039000Y-125732250D01*
G75*
G02*
X63820250Y-125951000I-218750J0D01*
G01*
X63382750Y-125951000D01*
G75*
G02*
X63164000Y-125732250I0J218750D01*
G01*
X63164000Y-125219750D01*
G75*
G02*
X63382750Y-125001000I218750J0D01*
G01*
X63820250Y-125001000D01*
G75*
G02*
X64039000Y-125219750I0J-218750D01*
G01*
G37*
G36*
G01*
X65614000Y-125219750D02*
X65614000Y-125732250D01*
G75*
G02*
X65395250Y-125951000I-218750J0D01*
G01*
X64957750Y-125951000D01*
G75*
G02*
X64739000Y-125732250I0J218750D01*
G01*
X64739000Y-125219750D01*
G75*
G02*
X64957750Y-125001000I218750J0D01*
G01*
X65395250Y-125001000D01*
G75*
G02*
X65614000Y-125219750I0J-218750D01*
G01*
G37*
%TD*%
%TO.C,R18*%
G36*
G01*
X52990000Y-108328750D02*
X52990000Y-108841250D01*
G75*
G02*
X52771250Y-109060000I-218750J0D01*
G01*
X52333750Y-109060000D01*
G75*
G02*
X52115000Y-108841250I0J218750D01*
G01*
X52115000Y-108328750D01*
G75*
G02*
X52333750Y-108110000I218750J0D01*
G01*
X52771250Y-108110000D01*
G75*
G02*
X52990000Y-108328750I0J-218750D01*
G01*
G37*
G36*
G01*
X54565000Y-108328750D02*
X54565000Y-108841250D01*
G75*
G02*
X54346250Y-109060000I-218750J0D01*
G01*
X53908750Y-109060000D01*
G75*
G02*
X53690000Y-108841250I0J218750D01*
G01*
X53690000Y-108328750D01*
G75*
G02*
X53908750Y-108110000I218750J0D01*
G01*
X54346250Y-108110000D01*
G75*
G02*
X54565000Y-108328750I0J-218750D01*
G01*
G37*
%TD*%
%TO.C,R17*%
G36*
G01*
X63785000Y-94612750D02*
X63785000Y-95125250D01*
G75*
G02*
X63566250Y-95344000I-218750J0D01*
G01*
X63128750Y-95344000D01*
G75*
G02*
X62910000Y-95125250I0J218750D01*
G01*
X62910000Y-94612750D01*
G75*
G02*
X63128750Y-94394000I218750J0D01*
G01*
X63566250Y-94394000D01*
G75*
G02*
X63785000Y-94612750I0J-218750D01*
G01*
G37*
G36*
G01*
X65360000Y-94612750D02*
X65360000Y-95125250D01*
G75*
G02*
X65141250Y-95344000I-218750J0D01*
G01*
X64703750Y-95344000D01*
G75*
G02*
X64485000Y-95125250I0J218750D01*
G01*
X64485000Y-94612750D01*
G75*
G02*
X64703750Y-94394000I218750J0D01*
G01*
X65141250Y-94394000D01*
G75*
G02*
X65360000Y-94612750I0J-218750D01*
G01*
G37*
%TD*%
%TO.C,R16*%
G36*
G01*
X55849000Y-75694250D02*
X55849000Y-75181750D01*
G75*
G02*
X56067750Y-74963000I218750J0D01*
G01*
X56505250Y-74963000D01*
G75*
G02*
X56724000Y-75181750I0J-218750D01*
G01*
X56724000Y-75694250D01*
G75*
G02*
X56505250Y-75913000I-218750J0D01*
G01*
X56067750Y-75913000D01*
G75*
G02*
X55849000Y-75694250I0J218750D01*
G01*
G37*
G36*
G01*
X54274000Y-75694250D02*
X54274000Y-75181750D01*
G75*
G02*
X54492750Y-74963000I218750J0D01*
G01*
X54930250Y-74963000D01*
G75*
G02*
X55149000Y-75181750I0J-218750D01*
G01*
X55149000Y-75694250D01*
G75*
G02*
X54930250Y-75913000I-218750J0D01*
G01*
X54492750Y-75913000D01*
G75*
G02*
X54274000Y-75694250I0J218750D01*
G01*
G37*
%TD*%
%TO.C,R15*%
G36*
G01*
X64739000Y-122557250D02*
X64739000Y-122044750D01*
G75*
G02*
X64957750Y-121826000I218750J0D01*
G01*
X65395250Y-121826000D01*
G75*
G02*
X65614000Y-122044750I0J-218750D01*
G01*
X65614000Y-122557250D01*
G75*
G02*
X65395250Y-122776000I-218750J0D01*
G01*
X64957750Y-122776000D01*
G75*
G02*
X64739000Y-122557250I0J218750D01*
G01*
G37*
G36*
G01*
X63164000Y-122557250D02*
X63164000Y-122044750D01*
G75*
G02*
X63382750Y-121826000I218750J0D01*
G01*
X63820250Y-121826000D01*
G75*
G02*
X64039000Y-122044750I0J-218750D01*
G01*
X64039000Y-122557250D01*
G75*
G02*
X63820250Y-122776000I-218750J0D01*
G01*
X63382750Y-122776000D01*
G75*
G02*
X63164000Y-122557250I0J218750D01*
G01*
G37*
%TD*%
%TO.C,R14*%
G36*
G01*
X51945250Y-102012000D02*
X51432750Y-102012000D01*
G75*
G02*
X51214000Y-101793250I0J218750D01*
G01*
X51214000Y-101355750D01*
G75*
G02*
X51432750Y-101137000I218750J0D01*
G01*
X51945250Y-101137000D01*
G75*
G02*
X52164000Y-101355750I0J-218750D01*
G01*
X52164000Y-101793250D01*
G75*
G02*
X51945250Y-102012000I-218750J0D01*
G01*
G37*
G36*
G01*
X51945250Y-103587000D02*
X51432750Y-103587000D01*
G75*
G02*
X51214000Y-103368250I0J218750D01*
G01*
X51214000Y-102930750D01*
G75*
G02*
X51432750Y-102712000I218750J0D01*
G01*
X51945250Y-102712000D01*
G75*
G02*
X52164000Y-102930750I0J-218750D01*
G01*
X52164000Y-103368250D01*
G75*
G02*
X51945250Y-103587000I-218750J0D01*
G01*
G37*
%TD*%
%TO.C,R13*%
G36*
G01*
X63502250Y-90582000D02*
X62989750Y-90582000D01*
G75*
G02*
X62771000Y-90363250I0J218750D01*
G01*
X62771000Y-89925750D01*
G75*
G02*
X62989750Y-89707000I218750J0D01*
G01*
X63502250Y-89707000D01*
G75*
G02*
X63721000Y-89925750I0J-218750D01*
G01*
X63721000Y-90363250D01*
G75*
G02*
X63502250Y-90582000I-218750J0D01*
G01*
G37*
G36*
G01*
X63502250Y-92157000D02*
X62989750Y-92157000D01*
G75*
G02*
X62771000Y-91938250I0J218750D01*
G01*
X62771000Y-91500750D01*
G75*
G02*
X62989750Y-91282000I218750J0D01*
G01*
X63502250Y-91282000D01*
G75*
G02*
X63721000Y-91500750I0J-218750D01*
G01*
X63721000Y-91938250D01*
G75*
G02*
X63502250Y-92157000I-218750J0D01*
G01*
G37*
%TD*%
%TO.C,R12*%
G36*
G01*
X67053750Y-74518000D02*
X67566250Y-74518000D01*
G75*
G02*
X67785000Y-74736750I0J-218750D01*
G01*
X67785000Y-75174250D01*
G75*
G02*
X67566250Y-75393000I-218750J0D01*
G01*
X67053750Y-75393000D01*
G75*
G02*
X66835000Y-75174250I0J218750D01*
G01*
X66835000Y-74736750D01*
G75*
G02*
X67053750Y-74518000I218750J0D01*
G01*
G37*
G36*
G01*
X67053750Y-72943000D02*
X67566250Y-72943000D01*
G75*
G02*
X67785000Y-73161750I0J-218750D01*
G01*
X67785000Y-73599250D01*
G75*
G02*
X67566250Y-73818000I-218750J0D01*
G01*
X67053750Y-73818000D01*
G75*
G02*
X66835000Y-73599250I0J218750D01*
G01*
X66835000Y-73161750D01*
G75*
G02*
X67053750Y-72943000I218750J0D01*
G01*
G37*
%TD*%
%TO.C,R11*%
G36*
G01*
X66037750Y-69438000D02*
X66550250Y-69438000D01*
G75*
G02*
X66769000Y-69656750I0J-218750D01*
G01*
X66769000Y-70094250D01*
G75*
G02*
X66550250Y-70313000I-218750J0D01*
G01*
X66037750Y-70313000D01*
G75*
G02*
X65819000Y-70094250I0J218750D01*
G01*
X65819000Y-69656750D01*
G75*
G02*
X66037750Y-69438000I218750J0D01*
G01*
G37*
G36*
G01*
X66037750Y-67863000D02*
X66550250Y-67863000D01*
G75*
G02*
X66769000Y-68081750I0J-218750D01*
G01*
X66769000Y-68519250D01*
G75*
G02*
X66550250Y-68738000I-218750J0D01*
G01*
X66037750Y-68738000D01*
G75*
G02*
X65819000Y-68519250I0J218750D01*
G01*
X65819000Y-68081750D01*
G75*
G02*
X66037750Y-67863000I218750J0D01*
G01*
G37*
%TD*%
%TO.C,R10*%
G36*
G01*
X60195750Y-42514000D02*
X60708250Y-42514000D01*
G75*
G02*
X60927000Y-42732750I0J-218750D01*
G01*
X60927000Y-43170250D01*
G75*
G02*
X60708250Y-43389000I-218750J0D01*
G01*
X60195750Y-43389000D01*
G75*
G02*
X59977000Y-43170250I0J218750D01*
G01*
X59977000Y-42732750D01*
G75*
G02*
X60195750Y-42514000I218750J0D01*
G01*
G37*
G36*
G01*
X60195750Y-40939000D02*
X60708250Y-40939000D01*
G75*
G02*
X60927000Y-41157750I0J-218750D01*
G01*
X60927000Y-41595250D01*
G75*
G02*
X60708250Y-41814000I-218750J0D01*
G01*
X60195750Y-41814000D01*
G75*
G02*
X59977000Y-41595250I0J218750D01*
G01*
X59977000Y-41157750D01*
G75*
G02*
X60195750Y-40939000I218750J0D01*
G01*
G37*
%TD*%
%TO.C,R9*%
G36*
G01*
X59620000Y-54861750D02*
X59620000Y-55374250D01*
G75*
G02*
X59401250Y-55593000I-218750J0D01*
G01*
X58963750Y-55593000D01*
G75*
G02*
X58745000Y-55374250I0J218750D01*
G01*
X58745000Y-54861750D01*
G75*
G02*
X58963750Y-54643000I218750J0D01*
G01*
X59401250Y-54643000D01*
G75*
G02*
X59620000Y-54861750I0J-218750D01*
G01*
G37*
G36*
G01*
X61195000Y-54861750D02*
X61195000Y-55374250D01*
G75*
G02*
X60976250Y-55593000I-218750J0D01*
G01*
X60538750Y-55593000D01*
G75*
G02*
X60320000Y-55374250I0J218750D01*
G01*
X60320000Y-54861750D01*
G75*
G02*
X60538750Y-54643000I218750J0D01*
G01*
X60976250Y-54643000D01*
G75*
G02*
X61195000Y-54861750I0J-218750D01*
G01*
G37*
%TD*%
%TO.C,R8*%
G36*
G01*
X60708250Y-49434000D02*
X60195750Y-49434000D01*
G75*
G02*
X59977000Y-49215250I0J218750D01*
G01*
X59977000Y-48777750D01*
G75*
G02*
X60195750Y-48559000I218750J0D01*
G01*
X60708250Y-48559000D01*
G75*
G02*
X60927000Y-48777750I0J-218750D01*
G01*
X60927000Y-49215250D01*
G75*
G02*
X60708250Y-49434000I-218750J0D01*
G01*
G37*
G36*
G01*
X60708250Y-51009000D02*
X60195750Y-51009000D01*
G75*
G02*
X59977000Y-50790250I0J218750D01*
G01*
X59977000Y-50352750D01*
G75*
G02*
X60195750Y-50134000I218750J0D01*
G01*
X60708250Y-50134000D01*
G75*
G02*
X60927000Y-50352750I0J-218750D01*
G01*
X60927000Y-50790250D01*
G75*
G02*
X60708250Y-51009000I-218750J0D01*
G01*
G37*
%TD*%
%TO.C,R7*%
G36*
G01*
X59184250Y-41814000D02*
X58671750Y-41814000D01*
G75*
G02*
X58453000Y-41595250I0J218750D01*
G01*
X58453000Y-41157750D01*
G75*
G02*
X58671750Y-40939000I218750J0D01*
G01*
X59184250Y-40939000D01*
G75*
G02*
X59403000Y-41157750I0J-218750D01*
G01*
X59403000Y-41595250D01*
G75*
G02*
X59184250Y-41814000I-218750J0D01*
G01*
G37*
G36*
G01*
X59184250Y-43389000D02*
X58671750Y-43389000D01*
G75*
G02*
X58453000Y-43170250I0J218750D01*
G01*
X58453000Y-42732750D01*
G75*
G02*
X58671750Y-42514000I218750J0D01*
G01*
X59184250Y-42514000D01*
G75*
G02*
X59403000Y-42732750I0J-218750D01*
G01*
X59403000Y-43170250D01*
G75*
G02*
X59184250Y-43389000I-218750J0D01*
G01*
G37*
%TD*%
%TO.C,R6*%
G36*
G01*
X53690000Y-64137250D02*
X53690000Y-63624750D01*
G75*
G02*
X53908750Y-63406000I218750J0D01*
G01*
X54346250Y-63406000D01*
G75*
G02*
X54565000Y-63624750I0J-218750D01*
G01*
X54565000Y-64137250D01*
G75*
G02*
X54346250Y-64356000I-218750J0D01*
G01*
X53908750Y-64356000D01*
G75*
G02*
X53690000Y-64137250I0J218750D01*
G01*
G37*
G36*
G01*
X52115000Y-64137250D02*
X52115000Y-63624750D01*
G75*
G02*
X52333750Y-63406000I218750J0D01*
G01*
X52771250Y-63406000D01*
G75*
G02*
X52990000Y-63624750I0J-218750D01*
G01*
X52990000Y-64137250D01*
G75*
G02*
X52771250Y-64356000I-218750J0D01*
G01*
X52333750Y-64356000D01*
G75*
G02*
X52115000Y-64137250I0J218750D01*
G01*
G37*
%TD*%
%TO.C,R5*%
G36*
G01*
X56893750Y-78582000D02*
X57406250Y-78582000D01*
G75*
G02*
X57625000Y-78800750I0J-218750D01*
G01*
X57625000Y-79238250D01*
G75*
G02*
X57406250Y-79457000I-218750J0D01*
G01*
X56893750Y-79457000D01*
G75*
G02*
X56675000Y-79238250I0J218750D01*
G01*
X56675000Y-78800750D01*
G75*
G02*
X56893750Y-78582000I218750J0D01*
G01*
G37*
G36*
G01*
X56893750Y-77007000D02*
X57406250Y-77007000D01*
G75*
G02*
X57625000Y-77225750I0J-218750D01*
G01*
X57625000Y-77663250D01*
G75*
G02*
X57406250Y-77882000I-218750J0D01*
G01*
X56893750Y-77882000D01*
G75*
G02*
X56675000Y-77663250I0J218750D01*
G01*
X56675000Y-77225750D01*
G75*
G02*
X56893750Y-77007000I218750J0D01*
G01*
G37*
%TD*%
%TO.C,R4*%
G36*
G01*
X58897000Y-82679250D02*
X58897000Y-82166750D01*
G75*
G02*
X59115750Y-81948000I218750J0D01*
G01*
X59553250Y-81948000D01*
G75*
G02*
X59772000Y-82166750I0J-218750D01*
G01*
X59772000Y-82679250D01*
G75*
G02*
X59553250Y-82898000I-218750J0D01*
G01*
X59115750Y-82898000D01*
G75*
G02*
X58897000Y-82679250I0J218750D01*
G01*
G37*
G36*
G01*
X57322000Y-82679250D02*
X57322000Y-82166750D01*
G75*
G02*
X57540750Y-81948000I218750J0D01*
G01*
X57978250Y-81948000D01*
G75*
G02*
X58197000Y-82166750I0J-218750D01*
G01*
X58197000Y-82679250D01*
G75*
G02*
X57978250Y-82898000I-218750J0D01*
G01*
X57540750Y-82898000D01*
G75*
G02*
X57322000Y-82679250I0J218750D01*
G01*
G37*
%TD*%
%TO.C,R3*%
G36*
G01*
X51466000Y-52575750D02*
X51466000Y-53088250D01*
G75*
G02*
X51247250Y-53307000I-218750J0D01*
G01*
X50809750Y-53307000D01*
G75*
G02*
X50591000Y-53088250I0J218750D01*
G01*
X50591000Y-52575750D01*
G75*
G02*
X50809750Y-52357000I218750J0D01*
G01*
X51247250Y-52357000D01*
G75*
G02*
X51466000Y-52575750I0J-218750D01*
G01*
G37*
G36*
G01*
X53041000Y-52575750D02*
X53041000Y-53088250D01*
G75*
G02*
X52822250Y-53307000I-218750J0D01*
G01*
X52384750Y-53307000D01*
G75*
G02*
X52166000Y-53088250I0J218750D01*
G01*
X52166000Y-52575750D01*
G75*
G02*
X52384750Y-52357000I218750J0D01*
G01*
X52822250Y-52357000D01*
G75*
G02*
X53041000Y-52575750I0J-218750D01*
G01*
G37*
%TD*%
%TO.C,R2*%
G36*
G01*
X53182000Y-54866250D02*
X53182000Y-54353750D01*
G75*
G02*
X53400750Y-54135000I218750J0D01*
G01*
X53838250Y-54135000D01*
G75*
G02*
X54057000Y-54353750I0J-218750D01*
G01*
X54057000Y-54866250D01*
G75*
G02*
X53838250Y-55085000I-218750J0D01*
G01*
X53400750Y-55085000D01*
G75*
G02*
X53182000Y-54866250I0J218750D01*
G01*
G37*
G36*
G01*
X51607000Y-54866250D02*
X51607000Y-54353750D01*
G75*
G02*
X51825750Y-54135000I218750J0D01*
G01*
X52263250Y-54135000D01*
G75*
G02*
X52482000Y-54353750I0J-218750D01*
G01*
X52482000Y-54866250D01*
G75*
G02*
X52263250Y-55085000I-218750J0D01*
G01*
X51825750Y-55085000D01*
G75*
G02*
X51607000Y-54866250I0J218750D01*
G01*
G37*
%TD*%
%TO.C,R1*%
G36*
G01*
X61470250Y-86137000D02*
X60957750Y-86137000D01*
G75*
G02*
X60739000Y-85918250I0J218750D01*
G01*
X60739000Y-85480750D01*
G75*
G02*
X60957750Y-85262000I218750J0D01*
G01*
X61470250Y-85262000D01*
G75*
G02*
X61689000Y-85480750I0J-218750D01*
G01*
X61689000Y-85918250D01*
G75*
G02*
X61470250Y-86137000I-218750J0D01*
G01*
G37*
G36*
G01*
X61470250Y-87712000D02*
X60957750Y-87712000D01*
G75*
G02*
X60739000Y-87493250I0J218750D01*
G01*
X60739000Y-87055750D01*
G75*
G02*
X60957750Y-86837000I218750J0D01*
G01*
X61470250Y-86837000D01*
G75*
G02*
X61689000Y-87055750I0J-218750D01*
G01*
X61689000Y-87493250D01*
G75*
G02*
X61470250Y-87712000I-218750J0D01*
G01*
G37*
%TD*%
%TO.C,C13*%
G36*
G01*
X52321750Y-79217000D02*
X52834250Y-79217000D01*
G75*
G02*
X53053000Y-79435750I0J-218750D01*
G01*
X53053000Y-79873250D01*
G75*
G02*
X52834250Y-80092000I-218750J0D01*
G01*
X52321750Y-80092000D01*
G75*
G02*
X52103000Y-79873250I0J218750D01*
G01*
X52103000Y-79435750D01*
G75*
G02*
X52321750Y-79217000I218750J0D01*
G01*
G37*
G36*
G01*
X52321750Y-77642000D02*
X52834250Y-77642000D01*
G75*
G02*
X53053000Y-77860750I0J-218750D01*
G01*
X53053000Y-78298250D01*
G75*
G02*
X52834250Y-78517000I-218750J0D01*
G01*
X52321750Y-78517000D01*
G75*
G02*
X52103000Y-78298250I0J218750D01*
G01*
X52103000Y-77860750D01*
G75*
G02*
X52321750Y-77642000I218750J0D01*
G01*
G37*
%TD*%
%TO.C,C12*%
G36*
G01*
X64039000Y-123695750D02*
X64039000Y-124208250D01*
G75*
G02*
X63820250Y-124427000I-218750J0D01*
G01*
X63382750Y-124427000D01*
G75*
G02*
X63164000Y-124208250I0J218750D01*
G01*
X63164000Y-123695750D01*
G75*
G02*
X63382750Y-123477000I218750J0D01*
G01*
X63820250Y-123477000D01*
G75*
G02*
X64039000Y-123695750I0J-218750D01*
G01*
G37*
G36*
G01*
X65614000Y-123695750D02*
X65614000Y-124208250D01*
G75*
G02*
X65395250Y-124427000I-218750J0D01*
G01*
X64957750Y-124427000D01*
G75*
G02*
X64739000Y-124208250I0J218750D01*
G01*
X64739000Y-123695750D01*
G75*
G02*
X64957750Y-123477000I218750J0D01*
G01*
X65395250Y-123477000D01*
G75*
G02*
X65614000Y-123695750I0J-218750D01*
G01*
G37*
%TD*%
%TO.C,C11*%
G36*
G01*
X52990000Y-109852750D02*
X52990000Y-110365250D01*
G75*
G02*
X52771250Y-110584000I-218750J0D01*
G01*
X52333750Y-110584000D01*
G75*
G02*
X52115000Y-110365250I0J218750D01*
G01*
X52115000Y-109852750D01*
G75*
G02*
X52333750Y-109634000I218750J0D01*
G01*
X52771250Y-109634000D01*
G75*
G02*
X52990000Y-109852750I0J-218750D01*
G01*
G37*
G36*
G01*
X54565000Y-109852750D02*
X54565000Y-110365250D01*
G75*
G02*
X54346250Y-110584000I-218750J0D01*
G01*
X53908750Y-110584000D01*
G75*
G02*
X53690000Y-110365250I0J218750D01*
G01*
X53690000Y-109852750D01*
G75*
G02*
X53908750Y-109634000I218750J0D01*
G01*
X54346250Y-109634000D01*
G75*
G02*
X54565000Y-109852750I0J-218750D01*
G01*
G37*
%TD*%
%TO.C,C10*%
G36*
G01*
X63785000Y-93088750D02*
X63785000Y-93601250D01*
G75*
G02*
X63566250Y-93820000I-218750J0D01*
G01*
X63128750Y-93820000D01*
G75*
G02*
X62910000Y-93601250I0J218750D01*
G01*
X62910000Y-93088750D01*
G75*
G02*
X63128750Y-92870000I218750J0D01*
G01*
X63566250Y-92870000D01*
G75*
G02*
X63785000Y-93088750I0J-218750D01*
G01*
G37*
G36*
G01*
X65360000Y-93088750D02*
X65360000Y-93601250D01*
G75*
G02*
X65141250Y-93820000I-218750J0D01*
G01*
X64703750Y-93820000D01*
G75*
G02*
X64485000Y-93601250I0J218750D01*
G01*
X64485000Y-93088750D01*
G75*
G02*
X64703750Y-92870000I218750J0D01*
G01*
X65141250Y-92870000D01*
G75*
G02*
X65360000Y-93088750I0J-218750D01*
G01*
G37*
%TD*%
%TO.C,C9*%
G36*
G01*
X49786250Y-82835000D02*
X49273750Y-82835000D01*
G75*
G02*
X49055000Y-82616250I0J218750D01*
G01*
X49055000Y-82178750D01*
G75*
G02*
X49273750Y-81960000I218750J0D01*
G01*
X49786250Y-81960000D01*
G75*
G02*
X50005000Y-82178750I0J-218750D01*
G01*
X50005000Y-82616250D01*
G75*
G02*
X49786250Y-82835000I-218750J0D01*
G01*
G37*
G36*
G01*
X49786250Y-84410000D02*
X49273750Y-84410000D01*
G75*
G02*
X49055000Y-84191250I0J218750D01*
G01*
X49055000Y-83753750D01*
G75*
G02*
X49273750Y-83535000I218750J0D01*
G01*
X49786250Y-83535000D01*
G75*
G02*
X50005000Y-83753750I0J-218750D01*
G01*
X50005000Y-84191250D01*
G75*
G02*
X49786250Y-84410000I-218750J0D01*
G01*
G37*
%TD*%
%TO.C,C8*%
G36*
G01*
X67566250Y-131095000D02*
X67053750Y-131095000D01*
G75*
G02*
X66835000Y-130876250I0J218750D01*
G01*
X66835000Y-130438750D01*
G75*
G02*
X67053750Y-130220000I218750J0D01*
G01*
X67566250Y-130220000D01*
G75*
G02*
X67785000Y-130438750I0J-218750D01*
G01*
X67785000Y-130876250D01*
G75*
G02*
X67566250Y-131095000I-218750J0D01*
G01*
G37*
G36*
G01*
X67566250Y-132670000D02*
X67053750Y-132670000D01*
G75*
G02*
X66835000Y-132451250I0J218750D01*
G01*
X66835000Y-132013750D01*
G75*
G02*
X67053750Y-131795000I218750J0D01*
G01*
X67566250Y-131795000D01*
G75*
G02*
X67785000Y-132013750I0J-218750D01*
G01*
X67785000Y-132451250D01*
G75*
G02*
X67566250Y-132670000I-218750J0D01*
G01*
G37*
%TD*%
%TO.C,C7*%
G36*
G01*
X50040250Y-113061000D02*
X49527750Y-113061000D01*
G75*
G02*
X49309000Y-112842250I0J218750D01*
G01*
X49309000Y-112404750D01*
G75*
G02*
X49527750Y-112186000I218750J0D01*
G01*
X50040250Y-112186000D01*
G75*
G02*
X50259000Y-112404750I0J-218750D01*
G01*
X50259000Y-112842250D01*
G75*
G02*
X50040250Y-113061000I-218750J0D01*
G01*
G37*
G36*
G01*
X50040250Y-114636000D02*
X49527750Y-114636000D01*
G75*
G02*
X49309000Y-114417250I0J218750D01*
G01*
X49309000Y-113979750D01*
G75*
G02*
X49527750Y-113761000I218750J0D01*
G01*
X50040250Y-113761000D01*
G75*
G02*
X50259000Y-113979750I0J-218750D01*
G01*
X50259000Y-114417250D01*
G75*
G02*
X50040250Y-114636000I-218750J0D01*
G01*
G37*
%TD*%
%TO.C,C6*%
G36*
G01*
X67566250Y-101377000D02*
X67053750Y-101377000D01*
G75*
G02*
X66835000Y-101158250I0J218750D01*
G01*
X66835000Y-100720750D01*
G75*
G02*
X67053750Y-100502000I218750J0D01*
G01*
X67566250Y-100502000D01*
G75*
G02*
X67785000Y-100720750I0J-218750D01*
G01*
X67785000Y-101158250D01*
G75*
G02*
X67566250Y-101377000I-218750J0D01*
G01*
G37*
G36*
G01*
X67566250Y-102952000D02*
X67053750Y-102952000D01*
G75*
G02*
X66835000Y-102733250I0J218750D01*
G01*
X66835000Y-102295750D01*
G75*
G02*
X67053750Y-102077000I218750J0D01*
G01*
X67566250Y-102077000D01*
G75*
G02*
X67785000Y-102295750I0J-218750D01*
G01*
X67785000Y-102733250D01*
G75*
G02*
X67566250Y-102952000I-218750J0D01*
G01*
G37*
%TD*%
%TO.C,C5*%
G36*
G01*
X66926750Y-78074000D02*
X67439250Y-78074000D01*
G75*
G02*
X67658000Y-78292750I0J-218750D01*
G01*
X67658000Y-78730250D01*
G75*
G02*
X67439250Y-78949000I-218750J0D01*
G01*
X66926750Y-78949000D01*
G75*
G02*
X66708000Y-78730250I0J218750D01*
G01*
X66708000Y-78292750D01*
G75*
G02*
X66926750Y-78074000I218750J0D01*
G01*
G37*
G36*
G01*
X66926750Y-76499000D02*
X67439250Y-76499000D01*
G75*
G02*
X67658000Y-76717750I0J-218750D01*
G01*
X67658000Y-77155250D01*
G75*
G02*
X67439250Y-77374000I-218750J0D01*
G01*
X66926750Y-77374000D01*
G75*
G02*
X66708000Y-77155250I0J218750D01*
G01*
X66708000Y-76717750D01*
G75*
G02*
X66926750Y-76499000I218750J0D01*
G01*
G37*
%TD*%
%TO.C,C4*%
G36*
G01*
X55882250Y-59467000D02*
X55369750Y-59467000D01*
G75*
G02*
X55151000Y-59248250I0J218750D01*
G01*
X55151000Y-58810750D01*
G75*
G02*
X55369750Y-58592000I218750J0D01*
G01*
X55882250Y-58592000D01*
G75*
G02*
X56101000Y-58810750I0J-218750D01*
G01*
X56101000Y-59248250D01*
G75*
G02*
X55882250Y-59467000I-218750J0D01*
G01*
G37*
G36*
G01*
X55882250Y-61042000D02*
X55369750Y-61042000D01*
G75*
G02*
X55151000Y-60823250I0J218750D01*
G01*
X55151000Y-60385750D01*
G75*
G02*
X55369750Y-60167000I218750J0D01*
G01*
X55882250Y-60167000D01*
G75*
G02*
X56101000Y-60385750I0J-218750D01*
G01*
X56101000Y-60823250D01*
G75*
G02*
X55882250Y-61042000I-218750J0D01*
G01*
G37*
%TD*%
%TO.C,C3*%
G36*
G01*
X66804250Y-62261000D02*
X66291750Y-62261000D01*
G75*
G02*
X66073000Y-62042250I0J218750D01*
G01*
X66073000Y-61604750D01*
G75*
G02*
X66291750Y-61386000I218750J0D01*
G01*
X66804250Y-61386000D01*
G75*
G02*
X67023000Y-61604750I0J-218750D01*
G01*
X67023000Y-62042250D01*
G75*
G02*
X66804250Y-62261000I-218750J0D01*
G01*
G37*
G36*
G01*
X66804250Y-63836000D02*
X66291750Y-63836000D01*
G75*
G02*
X66073000Y-63617250I0J218750D01*
G01*
X66073000Y-63179750D01*
G75*
G02*
X66291750Y-62961000I218750J0D01*
G01*
X66804250Y-62961000D01*
G75*
G02*
X67023000Y-63179750I0J-218750D01*
G01*
X67023000Y-63617250D01*
G75*
G02*
X66804250Y-63836000I-218750J0D01*
G01*
G37*
%TD*%
%TO.C,C1*%
G36*
G01*
X58897000Y-84457250D02*
X58897000Y-83944750D01*
G75*
G02*
X59115750Y-83726000I218750J0D01*
G01*
X59553250Y-83726000D01*
G75*
G02*
X59772000Y-83944750I0J-218750D01*
G01*
X59772000Y-84457250D01*
G75*
G02*
X59553250Y-84676000I-218750J0D01*
G01*
X59115750Y-84676000D01*
G75*
G02*
X58897000Y-84457250I0J218750D01*
G01*
G37*
G36*
G01*
X57322000Y-84457250D02*
X57322000Y-83944750D01*
G75*
G02*
X57540750Y-83726000I218750J0D01*
G01*
X57978250Y-83726000D01*
G75*
G02*
X58197000Y-83944750I0J-218750D01*
G01*
X58197000Y-84457250D01*
G75*
G02*
X57978250Y-84676000I-218750J0D01*
G01*
X57540750Y-84676000D01*
G75*
G02*
X57322000Y-84457250I0J218750D01*
G01*
G37*
%TD*%
M02*
