%TF.GenerationSoftware,KiCad,Pcbnew,(5.1.6)-1*%
%TF.CreationDate,2021-03-13T16:13:42+00:00*%
%TF.ProjectId,expander,65787061-6e64-4657-922e-6b696361645f,rev?*%
%TF.SameCoordinates,Original*%
%TF.FileFunction,Legend,Bot*%
%TF.FilePolarity,Positive*%
%FSLAX46Y46*%
G04 Gerber Fmt 4.6, Leading zero omitted, Abs format (unit mm)*
G04 Created by KiCad (PCBNEW (5.1.6)-1) date 2021-03-13 16:13:42*
%MOMM*%
%LPD*%
G01*
G04 APERTURE LIST*
%ADD10C,0.762000*%
%ADD11C,0.120000*%
%ADD12C,0.150000*%
G04 APERTURE END LIST*
D10*
X51616428Y-119017142D02*
X51398714Y-119452571D01*
X51398714Y-120323428D01*
X51616428Y-120758857D01*
X51834142Y-120976571D01*
X52269571Y-121194285D01*
X53575857Y-121194285D01*
X54011285Y-120976571D01*
X54229000Y-120758857D01*
X54446714Y-120323428D01*
X54446714Y-119452571D01*
X54229000Y-119017142D01*
X54446714Y-117493142D02*
X51398714Y-116404571D01*
X54446714Y-115316000D01*
X51398714Y-109437714D02*
X51616428Y-109873142D01*
X52051857Y-110090857D01*
X55970714Y-110090857D01*
X51398714Y-105736571D02*
X53793571Y-105736571D01*
X54229000Y-105954285D01*
X54446714Y-106389714D01*
X54446714Y-107260571D01*
X54229000Y-107696000D01*
X51616428Y-105736571D02*
X51398714Y-106172000D01*
X51398714Y-107260571D01*
X51616428Y-107696000D01*
X52051857Y-107913714D01*
X52487285Y-107913714D01*
X52922714Y-107696000D01*
X53140428Y-107260571D01*
X53140428Y-106172000D01*
X53358142Y-105736571D01*
X54446714Y-103559428D02*
X51398714Y-103559428D01*
X54011285Y-103559428D02*
X54229000Y-103341714D01*
X54446714Y-102906285D01*
X54446714Y-102253142D01*
X54229000Y-101817714D01*
X53793571Y-101600000D01*
X51398714Y-101600000D01*
X51398714Y-97463428D02*
X55970714Y-97463428D01*
X51616428Y-97463428D02*
X51398714Y-97898857D01*
X51398714Y-98769714D01*
X51616428Y-99205142D01*
X51834142Y-99422857D01*
X52269571Y-99640571D01*
X53575857Y-99640571D01*
X54011285Y-99422857D01*
X54229000Y-99205142D01*
X54446714Y-98769714D01*
X54446714Y-97898857D01*
X54229000Y-97463428D01*
D11*
X35306000Y-136525000D02*
X37973000Y-136525000D01*
X33147000Y-121285000D02*
X35814000Y-121285000D01*
X35306000Y-106045000D02*
X37973000Y-106045000D01*
X33147000Y-90805000D02*
X35814000Y-90805000D01*
D12*
X54824285Y-60316857D02*
X54014761Y-60316857D01*
X53919523Y-60364476D01*
X53871904Y-60412095D01*
X53824285Y-60507333D01*
X53824285Y-60650190D01*
X53871904Y-60745428D01*
X54205238Y-60316857D02*
X54157619Y-60412095D01*
X54157619Y-60602571D01*
X54205238Y-60697809D01*
X54252857Y-60745428D01*
X54348095Y-60793047D01*
X54633809Y-60793047D01*
X54729047Y-60745428D01*
X54776666Y-60697809D01*
X54824285Y-60602571D01*
X54824285Y-60412095D01*
X54776666Y-60316857D01*
X54157619Y-59840666D02*
X54824285Y-59840666D01*
X54633809Y-59840666D02*
X54729047Y-59793047D01*
X54776666Y-59745428D01*
X54824285Y-59650190D01*
X54824285Y-59554952D01*
X54205238Y-58840666D02*
X54157619Y-58935904D01*
X54157619Y-59126380D01*
X54205238Y-59221619D01*
X54300476Y-59269238D01*
X54681428Y-59269238D01*
X54776666Y-59221619D01*
X54824285Y-59126380D01*
X54824285Y-58935904D01*
X54776666Y-58840666D01*
X54681428Y-58793047D01*
X54586190Y-58793047D01*
X54490952Y-59269238D01*
X54205238Y-57983523D02*
X54157619Y-58078761D01*
X54157619Y-58269238D01*
X54205238Y-58364476D01*
X54300476Y-58412095D01*
X54681428Y-58412095D01*
X54776666Y-58364476D01*
X54824285Y-58269238D01*
X54824285Y-58078761D01*
X54776666Y-57983523D01*
X54681428Y-57935904D01*
X54586190Y-57935904D01*
X54490952Y-58412095D01*
X54824285Y-57507333D02*
X54157619Y-57507333D01*
X54729047Y-57507333D02*
X54776666Y-57459714D01*
X54824285Y-57364476D01*
X54824285Y-57221619D01*
X54776666Y-57126380D01*
X54681428Y-57078761D01*
X54157619Y-57078761D01*
X54252857Y-56602571D02*
X54205238Y-56554952D01*
X54157619Y-56602571D01*
X54205238Y-56650190D01*
X54252857Y-56602571D01*
X54157619Y-56602571D01*
X54538571Y-56602571D02*
X55110000Y-56650190D01*
X55157619Y-56602571D01*
X55110000Y-56554952D01*
X54538571Y-56602571D01*
X55157619Y-56602571D01*
X54824285Y-46346857D02*
X54014761Y-46346857D01*
X53919523Y-46394476D01*
X53871904Y-46442095D01*
X53824285Y-46537333D01*
X53824285Y-46680190D01*
X53871904Y-46775428D01*
X54205238Y-46346857D02*
X54157619Y-46442095D01*
X54157619Y-46632571D01*
X54205238Y-46727809D01*
X54252857Y-46775428D01*
X54348095Y-46823047D01*
X54633809Y-46823047D01*
X54729047Y-46775428D01*
X54776666Y-46727809D01*
X54824285Y-46632571D01*
X54824285Y-46442095D01*
X54776666Y-46346857D01*
X54157619Y-45870666D02*
X54824285Y-45870666D01*
X54633809Y-45870666D02*
X54729047Y-45823047D01*
X54776666Y-45775428D01*
X54824285Y-45680190D01*
X54824285Y-45584952D01*
X54205238Y-44870666D02*
X54157619Y-44965904D01*
X54157619Y-45156380D01*
X54205238Y-45251619D01*
X54300476Y-45299238D01*
X54681428Y-45299238D01*
X54776666Y-45251619D01*
X54824285Y-45156380D01*
X54824285Y-44965904D01*
X54776666Y-44870666D01*
X54681428Y-44823047D01*
X54586190Y-44823047D01*
X54490952Y-45299238D01*
X54205238Y-44013523D02*
X54157619Y-44108761D01*
X54157619Y-44299238D01*
X54205238Y-44394476D01*
X54300476Y-44442095D01*
X54681428Y-44442095D01*
X54776666Y-44394476D01*
X54824285Y-44299238D01*
X54824285Y-44108761D01*
X54776666Y-44013523D01*
X54681428Y-43965904D01*
X54586190Y-43965904D01*
X54490952Y-44442095D01*
X54824285Y-43537333D02*
X54157619Y-43537333D01*
X54729047Y-43537333D02*
X54776666Y-43489714D01*
X54824285Y-43394476D01*
X54824285Y-43251619D01*
X54776666Y-43156380D01*
X54681428Y-43108761D01*
X54157619Y-43108761D01*
X54252857Y-42632571D02*
X54205238Y-42584952D01*
X54157619Y-42632571D01*
X54205238Y-42680190D01*
X54252857Y-42632571D01*
X54157619Y-42632571D01*
X54538571Y-42632571D02*
X55110000Y-42680190D01*
X55157619Y-42632571D01*
X55110000Y-42584952D01*
X54538571Y-42632571D01*
X55157619Y-42632571D01*
D11*
X35560000Y-51054000D02*
X35560000Y-52959000D01*
X35560000Y-38354000D02*
X35560000Y-40259000D01*
D10*
X56732714Y-80372857D02*
X59780714Y-80372857D01*
X59345285Y-80372857D02*
X59563000Y-80155142D01*
X59780714Y-79719714D01*
X59780714Y-79066571D01*
X59563000Y-78631142D01*
X59127571Y-78413428D01*
X56732714Y-78413428D01*
X59127571Y-78413428D02*
X59563000Y-78195714D01*
X59780714Y-77760285D01*
X59780714Y-77107142D01*
X59563000Y-76671714D01*
X59127571Y-76454000D01*
X56732714Y-76454000D01*
X56732714Y-74276857D02*
X59780714Y-74276857D01*
X61304714Y-74276857D02*
X61087000Y-74494571D01*
X60869285Y-74276857D01*
X61087000Y-74059142D01*
X61304714Y-74276857D01*
X60869285Y-74276857D01*
X56732714Y-70140285D02*
X61304714Y-70140285D01*
X56950428Y-70140285D02*
X56732714Y-70575714D01*
X56732714Y-71446571D01*
X56950428Y-71882000D01*
X57168142Y-72099714D01*
X57603571Y-72317428D01*
X58909857Y-72317428D01*
X59345285Y-72099714D01*
X59563000Y-71882000D01*
X59780714Y-71446571D01*
X59780714Y-70575714D01*
X59563000Y-70140285D01*
X56732714Y-67963142D02*
X59780714Y-67963142D01*
X61304714Y-67963142D02*
X61087000Y-68180857D01*
X60869285Y-67963142D01*
X61087000Y-67745428D01*
X61304714Y-67963142D01*
X60869285Y-67963142D01*
X56732714Y-61649428D02*
X56950428Y-62084857D01*
X57385857Y-62302571D01*
X61304714Y-62302571D01*
X56732714Y-57948285D02*
X59127571Y-57948285D01*
X59563000Y-58166000D01*
X59780714Y-58601428D01*
X59780714Y-59472285D01*
X59563000Y-59907714D01*
X56950428Y-57948285D02*
X56732714Y-58383714D01*
X56732714Y-59472285D01*
X56950428Y-59907714D01*
X57385857Y-60125428D01*
X57821285Y-60125428D01*
X58256714Y-59907714D01*
X58474428Y-59472285D01*
X58474428Y-58383714D01*
X58692142Y-57948285D01*
X59780714Y-55771142D02*
X56732714Y-55771142D01*
X59345285Y-55771142D02*
X59563000Y-55553428D01*
X59780714Y-55118000D01*
X59780714Y-54464857D01*
X59563000Y-54029428D01*
X59127571Y-53811714D01*
X56732714Y-53811714D01*
X56732714Y-49675142D02*
X61304714Y-49675142D01*
X56950428Y-49675142D02*
X56732714Y-50110571D01*
X56732714Y-50981428D01*
X56950428Y-51416857D01*
X57168142Y-51634571D01*
X57603571Y-51852285D01*
X58909857Y-51852285D01*
X59345285Y-51634571D01*
X59563000Y-51416857D01*
X59780714Y-50981428D01*
X59780714Y-50110571D01*
X59563000Y-49675142D01*
D12*
X39116000Y-136501190D02*
X39116000Y-136977380D01*
X39449333Y-135977380D02*
X39116000Y-136501190D01*
X38782666Y-135977380D01*
X32337333Y-120737380D02*
X31670666Y-121737380D01*
X31670666Y-120737380D02*
X32337333Y-121737380D01*
X39044571Y-105973571D02*
X38901714Y-106021190D01*
X38854095Y-106068809D01*
X38806476Y-106164047D01*
X38806476Y-106306904D01*
X38854095Y-106402142D01*
X38901714Y-106449761D01*
X38996952Y-106497380D01*
X39377904Y-106497380D01*
X39377904Y-105497380D01*
X39044571Y-105497380D01*
X38949333Y-105545000D01*
X38901714Y-105592619D01*
X38854095Y-105687857D01*
X38854095Y-105783095D01*
X38901714Y-105878333D01*
X38949333Y-105925952D01*
X39044571Y-105973571D01*
X39377904Y-105973571D01*
X32242095Y-90971666D02*
X31765904Y-90971666D01*
X32337333Y-91257380D02*
X32004000Y-90257380D01*
X31670666Y-91257380D01*
X38679047Y-50236380D02*
X38679047Y-49236380D01*
X38345714Y-49950666D01*
X38012380Y-49236380D01*
X38012380Y-50236380D01*
X37536190Y-50236380D02*
X37536190Y-49236380D01*
X37060000Y-50236380D02*
X37060000Y-49236380D01*
X36821904Y-49236380D01*
X36679047Y-49284000D01*
X36583809Y-49379238D01*
X36536190Y-49474476D01*
X36488571Y-49664952D01*
X36488571Y-49807809D01*
X36536190Y-49998285D01*
X36583809Y-50093523D01*
X36679047Y-50188761D01*
X36821904Y-50236380D01*
X37060000Y-50236380D01*
X36060000Y-50236380D02*
X36060000Y-49236380D01*
X34631428Y-49236380D02*
X34440952Y-49236380D01*
X34345714Y-49284000D01*
X34250476Y-49379238D01*
X34202857Y-49569714D01*
X34202857Y-49903047D01*
X34250476Y-50093523D01*
X34345714Y-50188761D01*
X34440952Y-50236380D01*
X34631428Y-50236380D01*
X34726666Y-50188761D01*
X34821904Y-50093523D01*
X34869523Y-49903047D01*
X34869523Y-49569714D01*
X34821904Y-49379238D01*
X34726666Y-49284000D01*
X34631428Y-49236380D01*
X33774285Y-49236380D02*
X33774285Y-50045904D01*
X33726666Y-50141142D01*
X33679047Y-50188761D01*
X33583809Y-50236380D01*
X33393333Y-50236380D01*
X33298095Y-50188761D01*
X33250476Y-50141142D01*
X33202857Y-50045904D01*
X33202857Y-49236380D01*
X32869523Y-49236380D02*
X32298095Y-49236380D01*
X32583809Y-50236380D02*
X32583809Y-49236380D01*
X38012380Y-37663380D02*
X38012380Y-36663380D01*
X37679047Y-37377666D01*
X37345714Y-36663380D01*
X37345714Y-37663380D01*
X36869523Y-37663380D02*
X36869523Y-36663380D01*
X36393333Y-37663380D02*
X36393333Y-36663380D01*
X36155238Y-36663380D01*
X36012380Y-36711000D01*
X35917142Y-36806238D01*
X35869523Y-36901476D01*
X35821904Y-37091952D01*
X35821904Y-37234809D01*
X35869523Y-37425285D01*
X35917142Y-37520523D01*
X36012380Y-37615761D01*
X36155238Y-37663380D01*
X36393333Y-37663380D01*
X35393333Y-37663380D02*
X35393333Y-36663380D01*
X34155238Y-37663380D02*
X34155238Y-36663380D01*
X33679047Y-37663380D02*
X33679047Y-36663380D01*
X33107619Y-37663380D01*
X33107619Y-36663380D01*
D11*
%TO.C,J9*%
X57150000Y-65850000D02*
X56650000Y-65350000D01*
X56650000Y-65350000D02*
X57650000Y-65350000D01*
X57650000Y-65350000D02*
X57150000Y-65850000D01*
X65450000Y-66050000D02*
X51350000Y-66050000D01*
X51350000Y-66050000D02*
X51350000Y-70850000D01*
X51350000Y-74350000D02*
X51350000Y-79150000D01*
X51350000Y-79150000D02*
X65450000Y-79150000D01*
X65450000Y-79150000D02*
X65450000Y-74350000D01*
X65450000Y-70850000D02*
X65450000Y-66050000D01*
%TO.C,J10*%
X57852000Y-115630000D02*
X57852000Y-110430000D01*
X65532000Y-115630000D02*
X57852000Y-115630000D01*
X68132000Y-110430000D02*
X57852000Y-110430000D01*
X65532000Y-115630000D02*
X65532000Y-113030000D01*
X65532000Y-113030000D02*
X68132000Y-113030000D01*
X68132000Y-113030000D02*
X68132000Y-110430000D01*
X66802000Y-115630000D02*
X68132000Y-115630000D01*
X68132000Y-115630000D02*
X68132000Y-114300000D01*
%TO.C,J3*%
X53920000Y-48058000D02*
X53920000Y-37558000D01*
X62920000Y-48058000D02*
X62920000Y-37558000D01*
X62920000Y-37558000D02*
X58920000Y-37558000D01*
X57920000Y-37558000D02*
X53920000Y-37558000D01*
X62920000Y-48058000D02*
X58770000Y-48058000D01*
X58070000Y-48058000D02*
X53920000Y-48058000D01*
X60220000Y-43558000D02*
G75*
G03*
X60220000Y-43558000I-1800000J0D01*
G01*
X57360000Y-51038000D02*
X57360000Y-50238000D01*
X57360000Y-51038000D02*
X58220000Y-51038000D01*
%TO.C,J2*%
X62920000Y-52018000D02*
X62920000Y-62518000D01*
X53920000Y-52018000D02*
X53920000Y-62518000D01*
X53920000Y-62518000D02*
X57920000Y-62518000D01*
X58920000Y-62518000D02*
X62920000Y-62518000D01*
X53920000Y-52018000D02*
X58070000Y-52018000D01*
X58770000Y-52018000D02*
X62920000Y-52018000D01*
X60220000Y-56518000D02*
G75*
G03*
X60220000Y-56518000I-1800000J0D01*
G01*
X59480000Y-49038000D02*
X59480000Y-49838000D01*
X59480000Y-49038000D02*
X58620000Y-49038000D01*
%TO.C,J8*%
X54880000Y-89745000D02*
X54880000Y-90605000D01*
X54880000Y-89745000D02*
X55680000Y-89745000D01*
X64160000Y-90805000D02*
G75*
G03*
X64160000Y-90805000I-1800000J0D01*
G01*
X57860000Y-90455000D02*
X57860000Y-86305000D01*
X57860000Y-95305000D02*
X57860000Y-91155000D01*
X68360000Y-90305000D02*
X68360000Y-86305000D01*
X68360000Y-95305000D02*
X68360000Y-91305000D01*
X57860000Y-95305000D02*
X68360000Y-95305000D01*
X57860000Y-86305000D02*
X68360000Y-86305000D01*
%TO.C,J7*%
X61960000Y-137585000D02*
X61960000Y-136725000D01*
X61960000Y-137585000D02*
X61160000Y-137585000D01*
X56280000Y-136525000D02*
G75*
G03*
X56280000Y-136525000I-1800000J0D01*
G01*
X58980000Y-136875000D02*
X58980000Y-141025000D01*
X58980000Y-132025000D02*
X58980000Y-136175000D01*
X48480000Y-137025000D02*
X48480000Y-141025000D01*
X48480000Y-132025000D02*
X48480000Y-136025000D01*
X58980000Y-132025000D02*
X48480000Y-132025000D01*
X58980000Y-141025000D02*
X48480000Y-141025000D01*
%TO.C,J6*%
X54880000Y-120225000D02*
X54880000Y-121085000D01*
X54880000Y-120225000D02*
X55680000Y-120225000D01*
X64160000Y-121285000D02*
G75*
G03*
X64160000Y-121285000I-1800000J0D01*
G01*
X57860000Y-120935000D02*
X57860000Y-116785000D01*
X57860000Y-125785000D02*
X57860000Y-121635000D01*
X68360000Y-120785000D02*
X68360000Y-116785000D01*
X68360000Y-125785000D02*
X68360000Y-121785000D01*
X57860000Y-125785000D02*
X68360000Y-125785000D01*
X57860000Y-116785000D02*
X68360000Y-116785000D01*
%TO.C,J5*%
X61960000Y-107105000D02*
X61960000Y-106245000D01*
X61960000Y-107105000D02*
X61160000Y-107105000D01*
X56280000Y-106045000D02*
G75*
G03*
X56280000Y-106045000I-1800000J0D01*
G01*
X58980000Y-106395000D02*
X58980000Y-110545000D01*
X58980000Y-101545000D02*
X58980000Y-105695000D01*
X48480000Y-106545000D02*
X48480000Y-110545000D01*
X48480000Y-101545000D02*
X48480000Y-105545000D01*
X58980000Y-101545000D02*
X48480000Y-101545000D01*
X58980000Y-110545000D02*
X48480000Y-110545000D01*
%TO.C,J9*%
D12*
X63283333Y-64752380D02*
X63283333Y-65466666D01*
X63330952Y-65609523D01*
X63426190Y-65704761D01*
X63569047Y-65752380D01*
X63664285Y-65752380D01*
X62759523Y-65752380D02*
X62569047Y-65752380D01*
X62473809Y-65704761D01*
X62426190Y-65657142D01*
X62330952Y-65514285D01*
X62283333Y-65323809D01*
X62283333Y-64942857D01*
X62330952Y-64847619D01*
X62378571Y-64800000D01*
X62473809Y-64752380D01*
X62664285Y-64752380D01*
X62759523Y-64800000D01*
X62807142Y-64847619D01*
X62854761Y-64942857D01*
X62854761Y-65180952D01*
X62807142Y-65276190D01*
X62759523Y-65323809D01*
X62664285Y-65371428D01*
X62473809Y-65371428D01*
X62378571Y-65323809D01*
X62330952Y-65276190D01*
X62283333Y-65180952D01*
%TO.C,J10*%
X67992523Y-108545380D02*
X67992523Y-109259666D01*
X68040142Y-109402523D01*
X68135380Y-109497761D01*
X68278238Y-109545380D01*
X68373476Y-109545380D01*
X66992523Y-109545380D02*
X67563952Y-109545380D01*
X67278238Y-109545380D02*
X67278238Y-108545380D01*
X67373476Y-108688238D01*
X67468714Y-108783476D01*
X67563952Y-108831095D01*
X66373476Y-108545380D02*
X66278238Y-108545380D01*
X66183000Y-108593000D01*
X66135380Y-108640619D01*
X66087761Y-108735857D01*
X66040142Y-108926333D01*
X66040142Y-109164428D01*
X66087761Y-109354904D01*
X66135380Y-109450142D01*
X66183000Y-109497761D01*
X66278238Y-109545380D01*
X66373476Y-109545380D01*
X66468714Y-109497761D01*
X66516333Y-109450142D01*
X66563952Y-109354904D01*
X66611571Y-109164428D01*
X66611571Y-108926333D01*
X66563952Y-108735857D01*
X66516333Y-108640619D01*
X66468714Y-108593000D01*
X66373476Y-108545380D01*
%TO.C,J3*%
X54723333Y-48410380D02*
X54723333Y-49124666D01*
X54770952Y-49267523D01*
X54866190Y-49362761D01*
X55009047Y-49410380D01*
X55104285Y-49410380D01*
X54342380Y-48410380D02*
X53723333Y-48410380D01*
X54056666Y-48791333D01*
X53913809Y-48791333D01*
X53818571Y-48838952D01*
X53770952Y-48886571D01*
X53723333Y-48981809D01*
X53723333Y-49219904D01*
X53770952Y-49315142D01*
X53818571Y-49362761D01*
X53913809Y-49410380D01*
X54199523Y-49410380D01*
X54294761Y-49362761D01*
X54342380Y-49315142D01*
%TO.C,J2*%
X62783333Y-50570380D02*
X62783333Y-51284666D01*
X62830952Y-51427523D01*
X62926190Y-51522761D01*
X63069047Y-51570380D01*
X63164285Y-51570380D01*
X62354761Y-50665619D02*
X62307142Y-50618000D01*
X62211904Y-50570380D01*
X61973809Y-50570380D01*
X61878571Y-50618000D01*
X61830952Y-50665619D01*
X61783333Y-50760857D01*
X61783333Y-50856095D01*
X61830952Y-50998952D01*
X62402380Y-51570380D01*
X61783333Y-51570380D01*
%TO.C,J8*%
X56412380Y-86441666D02*
X57126666Y-86441666D01*
X57269523Y-86394047D01*
X57364761Y-86298809D01*
X57412380Y-86155952D01*
X57412380Y-86060714D01*
X56840952Y-87060714D02*
X56793333Y-86965476D01*
X56745714Y-86917857D01*
X56650476Y-86870238D01*
X56602857Y-86870238D01*
X56507619Y-86917857D01*
X56460000Y-86965476D01*
X56412380Y-87060714D01*
X56412380Y-87251190D01*
X56460000Y-87346428D01*
X56507619Y-87394047D01*
X56602857Y-87441666D01*
X56650476Y-87441666D01*
X56745714Y-87394047D01*
X56793333Y-87346428D01*
X56840952Y-87251190D01*
X56840952Y-87060714D01*
X56888571Y-86965476D01*
X56936190Y-86917857D01*
X57031428Y-86870238D01*
X57221904Y-86870238D01*
X57317142Y-86917857D01*
X57364761Y-86965476D01*
X57412380Y-87060714D01*
X57412380Y-87251190D01*
X57364761Y-87346428D01*
X57317142Y-87394047D01*
X57221904Y-87441666D01*
X57031428Y-87441666D01*
X56936190Y-87394047D01*
X56888571Y-87346428D01*
X56840952Y-87251190D01*
%TO.C,J7*%
X59332380Y-140221666D02*
X60046666Y-140221666D01*
X60189523Y-140174047D01*
X60284761Y-140078809D01*
X60332380Y-139935952D01*
X60332380Y-139840714D01*
X59332380Y-140602619D02*
X59332380Y-141269285D01*
X60332380Y-140840714D01*
%TO.C,J6*%
X56412380Y-116921666D02*
X57126666Y-116921666D01*
X57269523Y-116874047D01*
X57364761Y-116778809D01*
X57412380Y-116635952D01*
X57412380Y-116540714D01*
X56412380Y-117826428D02*
X56412380Y-117635952D01*
X56460000Y-117540714D01*
X56507619Y-117493095D01*
X56650476Y-117397857D01*
X56840952Y-117350238D01*
X57221904Y-117350238D01*
X57317142Y-117397857D01*
X57364761Y-117445476D01*
X57412380Y-117540714D01*
X57412380Y-117731190D01*
X57364761Y-117826428D01*
X57317142Y-117874047D01*
X57221904Y-117921666D01*
X56983809Y-117921666D01*
X56888571Y-117874047D01*
X56840952Y-117826428D01*
X56793333Y-117731190D01*
X56793333Y-117540714D01*
X56840952Y-117445476D01*
X56888571Y-117397857D01*
X56983809Y-117350238D01*
%TO.C,J5*%
X59332380Y-109741666D02*
X60046666Y-109741666D01*
X60189523Y-109694047D01*
X60284761Y-109598809D01*
X60332380Y-109455952D01*
X60332380Y-109360714D01*
X59332380Y-110694047D02*
X59332380Y-110217857D01*
X59808571Y-110170238D01*
X59760952Y-110217857D01*
X59713333Y-110313095D01*
X59713333Y-110551190D01*
X59760952Y-110646428D01*
X59808571Y-110694047D01*
X59903809Y-110741666D01*
X60141904Y-110741666D01*
X60237142Y-110694047D01*
X60284761Y-110646428D01*
X60332380Y-110551190D01*
X60332380Y-110313095D01*
X60284761Y-110217857D01*
X60237142Y-110170238D01*
%TD*%
M02*
