%TF.GenerationSoftware,KiCad,Pcbnew,(5.1.6)-1*%
%TF.CreationDate,2021-03-13T16:13:42+00:00*%
%TF.ProjectId,expander,65787061-6e64-4657-922e-6b696361645f,rev?*%
%TF.SameCoordinates,Original*%
%TF.FileFunction,Copper,L1,Top*%
%TF.FilePolarity,Positive*%
%FSLAX46Y46*%
G04 Gerber Fmt 4.6, Leading zero omitted, Abs format (unit mm)*
G04 Created by KiCad (PCBNEW (5.1.6)-1) date 2021-03-13 16:13:42*
%MOMM*%
%LPD*%
G01*
G04 APERTURE LIST*
%TA.AperFunction,ComponentPad*%
%ADD10C,1.400000*%
%TD*%
%TA.AperFunction,ComponentPad*%
%ADD11C,3.000000*%
%TD*%
%TA.AperFunction,ComponentPad*%
%ADD12R,1.400000X1.400000*%
%TD*%
%TA.AperFunction,SMDPad,CuDef*%
%ADD13R,0.400000X0.650000*%
%TD*%
%TA.AperFunction,SMDPad,CuDef*%
%ADD14R,1.000000X3.000000*%
%TD*%
%TA.AperFunction,ComponentPad*%
%ADD15O,1.700000X1.700000*%
%TD*%
%TA.AperFunction,ComponentPad*%
%ADD16R,1.700000X1.700000*%
%TD*%
%TA.AperFunction,ComponentPad*%
%ADD17C,2.130000*%
%TD*%
%TA.AperFunction,ComponentPad*%
%ADD18R,1.930000X1.830000*%
%TD*%
%TA.AperFunction,ComponentPad*%
%ADD19R,1.830000X1.930000*%
%TD*%
%TA.AperFunction,SMDPad,CuDef*%
%ADD20R,1.000000X1.500000*%
%TD*%
%TA.AperFunction,SMDPad,CuDef*%
%ADD21R,1.400000X0.300000*%
%TD*%
%TA.AperFunction,SMDPad,CuDef*%
%ADD22R,0.800000X0.900000*%
%TD*%
%TA.AperFunction,SMDPad,CuDef*%
%ADD23R,1.500000X1.000000*%
%TD*%
%TA.AperFunction,ViaPad*%
%ADD24C,0.800000*%
%TD*%
%TA.AperFunction,Conductor*%
%ADD25C,0.254000*%
%TD*%
%TA.AperFunction,Conductor*%
%ADD26C,0.406400*%
%TD*%
%TA.AperFunction,Conductor*%
%ADD27C,0.228600*%
%TD*%
G04 APERTURE END LIST*
%TO.P,D8,2*%
%TO.N,Net-(D7-Pad1)*%
%TA.AperFunction,SMDPad,CuDef*%
G36*
G01*
X42223000Y-138480000D02*
X42223000Y-137110000D01*
G75*
G02*
X42413000Y-136920000I190000J0D01*
G01*
X42983000Y-136920000D01*
G75*
G02*
X43173000Y-137110000I0J-190000D01*
G01*
X43173000Y-138480000D01*
G75*
G02*
X42983000Y-138670000I-190000J0D01*
G01*
X42413000Y-138670000D01*
G75*
G02*
X42223000Y-138480000I0J190000D01*
G01*
G37*
%TD.AperFunction*%
%TO.P,D8,1*%
%TO.N,Net-(D7-Pad2)*%
%TA.AperFunction,SMDPad,CuDef*%
G36*
G01*
X39123000Y-138480000D02*
X39123000Y-137110000D01*
G75*
G02*
X39313000Y-136920000I190000J0D01*
G01*
X39883000Y-136920000D01*
G75*
G02*
X40073000Y-137110000I0J-190000D01*
G01*
X40073000Y-138480000D01*
G75*
G02*
X39883000Y-138670000I-190000J0D01*
G01*
X39313000Y-138670000D01*
G75*
G02*
X39123000Y-138480000I0J190000D01*
G01*
G37*
%TD.AperFunction*%
%TD*%
%TO.P,D7,2*%
%TO.N,Net-(D7-Pad2)*%
%TA.AperFunction,SMDPad,CuDef*%
G36*
G01*
X40073000Y-134570000D02*
X40073000Y-135940000D01*
G75*
G02*
X39883000Y-136130000I-190000J0D01*
G01*
X39313000Y-136130000D01*
G75*
G02*
X39123000Y-135940000I0J190000D01*
G01*
X39123000Y-134570000D01*
G75*
G02*
X39313000Y-134380000I190000J0D01*
G01*
X39883000Y-134380000D01*
G75*
G02*
X40073000Y-134570000I0J-190000D01*
G01*
G37*
%TD.AperFunction*%
%TO.P,D7,1*%
%TO.N,Net-(D7-Pad1)*%
%TA.AperFunction,SMDPad,CuDef*%
G36*
G01*
X43173000Y-134570000D02*
X43173000Y-135940000D01*
G75*
G02*
X42983000Y-136130000I-190000J0D01*
G01*
X42413000Y-136130000D01*
G75*
G02*
X42223000Y-135940000I0J190000D01*
G01*
X42223000Y-134570000D01*
G75*
G02*
X42413000Y-134380000I190000J0D01*
G01*
X42983000Y-134380000D01*
G75*
G02*
X43173000Y-134570000I0J-190000D01*
G01*
G37*
%TD.AperFunction*%
%TD*%
%TO.P,D6,2*%
%TO.N,Net-(D5-Pad1)*%
%TA.AperFunction,SMDPad,CuDef*%
G36*
G01*
X31047000Y-123240000D02*
X31047000Y-121870000D01*
G75*
G02*
X31237000Y-121680000I190000J0D01*
G01*
X31807000Y-121680000D01*
G75*
G02*
X31997000Y-121870000I0J-190000D01*
G01*
X31997000Y-123240000D01*
G75*
G02*
X31807000Y-123430000I-190000J0D01*
G01*
X31237000Y-123430000D01*
G75*
G02*
X31047000Y-123240000I0J190000D01*
G01*
G37*
%TD.AperFunction*%
%TO.P,D6,1*%
%TO.N,Net-(D5-Pad2)*%
%TA.AperFunction,SMDPad,CuDef*%
G36*
G01*
X27947000Y-123240000D02*
X27947000Y-121870000D01*
G75*
G02*
X28137000Y-121680000I190000J0D01*
G01*
X28707000Y-121680000D01*
G75*
G02*
X28897000Y-121870000I0J-190000D01*
G01*
X28897000Y-123240000D01*
G75*
G02*
X28707000Y-123430000I-190000J0D01*
G01*
X28137000Y-123430000D01*
G75*
G02*
X27947000Y-123240000I0J190000D01*
G01*
G37*
%TD.AperFunction*%
%TD*%
%TO.P,D5,2*%
%TO.N,Net-(D5-Pad2)*%
%TA.AperFunction,SMDPad,CuDef*%
G36*
G01*
X28897000Y-119330000D02*
X28897000Y-120700000D01*
G75*
G02*
X28707000Y-120890000I-190000J0D01*
G01*
X28137000Y-120890000D01*
G75*
G02*
X27947000Y-120700000I0J190000D01*
G01*
X27947000Y-119330000D01*
G75*
G02*
X28137000Y-119140000I190000J0D01*
G01*
X28707000Y-119140000D01*
G75*
G02*
X28897000Y-119330000I0J-190000D01*
G01*
G37*
%TD.AperFunction*%
%TO.P,D5,1*%
%TO.N,Net-(D5-Pad1)*%
%TA.AperFunction,SMDPad,CuDef*%
G36*
G01*
X31997000Y-119330000D02*
X31997000Y-120700000D01*
G75*
G02*
X31807000Y-120890000I-190000J0D01*
G01*
X31237000Y-120890000D01*
G75*
G02*
X31047000Y-120700000I0J190000D01*
G01*
X31047000Y-119330000D01*
G75*
G02*
X31237000Y-119140000I190000J0D01*
G01*
X31807000Y-119140000D01*
G75*
G02*
X31997000Y-119330000I0J-190000D01*
G01*
G37*
%TD.AperFunction*%
%TD*%
%TO.P,D4,2*%
%TO.N,Net-(D3-Pad1)*%
%TA.AperFunction,SMDPad,CuDef*%
G36*
G01*
X42223000Y-108000000D02*
X42223000Y-106630000D01*
G75*
G02*
X42413000Y-106440000I190000J0D01*
G01*
X42983000Y-106440000D01*
G75*
G02*
X43173000Y-106630000I0J-190000D01*
G01*
X43173000Y-108000000D01*
G75*
G02*
X42983000Y-108190000I-190000J0D01*
G01*
X42413000Y-108190000D01*
G75*
G02*
X42223000Y-108000000I0J190000D01*
G01*
G37*
%TD.AperFunction*%
%TO.P,D4,1*%
%TO.N,Net-(D3-Pad2)*%
%TA.AperFunction,SMDPad,CuDef*%
G36*
G01*
X39123000Y-108000000D02*
X39123000Y-106630000D01*
G75*
G02*
X39313000Y-106440000I190000J0D01*
G01*
X39883000Y-106440000D01*
G75*
G02*
X40073000Y-106630000I0J-190000D01*
G01*
X40073000Y-108000000D01*
G75*
G02*
X39883000Y-108190000I-190000J0D01*
G01*
X39313000Y-108190000D01*
G75*
G02*
X39123000Y-108000000I0J190000D01*
G01*
G37*
%TD.AperFunction*%
%TD*%
%TO.P,D3,2*%
%TO.N,Net-(D3-Pad2)*%
%TA.AperFunction,SMDPad,CuDef*%
G36*
G01*
X40073000Y-104090000D02*
X40073000Y-105460000D01*
G75*
G02*
X39883000Y-105650000I-190000J0D01*
G01*
X39313000Y-105650000D01*
G75*
G02*
X39123000Y-105460000I0J190000D01*
G01*
X39123000Y-104090000D01*
G75*
G02*
X39313000Y-103900000I190000J0D01*
G01*
X39883000Y-103900000D01*
G75*
G02*
X40073000Y-104090000I0J-190000D01*
G01*
G37*
%TD.AperFunction*%
%TO.P,D3,1*%
%TO.N,Net-(D3-Pad1)*%
%TA.AperFunction,SMDPad,CuDef*%
G36*
G01*
X43173000Y-104090000D02*
X43173000Y-105460000D01*
G75*
G02*
X42983000Y-105650000I-190000J0D01*
G01*
X42413000Y-105650000D01*
G75*
G02*
X42223000Y-105460000I0J190000D01*
G01*
X42223000Y-104090000D01*
G75*
G02*
X42413000Y-103900000I190000J0D01*
G01*
X42983000Y-103900000D01*
G75*
G02*
X43173000Y-104090000I0J-190000D01*
G01*
G37*
%TD.AperFunction*%
%TD*%
%TO.P,D2,2*%
%TO.N,Net-(D1-Pad1)*%
%TA.AperFunction,SMDPad,CuDef*%
G36*
G01*
X31047000Y-92760000D02*
X31047000Y-91390000D01*
G75*
G02*
X31237000Y-91200000I190000J0D01*
G01*
X31807000Y-91200000D01*
G75*
G02*
X31997000Y-91390000I0J-190000D01*
G01*
X31997000Y-92760000D01*
G75*
G02*
X31807000Y-92950000I-190000J0D01*
G01*
X31237000Y-92950000D01*
G75*
G02*
X31047000Y-92760000I0J190000D01*
G01*
G37*
%TD.AperFunction*%
%TO.P,D2,1*%
%TO.N,Net-(D1-Pad2)*%
%TA.AperFunction,SMDPad,CuDef*%
G36*
G01*
X27947000Y-92760000D02*
X27947000Y-91390000D01*
G75*
G02*
X28137000Y-91200000I190000J0D01*
G01*
X28707000Y-91200000D01*
G75*
G02*
X28897000Y-91390000I0J-190000D01*
G01*
X28897000Y-92760000D01*
G75*
G02*
X28707000Y-92950000I-190000J0D01*
G01*
X28137000Y-92950000D01*
G75*
G02*
X27947000Y-92760000I0J190000D01*
G01*
G37*
%TD.AperFunction*%
%TD*%
%TO.P,D1,2*%
%TO.N,Net-(D1-Pad2)*%
%TA.AperFunction,SMDPad,CuDef*%
G36*
G01*
X28897000Y-88850000D02*
X28897000Y-90220000D01*
G75*
G02*
X28707000Y-90410000I-190000J0D01*
G01*
X28137000Y-90410000D01*
G75*
G02*
X27947000Y-90220000I0J190000D01*
G01*
X27947000Y-88850000D01*
G75*
G02*
X28137000Y-88660000I190000J0D01*
G01*
X28707000Y-88660000D01*
G75*
G02*
X28897000Y-88850000I0J-190000D01*
G01*
G37*
%TD.AperFunction*%
%TO.P,D1,1*%
%TO.N,Net-(D1-Pad1)*%
%TA.AperFunction,SMDPad,CuDef*%
G36*
G01*
X31997000Y-88850000D02*
X31997000Y-90220000D01*
G75*
G02*
X31807000Y-90410000I-190000J0D01*
G01*
X31237000Y-90410000D01*
G75*
G02*
X31047000Y-90220000I0J190000D01*
G01*
X31047000Y-88850000D01*
G75*
G02*
X31237000Y-88660000I190000J0D01*
G01*
X31807000Y-88660000D01*
G75*
G02*
X31997000Y-88850000I0J-190000D01*
G01*
G37*
%TD.AperFunction*%
%TD*%
D10*
%TO.P,J9,2*%
%TO.N,DM*%
X59650000Y-69850000D03*
D11*
%TO.P,J9,6*%
%TO.N,Net-(J9-Pad6)*%
X64420000Y-72560000D03*
D12*
%TO.P,J9,1*%
%TO.N,Net-(J9-Pad1)*%
X57150000Y-69850000D03*
D10*
%TO.P,J9,3*%
%TO.N,DP*%
X59650000Y-73050000D03*
%TO.P,J9,4*%
%TO.N,GND*%
X57150000Y-73050000D03*
D11*
%TO.P,J9,5*%
%TO.N,Net-(J9-Pad5)*%
X52380000Y-72560000D03*
%TD*%
D13*
%TO.P,U2,5*%
%TO.N,+5V*%
X64150000Y-63307000D03*
%TO.P,U2,4*%
%TO.N,/_MIDIOUT*%
X62850000Y-63307000D03*
%TO.P,U2,2*%
%TO.N,TX*%
X63500000Y-61407000D03*
%TO.P,U2,3*%
%TO.N,GND*%
X62850000Y-61407000D03*
%TO.P,U2,1*%
%TO.N,Net-(U2-Pad1)*%
X64150000Y-61407000D03*
%TD*%
D14*
%TO.P,J11,8*%
%TO.N,Net-(D7-Pad2)*%
X36322000Y-110510000D03*
%TO.P,J11,7*%
%TO.N,Net-(D7-Pad1)*%
X36322000Y-115550000D03*
%TO.P,J11,6*%
%TO.N,Net-(D5-Pad2)*%
X38862000Y-110510000D03*
%TO.P,J11,5*%
%TO.N,Net-(D5-Pad1)*%
X38862000Y-115550000D03*
%TO.P,J11,4*%
%TO.N,Net-(D3-Pad2)*%
X41402000Y-110510000D03*
%TO.P,J11,3*%
%TO.N,Net-(D3-Pad1)*%
X41402000Y-115550000D03*
%TO.P,J11,2*%
%TO.N,Net-(D1-Pad2)*%
X43942000Y-110510000D03*
%TO.P,J11,1*%
%TO.N,Net-(D1-Pad1)*%
X43942000Y-115550000D03*
%TD*%
D15*
%TO.P,J10,8*%
%TO.N,N4*%
X59182000Y-111760000D03*
%TO.P,J10,7*%
%TO.N,P4*%
X59182000Y-114300000D03*
%TO.P,J10,6*%
%TO.N,N3*%
X61722000Y-111760000D03*
%TO.P,J10,5*%
%TO.N,P3*%
X61722000Y-114300000D03*
%TO.P,J10,4*%
%TO.N,N2*%
X64262000Y-111760000D03*
%TO.P,J10,3*%
%TO.N,P2*%
X64262000Y-114300000D03*
%TO.P,J10,2*%
%TO.N,N1*%
X66802000Y-111760000D03*
D16*
%TO.P,J10,1*%
%TO.N,P1*%
X66802000Y-114300000D03*
%TD*%
D17*
%TO.P,J3,T*%
%TO.N,/_MIDIIN1*%
X58420000Y-38638000D03*
D18*
%TO.P,J3,S*%
%TO.N,GND*%
X58420000Y-50038000D03*
D17*
%TO.P,J3,TN*%
%TO.N,/_MIDIIN2*%
X58420000Y-46938000D03*
%TD*%
%TO.P,J2,T*%
%TO.N,Net-(J2-PadT)*%
X58420000Y-61438000D03*
D18*
%TO.P,J2,S*%
%TO.N,GND*%
X58420000Y-50038000D03*
D17*
%TO.P,J2,TN*%
%TO.N,Net-(J2-PadTN)*%
X58420000Y-53138000D03*
%TD*%
%TO.P,J8,T*%
%TO.N,Net-(J8-PadT)*%
X67280000Y-90805000D03*
D19*
%TO.P,J8,S*%
%TO.N,GND*%
X55880000Y-90805000D03*
D17*
%TO.P,J8,TN*%
%TO.N,N/C*%
X58980000Y-90805000D03*
%TD*%
%TO.P,J7,T*%
%TO.N,Net-(J7-PadT)*%
X49560000Y-136525000D03*
D19*
%TO.P,J7,S*%
%TO.N,GND*%
X60960000Y-136525000D03*
D17*
%TO.P,J7,TN*%
%TO.N,N/C*%
X57860000Y-136525000D03*
%TD*%
%TO.P,J6,T*%
%TO.N,Net-(J6-PadT)*%
X67280000Y-121285000D03*
D19*
%TO.P,J6,S*%
%TO.N,GND*%
X55880000Y-121285000D03*
D17*
%TO.P,J6,TN*%
%TO.N,N/C*%
X58980000Y-121285000D03*
%TD*%
%TO.P,J5,T*%
%TO.N,Net-(J5-PadT)*%
X49560000Y-106045000D03*
D19*
%TO.P,J5,S*%
%TO.N,GND*%
X60960000Y-106045000D03*
D17*
%TO.P,J5,TN*%
%TO.N,N/C*%
X57860000Y-106045000D03*
%TD*%
%TO.P,R29,2*%
%TO.N,Net-(J2-PadT)*%
%TA.AperFunction,SMDPad,CuDef*%
G36*
G01*
X59746500Y-63243750D02*
X59746500Y-63756250D01*
G75*
G02*
X59527750Y-63975000I-218750J0D01*
G01*
X59090250Y-63975000D01*
G75*
G02*
X58871500Y-63756250I0J218750D01*
G01*
X58871500Y-63243750D01*
G75*
G02*
X59090250Y-63025000I218750J0D01*
G01*
X59527750Y-63025000D01*
G75*
G02*
X59746500Y-63243750I0J-218750D01*
G01*
G37*
%TD.AperFunction*%
%TO.P,R29,1*%
%TO.N,/_MIDIOUT*%
%TA.AperFunction,SMDPad,CuDef*%
G36*
G01*
X61321500Y-63243750D02*
X61321500Y-63756250D01*
G75*
G02*
X61102750Y-63975000I-218750J0D01*
G01*
X60665250Y-63975000D01*
G75*
G02*
X60446500Y-63756250I0J218750D01*
G01*
X60446500Y-63243750D01*
G75*
G02*
X60665250Y-63025000I218750J0D01*
G01*
X61102750Y-63025000D01*
G75*
G02*
X61321500Y-63243750I0J-218750D01*
G01*
G37*
%TD.AperFunction*%
%TD*%
D20*
%TO.P,JP3,1*%
%TO.N,Net-(J9-Pad1)*%
X57008000Y-67310000D03*
%TO.P,JP3,2*%
%TO.N,+5V*%
X58308000Y-67310000D03*
%TD*%
%TO.P,U8,8*%
%TO.N,+12V*%
%TA.AperFunction,SMDPad,CuDef*%
G36*
G01*
X54841000Y-86209000D02*
X55141000Y-86209000D01*
G75*
G02*
X55291000Y-86359000I0J-150000D01*
G01*
X55291000Y-88009000D01*
G75*
G02*
X55141000Y-88159000I-150000J0D01*
G01*
X54841000Y-88159000D01*
G75*
G02*
X54691000Y-88009000I0J150000D01*
G01*
X54691000Y-86359000D01*
G75*
G02*
X54841000Y-86209000I150000J0D01*
G01*
G37*
%TD.AperFunction*%
%TO.P,U8,7*%
%TO.N,P1*%
%TA.AperFunction,SMDPad,CuDef*%
G36*
G01*
X53571000Y-86209000D02*
X53871000Y-86209000D01*
G75*
G02*
X54021000Y-86359000I0J-150000D01*
G01*
X54021000Y-88009000D01*
G75*
G02*
X53871000Y-88159000I-150000J0D01*
G01*
X53571000Y-88159000D01*
G75*
G02*
X53421000Y-88009000I0J150000D01*
G01*
X53421000Y-86359000D01*
G75*
G02*
X53571000Y-86209000I150000J0D01*
G01*
G37*
%TD.AperFunction*%
%TO.P,U8,6*%
%TO.N,N1*%
%TA.AperFunction,SMDPad,CuDef*%
G36*
G01*
X52301000Y-86209000D02*
X52601000Y-86209000D01*
G75*
G02*
X52751000Y-86359000I0J-150000D01*
G01*
X52751000Y-88009000D01*
G75*
G02*
X52601000Y-88159000I-150000J0D01*
G01*
X52301000Y-88159000D01*
G75*
G02*
X52151000Y-88009000I0J150000D01*
G01*
X52151000Y-86359000D01*
G75*
G02*
X52301000Y-86209000I150000J0D01*
G01*
G37*
%TD.AperFunction*%
%TO.P,U8,5*%
%TO.N,GND*%
%TA.AperFunction,SMDPad,CuDef*%
G36*
G01*
X51031000Y-86209000D02*
X51331000Y-86209000D01*
G75*
G02*
X51481000Y-86359000I0J-150000D01*
G01*
X51481000Y-88009000D01*
G75*
G02*
X51331000Y-88159000I-150000J0D01*
G01*
X51031000Y-88159000D01*
G75*
G02*
X50881000Y-88009000I0J150000D01*
G01*
X50881000Y-86359000D01*
G75*
G02*
X51031000Y-86209000I150000J0D01*
G01*
G37*
%TD.AperFunction*%
%TO.P,U8,4*%
%TO.N,-12V*%
%TA.AperFunction,SMDPad,CuDef*%
G36*
G01*
X51031000Y-81259000D02*
X51331000Y-81259000D01*
G75*
G02*
X51481000Y-81409000I0J-150000D01*
G01*
X51481000Y-83059000D01*
G75*
G02*
X51331000Y-83209000I-150000J0D01*
G01*
X51031000Y-83209000D01*
G75*
G02*
X50881000Y-83059000I0J150000D01*
G01*
X50881000Y-81409000D01*
G75*
G02*
X51031000Y-81259000I150000J0D01*
G01*
G37*
%TD.AperFunction*%
%TO.P,U8,3*%
%TO.N,VREF*%
%TA.AperFunction,SMDPad,CuDef*%
G36*
G01*
X52301000Y-81259000D02*
X52601000Y-81259000D01*
G75*
G02*
X52751000Y-81409000I0J-150000D01*
G01*
X52751000Y-83059000D01*
G75*
G02*
X52601000Y-83209000I-150000J0D01*
G01*
X52301000Y-83209000D01*
G75*
G02*
X52151000Y-83059000I0J150000D01*
G01*
X52151000Y-81409000D01*
G75*
G02*
X52301000Y-81259000I150000J0D01*
G01*
G37*
%TD.AperFunction*%
%TO.P,U8,2*%
%TO.N,Net-(C13-Pad2)*%
%TA.AperFunction,SMDPad,CuDef*%
G36*
G01*
X53571000Y-81259000D02*
X53871000Y-81259000D01*
G75*
G02*
X54021000Y-81409000I0J-150000D01*
G01*
X54021000Y-83059000D01*
G75*
G02*
X53871000Y-83209000I-150000J0D01*
G01*
X53571000Y-83209000D01*
G75*
G02*
X53421000Y-83059000I0J150000D01*
G01*
X53421000Y-81409000D01*
G75*
G02*
X53571000Y-81259000I150000J0D01*
G01*
G37*
%TD.AperFunction*%
%TO.P,U8,1*%
%TO.N,Net-(C13-Pad1)*%
%TA.AperFunction,SMDPad,CuDef*%
G36*
G01*
X54841000Y-81259000D02*
X55141000Y-81259000D01*
G75*
G02*
X55291000Y-81409000I0J-150000D01*
G01*
X55291000Y-83059000D01*
G75*
G02*
X55141000Y-83209000I-150000J0D01*
G01*
X54841000Y-83209000D01*
G75*
G02*
X54691000Y-83059000I0J150000D01*
G01*
X54691000Y-81409000D01*
G75*
G02*
X54841000Y-81259000I150000J0D01*
G01*
G37*
%TD.AperFunction*%
%TD*%
%TO.P,U7,8*%
%TO.N,+12V*%
%TA.AperFunction,SMDPad,CuDef*%
G36*
G01*
X65255000Y-131929000D02*
X65555000Y-131929000D01*
G75*
G02*
X65705000Y-132079000I0J-150000D01*
G01*
X65705000Y-133729000D01*
G75*
G02*
X65555000Y-133879000I-150000J0D01*
G01*
X65255000Y-133879000D01*
G75*
G02*
X65105000Y-133729000I0J150000D01*
G01*
X65105000Y-132079000D01*
G75*
G02*
X65255000Y-131929000I150000J0D01*
G01*
G37*
%TD.AperFunction*%
%TO.P,U7,7*%
%TO.N,P4*%
%TA.AperFunction,SMDPad,CuDef*%
G36*
G01*
X63985000Y-131929000D02*
X64285000Y-131929000D01*
G75*
G02*
X64435000Y-132079000I0J-150000D01*
G01*
X64435000Y-133729000D01*
G75*
G02*
X64285000Y-133879000I-150000J0D01*
G01*
X63985000Y-133879000D01*
G75*
G02*
X63835000Y-133729000I0J150000D01*
G01*
X63835000Y-132079000D01*
G75*
G02*
X63985000Y-131929000I150000J0D01*
G01*
G37*
%TD.AperFunction*%
%TO.P,U7,6*%
%TO.N,N4*%
%TA.AperFunction,SMDPad,CuDef*%
G36*
G01*
X62715000Y-131929000D02*
X63015000Y-131929000D01*
G75*
G02*
X63165000Y-132079000I0J-150000D01*
G01*
X63165000Y-133729000D01*
G75*
G02*
X63015000Y-133879000I-150000J0D01*
G01*
X62715000Y-133879000D01*
G75*
G02*
X62565000Y-133729000I0J150000D01*
G01*
X62565000Y-132079000D01*
G75*
G02*
X62715000Y-131929000I150000J0D01*
G01*
G37*
%TD.AperFunction*%
%TO.P,U7,5*%
%TO.N,GND*%
%TA.AperFunction,SMDPad,CuDef*%
G36*
G01*
X61445000Y-131929000D02*
X61745000Y-131929000D01*
G75*
G02*
X61895000Y-132079000I0J-150000D01*
G01*
X61895000Y-133729000D01*
G75*
G02*
X61745000Y-133879000I-150000J0D01*
G01*
X61445000Y-133879000D01*
G75*
G02*
X61295000Y-133729000I0J150000D01*
G01*
X61295000Y-132079000D01*
G75*
G02*
X61445000Y-131929000I150000J0D01*
G01*
G37*
%TD.AperFunction*%
%TO.P,U7,4*%
%TO.N,-12V*%
%TA.AperFunction,SMDPad,CuDef*%
G36*
G01*
X61445000Y-126979000D02*
X61745000Y-126979000D01*
G75*
G02*
X61895000Y-127129000I0J-150000D01*
G01*
X61895000Y-128779000D01*
G75*
G02*
X61745000Y-128929000I-150000J0D01*
G01*
X61445000Y-128929000D01*
G75*
G02*
X61295000Y-128779000I0J150000D01*
G01*
X61295000Y-127129000D01*
G75*
G02*
X61445000Y-126979000I150000J0D01*
G01*
G37*
%TD.AperFunction*%
%TO.P,U7,3*%
%TO.N,VREF*%
%TA.AperFunction,SMDPad,CuDef*%
G36*
G01*
X62715000Y-126979000D02*
X63015000Y-126979000D01*
G75*
G02*
X63165000Y-127129000I0J-150000D01*
G01*
X63165000Y-128779000D01*
G75*
G02*
X63015000Y-128929000I-150000J0D01*
G01*
X62715000Y-128929000D01*
G75*
G02*
X62565000Y-128779000I0J150000D01*
G01*
X62565000Y-127129000D01*
G75*
G02*
X62715000Y-126979000I150000J0D01*
G01*
G37*
%TD.AperFunction*%
%TO.P,U7,2*%
%TO.N,Net-(C12-Pad2)*%
%TA.AperFunction,SMDPad,CuDef*%
G36*
G01*
X63985000Y-126979000D02*
X64285000Y-126979000D01*
G75*
G02*
X64435000Y-127129000I0J-150000D01*
G01*
X64435000Y-128779000D01*
G75*
G02*
X64285000Y-128929000I-150000J0D01*
G01*
X63985000Y-128929000D01*
G75*
G02*
X63835000Y-128779000I0J150000D01*
G01*
X63835000Y-127129000D01*
G75*
G02*
X63985000Y-126979000I150000J0D01*
G01*
G37*
%TD.AperFunction*%
%TO.P,U7,1*%
%TO.N,Net-(C12-Pad1)*%
%TA.AperFunction,SMDPad,CuDef*%
G36*
G01*
X65255000Y-126979000D02*
X65555000Y-126979000D01*
G75*
G02*
X65705000Y-127129000I0J-150000D01*
G01*
X65705000Y-128779000D01*
G75*
G02*
X65555000Y-128929000I-150000J0D01*
G01*
X65255000Y-128929000D01*
G75*
G02*
X65105000Y-128779000I0J150000D01*
G01*
X65105000Y-127129000D01*
G75*
G02*
X65255000Y-126979000I150000J0D01*
G01*
G37*
%TD.AperFunction*%
%TD*%
%TO.P,U6,8*%
%TO.N,+12V*%
%TA.AperFunction,SMDPad,CuDef*%
G36*
G01*
X55095000Y-116689000D02*
X55395000Y-116689000D01*
G75*
G02*
X55545000Y-116839000I0J-150000D01*
G01*
X55545000Y-118489000D01*
G75*
G02*
X55395000Y-118639000I-150000J0D01*
G01*
X55095000Y-118639000D01*
G75*
G02*
X54945000Y-118489000I0J150000D01*
G01*
X54945000Y-116839000D01*
G75*
G02*
X55095000Y-116689000I150000J0D01*
G01*
G37*
%TD.AperFunction*%
%TO.P,U6,7*%
%TO.N,P3*%
%TA.AperFunction,SMDPad,CuDef*%
G36*
G01*
X53825000Y-116689000D02*
X54125000Y-116689000D01*
G75*
G02*
X54275000Y-116839000I0J-150000D01*
G01*
X54275000Y-118489000D01*
G75*
G02*
X54125000Y-118639000I-150000J0D01*
G01*
X53825000Y-118639000D01*
G75*
G02*
X53675000Y-118489000I0J150000D01*
G01*
X53675000Y-116839000D01*
G75*
G02*
X53825000Y-116689000I150000J0D01*
G01*
G37*
%TD.AperFunction*%
%TO.P,U6,6*%
%TO.N,N3*%
%TA.AperFunction,SMDPad,CuDef*%
G36*
G01*
X52555000Y-116689000D02*
X52855000Y-116689000D01*
G75*
G02*
X53005000Y-116839000I0J-150000D01*
G01*
X53005000Y-118489000D01*
G75*
G02*
X52855000Y-118639000I-150000J0D01*
G01*
X52555000Y-118639000D01*
G75*
G02*
X52405000Y-118489000I0J150000D01*
G01*
X52405000Y-116839000D01*
G75*
G02*
X52555000Y-116689000I150000J0D01*
G01*
G37*
%TD.AperFunction*%
%TO.P,U6,5*%
%TO.N,GND*%
%TA.AperFunction,SMDPad,CuDef*%
G36*
G01*
X51285000Y-116689000D02*
X51585000Y-116689000D01*
G75*
G02*
X51735000Y-116839000I0J-150000D01*
G01*
X51735000Y-118489000D01*
G75*
G02*
X51585000Y-118639000I-150000J0D01*
G01*
X51285000Y-118639000D01*
G75*
G02*
X51135000Y-118489000I0J150000D01*
G01*
X51135000Y-116839000D01*
G75*
G02*
X51285000Y-116689000I150000J0D01*
G01*
G37*
%TD.AperFunction*%
%TO.P,U6,4*%
%TO.N,-12V*%
%TA.AperFunction,SMDPad,CuDef*%
G36*
G01*
X51285000Y-111739000D02*
X51585000Y-111739000D01*
G75*
G02*
X51735000Y-111889000I0J-150000D01*
G01*
X51735000Y-113539000D01*
G75*
G02*
X51585000Y-113689000I-150000J0D01*
G01*
X51285000Y-113689000D01*
G75*
G02*
X51135000Y-113539000I0J150000D01*
G01*
X51135000Y-111889000D01*
G75*
G02*
X51285000Y-111739000I150000J0D01*
G01*
G37*
%TD.AperFunction*%
%TO.P,U6,3*%
%TO.N,VREF*%
%TA.AperFunction,SMDPad,CuDef*%
G36*
G01*
X52555000Y-111739000D02*
X52855000Y-111739000D01*
G75*
G02*
X53005000Y-111889000I0J-150000D01*
G01*
X53005000Y-113539000D01*
G75*
G02*
X52855000Y-113689000I-150000J0D01*
G01*
X52555000Y-113689000D01*
G75*
G02*
X52405000Y-113539000I0J150000D01*
G01*
X52405000Y-111889000D01*
G75*
G02*
X52555000Y-111739000I150000J0D01*
G01*
G37*
%TD.AperFunction*%
%TO.P,U6,2*%
%TO.N,Net-(C11-Pad2)*%
%TA.AperFunction,SMDPad,CuDef*%
G36*
G01*
X53825000Y-111739000D02*
X54125000Y-111739000D01*
G75*
G02*
X54275000Y-111889000I0J-150000D01*
G01*
X54275000Y-113539000D01*
G75*
G02*
X54125000Y-113689000I-150000J0D01*
G01*
X53825000Y-113689000D01*
G75*
G02*
X53675000Y-113539000I0J150000D01*
G01*
X53675000Y-111889000D01*
G75*
G02*
X53825000Y-111739000I150000J0D01*
G01*
G37*
%TD.AperFunction*%
%TO.P,U6,1*%
%TO.N,Net-(C11-Pad1)*%
%TA.AperFunction,SMDPad,CuDef*%
G36*
G01*
X55095000Y-111739000D02*
X55395000Y-111739000D01*
G75*
G02*
X55545000Y-111889000I0J-150000D01*
G01*
X55545000Y-113539000D01*
G75*
G02*
X55395000Y-113689000I-150000J0D01*
G01*
X55095000Y-113689000D01*
G75*
G02*
X54945000Y-113539000I0J150000D01*
G01*
X54945000Y-111889000D01*
G75*
G02*
X55095000Y-111739000I150000J0D01*
G01*
G37*
%TD.AperFunction*%
%TD*%
%TO.P,U5,8*%
%TO.N,+12V*%
%TA.AperFunction,SMDPad,CuDef*%
G36*
G01*
X65255000Y-101449000D02*
X65555000Y-101449000D01*
G75*
G02*
X65705000Y-101599000I0J-150000D01*
G01*
X65705000Y-103249000D01*
G75*
G02*
X65555000Y-103399000I-150000J0D01*
G01*
X65255000Y-103399000D01*
G75*
G02*
X65105000Y-103249000I0J150000D01*
G01*
X65105000Y-101599000D01*
G75*
G02*
X65255000Y-101449000I150000J0D01*
G01*
G37*
%TD.AperFunction*%
%TO.P,U5,7*%
%TO.N,P2*%
%TA.AperFunction,SMDPad,CuDef*%
G36*
G01*
X63985000Y-101449000D02*
X64285000Y-101449000D01*
G75*
G02*
X64435000Y-101599000I0J-150000D01*
G01*
X64435000Y-103249000D01*
G75*
G02*
X64285000Y-103399000I-150000J0D01*
G01*
X63985000Y-103399000D01*
G75*
G02*
X63835000Y-103249000I0J150000D01*
G01*
X63835000Y-101599000D01*
G75*
G02*
X63985000Y-101449000I150000J0D01*
G01*
G37*
%TD.AperFunction*%
%TO.P,U5,6*%
%TO.N,N2*%
%TA.AperFunction,SMDPad,CuDef*%
G36*
G01*
X62715000Y-101449000D02*
X63015000Y-101449000D01*
G75*
G02*
X63165000Y-101599000I0J-150000D01*
G01*
X63165000Y-103249000D01*
G75*
G02*
X63015000Y-103399000I-150000J0D01*
G01*
X62715000Y-103399000D01*
G75*
G02*
X62565000Y-103249000I0J150000D01*
G01*
X62565000Y-101599000D01*
G75*
G02*
X62715000Y-101449000I150000J0D01*
G01*
G37*
%TD.AperFunction*%
%TO.P,U5,5*%
%TO.N,GND*%
%TA.AperFunction,SMDPad,CuDef*%
G36*
G01*
X61445000Y-101449000D02*
X61745000Y-101449000D01*
G75*
G02*
X61895000Y-101599000I0J-150000D01*
G01*
X61895000Y-103249000D01*
G75*
G02*
X61745000Y-103399000I-150000J0D01*
G01*
X61445000Y-103399000D01*
G75*
G02*
X61295000Y-103249000I0J150000D01*
G01*
X61295000Y-101599000D01*
G75*
G02*
X61445000Y-101449000I150000J0D01*
G01*
G37*
%TD.AperFunction*%
%TO.P,U5,4*%
%TO.N,-12V*%
%TA.AperFunction,SMDPad,CuDef*%
G36*
G01*
X61445000Y-96499000D02*
X61745000Y-96499000D01*
G75*
G02*
X61895000Y-96649000I0J-150000D01*
G01*
X61895000Y-98299000D01*
G75*
G02*
X61745000Y-98449000I-150000J0D01*
G01*
X61445000Y-98449000D01*
G75*
G02*
X61295000Y-98299000I0J150000D01*
G01*
X61295000Y-96649000D01*
G75*
G02*
X61445000Y-96499000I150000J0D01*
G01*
G37*
%TD.AperFunction*%
%TO.P,U5,3*%
%TO.N,VREF*%
%TA.AperFunction,SMDPad,CuDef*%
G36*
G01*
X62715000Y-96499000D02*
X63015000Y-96499000D01*
G75*
G02*
X63165000Y-96649000I0J-150000D01*
G01*
X63165000Y-98299000D01*
G75*
G02*
X63015000Y-98449000I-150000J0D01*
G01*
X62715000Y-98449000D01*
G75*
G02*
X62565000Y-98299000I0J150000D01*
G01*
X62565000Y-96649000D01*
G75*
G02*
X62715000Y-96499000I150000J0D01*
G01*
G37*
%TD.AperFunction*%
%TO.P,U5,2*%
%TO.N,Net-(C10-Pad2)*%
%TA.AperFunction,SMDPad,CuDef*%
G36*
G01*
X63985000Y-96499000D02*
X64285000Y-96499000D01*
G75*
G02*
X64435000Y-96649000I0J-150000D01*
G01*
X64435000Y-98299000D01*
G75*
G02*
X64285000Y-98449000I-150000J0D01*
G01*
X63985000Y-98449000D01*
G75*
G02*
X63835000Y-98299000I0J150000D01*
G01*
X63835000Y-96649000D01*
G75*
G02*
X63985000Y-96499000I150000J0D01*
G01*
G37*
%TD.AperFunction*%
%TO.P,U5,1*%
%TO.N,Net-(C10-Pad1)*%
%TA.AperFunction,SMDPad,CuDef*%
G36*
G01*
X65255000Y-96499000D02*
X65555000Y-96499000D01*
G75*
G02*
X65705000Y-96649000I0J-150000D01*
G01*
X65705000Y-98299000D01*
G75*
G02*
X65555000Y-98449000I-150000J0D01*
G01*
X65255000Y-98449000D01*
G75*
G02*
X65105000Y-98299000I0J150000D01*
G01*
X65105000Y-96649000D01*
G75*
G02*
X65255000Y-96499000I150000J0D01*
G01*
G37*
%TD.AperFunction*%
%TD*%
D21*
%TO.P,U4,10*%
%TO.N,Net-(C1-Pad2)*%
X64684000Y-75962000D03*
%TO.P,U4,9*%
%TO.N,CS*%
X64684000Y-76462000D03*
%TO.P,U4,8*%
%TO.N,+3V3*%
X64684000Y-76962000D03*
%TO.P,U4,7*%
%TO.N,MOSI*%
X64684000Y-77462000D03*
%TO.P,U4,6*%
%TO.N,CLK*%
X64684000Y-77962000D03*
%TO.P,U4,5*%
%TO.N,DACY*%
X60284000Y-77962000D03*
%TO.P,U4,4*%
%TO.N,DACX*%
X60284000Y-77462000D03*
%TO.P,U4,3*%
%TO.N,GND*%
X60284000Y-76962000D03*
%TO.P,U4,2*%
%TO.N,DACB*%
X60284000Y-76462000D03*
%TO.P,U4,1*%
%TO.N,DACA*%
X60284000Y-75962000D03*
%TD*%
%TO.P,U3,8*%
%TO.N,+5V*%
%TA.AperFunction,SMDPad,CuDef*%
G36*
G01*
X53825000Y-60809000D02*
X54125000Y-60809000D01*
G75*
G02*
X54275000Y-60959000I0J-150000D01*
G01*
X54275000Y-62609000D01*
G75*
G02*
X54125000Y-62759000I-150000J0D01*
G01*
X53825000Y-62759000D01*
G75*
G02*
X53675000Y-62609000I0J150000D01*
G01*
X53675000Y-60959000D01*
G75*
G02*
X53825000Y-60809000I150000J0D01*
G01*
G37*
%TD.AperFunction*%
%TO.P,U3,7*%
%TO.N,RX*%
%TA.AperFunction,SMDPad,CuDef*%
G36*
G01*
X52555000Y-60809000D02*
X52855000Y-60809000D01*
G75*
G02*
X53005000Y-60959000I0J-150000D01*
G01*
X53005000Y-62609000D01*
G75*
G02*
X52855000Y-62759000I-150000J0D01*
G01*
X52555000Y-62759000D01*
G75*
G02*
X52405000Y-62609000I0J150000D01*
G01*
X52405000Y-60959000D01*
G75*
G02*
X52555000Y-60809000I150000J0D01*
G01*
G37*
%TD.AperFunction*%
%TO.P,U3,6*%
%TA.AperFunction,SMDPad,CuDef*%
G36*
G01*
X51285000Y-60809000D02*
X51585000Y-60809000D01*
G75*
G02*
X51735000Y-60959000I0J-150000D01*
G01*
X51735000Y-62609000D01*
G75*
G02*
X51585000Y-62759000I-150000J0D01*
G01*
X51285000Y-62759000D01*
G75*
G02*
X51135000Y-62609000I0J150000D01*
G01*
X51135000Y-60959000D01*
G75*
G02*
X51285000Y-60809000I150000J0D01*
G01*
G37*
%TD.AperFunction*%
%TO.P,U3,5*%
%TO.N,GND*%
%TA.AperFunction,SMDPad,CuDef*%
G36*
G01*
X50015000Y-60809000D02*
X50315000Y-60809000D01*
G75*
G02*
X50465000Y-60959000I0J-150000D01*
G01*
X50465000Y-62609000D01*
G75*
G02*
X50315000Y-62759000I-150000J0D01*
G01*
X50015000Y-62759000D01*
G75*
G02*
X49865000Y-62609000I0J150000D01*
G01*
X49865000Y-60959000D01*
G75*
G02*
X50015000Y-60809000I150000J0D01*
G01*
G37*
%TD.AperFunction*%
%TO.P,U3,4*%
%TO.N,Net-(R3-Pad2)*%
%TA.AperFunction,SMDPad,CuDef*%
G36*
G01*
X50015000Y-55859000D02*
X50315000Y-55859000D01*
G75*
G02*
X50465000Y-56009000I0J-150000D01*
G01*
X50465000Y-57659000D01*
G75*
G02*
X50315000Y-57809000I-150000J0D01*
G01*
X50015000Y-57809000D01*
G75*
G02*
X49865000Y-57659000I0J150000D01*
G01*
X49865000Y-56009000D01*
G75*
G02*
X50015000Y-55859000I150000J0D01*
G01*
G37*
%TD.AperFunction*%
%TO.P,U3,3*%
%TO.N,/_MIDIIN2*%
%TA.AperFunction,SMDPad,CuDef*%
G36*
G01*
X51285000Y-55859000D02*
X51585000Y-55859000D01*
G75*
G02*
X51735000Y-56009000I0J-150000D01*
G01*
X51735000Y-57659000D01*
G75*
G02*
X51585000Y-57809000I-150000J0D01*
G01*
X51285000Y-57809000D01*
G75*
G02*
X51135000Y-57659000I0J150000D01*
G01*
X51135000Y-56009000D01*
G75*
G02*
X51285000Y-55859000I150000J0D01*
G01*
G37*
%TD.AperFunction*%
%TO.P,U3,2*%
%TO.N,/_MIDIIN1*%
%TA.AperFunction,SMDPad,CuDef*%
G36*
G01*
X52555000Y-55859000D02*
X52855000Y-55859000D01*
G75*
G02*
X53005000Y-56009000I0J-150000D01*
G01*
X53005000Y-57659000D01*
G75*
G02*
X52855000Y-57809000I-150000J0D01*
G01*
X52555000Y-57809000D01*
G75*
G02*
X52405000Y-57659000I0J150000D01*
G01*
X52405000Y-56009000D01*
G75*
G02*
X52555000Y-55859000I150000J0D01*
G01*
G37*
%TD.AperFunction*%
%TO.P,U3,1*%
%TO.N,Net-(R2-Pad2)*%
%TA.AperFunction,SMDPad,CuDef*%
G36*
G01*
X53825000Y-55859000D02*
X54125000Y-55859000D01*
G75*
G02*
X54275000Y-56009000I0J-150000D01*
G01*
X54275000Y-57659000D01*
G75*
G02*
X54125000Y-57809000I-150000J0D01*
G01*
X53825000Y-57809000D01*
G75*
G02*
X53675000Y-57659000I0J150000D01*
G01*
X53675000Y-56009000D01*
G75*
G02*
X53825000Y-55859000I150000J0D01*
G01*
G37*
%TD.AperFunction*%
%TD*%
D22*
%TO.P,U1,3*%
%TO.N,N/C*%
X58547000Y-87741000D03*
%TO.P,U1,2*%
%TO.N,GND*%
X57597000Y-85741000D03*
%TO.P,U1,1*%
%TO.N,Net-(C1-Pad2)*%
X59497000Y-85741000D03*
%TD*%
%TO.P,R28,2*%
%TO.N,Net-(C13-Pad1)*%
%TA.AperFunction,SMDPad,CuDef*%
G36*
G01*
X52194750Y-90774000D02*
X52707250Y-90774000D01*
G75*
G02*
X52926000Y-90992750I0J-218750D01*
G01*
X52926000Y-91430250D01*
G75*
G02*
X52707250Y-91649000I-218750J0D01*
G01*
X52194750Y-91649000D01*
G75*
G02*
X51976000Y-91430250I0J218750D01*
G01*
X51976000Y-90992750D01*
G75*
G02*
X52194750Y-90774000I218750J0D01*
G01*
G37*
%TD.AperFunction*%
%TO.P,R28,1*%
%TO.N,N1*%
%TA.AperFunction,SMDPad,CuDef*%
G36*
G01*
X52194750Y-89199000D02*
X52707250Y-89199000D01*
G75*
G02*
X52926000Y-89417750I0J-218750D01*
G01*
X52926000Y-89855250D01*
G75*
G02*
X52707250Y-90074000I-218750J0D01*
G01*
X52194750Y-90074000D01*
G75*
G02*
X51976000Y-89855250I0J218750D01*
G01*
X51976000Y-89417750D01*
G75*
G02*
X52194750Y-89199000I218750J0D01*
G01*
G37*
%TD.AperFunction*%
%TD*%
%TO.P,R27,1*%
%TO.N,N4*%
%TA.AperFunction,SMDPad,CuDef*%
G36*
G01*
X67312250Y-127844000D02*
X66799750Y-127844000D01*
G75*
G02*
X66581000Y-127625250I0J218750D01*
G01*
X66581000Y-127187750D01*
G75*
G02*
X66799750Y-126969000I218750J0D01*
G01*
X67312250Y-126969000D01*
G75*
G02*
X67531000Y-127187750I0J-218750D01*
G01*
X67531000Y-127625250D01*
G75*
G02*
X67312250Y-127844000I-218750J0D01*
G01*
G37*
%TD.AperFunction*%
%TO.P,R27,2*%
%TO.N,Net-(C12-Pad1)*%
%TA.AperFunction,SMDPad,CuDef*%
G36*
G01*
X67312250Y-126269000D02*
X66799750Y-126269000D01*
G75*
G02*
X66581000Y-126050250I0J218750D01*
G01*
X66581000Y-125612750D01*
G75*
G02*
X66799750Y-125394000I218750J0D01*
G01*
X67312250Y-125394000D01*
G75*
G02*
X67531000Y-125612750I0J-218750D01*
G01*
X67531000Y-126050250D01*
G75*
G02*
X67312250Y-126269000I-218750J0D01*
G01*
G37*
%TD.AperFunction*%
%TD*%
%TO.P,R26,2*%
%TO.N,Net-(C11-Pad1)*%
%TA.AperFunction,SMDPad,CuDef*%
G36*
G01*
X63469000Y-118874250D02*
X63469000Y-118361750D01*
G75*
G02*
X63687750Y-118143000I218750J0D01*
G01*
X64125250Y-118143000D01*
G75*
G02*
X64344000Y-118361750I0J-218750D01*
G01*
X64344000Y-118874250D01*
G75*
G02*
X64125250Y-119093000I-218750J0D01*
G01*
X63687750Y-119093000D01*
G75*
G02*
X63469000Y-118874250I0J218750D01*
G01*
G37*
%TD.AperFunction*%
%TO.P,R26,1*%
%TO.N,N3*%
%TA.AperFunction,SMDPad,CuDef*%
G36*
G01*
X61894000Y-118874250D02*
X61894000Y-118361750D01*
G75*
G02*
X62112750Y-118143000I218750J0D01*
G01*
X62550250Y-118143000D01*
G75*
G02*
X62769000Y-118361750I0J-218750D01*
G01*
X62769000Y-118874250D01*
G75*
G02*
X62550250Y-119093000I-218750J0D01*
G01*
X62112750Y-119093000D01*
G75*
G02*
X61894000Y-118874250I0J218750D01*
G01*
G37*
%TD.AperFunction*%
%TD*%
%TO.P,R25,2*%
%TO.N,Net-(C10-Pad1)*%
%TA.AperFunction,SMDPad,CuDef*%
G36*
G01*
X54514000Y-103756750D02*
X54514000Y-104269250D01*
G75*
G02*
X54295250Y-104488000I-218750J0D01*
G01*
X53857750Y-104488000D01*
G75*
G02*
X53639000Y-104269250I0J218750D01*
G01*
X53639000Y-103756750D01*
G75*
G02*
X53857750Y-103538000I218750J0D01*
G01*
X54295250Y-103538000D01*
G75*
G02*
X54514000Y-103756750I0J-218750D01*
G01*
G37*
%TD.AperFunction*%
%TO.P,R25,1*%
%TO.N,N2*%
%TA.AperFunction,SMDPad,CuDef*%
G36*
G01*
X56089000Y-103756750D02*
X56089000Y-104269250D01*
G75*
G02*
X55870250Y-104488000I-218750J0D01*
G01*
X55432750Y-104488000D01*
G75*
G02*
X55214000Y-104269250I0J218750D01*
G01*
X55214000Y-103756750D01*
G75*
G02*
X55432750Y-103538000I218750J0D01*
G01*
X55870250Y-103538000D01*
G75*
G02*
X56089000Y-103756750I0J-218750D01*
G01*
G37*
%TD.AperFunction*%
%TD*%
%TO.P,R24,2*%
%TO.N,Net-(C13-Pad1)*%
%TA.AperFunction,SMDPad,CuDef*%
G36*
G01*
X67566250Y-87153000D02*
X67053750Y-87153000D01*
G75*
G02*
X66835000Y-86934250I0J218750D01*
G01*
X66835000Y-86496750D01*
G75*
G02*
X67053750Y-86278000I218750J0D01*
G01*
X67566250Y-86278000D01*
G75*
G02*
X67785000Y-86496750I0J-218750D01*
G01*
X67785000Y-86934250D01*
G75*
G02*
X67566250Y-87153000I-218750J0D01*
G01*
G37*
%TD.AperFunction*%
%TO.P,R24,1*%
%TO.N,Net-(J8-PadT)*%
%TA.AperFunction,SMDPad,CuDef*%
G36*
G01*
X67566250Y-88728000D02*
X67053750Y-88728000D01*
G75*
G02*
X66835000Y-88509250I0J218750D01*
G01*
X66835000Y-88071750D01*
G75*
G02*
X67053750Y-87853000I218750J0D01*
G01*
X67566250Y-87853000D01*
G75*
G02*
X67785000Y-88071750I0J-218750D01*
G01*
X67785000Y-88509250D01*
G75*
G02*
X67566250Y-88728000I-218750J0D01*
G01*
G37*
%TD.AperFunction*%
%TD*%
%TO.P,R23,2*%
%TO.N,Net-(C12-Pad1)*%
%TA.AperFunction,SMDPad,CuDef*%
G36*
G01*
X67058250Y-136556000D02*
X66545750Y-136556000D01*
G75*
G02*
X66327000Y-136337250I0J218750D01*
G01*
X66327000Y-135899750D01*
G75*
G02*
X66545750Y-135681000I218750J0D01*
G01*
X67058250Y-135681000D01*
G75*
G02*
X67277000Y-135899750I0J-218750D01*
G01*
X67277000Y-136337250D01*
G75*
G02*
X67058250Y-136556000I-218750J0D01*
G01*
G37*
%TD.AperFunction*%
%TO.P,R23,1*%
%TO.N,Net-(J7-PadT)*%
%TA.AperFunction,SMDPad,CuDef*%
G36*
G01*
X67058250Y-138131000D02*
X66545750Y-138131000D01*
G75*
G02*
X66327000Y-137912250I0J218750D01*
G01*
X66327000Y-137474750D01*
G75*
G02*
X66545750Y-137256000I218750J0D01*
G01*
X67058250Y-137256000D01*
G75*
G02*
X67277000Y-137474750I0J-218750D01*
G01*
X67277000Y-137912250D01*
G75*
G02*
X67058250Y-138131000I-218750J0D01*
G01*
G37*
%TD.AperFunction*%
%TD*%
%TO.P,R22,2*%
%TO.N,Net-(C11-Pad1)*%
%TA.AperFunction,SMDPad,CuDef*%
G36*
G01*
X66071000Y-118361750D02*
X66071000Y-118874250D01*
G75*
G02*
X65852250Y-119093000I-218750J0D01*
G01*
X65414750Y-119093000D01*
G75*
G02*
X65196000Y-118874250I0J218750D01*
G01*
X65196000Y-118361750D01*
G75*
G02*
X65414750Y-118143000I218750J0D01*
G01*
X65852250Y-118143000D01*
G75*
G02*
X66071000Y-118361750I0J-218750D01*
G01*
G37*
%TD.AperFunction*%
%TO.P,R22,1*%
%TO.N,Net-(J6-PadT)*%
%TA.AperFunction,SMDPad,CuDef*%
G36*
G01*
X67646000Y-118361750D02*
X67646000Y-118874250D01*
G75*
G02*
X67427250Y-119093000I-218750J0D01*
G01*
X66989750Y-119093000D01*
G75*
G02*
X66771000Y-118874250I0J218750D01*
G01*
X66771000Y-118361750D01*
G75*
G02*
X66989750Y-118143000I218750J0D01*
G01*
X67427250Y-118143000D01*
G75*
G02*
X67646000Y-118361750I0J-218750D01*
G01*
G37*
%TD.AperFunction*%
%TD*%
%TO.P,R21,2*%
%TO.N,Net-(C10-Pad1)*%
%TA.AperFunction,SMDPad,CuDef*%
G36*
G01*
X53563000Y-106301250D02*
X53563000Y-105788750D01*
G75*
G02*
X53781750Y-105570000I218750J0D01*
G01*
X54219250Y-105570000D01*
G75*
G02*
X54438000Y-105788750I0J-218750D01*
G01*
X54438000Y-106301250D01*
G75*
G02*
X54219250Y-106520000I-218750J0D01*
G01*
X53781750Y-106520000D01*
G75*
G02*
X53563000Y-106301250I0J218750D01*
G01*
G37*
%TD.AperFunction*%
%TO.P,R21,1*%
%TO.N,Net-(J5-PadT)*%
%TA.AperFunction,SMDPad,CuDef*%
G36*
G01*
X51988000Y-106301250D02*
X51988000Y-105788750D01*
G75*
G02*
X52206750Y-105570000I218750J0D01*
G01*
X52644250Y-105570000D01*
G75*
G02*
X52863000Y-105788750I0J-218750D01*
G01*
X52863000Y-106301250D01*
G75*
G02*
X52644250Y-106520000I-218750J0D01*
G01*
X52206750Y-106520000D01*
G75*
G02*
X51988000Y-106301250I0J218750D01*
G01*
G37*
%TD.AperFunction*%
%TD*%
%TO.P,R20,2*%
%TO.N,Net-(C13-Pad2)*%
%TA.AperFunction,SMDPad,CuDef*%
G36*
G01*
X53845750Y-79217000D02*
X54358250Y-79217000D01*
G75*
G02*
X54577000Y-79435750I0J-218750D01*
G01*
X54577000Y-79873250D01*
G75*
G02*
X54358250Y-80092000I-218750J0D01*
G01*
X53845750Y-80092000D01*
G75*
G02*
X53627000Y-79873250I0J218750D01*
G01*
X53627000Y-79435750D01*
G75*
G02*
X53845750Y-79217000I218750J0D01*
G01*
G37*
%TD.AperFunction*%
%TO.P,R20,1*%
%TO.N,Net-(C13-Pad1)*%
%TA.AperFunction,SMDPad,CuDef*%
G36*
G01*
X53845750Y-77642000D02*
X54358250Y-77642000D01*
G75*
G02*
X54577000Y-77860750I0J-218750D01*
G01*
X54577000Y-78298250D01*
G75*
G02*
X54358250Y-78517000I-218750J0D01*
G01*
X53845750Y-78517000D01*
G75*
G02*
X53627000Y-78298250I0J218750D01*
G01*
X53627000Y-77860750D01*
G75*
G02*
X53845750Y-77642000I218750J0D01*
G01*
G37*
%TD.AperFunction*%
%TD*%
%TO.P,R19,2*%
%TO.N,Net-(C12-Pad2)*%
%TA.AperFunction,SMDPad,CuDef*%
G36*
G01*
X64039000Y-125219750D02*
X64039000Y-125732250D01*
G75*
G02*
X63820250Y-125951000I-218750J0D01*
G01*
X63382750Y-125951000D01*
G75*
G02*
X63164000Y-125732250I0J218750D01*
G01*
X63164000Y-125219750D01*
G75*
G02*
X63382750Y-125001000I218750J0D01*
G01*
X63820250Y-125001000D01*
G75*
G02*
X64039000Y-125219750I0J-218750D01*
G01*
G37*
%TD.AperFunction*%
%TO.P,R19,1*%
%TO.N,Net-(C12-Pad1)*%
%TA.AperFunction,SMDPad,CuDef*%
G36*
G01*
X65614000Y-125219750D02*
X65614000Y-125732250D01*
G75*
G02*
X65395250Y-125951000I-218750J0D01*
G01*
X64957750Y-125951000D01*
G75*
G02*
X64739000Y-125732250I0J218750D01*
G01*
X64739000Y-125219750D01*
G75*
G02*
X64957750Y-125001000I218750J0D01*
G01*
X65395250Y-125001000D01*
G75*
G02*
X65614000Y-125219750I0J-218750D01*
G01*
G37*
%TD.AperFunction*%
%TD*%
%TO.P,R18,2*%
%TO.N,Net-(C11-Pad2)*%
%TA.AperFunction,SMDPad,CuDef*%
G36*
G01*
X52990000Y-108328750D02*
X52990000Y-108841250D01*
G75*
G02*
X52771250Y-109060000I-218750J0D01*
G01*
X52333750Y-109060000D01*
G75*
G02*
X52115000Y-108841250I0J218750D01*
G01*
X52115000Y-108328750D01*
G75*
G02*
X52333750Y-108110000I218750J0D01*
G01*
X52771250Y-108110000D01*
G75*
G02*
X52990000Y-108328750I0J-218750D01*
G01*
G37*
%TD.AperFunction*%
%TO.P,R18,1*%
%TO.N,Net-(C11-Pad1)*%
%TA.AperFunction,SMDPad,CuDef*%
G36*
G01*
X54565000Y-108328750D02*
X54565000Y-108841250D01*
G75*
G02*
X54346250Y-109060000I-218750J0D01*
G01*
X53908750Y-109060000D01*
G75*
G02*
X53690000Y-108841250I0J218750D01*
G01*
X53690000Y-108328750D01*
G75*
G02*
X53908750Y-108110000I218750J0D01*
G01*
X54346250Y-108110000D01*
G75*
G02*
X54565000Y-108328750I0J-218750D01*
G01*
G37*
%TD.AperFunction*%
%TD*%
%TO.P,R17,2*%
%TO.N,Net-(C10-Pad2)*%
%TA.AperFunction,SMDPad,CuDef*%
G36*
G01*
X63785000Y-94612750D02*
X63785000Y-95125250D01*
G75*
G02*
X63566250Y-95344000I-218750J0D01*
G01*
X63128750Y-95344000D01*
G75*
G02*
X62910000Y-95125250I0J218750D01*
G01*
X62910000Y-94612750D01*
G75*
G02*
X63128750Y-94394000I218750J0D01*
G01*
X63566250Y-94394000D01*
G75*
G02*
X63785000Y-94612750I0J-218750D01*
G01*
G37*
%TD.AperFunction*%
%TO.P,R17,1*%
%TO.N,Net-(C10-Pad1)*%
%TA.AperFunction,SMDPad,CuDef*%
G36*
G01*
X65360000Y-94612750D02*
X65360000Y-95125250D01*
G75*
G02*
X65141250Y-95344000I-218750J0D01*
G01*
X64703750Y-95344000D01*
G75*
G02*
X64485000Y-95125250I0J218750D01*
G01*
X64485000Y-94612750D01*
G75*
G02*
X64703750Y-94394000I218750J0D01*
G01*
X65141250Y-94394000D01*
G75*
G02*
X65360000Y-94612750I0J-218750D01*
G01*
G37*
%TD.AperFunction*%
%TD*%
%TO.P,R16,2*%
%TO.N,DACA*%
%TA.AperFunction,SMDPad,CuDef*%
G36*
G01*
X55849000Y-75694250D02*
X55849000Y-75181750D01*
G75*
G02*
X56067750Y-74963000I218750J0D01*
G01*
X56505250Y-74963000D01*
G75*
G02*
X56724000Y-75181750I0J-218750D01*
G01*
X56724000Y-75694250D01*
G75*
G02*
X56505250Y-75913000I-218750J0D01*
G01*
X56067750Y-75913000D01*
G75*
G02*
X55849000Y-75694250I0J218750D01*
G01*
G37*
%TD.AperFunction*%
%TO.P,R16,1*%
%TO.N,Net-(C13-Pad2)*%
%TA.AperFunction,SMDPad,CuDef*%
G36*
G01*
X54274000Y-75694250D02*
X54274000Y-75181750D01*
G75*
G02*
X54492750Y-74963000I218750J0D01*
G01*
X54930250Y-74963000D01*
G75*
G02*
X55149000Y-75181750I0J-218750D01*
G01*
X55149000Y-75694250D01*
G75*
G02*
X54930250Y-75913000I-218750J0D01*
G01*
X54492750Y-75913000D01*
G75*
G02*
X54274000Y-75694250I0J218750D01*
G01*
G37*
%TD.AperFunction*%
%TD*%
%TO.P,R15,2*%
%TO.N,DACY*%
%TA.AperFunction,SMDPad,CuDef*%
G36*
G01*
X64739000Y-122557250D02*
X64739000Y-122044750D01*
G75*
G02*
X64957750Y-121826000I218750J0D01*
G01*
X65395250Y-121826000D01*
G75*
G02*
X65614000Y-122044750I0J-218750D01*
G01*
X65614000Y-122557250D01*
G75*
G02*
X65395250Y-122776000I-218750J0D01*
G01*
X64957750Y-122776000D01*
G75*
G02*
X64739000Y-122557250I0J218750D01*
G01*
G37*
%TD.AperFunction*%
%TO.P,R15,1*%
%TO.N,Net-(C12-Pad2)*%
%TA.AperFunction,SMDPad,CuDef*%
G36*
G01*
X63164000Y-122557250D02*
X63164000Y-122044750D01*
G75*
G02*
X63382750Y-121826000I218750J0D01*
G01*
X63820250Y-121826000D01*
G75*
G02*
X64039000Y-122044750I0J-218750D01*
G01*
X64039000Y-122557250D01*
G75*
G02*
X63820250Y-122776000I-218750J0D01*
G01*
X63382750Y-122776000D01*
G75*
G02*
X63164000Y-122557250I0J218750D01*
G01*
G37*
%TD.AperFunction*%
%TD*%
%TO.P,R14,2*%
%TO.N,DACX*%
%TA.AperFunction,SMDPad,CuDef*%
G36*
G01*
X51945250Y-102012000D02*
X51432750Y-102012000D01*
G75*
G02*
X51214000Y-101793250I0J218750D01*
G01*
X51214000Y-101355750D01*
G75*
G02*
X51432750Y-101137000I218750J0D01*
G01*
X51945250Y-101137000D01*
G75*
G02*
X52164000Y-101355750I0J-218750D01*
G01*
X52164000Y-101793250D01*
G75*
G02*
X51945250Y-102012000I-218750J0D01*
G01*
G37*
%TD.AperFunction*%
%TO.P,R14,1*%
%TO.N,Net-(C11-Pad2)*%
%TA.AperFunction,SMDPad,CuDef*%
G36*
G01*
X51945250Y-103587000D02*
X51432750Y-103587000D01*
G75*
G02*
X51214000Y-103368250I0J218750D01*
G01*
X51214000Y-102930750D01*
G75*
G02*
X51432750Y-102712000I218750J0D01*
G01*
X51945250Y-102712000D01*
G75*
G02*
X52164000Y-102930750I0J-218750D01*
G01*
X52164000Y-103368250D01*
G75*
G02*
X51945250Y-103587000I-218750J0D01*
G01*
G37*
%TD.AperFunction*%
%TD*%
%TO.P,R13,2*%
%TO.N,DACB*%
%TA.AperFunction,SMDPad,CuDef*%
G36*
G01*
X63502250Y-90582000D02*
X62989750Y-90582000D01*
G75*
G02*
X62771000Y-90363250I0J218750D01*
G01*
X62771000Y-89925750D01*
G75*
G02*
X62989750Y-89707000I218750J0D01*
G01*
X63502250Y-89707000D01*
G75*
G02*
X63721000Y-89925750I0J-218750D01*
G01*
X63721000Y-90363250D01*
G75*
G02*
X63502250Y-90582000I-218750J0D01*
G01*
G37*
%TD.AperFunction*%
%TO.P,R13,1*%
%TO.N,Net-(C10-Pad2)*%
%TA.AperFunction,SMDPad,CuDef*%
G36*
G01*
X63502250Y-92157000D02*
X62989750Y-92157000D01*
G75*
G02*
X62771000Y-91938250I0J218750D01*
G01*
X62771000Y-91500750D01*
G75*
G02*
X62989750Y-91282000I218750J0D01*
G01*
X63502250Y-91282000D01*
G75*
G02*
X63721000Y-91500750I0J-218750D01*
G01*
X63721000Y-91938250D01*
G75*
G02*
X63502250Y-92157000I-218750J0D01*
G01*
G37*
%TD.AperFunction*%
%TD*%
%TO.P,R12,2*%
%TO.N,CLK*%
%TA.AperFunction,SMDPad,CuDef*%
G36*
G01*
X67053750Y-74518000D02*
X67566250Y-74518000D01*
G75*
G02*
X67785000Y-74736750I0J-218750D01*
G01*
X67785000Y-75174250D01*
G75*
G02*
X67566250Y-75393000I-218750J0D01*
G01*
X67053750Y-75393000D01*
G75*
G02*
X66835000Y-75174250I0J218750D01*
G01*
X66835000Y-74736750D01*
G75*
G02*
X67053750Y-74518000I218750J0D01*
G01*
G37*
%TD.AperFunction*%
%TO.P,R12,1*%
%TO.N,Net-(J1-Pad9)*%
%TA.AperFunction,SMDPad,CuDef*%
G36*
G01*
X67053750Y-72943000D02*
X67566250Y-72943000D01*
G75*
G02*
X67785000Y-73161750I0J-218750D01*
G01*
X67785000Y-73599250D01*
G75*
G02*
X67566250Y-73818000I-218750J0D01*
G01*
X67053750Y-73818000D01*
G75*
G02*
X66835000Y-73599250I0J218750D01*
G01*
X66835000Y-73161750D01*
G75*
G02*
X67053750Y-72943000I218750J0D01*
G01*
G37*
%TD.AperFunction*%
%TD*%
%TO.P,R11,2*%
%TO.N,CS*%
%TA.AperFunction,SMDPad,CuDef*%
G36*
G01*
X66037750Y-69438000D02*
X66550250Y-69438000D01*
G75*
G02*
X66769000Y-69656750I0J-218750D01*
G01*
X66769000Y-70094250D01*
G75*
G02*
X66550250Y-70313000I-218750J0D01*
G01*
X66037750Y-70313000D01*
G75*
G02*
X65819000Y-70094250I0J218750D01*
G01*
X65819000Y-69656750D01*
G75*
G02*
X66037750Y-69438000I218750J0D01*
G01*
G37*
%TD.AperFunction*%
%TO.P,R11,1*%
%TO.N,Net-(J1-Pad13)*%
%TA.AperFunction,SMDPad,CuDef*%
G36*
G01*
X66037750Y-67863000D02*
X66550250Y-67863000D01*
G75*
G02*
X66769000Y-68081750I0J-218750D01*
G01*
X66769000Y-68519250D01*
G75*
G02*
X66550250Y-68738000I-218750J0D01*
G01*
X66037750Y-68738000D01*
G75*
G02*
X65819000Y-68519250I0J218750D01*
G01*
X65819000Y-68081750D01*
G75*
G02*
X66037750Y-67863000I218750J0D01*
G01*
G37*
%TD.AperFunction*%
%TD*%
%TO.P,R10,2*%
%TO.N,TX*%
%TA.AperFunction,SMDPad,CuDef*%
G36*
G01*
X60195750Y-42514000D02*
X60708250Y-42514000D01*
G75*
G02*
X60927000Y-42732750I0J-218750D01*
G01*
X60927000Y-43170250D01*
G75*
G02*
X60708250Y-43389000I-218750J0D01*
G01*
X60195750Y-43389000D01*
G75*
G02*
X59977000Y-43170250I0J218750D01*
G01*
X59977000Y-42732750D01*
G75*
G02*
X60195750Y-42514000I218750J0D01*
G01*
G37*
%TD.AperFunction*%
%TO.P,R10,1*%
%TO.N,Net-(J1-Pad15)*%
%TA.AperFunction,SMDPad,CuDef*%
G36*
G01*
X60195750Y-40939000D02*
X60708250Y-40939000D01*
G75*
G02*
X60927000Y-41157750I0J-218750D01*
G01*
X60927000Y-41595250D01*
G75*
G02*
X60708250Y-41814000I-218750J0D01*
G01*
X60195750Y-41814000D01*
G75*
G02*
X59977000Y-41595250I0J218750D01*
G01*
X59977000Y-41157750D01*
G75*
G02*
X60195750Y-40939000I218750J0D01*
G01*
G37*
%TD.AperFunction*%
%TD*%
%TO.P,R9,2*%
%TO.N,Net-(J2-PadTN)*%
%TA.AperFunction,SMDPad,CuDef*%
G36*
G01*
X59620000Y-54861750D02*
X59620000Y-55374250D01*
G75*
G02*
X59401250Y-55593000I-218750J0D01*
G01*
X58963750Y-55593000D01*
G75*
G02*
X58745000Y-55374250I0J218750D01*
G01*
X58745000Y-54861750D01*
G75*
G02*
X58963750Y-54643000I218750J0D01*
G01*
X59401250Y-54643000D01*
G75*
G02*
X59620000Y-54861750I0J-218750D01*
G01*
G37*
%TD.AperFunction*%
%TO.P,R9,1*%
%TO.N,+5V*%
%TA.AperFunction,SMDPad,CuDef*%
G36*
G01*
X61195000Y-54861750D02*
X61195000Y-55374250D01*
G75*
G02*
X60976250Y-55593000I-218750J0D01*
G01*
X60538750Y-55593000D01*
G75*
G02*
X60320000Y-55374250I0J218750D01*
G01*
X60320000Y-54861750D01*
G75*
G02*
X60538750Y-54643000I218750J0D01*
G01*
X60976250Y-54643000D01*
G75*
G02*
X61195000Y-54861750I0J-218750D01*
G01*
G37*
%TD.AperFunction*%
%TD*%
%TO.P,R8,2*%
%TO.N,Net-(J1-Pad8)*%
%TA.AperFunction,SMDPad,CuDef*%
G36*
G01*
X60708250Y-49434000D02*
X60195750Y-49434000D01*
G75*
G02*
X59977000Y-49215250I0J218750D01*
G01*
X59977000Y-48777750D01*
G75*
G02*
X60195750Y-48559000I218750J0D01*
G01*
X60708250Y-48559000D01*
G75*
G02*
X60927000Y-48777750I0J-218750D01*
G01*
X60927000Y-49215250D01*
G75*
G02*
X60708250Y-49434000I-218750J0D01*
G01*
G37*
%TD.AperFunction*%
%TO.P,R8,1*%
%TO.N,MOSI*%
%TA.AperFunction,SMDPad,CuDef*%
G36*
G01*
X60708250Y-51009000D02*
X60195750Y-51009000D01*
G75*
G02*
X59977000Y-50790250I0J218750D01*
G01*
X59977000Y-50352750D01*
G75*
G02*
X60195750Y-50134000I218750J0D01*
G01*
X60708250Y-50134000D01*
G75*
G02*
X60927000Y-50352750I0J-218750D01*
G01*
X60927000Y-50790250D01*
G75*
G02*
X60708250Y-51009000I-218750J0D01*
G01*
G37*
%TD.AperFunction*%
%TD*%
%TO.P,R7,2*%
%TO.N,Net-(J1-Pad16)*%
%TA.AperFunction,SMDPad,CuDef*%
G36*
G01*
X59184250Y-41814000D02*
X58671750Y-41814000D01*
G75*
G02*
X58453000Y-41595250I0J218750D01*
G01*
X58453000Y-41157750D01*
G75*
G02*
X58671750Y-40939000I218750J0D01*
G01*
X59184250Y-40939000D01*
G75*
G02*
X59403000Y-41157750I0J-218750D01*
G01*
X59403000Y-41595250D01*
G75*
G02*
X59184250Y-41814000I-218750J0D01*
G01*
G37*
%TD.AperFunction*%
%TO.P,R7,1*%
%TO.N,RX*%
%TA.AperFunction,SMDPad,CuDef*%
G36*
G01*
X59184250Y-43389000D02*
X58671750Y-43389000D01*
G75*
G02*
X58453000Y-43170250I0J218750D01*
G01*
X58453000Y-42732750D01*
G75*
G02*
X58671750Y-42514000I218750J0D01*
G01*
X59184250Y-42514000D01*
G75*
G02*
X59403000Y-42732750I0J-218750D01*
G01*
X59403000Y-43170250D01*
G75*
G02*
X59184250Y-43389000I-218750J0D01*
G01*
G37*
%TD.AperFunction*%
%TD*%
%TO.P,R6,2*%
%TO.N,+3V3*%
%TA.AperFunction,SMDPad,CuDef*%
G36*
G01*
X53690000Y-64137250D02*
X53690000Y-63624750D01*
G75*
G02*
X53908750Y-63406000I218750J0D01*
G01*
X54346250Y-63406000D01*
G75*
G02*
X54565000Y-63624750I0J-218750D01*
G01*
X54565000Y-64137250D01*
G75*
G02*
X54346250Y-64356000I-218750J0D01*
G01*
X53908750Y-64356000D01*
G75*
G02*
X53690000Y-64137250I0J218750D01*
G01*
G37*
%TD.AperFunction*%
%TO.P,R6,1*%
%TO.N,RX*%
%TA.AperFunction,SMDPad,CuDef*%
G36*
G01*
X52115000Y-64137250D02*
X52115000Y-63624750D01*
G75*
G02*
X52333750Y-63406000I218750J0D01*
G01*
X52771250Y-63406000D01*
G75*
G02*
X52990000Y-63624750I0J-218750D01*
G01*
X52990000Y-64137250D01*
G75*
G02*
X52771250Y-64356000I-218750J0D01*
G01*
X52333750Y-64356000D01*
G75*
G02*
X52115000Y-64137250I0J218750D01*
G01*
G37*
%TD.AperFunction*%
%TD*%
%TO.P,R5,2*%
%TO.N,VREF*%
%TA.AperFunction,SMDPad,CuDef*%
G36*
G01*
X56893750Y-78582000D02*
X57406250Y-78582000D01*
G75*
G02*
X57625000Y-78800750I0J-218750D01*
G01*
X57625000Y-79238250D01*
G75*
G02*
X57406250Y-79457000I-218750J0D01*
G01*
X56893750Y-79457000D01*
G75*
G02*
X56675000Y-79238250I0J218750D01*
G01*
X56675000Y-78800750D01*
G75*
G02*
X56893750Y-78582000I218750J0D01*
G01*
G37*
%TD.AperFunction*%
%TO.P,R5,1*%
%TO.N,GND*%
%TA.AperFunction,SMDPad,CuDef*%
G36*
G01*
X56893750Y-77007000D02*
X57406250Y-77007000D01*
G75*
G02*
X57625000Y-77225750I0J-218750D01*
G01*
X57625000Y-77663250D01*
G75*
G02*
X57406250Y-77882000I-218750J0D01*
G01*
X56893750Y-77882000D01*
G75*
G02*
X56675000Y-77663250I0J218750D01*
G01*
X56675000Y-77225750D01*
G75*
G02*
X56893750Y-77007000I218750J0D01*
G01*
G37*
%TD.AperFunction*%
%TD*%
%TO.P,R4,2*%
%TO.N,Net-(C1-Pad2)*%
%TA.AperFunction,SMDPad,CuDef*%
G36*
G01*
X58897000Y-82679250D02*
X58897000Y-82166750D01*
G75*
G02*
X59115750Y-81948000I218750J0D01*
G01*
X59553250Y-81948000D01*
G75*
G02*
X59772000Y-82166750I0J-218750D01*
G01*
X59772000Y-82679250D01*
G75*
G02*
X59553250Y-82898000I-218750J0D01*
G01*
X59115750Y-82898000D01*
G75*
G02*
X58897000Y-82679250I0J218750D01*
G01*
G37*
%TD.AperFunction*%
%TO.P,R4,1*%
%TO.N,VREF*%
%TA.AperFunction,SMDPad,CuDef*%
G36*
G01*
X57322000Y-82679250D02*
X57322000Y-82166750D01*
G75*
G02*
X57540750Y-81948000I218750J0D01*
G01*
X57978250Y-81948000D01*
G75*
G02*
X58197000Y-82166750I0J-218750D01*
G01*
X58197000Y-82679250D01*
G75*
G02*
X57978250Y-82898000I-218750J0D01*
G01*
X57540750Y-82898000D01*
G75*
G02*
X57322000Y-82679250I0J218750D01*
G01*
G37*
%TD.AperFunction*%
%TD*%
%TO.P,R3,2*%
%TO.N,Net-(R3-Pad2)*%
%TA.AperFunction,SMDPad,CuDef*%
G36*
G01*
X51466000Y-52575750D02*
X51466000Y-53088250D01*
G75*
G02*
X51247250Y-53307000I-218750J0D01*
G01*
X50809750Y-53307000D01*
G75*
G02*
X50591000Y-53088250I0J218750D01*
G01*
X50591000Y-52575750D01*
G75*
G02*
X50809750Y-52357000I218750J0D01*
G01*
X51247250Y-52357000D01*
G75*
G02*
X51466000Y-52575750I0J-218750D01*
G01*
G37*
%TD.AperFunction*%
%TO.P,R3,1*%
%TO.N,/_MIDIIN1*%
%TA.AperFunction,SMDPad,CuDef*%
G36*
G01*
X53041000Y-52575750D02*
X53041000Y-53088250D01*
G75*
G02*
X52822250Y-53307000I-218750J0D01*
G01*
X52384750Y-53307000D01*
G75*
G02*
X52166000Y-53088250I0J218750D01*
G01*
X52166000Y-52575750D01*
G75*
G02*
X52384750Y-52357000I218750J0D01*
G01*
X52822250Y-52357000D01*
G75*
G02*
X53041000Y-52575750I0J-218750D01*
G01*
G37*
%TD.AperFunction*%
%TD*%
%TO.P,R2,2*%
%TO.N,Net-(R2-Pad2)*%
%TA.AperFunction,SMDPad,CuDef*%
G36*
G01*
X53182000Y-54866250D02*
X53182000Y-54353750D01*
G75*
G02*
X53400750Y-54135000I218750J0D01*
G01*
X53838250Y-54135000D01*
G75*
G02*
X54057000Y-54353750I0J-218750D01*
G01*
X54057000Y-54866250D01*
G75*
G02*
X53838250Y-55085000I-218750J0D01*
G01*
X53400750Y-55085000D01*
G75*
G02*
X53182000Y-54866250I0J218750D01*
G01*
G37*
%TD.AperFunction*%
%TO.P,R2,1*%
%TO.N,/_MIDIIN2*%
%TA.AperFunction,SMDPad,CuDef*%
G36*
G01*
X51607000Y-54866250D02*
X51607000Y-54353750D01*
G75*
G02*
X51825750Y-54135000I218750J0D01*
G01*
X52263250Y-54135000D01*
G75*
G02*
X52482000Y-54353750I0J-218750D01*
G01*
X52482000Y-54866250D01*
G75*
G02*
X52263250Y-55085000I-218750J0D01*
G01*
X51825750Y-55085000D01*
G75*
G02*
X51607000Y-54866250I0J218750D01*
G01*
G37*
%TD.AperFunction*%
%TD*%
%TO.P,R1,2*%
%TO.N,Net-(C1-Pad2)*%
%TA.AperFunction,SMDPad,CuDef*%
G36*
G01*
X61470250Y-86137000D02*
X60957750Y-86137000D01*
G75*
G02*
X60739000Y-85918250I0J218750D01*
G01*
X60739000Y-85480750D01*
G75*
G02*
X60957750Y-85262000I218750J0D01*
G01*
X61470250Y-85262000D01*
G75*
G02*
X61689000Y-85480750I0J-218750D01*
G01*
X61689000Y-85918250D01*
G75*
G02*
X61470250Y-86137000I-218750J0D01*
G01*
G37*
%TD.AperFunction*%
%TO.P,R1,1*%
%TO.N,+12V*%
%TA.AperFunction,SMDPad,CuDef*%
G36*
G01*
X61470250Y-87712000D02*
X60957750Y-87712000D01*
G75*
G02*
X60739000Y-87493250I0J218750D01*
G01*
X60739000Y-87055750D01*
G75*
G02*
X60957750Y-86837000I218750J0D01*
G01*
X61470250Y-86837000D01*
G75*
G02*
X61689000Y-87055750I0J-218750D01*
G01*
X61689000Y-87493250D01*
G75*
G02*
X61470250Y-87712000I-218750J0D01*
G01*
G37*
%TD.AperFunction*%
%TD*%
D23*
%TO.P,JP2,1*%
%TO.N,-12VB*%
X55118000Y-48626000D03*
%TO.P,JP2,2*%
%TO.N,-12V*%
X55118000Y-49926000D03*
%TD*%
%TO.P,JP1,1*%
%TO.N,+12VB*%
X55372000Y-41178000D03*
%TO.P,JP1,2*%
%TO.N,+12V*%
X55372000Y-39878000D03*
%TD*%
D15*
%TO.P,J4,10*%
%TO.N,+12V*%
X50038000Y-39878000D03*
%TO.P,J4,9*%
X52578000Y-39878000D03*
%TO.P,J4,8*%
%TO.N,GND*%
X50038000Y-42418000D03*
%TO.P,J4,7*%
X52578000Y-42418000D03*
%TO.P,J4,6*%
X50038000Y-44958000D03*
%TO.P,J4,5*%
X52578000Y-44958000D03*
%TO.P,J4,4*%
X50038000Y-47498000D03*
%TO.P,J4,3*%
X52578000Y-47498000D03*
%TO.P,J4,2*%
%TO.N,-12V*%
X50038000Y-50038000D03*
D16*
%TO.P,J4,1*%
X52578000Y-50038000D03*
%TD*%
D15*
%TO.P,J1,16*%
%TO.N,Net-(J1-Pad16)*%
X64008000Y-39878000D03*
%TO.P,J1,15*%
%TO.N,Net-(J1-Pad15)*%
X66548000Y-39878000D03*
%TO.P,J1,14*%
%TO.N,GND*%
X64008000Y-42418000D03*
%TO.P,J1,13*%
%TO.N,Net-(J1-Pad13)*%
X66548000Y-42418000D03*
%TO.P,J1,12*%
%TO.N,GND*%
X64008000Y-44958000D03*
%TO.P,J1,11*%
%TO.N,+12VB*%
X66548000Y-44958000D03*
%TO.P,J1,10*%
%TO.N,MISO*%
X64008000Y-47498000D03*
%TO.P,J1,9*%
%TO.N,Net-(J1-Pad9)*%
X66548000Y-47498000D03*
%TO.P,J1,8*%
%TO.N,Net-(J1-Pad8)*%
X64008000Y-50038000D03*
%TO.P,J1,7*%
%TO.N,-12VB*%
X66548000Y-50038000D03*
%TO.P,J1,6*%
%TO.N,GND*%
X64008000Y-52578000D03*
%TO.P,J1,5*%
%TO.N,+5V*%
X66548000Y-52578000D03*
%TO.P,J1,4*%
%TO.N,DM*%
X64008000Y-55118000D03*
%TO.P,J1,3*%
%TO.N,DP*%
X66548000Y-55118000D03*
%TO.P,J1,2*%
%TO.N,+3V3*%
X64008000Y-57658000D03*
D16*
%TO.P,J1,1*%
X66548000Y-57658000D03*
%TD*%
%TO.P,C13,2*%
%TO.N,Net-(C13-Pad2)*%
%TA.AperFunction,SMDPad,CuDef*%
G36*
G01*
X52321750Y-79217000D02*
X52834250Y-79217000D01*
G75*
G02*
X53053000Y-79435750I0J-218750D01*
G01*
X53053000Y-79873250D01*
G75*
G02*
X52834250Y-80092000I-218750J0D01*
G01*
X52321750Y-80092000D01*
G75*
G02*
X52103000Y-79873250I0J218750D01*
G01*
X52103000Y-79435750D01*
G75*
G02*
X52321750Y-79217000I218750J0D01*
G01*
G37*
%TD.AperFunction*%
%TO.P,C13,1*%
%TO.N,Net-(C13-Pad1)*%
%TA.AperFunction,SMDPad,CuDef*%
G36*
G01*
X52321750Y-77642000D02*
X52834250Y-77642000D01*
G75*
G02*
X53053000Y-77860750I0J-218750D01*
G01*
X53053000Y-78298250D01*
G75*
G02*
X52834250Y-78517000I-218750J0D01*
G01*
X52321750Y-78517000D01*
G75*
G02*
X52103000Y-78298250I0J218750D01*
G01*
X52103000Y-77860750D01*
G75*
G02*
X52321750Y-77642000I218750J0D01*
G01*
G37*
%TD.AperFunction*%
%TD*%
%TO.P,C12,2*%
%TO.N,Net-(C12-Pad2)*%
%TA.AperFunction,SMDPad,CuDef*%
G36*
G01*
X64039000Y-123695750D02*
X64039000Y-124208250D01*
G75*
G02*
X63820250Y-124427000I-218750J0D01*
G01*
X63382750Y-124427000D01*
G75*
G02*
X63164000Y-124208250I0J218750D01*
G01*
X63164000Y-123695750D01*
G75*
G02*
X63382750Y-123477000I218750J0D01*
G01*
X63820250Y-123477000D01*
G75*
G02*
X64039000Y-123695750I0J-218750D01*
G01*
G37*
%TD.AperFunction*%
%TO.P,C12,1*%
%TO.N,Net-(C12-Pad1)*%
%TA.AperFunction,SMDPad,CuDef*%
G36*
G01*
X65614000Y-123695750D02*
X65614000Y-124208250D01*
G75*
G02*
X65395250Y-124427000I-218750J0D01*
G01*
X64957750Y-124427000D01*
G75*
G02*
X64739000Y-124208250I0J218750D01*
G01*
X64739000Y-123695750D01*
G75*
G02*
X64957750Y-123477000I218750J0D01*
G01*
X65395250Y-123477000D01*
G75*
G02*
X65614000Y-123695750I0J-218750D01*
G01*
G37*
%TD.AperFunction*%
%TD*%
%TO.P,C11,2*%
%TO.N,Net-(C11-Pad2)*%
%TA.AperFunction,SMDPad,CuDef*%
G36*
G01*
X52990000Y-109852750D02*
X52990000Y-110365250D01*
G75*
G02*
X52771250Y-110584000I-218750J0D01*
G01*
X52333750Y-110584000D01*
G75*
G02*
X52115000Y-110365250I0J218750D01*
G01*
X52115000Y-109852750D01*
G75*
G02*
X52333750Y-109634000I218750J0D01*
G01*
X52771250Y-109634000D01*
G75*
G02*
X52990000Y-109852750I0J-218750D01*
G01*
G37*
%TD.AperFunction*%
%TO.P,C11,1*%
%TO.N,Net-(C11-Pad1)*%
%TA.AperFunction,SMDPad,CuDef*%
G36*
G01*
X54565000Y-109852750D02*
X54565000Y-110365250D01*
G75*
G02*
X54346250Y-110584000I-218750J0D01*
G01*
X53908750Y-110584000D01*
G75*
G02*
X53690000Y-110365250I0J218750D01*
G01*
X53690000Y-109852750D01*
G75*
G02*
X53908750Y-109634000I218750J0D01*
G01*
X54346250Y-109634000D01*
G75*
G02*
X54565000Y-109852750I0J-218750D01*
G01*
G37*
%TD.AperFunction*%
%TD*%
%TO.P,C10,2*%
%TO.N,Net-(C10-Pad2)*%
%TA.AperFunction,SMDPad,CuDef*%
G36*
G01*
X63785000Y-93088750D02*
X63785000Y-93601250D01*
G75*
G02*
X63566250Y-93820000I-218750J0D01*
G01*
X63128750Y-93820000D01*
G75*
G02*
X62910000Y-93601250I0J218750D01*
G01*
X62910000Y-93088750D01*
G75*
G02*
X63128750Y-92870000I218750J0D01*
G01*
X63566250Y-92870000D01*
G75*
G02*
X63785000Y-93088750I0J-218750D01*
G01*
G37*
%TD.AperFunction*%
%TO.P,C10,1*%
%TO.N,Net-(C10-Pad1)*%
%TA.AperFunction,SMDPad,CuDef*%
G36*
G01*
X65360000Y-93088750D02*
X65360000Y-93601250D01*
G75*
G02*
X65141250Y-93820000I-218750J0D01*
G01*
X64703750Y-93820000D01*
G75*
G02*
X64485000Y-93601250I0J218750D01*
G01*
X64485000Y-93088750D01*
G75*
G02*
X64703750Y-92870000I218750J0D01*
G01*
X65141250Y-92870000D01*
G75*
G02*
X65360000Y-93088750I0J-218750D01*
G01*
G37*
%TD.AperFunction*%
%TD*%
%TO.P,C9,2*%
%TO.N,-12V*%
%TA.AperFunction,SMDPad,CuDef*%
G36*
G01*
X49786250Y-82835000D02*
X49273750Y-82835000D01*
G75*
G02*
X49055000Y-82616250I0J218750D01*
G01*
X49055000Y-82178750D01*
G75*
G02*
X49273750Y-81960000I218750J0D01*
G01*
X49786250Y-81960000D01*
G75*
G02*
X50005000Y-82178750I0J-218750D01*
G01*
X50005000Y-82616250D01*
G75*
G02*
X49786250Y-82835000I-218750J0D01*
G01*
G37*
%TD.AperFunction*%
%TO.P,C9,1*%
%TO.N,+12V*%
%TA.AperFunction,SMDPad,CuDef*%
G36*
G01*
X49786250Y-84410000D02*
X49273750Y-84410000D01*
G75*
G02*
X49055000Y-84191250I0J218750D01*
G01*
X49055000Y-83753750D01*
G75*
G02*
X49273750Y-83535000I218750J0D01*
G01*
X49786250Y-83535000D01*
G75*
G02*
X50005000Y-83753750I0J-218750D01*
G01*
X50005000Y-84191250D01*
G75*
G02*
X49786250Y-84410000I-218750J0D01*
G01*
G37*
%TD.AperFunction*%
%TD*%
%TO.P,C8,2*%
%TO.N,-12V*%
%TA.AperFunction,SMDPad,CuDef*%
G36*
G01*
X67566250Y-131095000D02*
X67053750Y-131095000D01*
G75*
G02*
X66835000Y-130876250I0J218750D01*
G01*
X66835000Y-130438750D01*
G75*
G02*
X67053750Y-130220000I218750J0D01*
G01*
X67566250Y-130220000D01*
G75*
G02*
X67785000Y-130438750I0J-218750D01*
G01*
X67785000Y-130876250D01*
G75*
G02*
X67566250Y-131095000I-218750J0D01*
G01*
G37*
%TD.AperFunction*%
%TO.P,C8,1*%
%TO.N,+12V*%
%TA.AperFunction,SMDPad,CuDef*%
G36*
G01*
X67566250Y-132670000D02*
X67053750Y-132670000D01*
G75*
G02*
X66835000Y-132451250I0J218750D01*
G01*
X66835000Y-132013750D01*
G75*
G02*
X67053750Y-131795000I218750J0D01*
G01*
X67566250Y-131795000D01*
G75*
G02*
X67785000Y-132013750I0J-218750D01*
G01*
X67785000Y-132451250D01*
G75*
G02*
X67566250Y-132670000I-218750J0D01*
G01*
G37*
%TD.AperFunction*%
%TD*%
%TO.P,C7,2*%
%TO.N,-12V*%
%TA.AperFunction,SMDPad,CuDef*%
G36*
G01*
X50040250Y-113061000D02*
X49527750Y-113061000D01*
G75*
G02*
X49309000Y-112842250I0J218750D01*
G01*
X49309000Y-112404750D01*
G75*
G02*
X49527750Y-112186000I218750J0D01*
G01*
X50040250Y-112186000D01*
G75*
G02*
X50259000Y-112404750I0J-218750D01*
G01*
X50259000Y-112842250D01*
G75*
G02*
X50040250Y-113061000I-218750J0D01*
G01*
G37*
%TD.AperFunction*%
%TO.P,C7,1*%
%TO.N,+12V*%
%TA.AperFunction,SMDPad,CuDef*%
G36*
G01*
X50040250Y-114636000D02*
X49527750Y-114636000D01*
G75*
G02*
X49309000Y-114417250I0J218750D01*
G01*
X49309000Y-113979750D01*
G75*
G02*
X49527750Y-113761000I218750J0D01*
G01*
X50040250Y-113761000D01*
G75*
G02*
X50259000Y-113979750I0J-218750D01*
G01*
X50259000Y-114417250D01*
G75*
G02*
X50040250Y-114636000I-218750J0D01*
G01*
G37*
%TD.AperFunction*%
%TD*%
%TO.P,C6,2*%
%TO.N,-12V*%
%TA.AperFunction,SMDPad,CuDef*%
G36*
G01*
X67566250Y-101377000D02*
X67053750Y-101377000D01*
G75*
G02*
X66835000Y-101158250I0J218750D01*
G01*
X66835000Y-100720750D01*
G75*
G02*
X67053750Y-100502000I218750J0D01*
G01*
X67566250Y-100502000D01*
G75*
G02*
X67785000Y-100720750I0J-218750D01*
G01*
X67785000Y-101158250D01*
G75*
G02*
X67566250Y-101377000I-218750J0D01*
G01*
G37*
%TD.AperFunction*%
%TO.P,C6,1*%
%TO.N,+12V*%
%TA.AperFunction,SMDPad,CuDef*%
G36*
G01*
X67566250Y-102952000D02*
X67053750Y-102952000D01*
G75*
G02*
X66835000Y-102733250I0J218750D01*
G01*
X66835000Y-102295750D01*
G75*
G02*
X67053750Y-102077000I218750J0D01*
G01*
X67566250Y-102077000D01*
G75*
G02*
X67785000Y-102295750I0J-218750D01*
G01*
X67785000Y-102733250D01*
G75*
G02*
X67566250Y-102952000I-218750J0D01*
G01*
G37*
%TD.AperFunction*%
%TD*%
%TO.P,C5,2*%
%TO.N,GND*%
%TA.AperFunction,SMDPad,CuDef*%
G36*
G01*
X66926750Y-78074000D02*
X67439250Y-78074000D01*
G75*
G02*
X67658000Y-78292750I0J-218750D01*
G01*
X67658000Y-78730250D01*
G75*
G02*
X67439250Y-78949000I-218750J0D01*
G01*
X66926750Y-78949000D01*
G75*
G02*
X66708000Y-78730250I0J218750D01*
G01*
X66708000Y-78292750D01*
G75*
G02*
X66926750Y-78074000I218750J0D01*
G01*
G37*
%TD.AperFunction*%
%TO.P,C5,1*%
%TO.N,+3V3*%
%TA.AperFunction,SMDPad,CuDef*%
G36*
G01*
X66926750Y-76499000D02*
X67439250Y-76499000D01*
G75*
G02*
X67658000Y-76717750I0J-218750D01*
G01*
X67658000Y-77155250D01*
G75*
G02*
X67439250Y-77374000I-218750J0D01*
G01*
X66926750Y-77374000D01*
G75*
G02*
X66708000Y-77155250I0J218750D01*
G01*
X66708000Y-76717750D01*
G75*
G02*
X66926750Y-76499000I218750J0D01*
G01*
G37*
%TD.AperFunction*%
%TD*%
%TO.P,C4,2*%
%TO.N,GND*%
%TA.AperFunction,SMDPad,CuDef*%
G36*
G01*
X55882250Y-59467000D02*
X55369750Y-59467000D01*
G75*
G02*
X55151000Y-59248250I0J218750D01*
G01*
X55151000Y-58810750D01*
G75*
G02*
X55369750Y-58592000I218750J0D01*
G01*
X55882250Y-58592000D01*
G75*
G02*
X56101000Y-58810750I0J-218750D01*
G01*
X56101000Y-59248250D01*
G75*
G02*
X55882250Y-59467000I-218750J0D01*
G01*
G37*
%TD.AperFunction*%
%TO.P,C4,1*%
%TO.N,+5V*%
%TA.AperFunction,SMDPad,CuDef*%
G36*
G01*
X55882250Y-61042000D02*
X55369750Y-61042000D01*
G75*
G02*
X55151000Y-60823250I0J218750D01*
G01*
X55151000Y-60385750D01*
G75*
G02*
X55369750Y-60167000I218750J0D01*
G01*
X55882250Y-60167000D01*
G75*
G02*
X56101000Y-60385750I0J-218750D01*
G01*
X56101000Y-60823250D01*
G75*
G02*
X55882250Y-61042000I-218750J0D01*
G01*
G37*
%TD.AperFunction*%
%TD*%
%TO.P,C3,2*%
%TO.N,GND*%
%TA.AperFunction,SMDPad,CuDef*%
G36*
G01*
X66804250Y-62261000D02*
X66291750Y-62261000D01*
G75*
G02*
X66073000Y-62042250I0J218750D01*
G01*
X66073000Y-61604750D01*
G75*
G02*
X66291750Y-61386000I218750J0D01*
G01*
X66804250Y-61386000D01*
G75*
G02*
X67023000Y-61604750I0J-218750D01*
G01*
X67023000Y-62042250D01*
G75*
G02*
X66804250Y-62261000I-218750J0D01*
G01*
G37*
%TD.AperFunction*%
%TO.P,C3,1*%
%TO.N,+5V*%
%TA.AperFunction,SMDPad,CuDef*%
G36*
G01*
X66804250Y-63836000D02*
X66291750Y-63836000D01*
G75*
G02*
X66073000Y-63617250I0J218750D01*
G01*
X66073000Y-63179750D01*
G75*
G02*
X66291750Y-62961000I218750J0D01*
G01*
X66804250Y-62961000D01*
G75*
G02*
X67023000Y-63179750I0J-218750D01*
G01*
X67023000Y-63617250D01*
G75*
G02*
X66804250Y-63836000I-218750J0D01*
G01*
G37*
%TD.AperFunction*%
%TD*%
%TO.P,C1,2*%
%TO.N,Net-(C1-Pad2)*%
%TA.AperFunction,SMDPad,CuDef*%
G36*
G01*
X58897000Y-84457250D02*
X58897000Y-83944750D01*
G75*
G02*
X59115750Y-83726000I218750J0D01*
G01*
X59553250Y-83726000D01*
G75*
G02*
X59772000Y-83944750I0J-218750D01*
G01*
X59772000Y-84457250D01*
G75*
G02*
X59553250Y-84676000I-218750J0D01*
G01*
X59115750Y-84676000D01*
G75*
G02*
X58897000Y-84457250I0J218750D01*
G01*
G37*
%TD.AperFunction*%
%TO.P,C1,1*%
%TO.N,GND*%
%TA.AperFunction,SMDPad,CuDef*%
G36*
G01*
X57322000Y-84457250D02*
X57322000Y-83944750D01*
G75*
G02*
X57540750Y-83726000I218750J0D01*
G01*
X57978250Y-83726000D01*
G75*
G02*
X58197000Y-83944750I0J-218750D01*
G01*
X58197000Y-84457250D01*
G75*
G02*
X57978250Y-84676000I-218750J0D01*
G01*
X57540750Y-84676000D01*
G75*
G02*
X57322000Y-84457250I0J218750D01*
G01*
G37*
%TD.AperFunction*%
%TD*%
D24*
%TO.N,Net-(C1-Pad2)*%
X63327100Y-75782100D03*
X60597300Y-82433600D03*
%TO.N,GND*%
X62094700Y-78065200D03*
X58146600Y-76712900D03*
X64770000Y-135890000D03*
X52070000Y-133985000D03*
X59055000Y-125095000D03*
X56515000Y-109855000D03*
X57057500Y-99152500D03*
X66675000Y-84455000D03*
X65405000Y-80010000D03*
X52705000Y-66675000D03*
X56515000Y-62865000D03*
X58394500Y-59029500D03*
X61468000Y-60706000D03*
X55118000Y-45212000D03*
X55118000Y-53340000D03*
X55372000Y-76962000D03*
X61214000Y-92964000D03*
X49530000Y-123952000D03*
X53594000Y-74422000D03*
X55903500Y-84859500D03*
%TO.N,+12V*%
X58838100Y-107722900D03*
X49855400Y-116542500D03*
X53432900Y-115763700D03*
X55906400Y-86715000D03*
X50933300Y-84426500D03*
%TO.N,-12V*%
X53230700Y-101529800D03*
X50513300Y-111673600D03*
%TO.N,RX*%
X57417400Y-42975500D03*
X52741900Y-59853000D03*
%TO.N,MOSI*%
X60432700Y-51692300D03*
X58608700Y-72010800D03*
%TO.N,+3V3*%
X64008000Y-67052600D03*
%TO.N,TX*%
X61581100Y-43044200D03*
X61500344Y-58436256D03*
%TO.N,/_MIDIIN1*%
X54052200Y-51981800D03*
%TO.N,DACX*%
X57533300Y-94573500D03*
X59324400Y-78983900D03*
%TO.N,DACY*%
X62962700Y-120347200D03*
X60246700Y-80347000D03*
%TO.N,Net-(J1-Pad9)*%
X67725400Y-72306700D03*
%TO.N,Net-(J5-PadT)*%
X52388100Y-104927100D03*
%TO.N,N4*%
X63096500Y-131080400D03*
X67670600Y-128438900D03*
%TO.N,P4*%
X61789300Y-130949621D03*
%TO.N,N3*%
X53975000Y-119761000D03*
X56261000Y-110871000D03*
%TO.N,P3*%
X61894600Y-122892400D03*
%TO.N,N1*%
X53467000Y-89027000D03*
X53467000Y-96393000D03*
X56769000Y-95377000D03*
X61763200Y-104394000D03*
X63754000Y-105156000D03*
%TO.N,P1*%
X60223300Y-88804800D03*
%TD*%
D25*
%TO.N,Net-(C1-Pad2)*%
X59334500Y-82433600D02*
X59334500Y-82423000D01*
X59334500Y-84201000D02*
X59334500Y-82433600D01*
X59334500Y-82433600D02*
X60597300Y-82433600D01*
X64684000Y-75962000D02*
X63656700Y-75962000D01*
X63327100Y-75782100D02*
X63476800Y-75782100D01*
X63476800Y-75782100D02*
X63656700Y-75962000D01*
X59497000Y-85352300D02*
X59497000Y-84963700D01*
X59497000Y-85741000D02*
X59497000Y-85352300D01*
X59497000Y-84963700D02*
X59334500Y-84801200D01*
X59334500Y-84801200D02*
X59334500Y-84201000D01*
X59497000Y-85352300D02*
X59869700Y-85725000D01*
X61188500Y-85725000D02*
X61214000Y-85699500D01*
X59869700Y-85725000D02*
X61188500Y-85725000D01*
D26*
%TO.N,GND*%
X62094700Y-78065200D02*
X62620200Y-78590700D01*
X62620200Y-78590700D02*
X67103800Y-78590700D01*
X67103800Y-78590700D02*
X67183000Y-78511500D01*
X60960000Y-136525000D02*
X60960000Y-135156500D01*
X60960000Y-135156500D02*
X61595000Y-134521500D01*
X61595000Y-134521500D02*
X61595000Y-132904000D01*
X51181000Y-87184000D02*
X51181000Y-86398400D01*
X51181000Y-86398400D02*
X52719900Y-84859500D01*
X52719900Y-84859500D02*
X55903500Y-84859500D01*
X57569000Y-84859500D02*
X57597000Y-84887500D01*
X58420000Y-51061000D02*
X58420000Y-51356500D01*
X58420000Y-50038000D02*
X58420000Y-51061000D01*
X56929600Y-59029500D02*
X55626000Y-59029500D01*
X62850000Y-60678500D02*
X62586700Y-60678500D01*
X62586700Y-60678500D02*
X60937700Y-59029500D01*
X60937700Y-59029500D02*
X58394500Y-59029500D01*
X56929600Y-59029500D02*
X56929600Y-52517300D01*
X56929600Y-52517300D02*
X58090400Y-51356500D01*
X58090400Y-51356500D02*
X58420000Y-51356500D01*
X58217500Y-76962000D02*
X58217500Y-76783800D01*
X58217500Y-76783800D02*
X58146600Y-76712900D01*
D27*
X58217500Y-76962000D02*
X57632500Y-76962000D01*
X57632500Y-76962000D02*
X57150000Y-77444500D01*
X60284000Y-76962000D02*
X58217500Y-76962000D01*
D26*
X62850000Y-61407000D02*
X62850000Y-60678500D01*
X62850000Y-61407000D02*
X62850000Y-62135500D01*
X62850000Y-62135500D02*
X66236000Y-62135500D01*
X66236000Y-62135500D02*
X66548000Y-61823500D01*
X55880000Y-90805000D02*
X54561500Y-90805000D01*
X51181000Y-87184000D02*
X51181000Y-91309600D01*
X51181000Y-91309600D02*
X51956200Y-92084800D01*
X51956200Y-92084800D02*
X53281700Y-92084800D01*
X53281700Y-92084800D02*
X54561500Y-90805000D01*
X57597000Y-84887500D02*
X57759500Y-84725000D01*
X57759500Y-84725000D02*
X57759500Y-84201000D01*
X60960000Y-106045000D02*
X60960000Y-104676500D01*
X61595000Y-102424000D02*
X60960000Y-103059000D01*
X60960000Y-103059000D02*
X60960000Y-104676500D01*
X57597000Y-85741000D02*
X57597000Y-84887500D01*
X52578000Y-47498000D02*
X50038000Y-47498000D01*
X51435000Y-118999000D02*
X51435000Y-117664000D01*
X55880000Y-121285000D02*
X53721000Y-121285000D01*
X53721000Y-121285000D02*
X51435000Y-118999000D01*
X50165000Y-61784000D02*
X50165000Y-60579000D01*
X51714500Y-59029500D02*
X55626000Y-59029500D01*
X50165000Y-60579000D02*
X51714500Y-59029500D01*
X57150000Y-73050000D02*
X56540000Y-73050000D01*
X50165000Y-66675000D02*
X50165000Y-61784000D01*
X56540000Y-73050000D02*
X50165000Y-66675000D01*
X58554000Y-51061000D02*
X58420000Y-51061000D01*
X64008000Y-52578000D02*
X60071000Y-52578000D01*
X60071000Y-52578000D02*
X58554000Y-51061000D01*
X58394500Y-59029500D02*
X56929600Y-59029500D01*
X55903500Y-84859500D02*
X57569000Y-84859500D01*
X64008000Y-44958000D02*
X63655590Y-44605590D01*
X54765590Y-44605590D02*
X52578000Y-42418000D01*
X63655590Y-44605590D02*
X54765590Y-44605590D01*
%TO.N,+12V*%
X65405000Y-102514500D02*
X65405000Y-102424000D01*
X65405000Y-102514500D02*
X67310000Y-102514500D01*
X65405000Y-132904000D02*
X65405000Y-132232500D01*
X65405000Y-132232500D02*
X67310000Y-132232500D01*
X49855400Y-116542500D02*
X49784000Y-116471100D01*
X49784000Y-116471100D02*
X49784000Y-114198500D01*
X53432900Y-115763700D02*
X53920200Y-115763700D01*
X53920200Y-115763700D02*
X55245000Y-117088500D01*
X55245000Y-117088500D02*
X55245000Y-117664000D01*
X55906400Y-86715000D02*
X60654500Y-86715000D01*
X60654500Y-86715000D02*
X61214000Y-87274500D01*
X54991000Y-87184000D02*
X55460000Y-86715000D01*
X55460000Y-86715000D02*
X55906400Y-86715000D01*
X50933300Y-84426500D02*
X50479300Y-83972500D01*
X50479300Y-83972500D02*
X49530000Y-83972500D01*
X52578000Y-39878000D02*
X55372000Y-39878000D01*
X63318911Y-130146411D02*
X65405000Y-132232500D01*
X59407411Y-130146411D02*
X63318911Y-130146411D01*
X49855400Y-116542500D02*
X49855400Y-120594400D01*
X49855400Y-120594400D02*
X59407411Y-130146411D01*
X65405000Y-105283000D02*
X65405000Y-102514500D01*
X58838100Y-107722900D02*
X62965100Y-107722900D01*
X62965100Y-107722900D02*
X65405000Y-105283000D01*
%TO.N,-12V*%
X50730800Y-112714000D02*
X51435000Y-112714000D01*
X50513300Y-112623500D02*
X50603800Y-112714000D01*
X50603800Y-112714000D02*
X50730800Y-112714000D01*
X61336900Y-97732100D02*
X57028400Y-97732100D01*
X57028400Y-97732100D02*
X53230700Y-101529800D01*
X61595000Y-97474000D02*
X61336900Y-97732100D01*
X52578000Y-50038000D02*
X50038000Y-50038000D01*
X53964500Y-49926000D02*
X53852500Y-50038000D01*
X53852500Y-50038000D02*
X52578000Y-50038000D01*
X50513300Y-111673600D02*
X50513300Y-112623500D01*
X50513300Y-112623500D02*
X49784000Y-112623500D01*
X49693500Y-82234000D02*
X49394600Y-81935100D01*
X49394600Y-81935100D02*
X49394600Y-51934900D01*
X49394600Y-51934900D02*
X50038000Y-51291500D01*
X49693500Y-82234000D02*
X51181000Y-82234000D01*
X50038000Y-50038000D02*
X50038000Y-51291500D01*
X49693500Y-82234000D02*
X49530000Y-82397500D01*
X55118000Y-49926000D02*
X53964500Y-49926000D01*
X58612000Y-127954000D02*
X61595000Y-127954000D01*
X50730800Y-112714000D02*
X50730800Y-120072800D01*
X50730800Y-120072800D02*
X58612000Y-127954000D01*
X66192500Y-129540000D02*
X67310000Y-130657500D01*
X62631800Y-129540000D02*
X66192500Y-129540000D01*
X61595000Y-127954000D02*
X61595000Y-128503200D01*
X61595000Y-128503200D02*
X62631800Y-129540000D01*
X65684500Y-99314000D02*
X67310000Y-100939500D01*
X61336900Y-97732100D02*
X62918800Y-99314000D01*
X62918800Y-99314000D02*
X65684500Y-99314000D01*
%TO.N,+5V*%
X66487700Y-63246700D02*
X66548000Y-63307000D01*
X66548000Y-63307000D02*
X66548000Y-63398500D01*
X64150000Y-63307000D02*
X64210300Y-63246700D01*
X64210300Y-63246700D02*
X66487700Y-63246700D01*
X64150000Y-63307000D02*
X64150000Y-64035500D01*
X58308000Y-67310000D02*
X59211500Y-67310000D01*
X59211500Y-67310000D02*
X60875500Y-67310000D01*
X60875500Y-67310000D02*
X64150000Y-64035500D01*
X62044000Y-53831500D02*
X60757500Y-55118000D01*
X66548000Y-52578000D02*
X66548000Y-52705000D01*
X65421500Y-53831500D02*
X62044000Y-53831500D01*
X66548000Y-52705000D02*
X65421500Y-53831500D01*
X54127500Y-61784000D02*
X54446500Y-61784000D01*
X54446500Y-61784000D02*
X55626000Y-60604500D01*
X53975000Y-61784000D02*
X54127500Y-61784000D01*
X55626000Y-63164738D02*
X55626000Y-60604500D01*
X58308000Y-67310000D02*
X58308000Y-65846738D01*
X58308000Y-65846738D02*
X55626000Y-63164738D01*
X67182300Y-63246700D02*
X66487700Y-63246700D01*
X67430600Y-62998400D02*
X67182300Y-63246700D01*
X67430600Y-60572600D02*
X67430600Y-62998400D01*
X66640400Y-59782400D02*
X67430600Y-60572600D01*
X60918000Y-55118000D02*
X62400000Y-56600000D01*
X63982400Y-59782400D02*
X66640400Y-59782400D01*
X60757500Y-55118000D02*
X60918000Y-55118000D01*
X62400000Y-56600000D02*
X62400000Y-58200000D01*
X62400000Y-58200000D02*
X63982400Y-59782400D01*
D25*
%TO.N,Net-(D1-Pad2)*%
X28422000Y-94462000D02*
X28422000Y-89535000D01*
X39878000Y-98044000D02*
X32004000Y-98044000D01*
X43942000Y-110510000D02*
X43942000Y-102108000D01*
X32004000Y-98044000D02*
X28422000Y-94462000D01*
X43942000Y-102108000D02*
X39878000Y-98044000D01*
%TO.N,Net-(D1-Pad1)*%
X44696000Y-115550000D02*
X45085000Y-115161000D01*
X43942000Y-115550000D02*
X44696000Y-115550000D01*
X45085000Y-115161000D02*
X45085000Y-101346000D01*
X45085000Y-101346000D02*
X40894000Y-97155000D01*
X40894000Y-97155000D02*
X33909000Y-97155000D01*
X31522000Y-94768000D02*
X31522000Y-89535000D01*
X33909000Y-97155000D02*
X31522000Y-94768000D01*
%TO.N,Net-(D3-Pad2)*%
X39598000Y-108305000D02*
X39598000Y-104775000D01*
X41402000Y-110510000D02*
X41402000Y-110109000D01*
X41402000Y-110109000D02*
X39598000Y-108305000D01*
%TO.N,Net-(D3-Pad1)*%
X41402000Y-115550000D02*
X41402000Y-113665000D01*
X42698000Y-112369000D02*
X42698000Y-104775000D01*
X41402000Y-113665000D02*
X42698000Y-112369000D01*
%TO.N,RX*%
X52705000Y-61784000D02*
X52705000Y-59889900D01*
X52705000Y-59889900D02*
X52741900Y-59853000D01*
X51435000Y-61784000D02*
X52552500Y-61784000D01*
X58928000Y-42951500D02*
X57441400Y-42951500D01*
X57441400Y-42951500D02*
X57417400Y-42975500D01*
X52552500Y-61784000D02*
X52705000Y-61784000D01*
X52552500Y-61784000D02*
X52552500Y-63881000D01*
%TO.N,MOSI*%
X60432700Y-51692300D02*
X60452000Y-51673000D01*
X60452000Y-51673000D02*
X60452000Y-50571500D01*
X58547000Y-72072500D02*
X58608700Y-72010800D01*
X59743600Y-74983600D02*
X58547000Y-73787000D01*
X61722000Y-75580500D02*
X61125100Y-74983600D01*
X63781400Y-77462000D02*
X63724500Y-77518900D01*
X64684000Y-77462000D02*
X63781400Y-77462000D01*
X58547000Y-73787000D02*
X58547000Y-72072500D01*
X63724500Y-77518900D02*
X63064300Y-77518900D01*
X61125100Y-74983600D02*
X59743600Y-74983600D01*
X63064300Y-77518900D02*
X61722000Y-76176600D01*
X61722000Y-76176600D02*
X61722000Y-75580500D01*
D26*
%TO.N,+3V3*%
X59634900Y-71425700D02*
X62467100Y-74257900D01*
X62467100Y-74257900D02*
X62467100Y-76138700D01*
X62467100Y-76138700D02*
X63290400Y-76962000D01*
X63290400Y-76962000D02*
X63500000Y-76962000D01*
D27*
X64684000Y-76962000D02*
X63500000Y-76962000D01*
D26*
X66548000Y-57658000D02*
X64008000Y-57658000D01*
D27*
X64684000Y-76962000D02*
X67157500Y-76962000D01*
X67157500Y-76962000D02*
X67183000Y-76936500D01*
D26*
X59634900Y-71425700D02*
X60017600Y-71425700D01*
X64008000Y-67435300D02*
X64008000Y-67052600D01*
X60017600Y-71425700D02*
X64008000Y-67435300D01*
X59329200Y-71120000D02*
X59634900Y-71425700D01*
X55626000Y-71120000D02*
X59329200Y-71120000D01*
X54127500Y-63881000D02*
X54127500Y-69621500D01*
X54127500Y-69621500D02*
X55626000Y-71120000D01*
D25*
%TO.N,TX*%
X60452000Y-42951500D02*
X61488400Y-42951500D01*
X61488400Y-42951500D02*
X61581100Y-43044200D01*
X63500000Y-61407000D02*
X63500000Y-60435912D01*
X63500000Y-60435912D02*
X61500344Y-58436256D01*
%TO.N,CS*%
X64684000Y-76462000D02*
X65711300Y-76462000D01*
X65711300Y-76462000D02*
X66294000Y-75879300D01*
X66294000Y-75879300D02*
X66294000Y-69875500D01*
%TO.N,CLK*%
X64684000Y-77962000D02*
X65890900Y-77962000D01*
X65890900Y-77962000D02*
X66128900Y-77724000D01*
X66128900Y-77724000D02*
X67659300Y-77724000D01*
X67659300Y-77724000D02*
X68023900Y-77359400D01*
X68023900Y-77359400D02*
X68023900Y-75669400D01*
X68023900Y-75669400D02*
X67310000Y-74955500D01*
%TO.N,/_MIDIIN2*%
X51435000Y-56834000D02*
X51435000Y-55219500D01*
X51435000Y-55219500D02*
X52044500Y-54610000D01*
X51816000Y-54381500D02*
X52044500Y-54610000D01*
X51816000Y-52320200D02*
X51816000Y-54381500D01*
X56896000Y-48462000D02*
X56896000Y-50292000D01*
X58420000Y-46938000D02*
X56896000Y-48462000D01*
X52920800Y-51215400D02*
X51816000Y-52320200D01*
X56896000Y-50292000D02*
X55972600Y-51215400D01*
X55972600Y-51215400D02*
X52920800Y-51215400D01*
%TO.N,/_MIDIIN1*%
X52832000Y-53060500D02*
X52603500Y-52832000D01*
X52705000Y-56834000D02*
X52832000Y-56707000D01*
X52832000Y-56707000D02*
X52832000Y-53060500D01*
X52832000Y-53060500D02*
X52973500Y-53060500D01*
X52973500Y-53060500D02*
X54052200Y-51981800D01*
%TO.N,/_MIDIOUT*%
X62850000Y-63307000D02*
X62850000Y-63959300D01*
X60884000Y-63500000D02*
X61343300Y-63959300D01*
X61343300Y-63959300D02*
X62850000Y-63959300D01*
%TO.N,Net-(J6-PadT)*%
X67208500Y-118618000D02*
X67208500Y-121213500D01*
X67208500Y-121213500D02*
X67280000Y-121285000D01*
%TO.N,Net-(J7-PadT)*%
X52989000Y-139954000D02*
X49560000Y-136525000D01*
X66802000Y-137693500D02*
X64541500Y-139954000D01*
X64541500Y-139954000D02*
X52989000Y-139954000D01*
%TO.N,Net-(J8-PadT)*%
X67310000Y-88290500D02*
X67280000Y-88320500D01*
X67280000Y-88320500D02*
X67280000Y-90805000D01*
D26*
%TO.N,VREF*%
X52705000Y-112714000D02*
X52705000Y-112151100D01*
X52705000Y-112151100D02*
X51129300Y-110575400D01*
X51129300Y-110575400D02*
X51129300Y-103993600D01*
X51129300Y-103993600D02*
X50770100Y-103634400D01*
X50770100Y-103634400D02*
X50770100Y-95458700D01*
X50770100Y-95458700D02*
X52504000Y-93724800D01*
X57193800Y-81857300D02*
X57759500Y-82423000D01*
X57150000Y-79019500D02*
X57150000Y-81813500D01*
X57150000Y-81813500D02*
X57193800Y-81857300D01*
X59942800Y-93724800D02*
X52504000Y-93724800D01*
X62865000Y-97474000D02*
X62865000Y-96647000D01*
X62865000Y-96647000D02*
X59942800Y-93724800D01*
X52451000Y-83312000D02*
X52451000Y-82234000D01*
X53467000Y-83947000D02*
X53086000Y-83947000D01*
X53086000Y-83947000D02*
X52451000Y-83312000D01*
X50440900Y-91661700D02*
X52504000Y-93724800D01*
X55104100Y-83947000D02*
X53131650Y-83947000D01*
X57193800Y-81857300D02*
X55104100Y-83947000D01*
X53131650Y-83947000D02*
X52840475Y-83655825D01*
X52840475Y-83655825D02*
X50440900Y-86055400D01*
X50440900Y-86055400D02*
X50440900Y-91661700D01*
X52578000Y-112776000D02*
X52640000Y-112714000D01*
X62709400Y-127798400D02*
X62709400Y-122570900D01*
X52640000Y-112714000D02*
X52705000Y-112714000D01*
X62709400Y-122570900D02*
X54692500Y-114554000D01*
X52705000Y-112903000D02*
X52578000Y-112776000D01*
X62865000Y-127954000D02*
X62709400Y-127798400D01*
X52705000Y-114554000D02*
X52705000Y-112903000D01*
X54692500Y-114554000D02*
X52705000Y-114554000D01*
D25*
%TO.N,DACX*%
X59256700Y-77462000D02*
X59256700Y-78916200D01*
X59256700Y-78916200D02*
X59324400Y-78983900D01*
X60284000Y-77462000D02*
X59256700Y-77462000D01*
X57533300Y-95755700D02*
X57533300Y-94573500D01*
X51689000Y-101574500D02*
X51714500Y-101574500D01*
X51714500Y-101574500D02*
X57533300Y-95755700D01*
%TO.N,DACB*%
X60284000Y-76462000D02*
X61311300Y-76462000D01*
X61311300Y-76462000D02*
X61311300Y-78764600D01*
X61311300Y-78764600D02*
X63246000Y-80699300D01*
X63246000Y-80699300D02*
X63246000Y-90144500D01*
%TO.N,DACA*%
X60284000Y-75962000D02*
X59256700Y-75962000D01*
X59256700Y-75962000D02*
X58732700Y-75438000D01*
X58732700Y-75438000D02*
X56286500Y-75438000D01*
%TO.N,DACY*%
X60284000Y-77962000D02*
X60284000Y-80309700D01*
X60284000Y-80309700D02*
X60246700Y-80347000D01*
X65176500Y-122301000D02*
X63222700Y-120347200D01*
X63222700Y-120347200D02*
X62962700Y-120347200D01*
%TO.N,Net-(J1-Pad16)*%
X64008000Y-39878000D02*
X60426500Y-39878000D01*
X60426500Y-39878000D02*
X58928000Y-41376500D01*
%TO.N,Net-(J1-Pad15)*%
X65024000Y-41148000D02*
X60680500Y-41148000D01*
X66548000Y-39878000D02*
X66294000Y-39878000D01*
X60680500Y-41148000D02*
X60452000Y-41376500D01*
X66294000Y-39878000D02*
X65024000Y-41148000D01*
%TO.N,Net-(J1-Pad13)*%
X67964000Y-43453000D02*
X67964000Y-66630500D01*
X67964000Y-66630500D02*
X66294000Y-68300500D01*
X66548000Y-42418000D02*
X66929000Y-42418000D01*
X66929000Y-42418000D02*
X67964000Y-43453000D01*
%TO.N,Net-(J1-Pad9)*%
X67310000Y-73380500D02*
X67725400Y-72965100D01*
X67725400Y-72965100D02*
X67725400Y-72306700D01*
%TO.N,Net-(J1-Pad8)*%
X64008000Y-50038000D02*
X62830700Y-50038000D01*
X62830700Y-50038000D02*
X61789200Y-48996500D01*
X61789200Y-48996500D02*
X60452000Y-48996500D01*
%TO.N,Net-(C10-Pad2)*%
X63347500Y-93345000D02*
X63347500Y-94869000D01*
X63347500Y-94869000D02*
X64135000Y-95656500D01*
X64135000Y-95656500D02*
X64135000Y-97474000D01*
X63246000Y-91719500D02*
X63246000Y-93243500D01*
X63246000Y-93243500D02*
X63347500Y-93345000D01*
%TO.N,Net-(C10-Pad1)*%
X65405000Y-97474000D02*
X68126300Y-100195300D01*
X68126300Y-100195300D02*
X68126300Y-101387600D01*
X68126300Y-101387600D02*
X67765100Y-101748800D01*
X67765100Y-101748800D02*
X66831200Y-101748800D01*
X66831200Y-101748800D02*
X65290000Y-100207600D01*
X65290000Y-100207600D02*
X57881900Y-100207600D01*
X57881900Y-100207600D02*
X54076500Y-104013000D01*
X64922500Y-94869000D02*
X65405000Y-95351500D01*
X65405000Y-95351500D02*
X65405000Y-97474000D01*
X64922500Y-94869000D02*
X64922500Y-93345000D01*
X54076500Y-104013000D02*
X54076500Y-105969000D01*
X54076500Y-105969000D02*
X54000500Y-106045000D01*
%TO.N,Net-(C11-Pad2)*%
X52552500Y-108585000D02*
X51659900Y-107692400D01*
X51659900Y-107692400D02*
X51659900Y-103178600D01*
X51659900Y-103178600D02*
X51689000Y-103149500D01*
X52552500Y-110109000D02*
X52552500Y-108585000D01*
X53975000Y-112714000D02*
X53975000Y-111531500D01*
X53975000Y-111531500D02*
X52552500Y-110109000D01*
%TO.N,Net-(C11-Pad1)*%
X54127500Y-110109000D02*
X55245000Y-111226500D01*
X55245000Y-111226500D02*
X55245000Y-112714000D01*
X65633500Y-118618000D02*
X63906500Y-118618000D01*
X54127500Y-110109000D02*
X54127500Y-108585000D01*
X63091300Y-119433200D02*
X63906500Y-118618000D01*
X61013200Y-119433200D02*
X63091300Y-119433200D01*
X55245000Y-112714000D02*
X55245000Y-113665000D01*
X55245000Y-113665000D02*
X61013200Y-119433200D01*
%TO.N,Net-(C12-Pad2)*%
X64135000Y-127954000D02*
X64135000Y-126009500D01*
X64135000Y-126009500D02*
X63601500Y-125476000D01*
X63601500Y-122301000D02*
X63601500Y-123952000D01*
X63601500Y-123952000D02*
X63601500Y-125476000D01*
%TO.N,Net-(C12-Pad1)*%
X65532000Y-127827000D02*
X65405000Y-127954000D01*
X65532000Y-125831500D02*
X65532000Y-127827000D01*
X65532000Y-127827000D02*
X65736900Y-127827000D01*
X65736900Y-127827000D02*
X68177900Y-130268000D01*
X68177900Y-130268000D02*
X68177900Y-134742600D01*
X68177900Y-134742600D02*
X66802000Y-136118500D01*
X65532000Y-125831500D02*
X65176500Y-125476000D01*
X67056000Y-125831500D02*
X65532000Y-125831500D01*
X65176500Y-123952000D02*
X65176500Y-125476000D01*
%TO.N,Net-(C13-Pad2)*%
X53721000Y-80035500D02*
X53340000Y-79654500D01*
X53340000Y-79654500D02*
X52578000Y-79654500D01*
X53721000Y-80035500D02*
X54102000Y-79654500D01*
X53721000Y-82234000D02*
X53721000Y-80035500D01*
X53463300Y-75438000D02*
X54711500Y-75438000D01*
X51562000Y-77339300D02*
X53463300Y-75438000D01*
X52578000Y-79654500D02*
X51562000Y-78638500D01*
X51562000Y-78638500D02*
X51562000Y-77339300D01*
%TO.N,Net-(C13-Pad1)*%
X60947500Y-89109100D02*
X62017200Y-88039400D01*
X62017200Y-88039400D02*
X62017200Y-82799400D01*
X62017200Y-82799400D02*
X60539000Y-81321200D01*
X60539000Y-81321200D02*
X60181700Y-81321200D01*
X60181700Y-81321200D02*
X58589600Y-79729100D01*
X58589600Y-79729100D02*
X58589600Y-79211600D01*
X58589600Y-79211600D02*
X57588200Y-78210200D01*
X57588200Y-78210200D02*
X55749300Y-78210200D01*
X55749300Y-78210200D02*
X54991000Y-78968500D01*
X60947500Y-89109100D02*
X60524500Y-89532100D01*
X60524500Y-89532100D02*
X59922000Y-89532100D01*
X59922000Y-89532100D02*
X59772700Y-89382800D01*
X59772700Y-89382800D02*
X54279700Y-89382800D01*
X54279700Y-89382800D02*
X52451000Y-91211500D01*
X67310000Y-86715500D02*
X64852400Y-89173100D01*
X64852400Y-89173100D02*
X64852400Y-89832800D01*
X64852400Y-89832800D02*
X63753200Y-90932000D01*
X63753200Y-90932000D02*
X62770400Y-90932000D01*
X62770400Y-90932000D02*
X60947500Y-89109100D01*
X54991000Y-78968500D02*
X54102000Y-78079500D01*
X54991000Y-82234000D02*
X54991000Y-78968500D01*
X54102000Y-78079500D02*
X52578000Y-78079500D01*
%TO.N,Net-(R2-Pad2)*%
X53975000Y-56834000D02*
X53975000Y-54965500D01*
X53975000Y-54965500D02*
X53619500Y-54610000D01*
%TO.N,Net-(R3-Pad2)*%
X50165000Y-56834000D02*
X50165000Y-53695500D01*
X50165000Y-53695500D02*
X51028500Y-52832000D01*
%TO.N,Net-(J2-PadT)*%
X59309000Y-63500000D02*
X58420000Y-62611000D01*
X58420000Y-62611000D02*
X58420000Y-61438000D01*
%TO.N,Net-(J5-PadT)*%
X52425500Y-106045000D02*
X52425500Y-104964500D01*
X52425500Y-104964500D02*
X52388100Y-104927100D01*
%TO.N,Net-(J9-Pad1)*%
X57150000Y-69850000D02*
X57150000Y-68822700D01*
X57008000Y-67310000D02*
X57008000Y-68680700D01*
X57008000Y-68680700D02*
X57150000Y-68822700D01*
%TO.N,Net-(J2-PadTN)*%
X59182500Y-55118000D02*
X58420000Y-54355500D01*
X58420000Y-54355500D02*
X58420000Y-53138000D01*
D26*
%TO.N,+12VB*%
X57175000Y-43884500D02*
X55372000Y-42081500D01*
X55372000Y-42081500D02*
X55372000Y-41178000D01*
X66421000Y-44958000D02*
X65167500Y-43704500D01*
X61877200Y-43884500D02*
X57175000Y-43884500D01*
X66548000Y-44958000D02*
X66421000Y-44958000D01*
X65167500Y-43704500D02*
X62057200Y-43704500D01*
X62057200Y-43704500D02*
X61877200Y-43884500D01*
%TO.N,-12VB*%
X57628500Y-45212000D02*
X55118000Y-47722500D01*
X63477900Y-48784500D02*
X59905400Y-45212000D01*
X65040500Y-48784500D02*
X63477900Y-48784500D01*
X55118000Y-47722500D02*
X55118000Y-48626000D01*
X66548000Y-50038000D02*
X66294000Y-50038000D01*
X59905400Y-45212000D02*
X57628500Y-45212000D01*
X66294000Y-50038000D02*
X65040500Y-48784500D01*
D25*
%TO.N,Net-(D5-Pad2)*%
X28422000Y-115850000D02*
X28422000Y-122555000D01*
X31496000Y-112776000D02*
X28422000Y-115850000D01*
X38862000Y-110510000D02*
X38862000Y-112014000D01*
X38100000Y-112776000D02*
X31496000Y-112776000D01*
X38862000Y-112014000D02*
X38100000Y-112776000D01*
%TO.N,Net-(D5-Pad1)*%
X31522000Y-115417000D02*
X31522000Y-122555000D01*
X33528000Y-113411000D02*
X31522000Y-115417000D01*
X38100000Y-113411000D02*
X33528000Y-113411000D01*
X38862000Y-115550000D02*
X38862000Y-114173000D01*
X38862000Y-114173000D02*
X38100000Y-113411000D01*
%TO.N,Net-(D7-Pad2)*%
X39598000Y-133070000D02*
X39598000Y-137795000D01*
X37592000Y-131064000D02*
X39598000Y-133070000D01*
X31730000Y-110510000D02*
X26797000Y-115443000D01*
X26797000Y-124841000D02*
X33020000Y-131064000D01*
X36322000Y-110510000D02*
X31730000Y-110510000D01*
X33020000Y-131064000D02*
X37592000Y-131064000D01*
X26797000Y-115443000D02*
X26797000Y-124841000D01*
%TO.N,Net-(D7-Pad1)*%
X36322000Y-115550000D02*
X34183000Y-115550000D01*
X34183000Y-115550000D02*
X33020000Y-116713000D01*
X33020000Y-116713000D02*
X33020000Y-125095000D01*
X33020000Y-125095000D02*
X37338000Y-129413000D01*
X37338000Y-129413000D02*
X38989000Y-129413000D01*
X42698000Y-133122000D02*
X42698000Y-137795000D01*
X38989000Y-129413000D02*
X42698000Y-133122000D01*
%TO.N,N4*%
X63096500Y-131080400D02*
X62865000Y-131311900D01*
X62865000Y-131311900D02*
X62865000Y-132904000D01*
X67056000Y-127406500D02*
X67670600Y-128021100D01*
X67670600Y-128021100D02*
X67670600Y-128438900D01*
%TO.N,P4*%
X62237000Y-133979700D02*
X62237000Y-131397321D01*
X62464300Y-134207000D02*
X62237000Y-133979700D01*
X62237000Y-131397321D02*
X61789300Y-130949621D01*
X63807000Y-134207000D02*
X62464300Y-134207000D01*
X64135000Y-132904000D02*
X64135000Y-133879000D01*
X64135000Y-133879000D02*
X63807000Y-134207000D01*
%TO.N,N3*%
X52578000Y-118364000D02*
X53975000Y-119761000D01*
X52705000Y-117664000D02*
X52578000Y-117791000D01*
X52578000Y-117791000D02*
X52578000Y-118364000D01*
X62331500Y-118618000D02*
X62992000Y-117957500D01*
X56826685Y-110871000D02*
X56261000Y-110871000D01*
X60071000Y-110236000D02*
X57461685Y-110236000D01*
X62992000Y-113157000D02*
X60071000Y-110236000D01*
X57461685Y-110236000D02*
X56826685Y-110871000D01*
X62992000Y-117957500D02*
X62992000Y-113157000D01*
%TO.N,P3*%
X58249400Y-122892400D02*
X61894600Y-122892400D01*
X57277000Y-121920000D02*
X58249400Y-122892400D01*
X53975000Y-118364000D02*
X55118000Y-119507000D01*
X57277000Y-119888000D02*
X57277000Y-121920000D01*
X53975000Y-117664000D02*
X53975000Y-118364000D01*
X55118000Y-119507000D02*
X56896000Y-119507000D01*
X56896000Y-119507000D02*
X57277000Y-119888000D01*
%TO.N,N2*%
X62865000Y-102424000D02*
X62865000Y-101374300D01*
X62865000Y-101374300D02*
X62152700Y-100662000D01*
X62152700Y-100662000D02*
X59272800Y-100662000D01*
X59272800Y-100662000D02*
X55921800Y-104013000D01*
X55921800Y-104013000D02*
X55651500Y-104013000D01*
X64262000Y-110871000D02*
X64262000Y-112268000D01*
X55626000Y-104308800D02*
X55626000Y-107188000D01*
X55921800Y-104013000D02*
X55626000Y-104308800D01*
X62992000Y-109601000D02*
X64262000Y-110871000D01*
X55626000Y-107188000D02*
X58039000Y-109601000D01*
X58039000Y-109601000D02*
X62992000Y-109601000D01*
%TO.N,P2*%
X65532000Y-110617000D02*
X65532000Y-113030000D01*
X63754000Y-108839000D02*
X65532000Y-110617000D01*
X62484000Y-104013000D02*
X62230000Y-103759000D01*
X63500000Y-104013000D02*
X62484000Y-104013000D01*
X62230000Y-103759000D02*
X62230000Y-101381800D01*
X62230000Y-101381800D02*
X61964500Y-101116300D01*
X64135000Y-102424000D02*
X64135000Y-103378000D01*
X56134000Y-105196550D02*
X56134000Y-106746750D01*
X64135000Y-103378000D02*
X63500000Y-104013000D01*
X60214250Y-101116300D02*
X56134000Y-105196550D01*
X61964500Y-101116300D02*
X60214250Y-101116300D01*
X56134000Y-106746750D02*
X58226250Y-108839000D01*
X65532000Y-113030000D02*
X64262000Y-114300000D01*
X58226250Y-108839000D02*
X63754000Y-108839000D01*
%TO.N,N1*%
X52451000Y-87184000D02*
X52451000Y-86264800D01*
X52451000Y-86264800D02*
X53052800Y-85663000D01*
X52451000Y-89636500D02*
X52451000Y-87184000D01*
D27*
X52451000Y-89636500D02*
X52857500Y-89636500D01*
X52857500Y-89636500D02*
X53467000Y-89027000D01*
X53467000Y-96393000D02*
X55753000Y-96393000D01*
X55753000Y-96393000D02*
X56769000Y-95377000D01*
X61763200Y-104394000D02*
X62525200Y-105156000D01*
X62525200Y-105156000D02*
X63754000Y-105156000D01*
D25*
%TO.N,P1*%
X53721000Y-87184000D02*
X53721000Y-87566700D01*
X53721000Y-87566700D02*
X54959100Y-88804800D01*
X54959100Y-88804800D02*
X60223300Y-88804800D01*
%TD*%
%TO.N,GND*%
G36*
X49029329Y-120758715D02*
G01*
X49077258Y-120916716D01*
X49155091Y-121062331D01*
X49232155Y-121156233D01*
X49259837Y-121189964D01*
X49291813Y-121216206D01*
X58785600Y-130709993D01*
X58811847Y-130741975D01*
X58882001Y-130799549D01*
X58939479Y-130846720D01*
X59085094Y-130924553D01*
X59243095Y-130972482D01*
X59407411Y-130988666D01*
X59448581Y-130984611D01*
X60754300Y-130984611D01*
X60754300Y-131051560D01*
X60794074Y-131251519D01*
X60872095Y-131439877D01*
X60878451Y-131449390D01*
X60843815Y-131477815D01*
X60764463Y-131574506D01*
X60705498Y-131684820D01*
X60669188Y-131804518D01*
X60656928Y-131929000D01*
X60660000Y-132618250D01*
X60818750Y-132777000D01*
X61468000Y-132777000D01*
X61468000Y-132757000D01*
X61475001Y-132757000D01*
X61475000Y-133942277D01*
X61471314Y-133979700D01*
X61475000Y-134017123D01*
X61475000Y-134017125D01*
X61486026Y-134129077D01*
X61529598Y-134272714D01*
X61529599Y-134272715D01*
X61600355Y-134405092D01*
X61636870Y-134449585D01*
X61695578Y-134521122D01*
X61724654Y-134544984D01*
X61899016Y-134719346D01*
X61922878Y-134748422D01*
X62038908Y-134843645D01*
X62171285Y-134914402D01*
X62314922Y-134957974D01*
X62426874Y-134969000D01*
X62426877Y-134969000D01*
X62464300Y-134972686D01*
X62501723Y-134969000D01*
X63769577Y-134969000D01*
X63807000Y-134972686D01*
X63844423Y-134969000D01*
X63844426Y-134969000D01*
X63956378Y-134957974D01*
X64100015Y-134914402D01*
X64232392Y-134843645D01*
X64348422Y-134748422D01*
X64372284Y-134719346D01*
X64647346Y-134444284D01*
X64676422Y-134420422D01*
X64693029Y-134400187D01*
X64722829Y-134384258D01*
X64770000Y-134345546D01*
X64817171Y-134384258D01*
X64953418Y-134457084D01*
X65101255Y-134501929D01*
X65255000Y-134517072D01*
X65555000Y-134517072D01*
X65708745Y-134501929D01*
X65856582Y-134457084D01*
X65992829Y-134384258D01*
X66112251Y-134286251D01*
X66210258Y-134166829D01*
X66283084Y-134030582D01*
X66327929Y-133882745D01*
X66343072Y-133729000D01*
X66343072Y-133070700D01*
X66464439Y-133070700D01*
X66577725Y-133163671D01*
X66725858Y-133242850D01*
X66886592Y-133291608D01*
X67053750Y-133308072D01*
X67415901Y-133308072D01*
X67415901Y-134426968D01*
X66799942Y-135042928D01*
X66545750Y-135042928D01*
X66378592Y-135059392D01*
X66217858Y-135108150D01*
X66069725Y-135187329D01*
X65939885Y-135293885D01*
X65833329Y-135423725D01*
X65754150Y-135571858D01*
X65705392Y-135732592D01*
X65688928Y-135899750D01*
X65688928Y-136337250D01*
X65705392Y-136504408D01*
X65754150Y-136665142D01*
X65833329Y-136813275D01*
X65909426Y-136906000D01*
X65833329Y-136998725D01*
X65754150Y-137146858D01*
X65705392Y-137307592D01*
X65688928Y-137474750D01*
X65688928Y-137728941D01*
X64225870Y-139192000D01*
X53304631Y-139192000D01*
X51176754Y-137064124D01*
X51194670Y-137020872D01*
X51260000Y-136692435D01*
X51260000Y-136357565D01*
X56160000Y-136357565D01*
X56160000Y-136692435D01*
X56225330Y-137020872D01*
X56353479Y-137330252D01*
X56539523Y-137608687D01*
X56776313Y-137845477D01*
X57054748Y-138031521D01*
X57364128Y-138159670D01*
X57692565Y-138225000D01*
X58027435Y-138225000D01*
X58355872Y-138159670D01*
X58665252Y-138031521D01*
X58943687Y-137845477D01*
X59180477Y-137608687D01*
X59366521Y-137330252D01*
X59408105Y-137229860D01*
X59406928Y-137490000D01*
X59419188Y-137614482D01*
X59455498Y-137734180D01*
X59514463Y-137844494D01*
X59593815Y-137941185D01*
X59690506Y-138020537D01*
X59800820Y-138079502D01*
X59920518Y-138115812D01*
X60045000Y-138128072D01*
X60674250Y-138125000D01*
X60833000Y-137966250D01*
X60833000Y-136652000D01*
X61087000Y-136652000D01*
X61087000Y-137966250D01*
X61245750Y-138125000D01*
X61875000Y-138128072D01*
X61999482Y-138115812D01*
X62119180Y-138079502D01*
X62229494Y-138020537D01*
X62326185Y-137941185D01*
X62405537Y-137844494D01*
X62464502Y-137734180D01*
X62500812Y-137614482D01*
X62513072Y-137490000D01*
X62510000Y-136810750D01*
X62351250Y-136652000D01*
X61087000Y-136652000D01*
X60833000Y-136652000D01*
X60813000Y-136652000D01*
X60813000Y-136398000D01*
X60833000Y-136398000D01*
X60833000Y-135083750D01*
X61087000Y-135083750D01*
X61087000Y-136398000D01*
X62351250Y-136398000D01*
X62510000Y-136239250D01*
X62513072Y-135560000D01*
X62500812Y-135435518D01*
X62464502Y-135315820D01*
X62405537Y-135205506D01*
X62326185Y-135108815D01*
X62229494Y-135029463D01*
X62119180Y-134970498D01*
X61999482Y-134934188D01*
X61875000Y-134921928D01*
X61245750Y-134925000D01*
X61087000Y-135083750D01*
X60833000Y-135083750D01*
X60674250Y-134925000D01*
X60045000Y-134921928D01*
X59920518Y-134934188D01*
X59800820Y-134970498D01*
X59690506Y-135029463D01*
X59593815Y-135108815D01*
X59514463Y-135205506D01*
X59455498Y-135315820D01*
X59419188Y-135435518D01*
X59406928Y-135560000D01*
X59408105Y-135820140D01*
X59366521Y-135719748D01*
X59180477Y-135441313D01*
X58943687Y-135204523D01*
X58665252Y-135018479D01*
X58355872Y-134890330D01*
X58027435Y-134825000D01*
X57692565Y-134825000D01*
X57364128Y-134890330D01*
X57054748Y-135018479D01*
X56776313Y-135204523D01*
X56539523Y-135441313D01*
X56353479Y-135719748D01*
X56225330Y-136029128D01*
X56160000Y-136357565D01*
X51260000Y-136357565D01*
X51194670Y-136029128D01*
X51066521Y-135719748D01*
X50880477Y-135441313D01*
X50643687Y-135204523D01*
X50365252Y-135018479D01*
X50055872Y-134890330D01*
X49727435Y-134825000D01*
X49392565Y-134825000D01*
X49064128Y-134890330D01*
X49022000Y-134907780D01*
X49022000Y-133879000D01*
X60656928Y-133879000D01*
X60669188Y-134003482D01*
X60705498Y-134123180D01*
X60764463Y-134233494D01*
X60843815Y-134330185D01*
X60940506Y-134409537D01*
X61050820Y-134468502D01*
X61170518Y-134504812D01*
X61295000Y-134517072D01*
X61309250Y-134514000D01*
X61468000Y-134355250D01*
X61468000Y-133031000D01*
X60818750Y-133031000D01*
X60660000Y-133189750D01*
X60656928Y-133879000D01*
X49022000Y-133879000D01*
X49022000Y-127039545D01*
X49044277Y-127006205D01*
X49110990Y-126845145D01*
X49145000Y-126674165D01*
X49145000Y-126499835D01*
X49110990Y-126328855D01*
X49044277Y-126167795D01*
X49022000Y-126134455D01*
X49022000Y-126039545D01*
X49044277Y-126006205D01*
X49110990Y-125845145D01*
X49145000Y-125674165D01*
X49145000Y-125499835D01*
X49110990Y-125328855D01*
X49044277Y-125167795D01*
X49022000Y-125134455D01*
X49022000Y-125039545D01*
X49044277Y-125006205D01*
X49110990Y-124845145D01*
X49145000Y-124674165D01*
X49145000Y-124499835D01*
X49110990Y-124328855D01*
X49044277Y-124167795D01*
X49022000Y-124134455D01*
X49022000Y-124039545D01*
X49044277Y-124006205D01*
X49110990Y-123845145D01*
X49145000Y-123674165D01*
X49145000Y-123499835D01*
X49110990Y-123328855D01*
X49044277Y-123167795D01*
X49022000Y-123134455D01*
X49022000Y-123039545D01*
X49044277Y-123006205D01*
X49110990Y-122845145D01*
X49145000Y-122674165D01*
X49145000Y-122499835D01*
X49110990Y-122328855D01*
X49044277Y-122167795D01*
X49022000Y-122134455D01*
X49022000Y-120684300D01*
X49029329Y-120758715D01*
G37*
X49029329Y-120758715D02*
X49077258Y-120916716D01*
X49155091Y-121062331D01*
X49232155Y-121156233D01*
X49259837Y-121189964D01*
X49291813Y-121216206D01*
X58785600Y-130709993D01*
X58811847Y-130741975D01*
X58882001Y-130799549D01*
X58939479Y-130846720D01*
X59085094Y-130924553D01*
X59243095Y-130972482D01*
X59407411Y-130988666D01*
X59448581Y-130984611D01*
X60754300Y-130984611D01*
X60754300Y-131051560D01*
X60794074Y-131251519D01*
X60872095Y-131439877D01*
X60878451Y-131449390D01*
X60843815Y-131477815D01*
X60764463Y-131574506D01*
X60705498Y-131684820D01*
X60669188Y-131804518D01*
X60656928Y-131929000D01*
X60660000Y-132618250D01*
X60818750Y-132777000D01*
X61468000Y-132777000D01*
X61468000Y-132757000D01*
X61475001Y-132757000D01*
X61475000Y-133942277D01*
X61471314Y-133979700D01*
X61475000Y-134017123D01*
X61475000Y-134017125D01*
X61486026Y-134129077D01*
X61529598Y-134272714D01*
X61529599Y-134272715D01*
X61600355Y-134405092D01*
X61636870Y-134449585D01*
X61695578Y-134521122D01*
X61724654Y-134544984D01*
X61899016Y-134719346D01*
X61922878Y-134748422D01*
X62038908Y-134843645D01*
X62171285Y-134914402D01*
X62314922Y-134957974D01*
X62426874Y-134969000D01*
X62426877Y-134969000D01*
X62464300Y-134972686D01*
X62501723Y-134969000D01*
X63769577Y-134969000D01*
X63807000Y-134972686D01*
X63844423Y-134969000D01*
X63844426Y-134969000D01*
X63956378Y-134957974D01*
X64100015Y-134914402D01*
X64232392Y-134843645D01*
X64348422Y-134748422D01*
X64372284Y-134719346D01*
X64647346Y-134444284D01*
X64676422Y-134420422D01*
X64693029Y-134400187D01*
X64722829Y-134384258D01*
X64770000Y-134345546D01*
X64817171Y-134384258D01*
X64953418Y-134457084D01*
X65101255Y-134501929D01*
X65255000Y-134517072D01*
X65555000Y-134517072D01*
X65708745Y-134501929D01*
X65856582Y-134457084D01*
X65992829Y-134384258D01*
X66112251Y-134286251D01*
X66210258Y-134166829D01*
X66283084Y-134030582D01*
X66327929Y-133882745D01*
X66343072Y-133729000D01*
X66343072Y-133070700D01*
X66464439Y-133070700D01*
X66577725Y-133163671D01*
X66725858Y-133242850D01*
X66886592Y-133291608D01*
X67053750Y-133308072D01*
X67415901Y-133308072D01*
X67415901Y-134426968D01*
X66799942Y-135042928D01*
X66545750Y-135042928D01*
X66378592Y-135059392D01*
X66217858Y-135108150D01*
X66069725Y-135187329D01*
X65939885Y-135293885D01*
X65833329Y-135423725D01*
X65754150Y-135571858D01*
X65705392Y-135732592D01*
X65688928Y-135899750D01*
X65688928Y-136337250D01*
X65705392Y-136504408D01*
X65754150Y-136665142D01*
X65833329Y-136813275D01*
X65909426Y-136906000D01*
X65833329Y-136998725D01*
X65754150Y-137146858D01*
X65705392Y-137307592D01*
X65688928Y-137474750D01*
X65688928Y-137728941D01*
X64225870Y-139192000D01*
X53304631Y-139192000D01*
X51176754Y-137064124D01*
X51194670Y-137020872D01*
X51260000Y-136692435D01*
X51260000Y-136357565D01*
X56160000Y-136357565D01*
X56160000Y-136692435D01*
X56225330Y-137020872D01*
X56353479Y-137330252D01*
X56539523Y-137608687D01*
X56776313Y-137845477D01*
X57054748Y-138031521D01*
X57364128Y-138159670D01*
X57692565Y-138225000D01*
X58027435Y-138225000D01*
X58355872Y-138159670D01*
X58665252Y-138031521D01*
X58943687Y-137845477D01*
X59180477Y-137608687D01*
X59366521Y-137330252D01*
X59408105Y-137229860D01*
X59406928Y-137490000D01*
X59419188Y-137614482D01*
X59455498Y-137734180D01*
X59514463Y-137844494D01*
X59593815Y-137941185D01*
X59690506Y-138020537D01*
X59800820Y-138079502D01*
X59920518Y-138115812D01*
X60045000Y-138128072D01*
X60674250Y-138125000D01*
X60833000Y-137966250D01*
X60833000Y-136652000D01*
X61087000Y-136652000D01*
X61087000Y-137966250D01*
X61245750Y-138125000D01*
X61875000Y-138128072D01*
X61999482Y-138115812D01*
X62119180Y-138079502D01*
X62229494Y-138020537D01*
X62326185Y-137941185D01*
X62405537Y-137844494D01*
X62464502Y-137734180D01*
X62500812Y-137614482D01*
X62513072Y-137490000D01*
X62510000Y-136810750D01*
X62351250Y-136652000D01*
X61087000Y-136652000D01*
X60833000Y-136652000D01*
X60813000Y-136652000D01*
X60813000Y-136398000D01*
X60833000Y-136398000D01*
X60833000Y-135083750D01*
X61087000Y-135083750D01*
X61087000Y-136398000D01*
X62351250Y-136398000D01*
X62510000Y-136239250D01*
X62513072Y-135560000D01*
X62500812Y-135435518D01*
X62464502Y-135315820D01*
X62405537Y-135205506D01*
X62326185Y-135108815D01*
X62229494Y-135029463D01*
X62119180Y-134970498D01*
X61999482Y-134934188D01*
X61875000Y-134921928D01*
X61245750Y-134925000D01*
X61087000Y-135083750D01*
X60833000Y-135083750D01*
X60674250Y-134925000D01*
X60045000Y-134921928D01*
X59920518Y-134934188D01*
X59800820Y-134970498D01*
X59690506Y-135029463D01*
X59593815Y-135108815D01*
X59514463Y-135205506D01*
X59455498Y-135315820D01*
X59419188Y-135435518D01*
X59406928Y-135560000D01*
X59408105Y-135820140D01*
X59366521Y-135719748D01*
X59180477Y-135441313D01*
X58943687Y-135204523D01*
X58665252Y-135018479D01*
X58355872Y-134890330D01*
X58027435Y-134825000D01*
X57692565Y-134825000D01*
X57364128Y-134890330D01*
X57054748Y-135018479D01*
X56776313Y-135204523D01*
X56539523Y-135441313D01*
X56353479Y-135719748D01*
X56225330Y-136029128D01*
X56160000Y-136357565D01*
X51260000Y-136357565D01*
X51194670Y-136029128D01*
X51066521Y-135719748D01*
X50880477Y-135441313D01*
X50643687Y-135204523D01*
X50365252Y-135018479D01*
X50055872Y-134890330D01*
X49727435Y-134825000D01*
X49392565Y-134825000D01*
X49064128Y-134890330D01*
X49022000Y-134907780D01*
X49022000Y-133879000D01*
X60656928Y-133879000D01*
X60669188Y-134003482D01*
X60705498Y-134123180D01*
X60764463Y-134233494D01*
X60843815Y-134330185D01*
X60940506Y-134409537D01*
X61050820Y-134468502D01*
X61170518Y-134504812D01*
X61295000Y-134517072D01*
X61309250Y-134514000D01*
X61468000Y-134355250D01*
X61468000Y-133031000D01*
X60818750Y-133031000D01*
X60660000Y-133189750D01*
X60656928Y-133879000D01*
X49022000Y-133879000D01*
X49022000Y-127039545D01*
X49044277Y-127006205D01*
X49110990Y-126845145D01*
X49145000Y-126674165D01*
X49145000Y-126499835D01*
X49110990Y-126328855D01*
X49044277Y-126167795D01*
X49022000Y-126134455D01*
X49022000Y-126039545D01*
X49044277Y-126006205D01*
X49110990Y-125845145D01*
X49145000Y-125674165D01*
X49145000Y-125499835D01*
X49110990Y-125328855D01*
X49044277Y-125167795D01*
X49022000Y-125134455D01*
X49022000Y-125039545D01*
X49044277Y-125006205D01*
X49110990Y-124845145D01*
X49145000Y-124674165D01*
X49145000Y-124499835D01*
X49110990Y-124328855D01*
X49044277Y-124167795D01*
X49022000Y-124134455D01*
X49022000Y-124039545D01*
X49044277Y-124006205D01*
X49110990Y-123845145D01*
X49145000Y-123674165D01*
X49145000Y-123499835D01*
X49110990Y-123328855D01*
X49044277Y-123167795D01*
X49022000Y-123134455D01*
X49022000Y-123039545D01*
X49044277Y-123006205D01*
X49110990Y-122845145D01*
X49145000Y-122674165D01*
X49145000Y-122499835D01*
X49110990Y-122328855D01*
X49044277Y-122167795D01*
X49022000Y-122134455D01*
X49022000Y-120684300D01*
X49029329Y-120758715D01*
G36*
X51720750Y-119274000D02*
G01*
X51735000Y-119277072D01*
X51859482Y-119264812D01*
X51979180Y-119228502D01*
X52089494Y-119169537D01*
X52119064Y-119145270D01*
X52253418Y-119217084D01*
X52397012Y-119260642D01*
X52940000Y-119803631D01*
X52940000Y-119862939D01*
X52979774Y-120062898D01*
X53057795Y-120251256D01*
X53171063Y-120420774D01*
X53315226Y-120564937D01*
X53484744Y-120678205D01*
X53673102Y-120756226D01*
X53873061Y-120796000D01*
X54076939Y-120796000D01*
X54276898Y-120756226D01*
X54328804Y-120734726D01*
X54330000Y-120999250D01*
X54488750Y-121158000D01*
X55753000Y-121158000D01*
X55753000Y-121138000D01*
X56007000Y-121138000D01*
X56007000Y-121158000D01*
X56027000Y-121158000D01*
X56027000Y-121412000D01*
X56007000Y-121412000D01*
X56007000Y-122726250D01*
X56165750Y-122885000D01*
X56795000Y-122888072D01*
X56919482Y-122875812D01*
X57039180Y-122839502D01*
X57091113Y-122811743D01*
X57684121Y-123404751D01*
X57707978Y-123433822D01*
X57824008Y-123529045D01*
X57956385Y-123599802D01*
X58100022Y-123643374D01*
X58211974Y-123654400D01*
X58211976Y-123654400D01*
X58249399Y-123658086D01*
X58286822Y-123654400D01*
X61192889Y-123654400D01*
X61234826Y-123696337D01*
X61404344Y-123809605D01*
X61592702Y-123887626D01*
X61792661Y-123927400D01*
X61871201Y-123927400D01*
X61871200Y-126353358D01*
X61745000Y-126340928D01*
X61445000Y-126340928D01*
X61291255Y-126356071D01*
X61143418Y-126400916D01*
X61007171Y-126473742D01*
X60887749Y-126571749D01*
X60789742Y-126691171D01*
X60716916Y-126827418D01*
X60672071Y-126975255D01*
X60658228Y-127115800D01*
X58959194Y-127115800D01*
X54639346Y-122795953D01*
X54720820Y-122839502D01*
X54840518Y-122875812D01*
X54965000Y-122888072D01*
X55594250Y-122885000D01*
X55753000Y-122726250D01*
X55753000Y-121412000D01*
X54488750Y-121412000D01*
X54330000Y-121570750D01*
X54326928Y-122250000D01*
X54339188Y-122374482D01*
X54375498Y-122494180D01*
X54419048Y-122575654D01*
X51569000Y-119725607D01*
X51569000Y-119122250D01*
X51720750Y-119274000D01*
G37*
X51720750Y-119274000D02*
X51735000Y-119277072D01*
X51859482Y-119264812D01*
X51979180Y-119228502D01*
X52089494Y-119169537D01*
X52119064Y-119145270D01*
X52253418Y-119217084D01*
X52397012Y-119260642D01*
X52940000Y-119803631D01*
X52940000Y-119862939D01*
X52979774Y-120062898D01*
X53057795Y-120251256D01*
X53171063Y-120420774D01*
X53315226Y-120564937D01*
X53484744Y-120678205D01*
X53673102Y-120756226D01*
X53873061Y-120796000D01*
X54076939Y-120796000D01*
X54276898Y-120756226D01*
X54328804Y-120734726D01*
X54330000Y-120999250D01*
X54488750Y-121158000D01*
X55753000Y-121158000D01*
X55753000Y-121138000D01*
X56007000Y-121138000D01*
X56007000Y-121158000D01*
X56027000Y-121158000D01*
X56027000Y-121412000D01*
X56007000Y-121412000D01*
X56007000Y-122726250D01*
X56165750Y-122885000D01*
X56795000Y-122888072D01*
X56919482Y-122875812D01*
X57039180Y-122839502D01*
X57091113Y-122811743D01*
X57684121Y-123404751D01*
X57707978Y-123433822D01*
X57824008Y-123529045D01*
X57956385Y-123599802D01*
X58100022Y-123643374D01*
X58211974Y-123654400D01*
X58211976Y-123654400D01*
X58249399Y-123658086D01*
X58286822Y-123654400D01*
X61192889Y-123654400D01*
X61234826Y-123696337D01*
X61404344Y-123809605D01*
X61592702Y-123887626D01*
X61792661Y-123927400D01*
X61871201Y-123927400D01*
X61871200Y-126353358D01*
X61745000Y-126340928D01*
X61445000Y-126340928D01*
X61291255Y-126356071D01*
X61143418Y-126400916D01*
X61007171Y-126473742D01*
X60887749Y-126571749D01*
X60789742Y-126691171D01*
X60716916Y-126827418D01*
X60672071Y-126975255D01*
X60658228Y-127115800D01*
X58959194Y-127115800D01*
X54639346Y-122795953D01*
X54720820Y-122839502D01*
X54840518Y-122875812D01*
X54965000Y-122888072D01*
X55594250Y-122885000D01*
X55753000Y-122726250D01*
X55753000Y-121412000D01*
X54488750Y-121412000D01*
X54330000Y-121570750D01*
X54326928Y-122250000D01*
X54339188Y-122374482D01*
X54375498Y-122494180D01*
X54419048Y-122575654D01*
X51569000Y-119725607D01*
X51569000Y-119122250D01*
X51720750Y-119274000D01*
G36*
X54864001Y-107150567D02*
G01*
X54860314Y-107188000D01*
X54875027Y-107337378D01*
X54918599Y-107481015D01*
X54989355Y-107613392D01*
X55054196Y-107692400D01*
X55084579Y-107729422D01*
X55113649Y-107753279D01*
X56994238Y-109633869D01*
X56920263Y-109694578D01*
X56896401Y-109723654D01*
X56691155Y-109928900D01*
X56562898Y-109875774D01*
X56362939Y-109836000D01*
X56159061Y-109836000D01*
X55959102Y-109875774D01*
X55770744Y-109953795D01*
X55601226Y-110067063D01*
X55457063Y-110211226D01*
X55397099Y-110300969D01*
X55203072Y-110106942D01*
X55203072Y-109852750D01*
X55186608Y-109685592D01*
X55137850Y-109524858D01*
X55058671Y-109376725D01*
X55034277Y-109347000D01*
X55058671Y-109317275D01*
X55137850Y-109169142D01*
X55186608Y-109008408D01*
X55203072Y-108841250D01*
X55203072Y-108328750D01*
X55186608Y-108161592D01*
X55137850Y-108000858D01*
X55058671Y-107852725D01*
X54952115Y-107722885D01*
X54822275Y-107616329D01*
X54674142Y-107537150D01*
X54513408Y-107488392D01*
X54346250Y-107471928D01*
X53908750Y-107471928D01*
X53741592Y-107488392D01*
X53580858Y-107537150D01*
X53432725Y-107616329D01*
X53340000Y-107692426D01*
X53247275Y-107616329D01*
X53099142Y-107537150D01*
X52938408Y-107488392D01*
X52771250Y-107471928D01*
X52517058Y-107471928D01*
X52421900Y-107376770D01*
X52421900Y-107158072D01*
X52644250Y-107158072D01*
X52811408Y-107141608D01*
X52972142Y-107092850D01*
X53120275Y-107013671D01*
X53213000Y-106937574D01*
X53305725Y-107013671D01*
X53453858Y-107092850D01*
X53614592Y-107141608D01*
X53781750Y-107158072D01*
X54219250Y-107158072D01*
X54386408Y-107141608D01*
X54547142Y-107092850D01*
X54695275Y-107013671D01*
X54825115Y-106907115D01*
X54864001Y-106859732D01*
X54864001Y-107150567D01*
G37*
X54864001Y-107150567D02*
X54860314Y-107188000D01*
X54875027Y-107337378D01*
X54918599Y-107481015D01*
X54989355Y-107613392D01*
X55054196Y-107692400D01*
X55084579Y-107729422D01*
X55113649Y-107753279D01*
X56994238Y-109633869D01*
X56920263Y-109694578D01*
X56896401Y-109723654D01*
X56691155Y-109928900D01*
X56562898Y-109875774D01*
X56362939Y-109836000D01*
X56159061Y-109836000D01*
X55959102Y-109875774D01*
X55770744Y-109953795D01*
X55601226Y-110067063D01*
X55457063Y-110211226D01*
X55397099Y-110300969D01*
X55203072Y-110106942D01*
X55203072Y-109852750D01*
X55186608Y-109685592D01*
X55137850Y-109524858D01*
X55058671Y-109376725D01*
X55034277Y-109347000D01*
X55058671Y-109317275D01*
X55137850Y-109169142D01*
X55186608Y-109008408D01*
X55203072Y-108841250D01*
X55203072Y-108328750D01*
X55186608Y-108161592D01*
X55137850Y-108000858D01*
X55058671Y-107852725D01*
X54952115Y-107722885D01*
X54822275Y-107616329D01*
X54674142Y-107537150D01*
X54513408Y-107488392D01*
X54346250Y-107471928D01*
X53908750Y-107471928D01*
X53741592Y-107488392D01*
X53580858Y-107537150D01*
X53432725Y-107616329D01*
X53340000Y-107692426D01*
X53247275Y-107616329D01*
X53099142Y-107537150D01*
X52938408Y-107488392D01*
X52771250Y-107471928D01*
X52517058Y-107471928D01*
X52421900Y-107376770D01*
X52421900Y-107158072D01*
X52644250Y-107158072D01*
X52811408Y-107141608D01*
X52972142Y-107092850D01*
X53120275Y-107013671D01*
X53213000Y-106937574D01*
X53305725Y-107013671D01*
X53453858Y-107092850D01*
X53614592Y-107141608D01*
X53781750Y-107158072D01*
X54219250Y-107158072D01*
X54386408Y-107141608D01*
X54547142Y-107092850D01*
X54695275Y-107013671D01*
X54825115Y-106907115D01*
X54864001Y-106859732D01*
X54864001Y-107150567D01*
G36*
X62378312Y-105894458D02*
G01*
X62488394Y-105905300D01*
X62488404Y-105905300D01*
X62525200Y-105908924D01*
X62561996Y-105905300D01*
X63039589Y-105905300D01*
X63094226Y-105959937D01*
X63263744Y-106073205D01*
X63380881Y-106121725D01*
X62617907Y-106884700D01*
X62512505Y-106884700D01*
X62510000Y-106330750D01*
X62351250Y-106172000D01*
X61087000Y-106172000D01*
X61087000Y-106192000D01*
X60833000Y-106192000D01*
X60833000Y-106172000D01*
X60813000Y-106172000D01*
X60813000Y-105918000D01*
X60833000Y-105918000D01*
X60833000Y-105898000D01*
X61087000Y-105898000D01*
X61087000Y-105918000D01*
X62351250Y-105918000D01*
X62375611Y-105893639D01*
X62378312Y-105894458D01*
G37*
X62378312Y-105894458D02*
X62488394Y-105905300D01*
X62488404Y-105905300D01*
X62525200Y-105908924D01*
X62561996Y-105905300D01*
X63039589Y-105905300D01*
X63094226Y-105959937D01*
X63263744Y-106073205D01*
X63380881Y-106121725D01*
X62617907Y-106884700D01*
X62512505Y-106884700D01*
X62510000Y-106330750D01*
X62351250Y-106172000D01*
X61087000Y-106172000D01*
X61087000Y-106192000D01*
X60833000Y-106192000D01*
X60833000Y-106172000D01*
X60813000Y-106172000D01*
X60813000Y-105918000D01*
X60833000Y-105918000D01*
X60833000Y-105898000D01*
X61087000Y-105898000D01*
X61087000Y-105918000D01*
X62351250Y-105918000D01*
X62375611Y-105893639D01*
X62378312Y-105894458D01*
G36*
X60660000Y-102138250D02*
G01*
X60818750Y-102297000D01*
X61468000Y-102297000D01*
X61468000Y-102551000D01*
X60818750Y-102551000D01*
X60660000Y-102709750D01*
X60656928Y-103399000D01*
X60669188Y-103523482D01*
X60705498Y-103643180D01*
X60764463Y-103753494D01*
X60843815Y-103850185D01*
X60868336Y-103870309D01*
X60845995Y-103903744D01*
X60767974Y-104092102D01*
X60728200Y-104292061D01*
X60728200Y-104495939D01*
X60728948Y-104499698D01*
X60674250Y-104445000D01*
X60045000Y-104441928D01*
X59920518Y-104454188D01*
X59800820Y-104490498D01*
X59690506Y-104549463D01*
X59593815Y-104628815D01*
X59514463Y-104725506D01*
X59455498Y-104835820D01*
X59419188Y-104955518D01*
X59406928Y-105080000D01*
X59408105Y-105340140D01*
X59366521Y-105239748D01*
X59180477Y-104961313D01*
X58943687Y-104724523D01*
X58665252Y-104538479D01*
X58355872Y-104410330D01*
X58057250Y-104350931D01*
X60529881Y-101878300D01*
X60658841Y-101878300D01*
X60660000Y-102138250D01*
G37*
X60660000Y-102138250D02*
X60818750Y-102297000D01*
X61468000Y-102297000D01*
X61468000Y-102551000D01*
X60818750Y-102551000D01*
X60660000Y-102709750D01*
X60656928Y-103399000D01*
X60669188Y-103523482D01*
X60705498Y-103643180D01*
X60764463Y-103753494D01*
X60843815Y-103850185D01*
X60868336Y-103870309D01*
X60845995Y-103903744D01*
X60767974Y-104092102D01*
X60728200Y-104292061D01*
X60728200Y-104495939D01*
X60728948Y-104499698D01*
X60674250Y-104445000D01*
X60045000Y-104441928D01*
X59920518Y-104454188D01*
X59800820Y-104490498D01*
X59690506Y-104549463D01*
X59593815Y-104628815D01*
X59514463Y-104725506D01*
X59455498Y-104835820D01*
X59419188Y-104955518D01*
X59406928Y-105080000D01*
X59408105Y-105340140D01*
X59366521Y-105239748D01*
X59180477Y-104961313D01*
X58943687Y-104724523D01*
X58665252Y-104538479D01*
X58355872Y-104410330D01*
X58057250Y-104350931D01*
X60529881Y-101878300D01*
X60658841Y-101878300D01*
X60660000Y-102138250D01*
G36*
X60716916Y-98600582D02*
G01*
X60789742Y-98736829D01*
X60887749Y-98856251D01*
X61007171Y-98954258D01*
X61143418Y-99027084D01*
X61291255Y-99071929D01*
X61445000Y-99087072D01*
X61506479Y-99087072D01*
X61865006Y-99445600D01*
X57919322Y-99445600D01*
X57881899Y-99441914D01*
X57844476Y-99445600D01*
X57844474Y-99445600D01*
X57732522Y-99456626D01*
X57588885Y-99500198D01*
X57456508Y-99570955D01*
X57340478Y-99666178D01*
X57316621Y-99695248D01*
X54111942Y-102899928D01*
X53857750Y-102899928D01*
X53690592Y-102916392D01*
X53529858Y-102965150D01*
X53381725Y-103044329D01*
X53251885Y-103150885D01*
X53145329Y-103280725D01*
X53066150Y-103428858D01*
X53017392Y-103589592D01*
X53000928Y-103756750D01*
X53000928Y-104091795D01*
X52878356Y-104009895D01*
X52689998Y-103931874D01*
X52600406Y-103914053D01*
X52657671Y-103844275D01*
X52736850Y-103696142D01*
X52785608Y-103535408D01*
X52802072Y-103368250D01*
X52802072Y-102930750D01*
X52785608Y-102763592D01*
X52736850Y-102602858D01*
X52657671Y-102454725D01*
X52581574Y-102362000D01*
X52592783Y-102348342D01*
X52740444Y-102447005D01*
X52928802Y-102525026D01*
X53128761Y-102564800D01*
X53332639Y-102564800D01*
X53532598Y-102525026D01*
X53720956Y-102447005D01*
X53890474Y-102333737D01*
X54034637Y-102189574D01*
X54147905Y-102020056D01*
X54225926Y-101831698D01*
X54253669Y-101692224D01*
X57375594Y-98570300D01*
X60707730Y-98570300D01*
X60716916Y-98600582D01*
G37*
X60716916Y-98600582D02*
X60789742Y-98736829D01*
X60887749Y-98856251D01*
X61007171Y-98954258D01*
X61143418Y-99027084D01*
X61291255Y-99071929D01*
X61445000Y-99087072D01*
X61506479Y-99087072D01*
X61865006Y-99445600D01*
X57919322Y-99445600D01*
X57881899Y-99441914D01*
X57844476Y-99445600D01*
X57844474Y-99445600D01*
X57732522Y-99456626D01*
X57588885Y-99500198D01*
X57456508Y-99570955D01*
X57340478Y-99666178D01*
X57316621Y-99695248D01*
X54111942Y-102899928D01*
X53857750Y-102899928D01*
X53690592Y-102916392D01*
X53529858Y-102965150D01*
X53381725Y-103044329D01*
X53251885Y-103150885D01*
X53145329Y-103280725D01*
X53066150Y-103428858D01*
X53017392Y-103589592D01*
X53000928Y-103756750D01*
X53000928Y-104091795D01*
X52878356Y-104009895D01*
X52689998Y-103931874D01*
X52600406Y-103914053D01*
X52657671Y-103844275D01*
X52736850Y-103696142D01*
X52785608Y-103535408D01*
X52802072Y-103368250D01*
X52802072Y-102930750D01*
X52785608Y-102763592D01*
X52736850Y-102602858D01*
X52657671Y-102454725D01*
X52581574Y-102362000D01*
X52592783Y-102348342D01*
X52740444Y-102447005D01*
X52928802Y-102525026D01*
X53128761Y-102564800D01*
X53332639Y-102564800D01*
X53532598Y-102525026D01*
X53720956Y-102447005D01*
X53890474Y-102333737D01*
X54034637Y-102189574D01*
X54147905Y-102020056D01*
X54225926Y-101831698D01*
X54253669Y-101692224D01*
X57375594Y-98570300D01*
X60707730Y-98570300D01*
X60716916Y-98600582D01*
G36*
X62144458Y-91383689D02*
G01*
X62132928Y-91500750D01*
X62132928Y-91938250D01*
X62149392Y-92105408D01*
X62198150Y-92266142D01*
X62277329Y-92414275D01*
X62383885Y-92544115D01*
X62436918Y-92587637D01*
X62416329Y-92612725D01*
X62337150Y-92760858D01*
X62288392Y-92921592D01*
X62271928Y-93088750D01*
X62271928Y-93601250D01*
X62288392Y-93768408D01*
X62337150Y-93929142D01*
X62416329Y-94077275D01*
X62440723Y-94107000D01*
X62416329Y-94136725D01*
X62337150Y-94284858D01*
X62288392Y-94445592D01*
X62271928Y-94612750D01*
X62271928Y-94868534D01*
X60564611Y-93161218D01*
X60538364Y-93129236D01*
X60410732Y-93024491D01*
X60265117Y-92946658D01*
X60107116Y-92898729D01*
X59983970Y-92886600D01*
X59983963Y-92886600D01*
X59942800Y-92882546D01*
X59901637Y-92886600D01*
X52851194Y-92886600D01*
X52251666Y-92287072D01*
X52707250Y-92287072D01*
X52874408Y-92270608D01*
X53035142Y-92221850D01*
X53183275Y-92142671D01*
X53313115Y-92036115D01*
X53419671Y-91906275D01*
X53492511Y-91770000D01*
X54326928Y-91770000D01*
X54339188Y-91894482D01*
X54375498Y-92014180D01*
X54434463Y-92124494D01*
X54513815Y-92221185D01*
X54610506Y-92300537D01*
X54720820Y-92359502D01*
X54840518Y-92395812D01*
X54965000Y-92408072D01*
X55594250Y-92405000D01*
X55753000Y-92246250D01*
X55753000Y-90932000D01*
X54488750Y-90932000D01*
X54330000Y-91090750D01*
X54326928Y-91770000D01*
X53492511Y-91770000D01*
X53498850Y-91758142D01*
X53547608Y-91597408D01*
X53564072Y-91430250D01*
X53564072Y-91176058D01*
X54329509Y-90410622D01*
X54330000Y-90519250D01*
X54488750Y-90678000D01*
X55753000Y-90678000D01*
X55753000Y-90658000D01*
X56007000Y-90658000D01*
X56007000Y-90678000D01*
X56027000Y-90678000D01*
X56027000Y-90932000D01*
X56007000Y-90932000D01*
X56007000Y-92246250D01*
X56165750Y-92405000D01*
X56795000Y-92408072D01*
X56919482Y-92395812D01*
X57039180Y-92359502D01*
X57149494Y-92300537D01*
X57246185Y-92221185D01*
X57325537Y-92124494D01*
X57384502Y-92014180D01*
X57420812Y-91894482D01*
X57433072Y-91770000D01*
X57431895Y-91509860D01*
X57473479Y-91610252D01*
X57659523Y-91888687D01*
X57896313Y-92125477D01*
X58174748Y-92311521D01*
X58484128Y-92439670D01*
X58812565Y-92505000D01*
X59147435Y-92505000D01*
X59475872Y-92439670D01*
X59785252Y-92311521D01*
X60063687Y-92125477D01*
X60300477Y-91888687D01*
X60486521Y-91610252D01*
X60614670Y-91300872D01*
X60680000Y-90972435D01*
X60680000Y-90637565D01*
X60614670Y-90309128D01*
X60606622Y-90289698D01*
X60673878Y-90283074D01*
X60817515Y-90239502D01*
X60936613Y-90175843D01*
X62144458Y-91383689D01*
G37*
X62144458Y-91383689D02*
X62132928Y-91500750D01*
X62132928Y-91938250D01*
X62149392Y-92105408D01*
X62198150Y-92266142D01*
X62277329Y-92414275D01*
X62383885Y-92544115D01*
X62436918Y-92587637D01*
X62416329Y-92612725D01*
X62337150Y-92760858D01*
X62288392Y-92921592D01*
X62271928Y-93088750D01*
X62271928Y-93601250D01*
X62288392Y-93768408D01*
X62337150Y-93929142D01*
X62416329Y-94077275D01*
X62440723Y-94107000D01*
X62416329Y-94136725D01*
X62337150Y-94284858D01*
X62288392Y-94445592D01*
X62271928Y-94612750D01*
X62271928Y-94868534D01*
X60564611Y-93161218D01*
X60538364Y-93129236D01*
X60410732Y-93024491D01*
X60265117Y-92946658D01*
X60107116Y-92898729D01*
X59983970Y-92886600D01*
X59983963Y-92886600D01*
X59942800Y-92882546D01*
X59901637Y-92886600D01*
X52851194Y-92886600D01*
X52251666Y-92287072D01*
X52707250Y-92287072D01*
X52874408Y-92270608D01*
X53035142Y-92221850D01*
X53183275Y-92142671D01*
X53313115Y-92036115D01*
X53419671Y-91906275D01*
X53492511Y-91770000D01*
X54326928Y-91770000D01*
X54339188Y-91894482D01*
X54375498Y-92014180D01*
X54434463Y-92124494D01*
X54513815Y-92221185D01*
X54610506Y-92300537D01*
X54720820Y-92359502D01*
X54840518Y-92395812D01*
X54965000Y-92408072D01*
X55594250Y-92405000D01*
X55753000Y-92246250D01*
X55753000Y-90932000D01*
X54488750Y-90932000D01*
X54330000Y-91090750D01*
X54326928Y-91770000D01*
X53492511Y-91770000D01*
X53498850Y-91758142D01*
X53547608Y-91597408D01*
X53564072Y-91430250D01*
X53564072Y-91176058D01*
X54329509Y-90410622D01*
X54330000Y-90519250D01*
X54488750Y-90678000D01*
X55753000Y-90678000D01*
X55753000Y-90658000D01*
X56007000Y-90658000D01*
X56007000Y-90678000D01*
X56027000Y-90678000D01*
X56027000Y-90932000D01*
X56007000Y-90932000D01*
X56007000Y-92246250D01*
X56165750Y-92405000D01*
X56795000Y-92408072D01*
X56919482Y-92395812D01*
X57039180Y-92359502D01*
X57149494Y-92300537D01*
X57246185Y-92221185D01*
X57325537Y-92124494D01*
X57384502Y-92014180D01*
X57420812Y-91894482D01*
X57433072Y-91770000D01*
X57431895Y-91509860D01*
X57473479Y-91610252D01*
X57659523Y-91888687D01*
X57896313Y-92125477D01*
X58174748Y-92311521D01*
X58484128Y-92439670D01*
X58812565Y-92505000D01*
X59147435Y-92505000D01*
X59475872Y-92439670D01*
X59785252Y-92311521D01*
X60063687Y-92125477D01*
X60300477Y-91888687D01*
X60486521Y-91610252D01*
X60614670Y-91300872D01*
X60680000Y-90972435D01*
X60680000Y-90637565D01*
X60614670Y-90309128D01*
X60606622Y-90289698D01*
X60673878Y-90283074D01*
X60817515Y-90239502D01*
X60936613Y-90175843D01*
X62144458Y-91383689D01*
G36*
X51466750Y-88794000D02*
G01*
X51481000Y-88797072D01*
X51605482Y-88784812D01*
X51631486Y-88776924D01*
X51588885Y-88811885D01*
X51482329Y-88941725D01*
X51403150Y-89089858D01*
X51354392Y-89250592D01*
X51337928Y-89417750D01*
X51337928Y-89855250D01*
X51354392Y-90022408D01*
X51403150Y-90183142D01*
X51482329Y-90331275D01*
X51558426Y-90424000D01*
X51482329Y-90516725D01*
X51403150Y-90664858D01*
X51354392Y-90825592D01*
X51337928Y-90992750D01*
X51337928Y-91373335D01*
X51279100Y-91314507D01*
X51279100Y-88794000D01*
X51308002Y-88794000D01*
X51308002Y-88635252D01*
X51466750Y-88794000D01*
G37*
X51466750Y-88794000D02*
X51481000Y-88797072D01*
X51605482Y-88784812D01*
X51631486Y-88776924D01*
X51588885Y-88811885D01*
X51482329Y-88941725D01*
X51403150Y-89089858D01*
X51354392Y-89250592D01*
X51337928Y-89417750D01*
X51337928Y-89855250D01*
X51354392Y-90022408D01*
X51403150Y-90183142D01*
X51482329Y-90331275D01*
X51558426Y-90424000D01*
X51482329Y-90516725D01*
X51403150Y-90664858D01*
X51354392Y-90825592D01*
X51337928Y-90992750D01*
X51337928Y-91373335D01*
X51279100Y-91314507D01*
X51279100Y-88794000D01*
X51308002Y-88794000D01*
X51308002Y-88635252D01*
X51466750Y-88794000D01*
G36*
X62499021Y-78031252D02*
G01*
X62522878Y-78060322D01*
X62551948Y-78084179D01*
X62638907Y-78155545D01*
X62709664Y-78193365D01*
X62771285Y-78226302D01*
X62914922Y-78269874D01*
X63026874Y-78280900D01*
X63026877Y-78280900D01*
X63064300Y-78284586D01*
X63101723Y-78280900D01*
X63371662Y-78280900D01*
X63394498Y-78356180D01*
X63453463Y-78466494D01*
X63532815Y-78563185D01*
X63629506Y-78642537D01*
X63739820Y-78701502D01*
X63859518Y-78737812D01*
X63984000Y-78750072D01*
X65384000Y-78750072D01*
X65508482Y-78737812D01*
X65554014Y-78724000D01*
X65853477Y-78724000D01*
X65890900Y-78727686D01*
X65928323Y-78724000D01*
X65928326Y-78724000D01*
X66040278Y-78712974D01*
X66183915Y-78669402D01*
X66220292Y-78649958D01*
X66073000Y-78797250D01*
X66069928Y-78949000D01*
X66082188Y-79073482D01*
X66118498Y-79193180D01*
X66177463Y-79303494D01*
X66256815Y-79400185D01*
X66353506Y-79479537D01*
X66463820Y-79538502D01*
X66583518Y-79574812D01*
X66708000Y-79587072D01*
X66897250Y-79584000D01*
X67056000Y-79425250D01*
X67056000Y-78638500D01*
X67036000Y-78638500D01*
X67036000Y-78486000D01*
X67330000Y-78486000D01*
X67330000Y-78638500D01*
X67310000Y-78638500D01*
X67310000Y-79425250D01*
X67468750Y-79584000D01*
X67658000Y-79587072D01*
X67782482Y-79574812D01*
X67902180Y-79538502D01*
X67920000Y-79528977D01*
X67920000Y-85718972D01*
X67894142Y-85705150D01*
X67733408Y-85656392D01*
X67566250Y-85639928D01*
X67053750Y-85639928D01*
X66886592Y-85656392D01*
X66725858Y-85705150D01*
X66577725Y-85784329D01*
X66447885Y-85890885D01*
X66341329Y-86020725D01*
X66262150Y-86168858D01*
X66213392Y-86329592D01*
X66196928Y-86496750D01*
X66196928Y-86750941D01*
X64340054Y-88607816D01*
X64310978Y-88631678D01*
X64268279Y-88683708D01*
X64215755Y-88747708D01*
X64197893Y-88781126D01*
X64144998Y-88880086D01*
X64101426Y-89023723D01*
X64090694Y-89132691D01*
X64086714Y-89173100D01*
X64090400Y-89210523D01*
X64090400Y-89305347D01*
X64008000Y-89237723D01*
X64008000Y-80736723D01*
X64011686Y-80699300D01*
X64005847Y-80640015D01*
X63996974Y-80549922D01*
X63953402Y-80406285D01*
X63901777Y-80309701D01*
X63882645Y-80273907D01*
X63811279Y-80186948D01*
X63787422Y-80157878D01*
X63758353Y-80134022D01*
X62073300Y-78448970D01*
X62073300Y-77605531D01*
X62499021Y-78031252D01*
G37*
X62499021Y-78031252D02*
X62522878Y-78060322D01*
X62551948Y-78084179D01*
X62638907Y-78155545D01*
X62709664Y-78193365D01*
X62771285Y-78226302D01*
X62914922Y-78269874D01*
X63026874Y-78280900D01*
X63026877Y-78280900D01*
X63064300Y-78284586D01*
X63101723Y-78280900D01*
X63371662Y-78280900D01*
X63394498Y-78356180D01*
X63453463Y-78466494D01*
X63532815Y-78563185D01*
X63629506Y-78642537D01*
X63739820Y-78701502D01*
X63859518Y-78737812D01*
X63984000Y-78750072D01*
X65384000Y-78750072D01*
X65508482Y-78737812D01*
X65554014Y-78724000D01*
X65853477Y-78724000D01*
X65890900Y-78727686D01*
X65928323Y-78724000D01*
X65928326Y-78724000D01*
X66040278Y-78712974D01*
X66183915Y-78669402D01*
X66220292Y-78649958D01*
X66073000Y-78797250D01*
X66069928Y-78949000D01*
X66082188Y-79073482D01*
X66118498Y-79193180D01*
X66177463Y-79303494D01*
X66256815Y-79400185D01*
X66353506Y-79479537D01*
X66463820Y-79538502D01*
X66583518Y-79574812D01*
X66708000Y-79587072D01*
X66897250Y-79584000D01*
X67056000Y-79425250D01*
X67056000Y-78638500D01*
X67036000Y-78638500D01*
X67036000Y-78486000D01*
X67330000Y-78486000D01*
X67330000Y-78638500D01*
X67310000Y-78638500D01*
X67310000Y-79425250D01*
X67468750Y-79584000D01*
X67658000Y-79587072D01*
X67782482Y-79574812D01*
X67902180Y-79538502D01*
X67920000Y-79528977D01*
X67920000Y-85718972D01*
X67894142Y-85705150D01*
X67733408Y-85656392D01*
X67566250Y-85639928D01*
X67053750Y-85639928D01*
X66886592Y-85656392D01*
X66725858Y-85705150D01*
X66577725Y-85784329D01*
X66447885Y-85890885D01*
X66341329Y-86020725D01*
X66262150Y-86168858D01*
X66213392Y-86329592D01*
X66196928Y-86496750D01*
X66196928Y-86750941D01*
X64340054Y-88607816D01*
X64310978Y-88631678D01*
X64268279Y-88683708D01*
X64215755Y-88747708D01*
X64197893Y-88781126D01*
X64144998Y-88880086D01*
X64101426Y-89023723D01*
X64090694Y-89132691D01*
X64086714Y-89173100D01*
X64090400Y-89210523D01*
X64090400Y-89305347D01*
X64008000Y-89237723D01*
X64008000Y-80736723D01*
X64011686Y-80699300D01*
X64005847Y-80640015D01*
X63996974Y-80549922D01*
X63953402Y-80406285D01*
X63901777Y-80309701D01*
X63882645Y-80273907D01*
X63811279Y-80186948D01*
X63787422Y-80157878D01*
X63758353Y-80134022D01*
X62073300Y-78448970D01*
X62073300Y-77605531D01*
X62499021Y-78031252D01*
G36*
X51308000Y-87057000D02*
G01*
X51328000Y-87057000D01*
X51328000Y-87311000D01*
X51308000Y-87311000D01*
X51308000Y-87331000D01*
X51279100Y-87331000D01*
X51279100Y-87037000D01*
X51308000Y-87037000D01*
X51308000Y-87057000D01*
G37*
X51308000Y-87057000D02*
X51328000Y-87057000D01*
X51328000Y-87311000D01*
X51308000Y-87311000D01*
X51308000Y-87331000D01*
X51279100Y-87331000D01*
X51279100Y-87037000D01*
X51308000Y-87037000D01*
X51308000Y-87057000D01*
G36*
X56696188Y-83601518D02*
G01*
X56683928Y-83726000D01*
X56687000Y-83915250D01*
X56845750Y-84074000D01*
X57632500Y-84074000D01*
X57632500Y-84054000D01*
X57886500Y-84054000D01*
X57886500Y-84074000D01*
X57906500Y-84074000D01*
X57906500Y-84328000D01*
X57886500Y-84328000D01*
X57886500Y-84348000D01*
X57632500Y-84348000D01*
X57632500Y-84328000D01*
X56845750Y-84328000D01*
X56687000Y-84486750D01*
X56683928Y-84676000D01*
X56696188Y-84800482D01*
X56718293Y-84873351D01*
X56666463Y-84936506D01*
X56607498Y-85046820D01*
X56571188Y-85166518D01*
X56558928Y-85291000D01*
X56562000Y-85455250D01*
X56720750Y-85614000D01*
X57470000Y-85614000D01*
X57470000Y-85594000D01*
X57724000Y-85594000D01*
X57724000Y-85614000D01*
X57744000Y-85614000D01*
X57744000Y-85868000D01*
X57724000Y-85868000D01*
X57724000Y-85876800D01*
X57470000Y-85876800D01*
X57470000Y-85868000D01*
X56720750Y-85868000D01*
X56711950Y-85876800D01*
X56514896Y-85876800D01*
X56396656Y-85797795D01*
X56208298Y-85719774D01*
X56008339Y-85680000D01*
X55804461Y-85680000D01*
X55604502Y-85719774D01*
X55600423Y-85721464D01*
X55578829Y-85703742D01*
X55442582Y-85630916D01*
X55294745Y-85586071D01*
X55141000Y-85570928D01*
X54841000Y-85570928D01*
X54687255Y-85586071D01*
X54539418Y-85630916D01*
X54403171Y-85703742D01*
X54356000Y-85742454D01*
X54308829Y-85703742D01*
X54172582Y-85630916D01*
X54024745Y-85586071D01*
X53871000Y-85570928D01*
X53809417Y-85570928D01*
X53803773Y-85513622D01*
X53760201Y-85369984D01*
X53689445Y-85237608D01*
X53594221Y-85121579D01*
X53478192Y-85026355D01*
X53345816Y-84955599D01*
X53202178Y-84912027D01*
X53052800Y-84897314D01*
X52903421Y-84912027D01*
X52759784Y-84955599D01*
X52687410Y-84994283D01*
X52911662Y-84770031D01*
X52921684Y-84773071D01*
X53044830Y-84785200D01*
X53044837Y-84785200D01*
X53086000Y-84789254D01*
X53108825Y-84787006D01*
X53131650Y-84789254D01*
X53172813Y-84785200D01*
X55062937Y-84785200D01*
X55104100Y-84789254D01*
X55145263Y-84785200D01*
X55145270Y-84785200D01*
X55268416Y-84773071D01*
X55426417Y-84725142D01*
X55572032Y-84647309D01*
X55699664Y-84542564D01*
X55725911Y-84510582D01*
X56722842Y-83513651D01*
X56696188Y-83601518D01*
G37*
X56696188Y-83601518D02*
X56683928Y-83726000D01*
X56687000Y-83915250D01*
X56845750Y-84074000D01*
X57632500Y-84074000D01*
X57632500Y-84054000D01*
X57886500Y-84054000D01*
X57886500Y-84074000D01*
X57906500Y-84074000D01*
X57906500Y-84328000D01*
X57886500Y-84328000D01*
X57886500Y-84348000D01*
X57632500Y-84348000D01*
X57632500Y-84328000D01*
X56845750Y-84328000D01*
X56687000Y-84486750D01*
X56683928Y-84676000D01*
X56696188Y-84800482D01*
X56718293Y-84873351D01*
X56666463Y-84936506D01*
X56607498Y-85046820D01*
X56571188Y-85166518D01*
X56558928Y-85291000D01*
X56562000Y-85455250D01*
X56720750Y-85614000D01*
X57470000Y-85614000D01*
X57470000Y-85594000D01*
X57724000Y-85594000D01*
X57724000Y-85614000D01*
X57744000Y-85614000D01*
X57744000Y-85868000D01*
X57724000Y-85868000D01*
X57724000Y-85876800D01*
X57470000Y-85876800D01*
X57470000Y-85868000D01*
X56720750Y-85868000D01*
X56711950Y-85876800D01*
X56514896Y-85876800D01*
X56396656Y-85797795D01*
X56208298Y-85719774D01*
X56008339Y-85680000D01*
X55804461Y-85680000D01*
X55604502Y-85719774D01*
X55600423Y-85721464D01*
X55578829Y-85703742D01*
X55442582Y-85630916D01*
X55294745Y-85586071D01*
X55141000Y-85570928D01*
X54841000Y-85570928D01*
X54687255Y-85586071D01*
X54539418Y-85630916D01*
X54403171Y-85703742D01*
X54356000Y-85742454D01*
X54308829Y-85703742D01*
X54172582Y-85630916D01*
X54024745Y-85586071D01*
X53871000Y-85570928D01*
X53809417Y-85570928D01*
X53803773Y-85513622D01*
X53760201Y-85369984D01*
X53689445Y-85237608D01*
X53594221Y-85121579D01*
X53478192Y-85026355D01*
X53345816Y-84955599D01*
X53202178Y-84912027D01*
X53052800Y-84897314D01*
X52903421Y-84912027D01*
X52759784Y-84955599D01*
X52687410Y-84994283D01*
X52911662Y-84770031D01*
X52921684Y-84773071D01*
X53044830Y-84785200D01*
X53044837Y-84785200D01*
X53086000Y-84789254D01*
X53108825Y-84787006D01*
X53131650Y-84789254D01*
X53172813Y-84785200D01*
X55062937Y-84785200D01*
X55104100Y-84789254D01*
X55145263Y-84785200D01*
X55145270Y-84785200D01*
X55268416Y-84773071D01*
X55426417Y-84725142D01*
X55572032Y-84647309D01*
X55699664Y-84542564D01*
X55725911Y-84510582D01*
X56722842Y-83513651D01*
X56696188Y-83601518D01*
G36*
X50450750Y-63394000D02*
G01*
X50465000Y-63397072D01*
X50589482Y-63384812D01*
X50709180Y-63348502D01*
X50819494Y-63289537D01*
X50849064Y-63265270D01*
X50983418Y-63337084D01*
X51131255Y-63381929D01*
X51285000Y-63397072D01*
X51511750Y-63397072D01*
X51493392Y-63457592D01*
X51476928Y-63624750D01*
X51476928Y-64137250D01*
X51493392Y-64304408D01*
X51542150Y-64465142D01*
X51621329Y-64613275D01*
X51727885Y-64743115D01*
X51857725Y-64849671D01*
X52005858Y-64928850D01*
X52166592Y-64977608D01*
X52333750Y-64994072D01*
X52771250Y-64994072D01*
X52938408Y-64977608D01*
X53099142Y-64928850D01*
X53247275Y-64849671D01*
X53289300Y-64815182D01*
X53289301Y-69580327D01*
X53285246Y-69621500D01*
X53301429Y-69785815D01*
X53349358Y-69943816D01*
X53427191Y-70089431D01*
X53471166Y-70143014D01*
X53531937Y-70217064D01*
X53563913Y-70243306D01*
X55004191Y-71683585D01*
X55030436Y-71715564D01*
X55062412Y-71741806D01*
X55062414Y-71741808D01*
X55092263Y-71766304D01*
X55158068Y-71820309D01*
X55303683Y-71898142D01*
X55461684Y-71946071D01*
X55584830Y-71958200D01*
X55584836Y-71958200D01*
X55625999Y-71962254D01*
X55667162Y-71958200D01*
X56451712Y-71958200D01*
X56408336Y-72128731D01*
X57150000Y-72870395D01*
X57164143Y-72856253D01*
X57343748Y-73035858D01*
X57329605Y-73050000D01*
X57343748Y-73064143D01*
X57164143Y-73243748D01*
X57150000Y-73229605D01*
X56408336Y-73971269D01*
X56467797Y-74205037D01*
X56706242Y-74315934D01*
X56961740Y-74378183D01*
X57224473Y-74389390D01*
X57484344Y-74349125D01*
X57731366Y-74258935D01*
X57832203Y-74205037D01*
X57856135Y-74110951D01*
X57910355Y-74212392D01*
X57926961Y-74232626D01*
X58005578Y-74328422D01*
X58034654Y-74352284D01*
X58358370Y-74676000D01*
X57193277Y-74676000D01*
X57111115Y-74575885D01*
X56981275Y-74469329D01*
X56833142Y-74390150D01*
X56672408Y-74341392D01*
X56505250Y-74324928D01*
X56067750Y-74324928D01*
X55900592Y-74341392D01*
X55739858Y-74390150D01*
X55591725Y-74469329D01*
X55499000Y-74545426D01*
X55406275Y-74469329D01*
X55258142Y-74390150D01*
X55097408Y-74341392D01*
X54930250Y-74324928D01*
X54492750Y-74324928D01*
X54325592Y-74341392D01*
X54164858Y-74390150D01*
X54016725Y-74469329D01*
X53886885Y-74575885D01*
X53804723Y-74676000D01*
X53500722Y-74676000D01*
X53463299Y-74672314D01*
X53425876Y-74676000D01*
X53425874Y-74676000D01*
X53313922Y-74687026D01*
X53170285Y-74730598D01*
X53037908Y-74801355D01*
X52921878Y-74896578D01*
X52898021Y-74925648D01*
X51049649Y-76774021D01*
X51020579Y-76797878D01*
X50996722Y-76826948D01*
X50996721Y-76826949D01*
X50925355Y-76913908D01*
X50854599Y-77046285D01*
X50811027Y-77189922D01*
X50796314Y-77339300D01*
X50800001Y-77376733D01*
X50800000Y-78601076D01*
X50796314Y-78638500D01*
X50800000Y-78675923D01*
X50800000Y-78675925D01*
X50811026Y-78787877D01*
X50854598Y-78931514D01*
X50876345Y-78972200D01*
X50925355Y-79063892D01*
X50961437Y-79107858D01*
X51020578Y-79179922D01*
X51049654Y-79203784D01*
X51464928Y-79619058D01*
X51464928Y-79873250D01*
X51481392Y-80040408D01*
X51530150Y-80201142D01*
X51609329Y-80349275D01*
X51715885Y-80479115D01*
X51845725Y-80585671D01*
X51993858Y-80664850D01*
X52023120Y-80673726D01*
X51999418Y-80680916D01*
X51863171Y-80753742D01*
X51816000Y-80792454D01*
X51768829Y-80753742D01*
X51632582Y-80680916D01*
X51484745Y-80636071D01*
X51331000Y-80620928D01*
X51031000Y-80620928D01*
X50877255Y-80636071D01*
X50729418Y-80680916D01*
X50593171Y-80753742D01*
X50473749Y-80851749D01*
X50375742Y-80971171D01*
X50302916Y-81107418D01*
X50258071Y-81255255D01*
X50244228Y-81395800D01*
X50232800Y-81395800D01*
X50232800Y-72349721D01*
X50245000Y-72349721D01*
X50245000Y-72770279D01*
X50327047Y-73182756D01*
X50487988Y-73571302D01*
X50721637Y-73920983D01*
X51019017Y-74218363D01*
X51368698Y-74452012D01*
X51757244Y-74612953D01*
X52169721Y-74695000D01*
X52590279Y-74695000D01*
X53002756Y-74612953D01*
X53391302Y-74452012D01*
X53740983Y-74218363D01*
X54038363Y-73920983D01*
X54272012Y-73571302D01*
X54432953Y-73182756D01*
X54444546Y-73124473D01*
X55810610Y-73124473D01*
X55850875Y-73384344D01*
X55941065Y-73631366D01*
X55994963Y-73732203D01*
X56228731Y-73791664D01*
X56970395Y-73050000D01*
X56228731Y-72308336D01*
X55994963Y-72367797D01*
X55884066Y-72606242D01*
X55821817Y-72861740D01*
X55810610Y-73124473D01*
X54444546Y-73124473D01*
X54515000Y-72770279D01*
X54515000Y-72349721D01*
X54432953Y-71937244D01*
X54272012Y-71548698D01*
X54038363Y-71199017D01*
X53740983Y-70901637D01*
X53391302Y-70667988D01*
X53002756Y-70507047D01*
X52590279Y-70425000D01*
X52169721Y-70425000D01*
X51757244Y-70507047D01*
X51368698Y-70667988D01*
X51019017Y-70901637D01*
X50721637Y-71199017D01*
X50487988Y-71548698D01*
X50327047Y-71937244D01*
X50245000Y-72349721D01*
X50232800Y-72349721D01*
X50232800Y-63394000D01*
X50292002Y-63394000D01*
X50292002Y-63235252D01*
X50450750Y-63394000D01*
G37*
X50450750Y-63394000D02*
X50465000Y-63397072D01*
X50589482Y-63384812D01*
X50709180Y-63348502D01*
X50819494Y-63289537D01*
X50849064Y-63265270D01*
X50983418Y-63337084D01*
X51131255Y-63381929D01*
X51285000Y-63397072D01*
X51511750Y-63397072D01*
X51493392Y-63457592D01*
X51476928Y-63624750D01*
X51476928Y-64137250D01*
X51493392Y-64304408D01*
X51542150Y-64465142D01*
X51621329Y-64613275D01*
X51727885Y-64743115D01*
X51857725Y-64849671D01*
X52005858Y-64928850D01*
X52166592Y-64977608D01*
X52333750Y-64994072D01*
X52771250Y-64994072D01*
X52938408Y-64977608D01*
X53099142Y-64928850D01*
X53247275Y-64849671D01*
X53289300Y-64815182D01*
X53289301Y-69580327D01*
X53285246Y-69621500D01*
X53301429Y-69785815D01*
X53349358Y-69943816D01*
X53427191Y-70089431D01*
X53471166Y-70143014D01*
X53531937Y-70217064D01*
X53563913Y-70243306D01*
X55004191Y-71683585D01*
X55030436Y-71715564D01*
X55062412Y-71741806D01*
X55062414Y-71741808D01*
X55092263Y-71766304D01*
X55158068Y-71820309D01*
X55303683Y-71898142D01*
X55461684Y-71946071D01*
X55584830Y-71958200D01*
X55584836Y-71958200D01*
X55625999Y-71962254D01*
X55667162Y-71958200D01*
X56451712Y-71958200D01*
X56408336Y-72128731D01*
X57150000Y-72870395D01*
X57164143Y-72856253D01*
X57343748Y-73035858D01*
X57329605Y-73050000D01*
X57343748Y-73064143D01*
X57164143Y-73243748D01*
X57150000Y-73229605D01*
X56408336Y-73971269D01*
X56467797Y-74205037D01*
X56706242Y-74315934D01*
X56961740Y-74378183D01*
X57224473Y-74389390D01*
X57484344Y-74349125D01*
X57731366Y-74258935D01*
X57832203Y-74205037D01*
X57856135Y-74110951D01*
X57910355Y-74212392D01*
X57926961Y-74232626D01*
X58005578Y-74328422D01*
X58034654Y-74352284D01*
X58358370Y-74676000D01*
X57193277Y-74676000D01*
X57111115Y-74575885D01*
X56981275Y-74469329D01*
X56833142Y-74390150D01*
X56672408Y-74341392D01*
X56505250Y-74324928D01*
X56067750Y-74324928D01*
X55900592Y-74341392D01*
X55739858Y-74390150D01*
X55591725Y-74469329D01*
X55499000Y-74545426D01*
X55406275Y-74469329D01*
X55258142Y-74390150D01*
X55097408Y-74341392D01*
X54930250Y-74324928D01*
X54492750Y-74324928D01*
X54325592Y-74341392D01*
X54164858Y-74390150D01*
X54016725Y-74469329D01*
X53886885Y-74575885D01*
X53804723Y-74676000D01*
X53500722Y-74676000D01*
X53463299Y-74672314D01*
X53425876Y-74676000D01*
X53425874Y-74676000D01*
X53313922Y-74687026D01*
X53170285Y-74730598D01*
X53037908Y-74801355D01*
X52921878Y-74896578D01*
X52898021Y-74925648D01*
X51049649Y-76774021D01*
X51020579Y-76797878D01*
X50996722Y-76826948D01*
X50996721Y-76826949D01*
X50925355Y-76913908D01*
X50854599Y-77046285D01*
X50811027Y-77189922D01*
X50796314Y-77339300D01*
X50800001Y-77376733D01*
X50800000Y-78601076D01*
X50796314Y-78638500D01*
X50800000Y-78675923D01*
X50800000Y-78675925D01*
X50811026Y-78787877D01*
X50854598Y-78931514D01*
X50876345Y-78972200D01*
X50925355Y-79063892D01*
X50961437Y-79107858D01*
X51020578Y-79179922D01*
X51049654Y-79203784D01*
X51464928Y-79619058D01*
X51464928Y-79873250D01*
X51481392Y-80040408D01*
X51530150Y-80201142D01*
X51609329Y-80349275D01*
X51715885Y-80479115D01*
X51845725Y-80585671D01*
X51993858Y-80664850D01*
X52023120Y-80673726D01*
X51999418Y-80680916D01*
X51863171Y-80753742D01*
X51816000Y-80792454D01*
X51768829Y-80753742D01*
X51632582Y-80680916D01*
X51484745Y-80636071D01*
X51331000Y-80620928D01*
X51031000Y-80620928D01*
X50877255Y-80636071D01*
X50729418Y-80680916D01*
X50593171Y-80753742D01*
X50473749Y-80851749D01*
X50375742Y-80971171D01*
X50302916Y-81107418D01*
X50258071Y-81255255D01*
X50244228Y-81395800D01*
X50232800Y-81395800D01*
X50232800Y-72349721D01*
X50245000Y-72349721D01*
X50245000Y-72770279D01*
X50327047Y-73182756D01*
X50487988Y-73571302D01*
X50721637Y-73920983D01*
X51019017Y-74218363D01*
X51368698Y-74452012D01*
X51757244Y-74612953D01*
X52169721Y-74695000D01*
X52590279Y-74695000D01*
X53002756Y-74612953D01*
X53391302Y-74452012D01*
X53740983Y-74218363D01*
X54038363Y-73920983D01*
X54272012Y-73571302D01*
X54432953Y-73182756D01*
X54444546Y-73124473D01*
X55810610Y-73124473D01*
X55850875Y-73384344D01*
X55941065Y-73631366D01*
X55994963Y-73732203D01*
X56228731Y-73791664D01*
X56970395Y-73050000D01*
X56228731Y-72308336D01*
X55994963Y-72367797D01*
X55884066Y-72606242D01*
X55821817Y-72861740D01*
X55810610Y-73124473D01*
X54444546Y-73124473D01*
X54515000Y-72770279D01*
X54515000Y-72349721D01*
X54432953Y-71937244D01*
X54272012Y-71548698D01*
X54038363Y-71199017D01*
X53740983Y-70901637D01*
X53391302Y-70667988D01*
X53002756Y-70507047D01*
X52590279Y-70425000D01*
X52169721Y-70425000D01*
X51757244Y-70507047D01*
X51368698Y-70667988D01*
X51019017Y-70901637D01*
X50721637Y-71199017D01*
X50487988Y-71548698D01*
X50327047Y-71937244D01*
X50245000Y-72349721D01*
X50232800Y-72349721D01*
X50232800Y-63394000D01*
X50292002Y-63394000D01*
X50292002Y-63235252D01*
X50450750Y-63394000D01*
G36*
X53886885Y-76300115D02*
G01*
X54016725Y-76406671D01*
X54164858Y-76485850D01*
X54325592Y-76534608D01*
X54492750Y-76551072D01*
X54930250Y-76551072D01*
X55097408Y-76534608D01*
X55258142Y-76485850D01*
X55406275Y-76406671D01*
X55499000Y-76330574D01*
X55591725Y-76406671D01*
X55739858Y-76485850D01*
X55900592Y-76534608D01*
X56067750Y-76551072D01*
X56229594Y-76551072D01*
X56223815Y-76555815D01*
X56144463Y-76652506D01*
X56085498Y-76762820D01*
X56049188Y-76882518D01*
X56036928Y-77007000D01*
X56040000Y-77158750D01*
X56198750Y-77317500D01*
X57023000Y-77317500D01*
X57023000Y-76530750D01*
X57277000Y-76530750D01*
X57277000Y-77317500D01*
X58101250Y-77317500D01*
X58260000Y-77158750D01*
X58263072Y-77007000D01*
X58250812Y-76882518D01*
X58214502Y-76762820D01*
X58155537Y-76652506D01*
X58076185Y-76555815D01*
X57979494Y-76476463D01*
X57869180Y-76417498D01*
X57749482Y-76381188D01*
X57625000Y-76368928D01*
X57435750Y-76372000D01*
X57277000Y-76530750D01*
X57023000Y-76530750D01*
X56927607Y-76435357D01*
X56981275Y-76406671D01*
X57111115Y-76300115D01*
X57193277Y-76200000D01*
X58417070Y-76200000D01*
X58691420Y-76474351D01*
X58715278Y-76503422D01*
X58744348Y-76527279D01*
X58831307Y-76598645D01*
X58856293Y-76612000D01*
X58950909Y-76662573D01*
X58956102Y-76715302D01*
X58951068Y-76761342D01*
X58831308Y-76825355D01*
X58715278Y-76920578D01*
X58620055Y-77036608D01*
X58549298Y-77168985D01*
X58505726Y-77312622D01*
X58491014Y-77462000D01*
X58494700Y-77499426D01*
X58494700Y-78039070D01*
X58261531Y-77805901D01*
X58260000Y-77730250D01*
X58101250Y-77571500D01*
X58009747Y-77571500D01*
X57881215Y-77502798D01*
X57737578Y-77459226D01*
X57625626Y-77448200D01*
X57625623Y-77448200D01*
X57588200Y-77444514D01*
X57550777Y-77448200D01*
X55786722Y-77448200D01*
X55749299Y-77444514D01*
X55711876Y-77448200D01*
X55711874Y-77448200D01*
X55599922Y-77459226D01*
X55456285Y-77502798D01*
X55323908Y-77573555D01*
X55207878Y-77668778D01*
X55195614Y-77683722D01*
X55149850Y-77532858D01*
X55070671Y-77384725D01*
X54964115Y-77254885D01*
X54834275Y-77148329D01*
X54686142Y-77069150D01*
X54525408Y-77020392D01*
X54358250Y-77003928D01*
X53845750Y-77003928D01*
X53678592Y-77020392D01*
X53517858Y-77069150D01*
X53369725Y-77148329D01*
X53340000Y-77172723D01*
X53310275Y-77148329D01*
X53162142Y-77069150D01*
X53001408Y-77020392D01*
X52962382Y-77016548D01*
X53778931Y-76200000D01*
X53804723Y-76200000D01*
X53886885Y-76300115D01*
G37*
X53886885Y-76300115D02*
X54016725Y-76406671D01*
X54164858Y-76485850D01*
X54325592Y-76534608D01*
X54492750Y-76551072D01*
X54930250Y-76551072D01*
X55097408Y-76534608D01*
X55258142Y-76485850D01*
X55406275Y-76406671D01*
X55499000Y-76330574D01*
X55591725Y-76406671D01*
X55739858Y-76485850D01*
X55900592Y-76534608D01*
X56067750Y-76551072D01*
X56229594Y-76551072D01*
X56223815Y-76555815D01*
X56144463Y-76652506D01*
X56085498Y-76762820D01*
X56049188Y-76882518D01*
X56036928Y-77007000D01*
X56040000Y-77158750D01*
X56198750Y-77317500D01*
X57023000Y-77317500D01*
X57023000Y-76530750D01*
X57277000Y-76530750D01*
X57277000Y-77317500D01*
X58101250Y-77317500D01*
X58260000Y-77158750D01*
X58263072Y-77007000D01*
X58250812Y-76882518D01*
X58214502Y-76762820D01*
X58155537Y-76652506D01*
X58076185Y-76555815D01*
X57979494Y-76476463D01*
X57869180Y-76417498D01*
X57749482Y-76381188D01*
X57625000Y-76368928D01*
X57435750Y-76372000D01*
X57277000Y-76530750D01*
X57023000Y-76530750D01*
X56927607Y-76435357D01*
X56981275Y-76406671D01*
X57111115Y-76300115D01*
X57193277Y-76200000D01*
X58417070Y-76200000D01*
X58691420Y-76474351D01*
X58715278Y-76503422D01*
X58744348Y-76527279D01*
X58831307Y-76598645D01*
X58856293Y-76612000D01*
X58950909Y-76662573D01*
X58956102Y-76715302D01*
X58951068Y-76761342D01*
X58831308Y-76825355D01*
X58715278Y-76920578D01*
X58620055Y-77036608D01*
X58549298Y-77168985D01*
X58505726Y-77312622D01*
X58491014Y-77462000D01*
X58494700Y-77499426D01*
X58494700Y-78039070D01*
X58261531Y-77805901D01*
X58260000Y-77730250D01*
X58101250Y-77571500D01*
X58009747Y-77571500D01*
X57881215Y-77502798D01*
X57737578Y-77459226D01*
X57625626Y-77448200D01*
X57625623Y-77448200D01*
X57588200Y-77444514D01*
X57550777Y-77448200D01*
X55786722Y-77448200D01*
X55749299Y-77444514D01*
X55711876Y-77448200D01*
X55711874Y-77448200D01*
X55599922Y-77459226D01*
X55456285Y-77502798D01*
X55323908Y-77573555D01*
X55207878Y-77668778D01*
X55195614Y-77683722D01*
X55149850Y-77532858D01*
X55070671Y-77384725D01*
X54964115Y-77254885D01*
X54834275Y-77148329D01*
X54686142Y-77069150D01*
X54525408Y-77020392D01*
X54358250Y-77003928D01*
X53845750Y-77003928D01*
X53678592Y-77020392D01*
X53517858Y-77069150D01*
X53369725Y-77148329D01*
X53340000Y-77172723D01*
X53310275Y-77148329D01*
X53162142Y-77069150D01*
X53001408Y-77020392D01*
X52962382Y-77016548D01*
X53778931Y-76200000D01*
X53804723Y-76200000D01*
X53886885Y-76300115D01*
G36*
X57003815Y-51404185D02*
G01*
X57100506Y-51483537D01*
X57210820Y-51542502D01*
X57330518Y-51578812D01*
X57455000Y-51591072D01*
X57715140Y-51589895D01*
X57614748Y-51631479D01*
X57336313Y-51817523D01*
X57099523Y-52054313D01*
X56913479Y-52332748D01*
X56785330Y-52642128D01*
X56720000Y-52970565D01*
X56720000Y-53305435D01*
X56785330Y-53633872D01*
X56913479Y-53943252D01*
X57099523Y-54221687D01*
X57336313Y-54458477D01*
X57614748Y-54644521D01*
X57737681Y-54695442D01*
X57783355Y-54780892D01*
X57803425Y-54805347D01*
X57878578Y-54896922D01*
X57907653Y-54920784D01*
X58106928Y-55120058D01*
X58106928Y-55374250D01*
X58123392Y-55541408D01*
X58172150Y-55702142D01*
X58251329Y-55850275D01*
X58357885Y-55980115D01*
X58487725Y-56086671D01*
X58635858Y-56165850D01*
X58796592Y-56214608D01*
X58963750Y-56231072D01*
X59401250Y-56231072D01*
X59568408Y-56214608D01*
X59729142Y-56165850D01*
X59877275Y-56086671D01*
X59970000Y-56010574D01*
X60062725Y-56086671D01*
X60210858Y-56165850D01*
X60371592Y-56214608D01*
X60538750Y-56231072D01*
X60845679Y-56231072D01*
X61561800Y-56947194D01*
X61561801Y-57401256D01*
X61398405Y-57401256D01*
X61198446Y-57441030D01*
X61010088Y-57519051D01*
X60840570Y-57632319D01*
X60696407Y-57776482D01*
X60583139Y-57946000D01*
X60505118Y-58134358D01*
X60465344Y-58334317D01*
X60465344Y-58538195D01*
X60505118Y-58738154D01*
X60583139Y-58926512D01*
X60696407Y-59096030D01*
X60840570Y-59240193D01*
X61010088Y-59353461D01*
X61198446Y-59431482D01*
X61398405Y-59471256D01*
X61457714Y-59471256D01*
X62461857Y-60475399D01*
X62391334Y-60498710D01*
X62282510Y-60560381D01*
X62187808Y-60642097D01*
X62110868Y-60740719D01*
X62054647Y-60852456D01*
X62021305Y-60973014D01*
X62012123Y-61097761D01*
X62015000Y-61121250D01*
X62173750Y-61280000D01*
X62661928Y-61280000D01*
X62661928Y-61534000D01*
X62173750Y-61534000D01*
X62015000Y-61692750D01*
X62012123Y-61716239D01*
X62021305Y-61840986D01*
X62054647Y-61961544D01*
X62110868Y-62073281D01*
X62187808Y-62171903D01*
X62282510Y-62253619D01*
X62391334Y-62315290D01*
X62510098Y-62354546D01*
X62525199Y-62356285D01*
X62405820Y-62392498D01*
X62295506Y-62451463D01*
X62198815Y-62530815D01*
X62119463Y-62627506D01*
X62060498Y-62737820D01*
X62024188Y-62857518D01*
X62011928Y-62982000D01*
X62011928Y-63197300D01*
X61954997Y-63197300D01*
X61943108Y-63076592D01*
X61894350Y-62915858D01*
X61815171Y-62767725D01*
X61708615Y-62637885D01*
X61578775Y-62531329D01*
X61430642Y-62452150D01*
X61269908Y-62403392D01*
X61102750Y-62386928D01*
X60665250Y-62386928D01*
X60498092Y-62403392D01*
X60337358Y-62452150D01*
X60189225Y-62531329D01*
X60096500Y-62607426D01*
X60003775Y-62531329D01*
X59855642Y-62452150D01*
X59798518Y-62434822D01*
X59926521Y-62243252D01*
X60054670Y-61933872D01*
X60120000Y-61605435D01*
X60120000Y-61270565D01*
X60054670Y-60942128D01*
X59926521Y-60632748D01*
X59740477Y-60354313D01*
X59503687Y-60117523D01*
X59225252Y-59931479D01*
X58915872Y-59803330D01*
X58587435Y-59738000D01*
X58252565Y-59738000D01*
X57924128Y-59803330D01*
X57614748Y-59931479D01*
X57336313Y-60117523D01*
X57099523Y-60354313D01*
X56913479Y-60632748D01*
X56785330Y-60942128D01*
X56720000Y-61270565D01*
X56720000Y-61605435D01*
X56785330Y-61933872D01*
X56913479Y-62243252D01*
X57099523Y-62521687D01*
X57336313Y-62758477D01*
X57614748Y-62944521D01*
X57768230Y-63008095D01*
X57783355Y-63036392D01*
X57813128Y-63072670D01*
X57878578Y-63152422D01*
X57907653Y-63176284D01*
X58233428Y-63502058D01*
X58233428Y-63756250D01*
X58249892Y-63923408D01*
X58298650Y-64084142D01*
X58377829Y-64232275D01*
X58484385Y-64362115D01*
X58614225Y-64468671D01*
X58762358Y-64547850D01*
X58923092Y-64596608D01*
X59090250Y-64613072D01*
X59527750Y-64613072D01*
X59694908Y-64596608D01*
X59855642Y-64547850D01*
X60003775Y-64468671D01*
X60096500Y-64392574D01*
X60189225Y-64468671D01*
X60337358Y-64547850D01*
X60498092Y-64596608D01*
X60665250Y-64613072D01*
X60949950Y-64613072D01*
X61050285Y-64666702D01*
X61193922Y-64710274D01*
X61305874Y-64721300D01*
X61305876Y-64721300D01*
X61343299Y-64724986D01*
X61380722Y-64721300D01*
X62278806Y-64721300D01*
X60528307Y-66471800D01*
X59437385Y-66471800D01*
X59433812Y-66435518D01*
X59397502Y-66315820D01*
X59338537Y-66205506D01*
X59259185Y-66108815D01*
X59162494Y-66029463D01*
X59146200Y-66020754D01*
X59146200Y-65887901D01*
X59150254Y-65846738D01*
X59146200Y-65805575D01*
X59146200Y-65805568D01*
X59134071Y-65682422D01*
X59086142Y-65524421D01*
X59008309Y-65378806D01*
X58903564Y-65251174D01*
X58871588Y-65224932D01*
X56464200Y-62817545D01*
X56464200Y-61448741D01*
X56488115Y-61429115D01*
X56594671Y-61299275D01*
X56673850Y-61151142D01*
X56722608Y-60990408D01*
X56739072Y-60823250D01*
X56739072Y-60385750D01*
X56722608Y-60218592D01*
X56673850Y-60057858D01*
X56594671Y-59909725D01*
X56576900Y-59888070D01*
X56631537Y-59821494D01*
X56690502Y-59711180D01*
X56726812Y-59591482D01*
X56739072Y-59467000D01*
X56736000Y-59315250D01*
X56577250Y-59156500D01*
X55753000Y-59156500D01*
X55753000Y-59176500D01*
X55499000Y-59176500D01*
X55499000Y-59156500D01*
X54674750Y-59156500D01*
X54516000Y-59315250D01*
X54512928Y-59467000D01*
X54525188Y-59591482D01*
X54561498Y-59711180D01*
X54620463Y-59821494D01*
X54675100Y-59888070D01*
X54657329Y-59909725D01*
X54578150Y-60057858D01*
X54529392Y-60218592D01*
X54523097Y-60282505D01*
X54426582Y-60230916D01*
X54278745Y-60186071D01*
X54125000Y-60170928D01*
X53825000Y-60170928D01*
X53726466Y-60180633D01*
X53737126Y-60154898D01*
X53776900Y-59954939D01*
X53776900Y-59751061D01*
X53737126Y-59551102D01*
X53659105Y-59362744D01*
X53545837Y-59193226D01*
X53401674Y-59049063D01*
X53232156Y-58935795D01*
X53043798Y-58857774D01*
X52843839Y-58818000D01*
X52639961Y-58818000D01*
X52440002Y-58857774D01*
X52251644Y-58935795D01*
X52082126Y-59049063D01*
X51937963Y-59193226D01*
X51824695Y-59362744D01*
X51746674Y-59551102D01*
X51706900Y-59751061D01*
X51706900Y-59954939D01*
X51746674Y-60154898D01*
X51762581Y-60193302D01*
X51738745Y-60186071D01*
X51585000Y-60170928D01*
X51285000Y-60170928D01*
X51131255Y-60186071D01*
X50983418Y-60230916D01*
X50849064Y-60302730D01*
X50819494Y-60278463D01*
X50709180Y-60219498D01*
X50589482Y-60183188D01*
X50465000Y-60170928D01*
X50450750Y-60174000D01*
X50292002Y-60332748D01*
X50292002Y-60174000D01*
X50232800Y-60174000D01*
X50232800Y-58447072D01*
X50315000Y-58447072D01*
X50468745Y-58431929D01*
X50616582Y-58387084D01*
X50752829Y-58314258D01*
X50800000Y-58275546D01*
X50847171Y-58314258D01*
X50983418Y-58387084D01*
X51131255Y-58431929D01*
X51285000Y-58447072D01*
X51585000Y-58447072D01*
X51738745Y-58431929D01*
X51886582Y-58387084D01*
X52022829Y-58314258D01*
X52070000Y-58275546D01*
X52117171Y-58314258D01*
X52253418Y-58387084D01*
X52401255Y-58431929D01*
X52555000Y-58447072D01*
X52855000Y-58447072D01*
X53008745Y-58431929D01*
X53156582Y-58387084D01*
X53292829Y-58314258D01*
X53340000Y-58275546D01*
X53387171Y-58314258D01*
X53523418Y-58387084D01*
X53671255Y-58431929D01*
X53825000Y-58447072D01*
X54125000Y-58447072D01*
X54278745Y-58431929D01*
X54426582Y-58387084D01*
X54562829Y-58314258D01*
X54592417Y-58289976D01*
X54561498Y-58347820D01*
X54525188Y-58467518D01*
X54512928Y-58592000D01*
X54516000Y-58743750D01*
X54674750Y-58902500D01*
X55499000Y-58902500D01*
X55499000Y-58115750D01*
X55753000Y-58115750D01*
X55753000Y-58902500D01*
X56577250Y-58902500D01*
X56736000Y-58743750D01*
X56739072Y-58592000D01*
X56726812Y-58467518D01*
X56690502Y-58347820D01*
X56631537Y-58237506D01*
X56552185Y-58140815D01*
X56455494Y-58061463D01*
X56345180Y-58002498D01*
X56225482Y-57966188D01*
X56101000Y-57953928D01*
X55911750Y-57957000D01*
X55753000Y-58115750D01*
X55499000Y-58115750D01*
X55340250Y-57957000D01*
X55151000Y-57953928D01*
X55026518Y-57966188D01*
X54906820Y-58002498D01*
X54800224Y-58059476D01*
X54853084Y-57960582D01*
X54897929Y-57812745D01*
X54913072Y-57659000D01*
X54913072Y-56009000D01*
X54897929Y-55855255D01*
X54853084Y-55707418D01*
X54780258Y-55571171D01*
X54737000Y-55518461D01*
X54737000Y-55002923D01*
X54740686Y-54965500D01*
X54736923Y-54927292D01*
X54725974Y-54816122D01*
X54695072Y-54714252D01*
X54695072Y-54353750D01*
X54678608Y-54186592D01*
X54629850Y-54025858D01*
X54550671Y-53877725D01*
X54444115Y-53747885D01*
X54314275Y-53641329D01*
X54166142Y-53562150D01*
X54005408Y-53513392D01*
X53838250Y-53496928D01*
X53614702Y-53496928D01*
X54094831Y-53016800D01*
X54154139Y-53016800D01*
X54354098Y-52977026D01*
X54542456Y-52899005D01*
X54711974Y-52785737D01*
X54856137Y-52641574D01*
X54969405Y-52472056D01*
X55047426Y-52283698D01*
X55087200Y-52083739D01*
X55087200Y-51977400D01*
X55935177Y-51977400D01*
X55972600Y-51981086D01*
X56010023Y-51977400D01*
X56010026Y-51977400D01*
X56121978Y-51966374D01*
X56265615Y-51922802D01*
X56397992Y-51852045D01*
X56514022Y-51756822D01*
X56537884Y-51727746D01*
X56939641Y-51325989D01*
X57003815Y-51404185D01*
G37*
X57003815Y-51404185D02*
X57100506Y-51483537D01*
X57210820Y-51542502D01*
X57330518Y-51578812D01*
X57455000Y-51591072D01*
X57715140Y-51589895D01*
X57614748Y-51631479D01*
X57336313Y-51817523D01*
X57099523Y-52054313D01*
X56913479Y-52332748D01*
X56785330Y-52642128D01*
X56720000Y-52970565D01*
X56720000Y-53305435D01*
X56785330Y-53633872D01*
X56913479Y-53943252D01*
X57099523Y-54221687D01*
X57336313Y-54458477D01*
X57614748Y-54644521D01*
X57737681Y-54695442D01*
X57783355Y-54780892D01*
X57803425Y-54805347D01*
X57878578Y-54896922D01*
X57907653Y-54920784D01*
X58106928Y-55120058D01*
X58106928Y-55374250D01*
X58123392Y-55541408D01*
X58172150Y-55702142D01*
X58251329Y-55850275D01*
X58357885Y-55980115D01*
X58487725Y-56086671D01*
X58635858Y-56165850D01*
X58796592Y-56214608D01*
X58963750Y-56231072D01*
X59401250Y-56231072D01*
X59568408Y-56214608D01*
X59729142Y-56165850D01*
X59877275Y-56086671D01*
X59970000Y-56010574D01*
X60062725Y-56086671D01*
X60210858Y-56165850D01*
X60371592Y-56214608D01*
X60538750Y-56231072D01*
X60845679Y-56231072D01*
X61561800Y-56947194D01*
X61561801Y-57401256D01*
X61398405Y-57401256D01*
X61198446Y-57441030D01*
X61010088Y-57519051D01*
X60840570Y-57632319D01*
X60696407Y-57776482D01*
X60583139Y-57946000D01*
X60505118Y-58134358D01*
X60465344Y-58334317D01*
X60465344Y-58538195D01*
X60505118Y-58738154D01*
X60583139Y-58926512D01*
X60696407Y-59096030D01*
X60840570Y-59240193D01*
X61010088Y-59353461D01*
X61198446Y-59431482D01*
X61398405Y-59471256D01*
X61457714Y-59471256D01*
X62461857Y-60475399D01*
X62391334Y-60498710D01*
X62282510Y-60560381D01*
X62187808Y-60642097D01*
X62110868Y-60740719D01*
X62054647Y-60852456D01*
X62021305Y-60973014D01*
X62012123Y-61097761D01*
X62015000Y-61121250D01*
X62173750Y-61280000D01*
X62661928Y-61280000D01*
X62661928Y-61534000D01*
X62173750Y-61534000D01*
X62015000Y-61692750D01*
X62012123Y-61716239D01*
X62021305Y-61840986D01*
X62054647Y-61961544D01*
X62110868Y-62073281D01*
X62187808Y-62171903D01*
X62282510Y-62253619D01*
X62391334Y-62315290D01*
X62510098Y-62354546D01*
X62525199Y-62356285D01*
X62405820Y-62392498D01*
X62295506Y-62451463D01*
X62198815Y-62530815D01*
X62119463Y-62627506D01*
X62060498Y-62737820D01*
X62024188Y-62857518D01*
X62011928Y-62982000D01*
X62011928Y-63197300D01*
X61954997Y-63197300D01*
X61943108Y-63076592D01*
X61894350Y-62915858D01*
X61815171Y-62767725D01*
X61708615Y-62637885D01*
X61578775Y-62531329D01*
X61430642Y-62452150D01*
X61269908Y-62403392D01*
X61102750Y-62386928D01*
X60665250Y-62386928D01*
X60498092Y-62403392D01*
X60337358Y-62452150D01*
X60189225Y-62531329D01*
X60096500Y-62607426D01*
X60003775Y-62531329D01*
X59855642Y-62452150D01*
X59798518Y-62434822D01*
X59926521Y-62243252D01*
X60054670Y-61933872D01*
X60120000Y-61605435D01*
X60120000Y-61270565D01*
X60054670Y-60942128D01*
X59926521Y-60632748D01*
X59740477Y-60354313D01*
X59503687Y-60117523D01*
X59225252Y-59931479D01*
X58915872Y-59803330D01*
X58587435Y-59738000D01*
X58252565Y-59738000D01*
X57924128Y-59803330D01*
X57614748Y-59931479D01*
X57336313Y-60117523D01*
X57099523Y-60354313D01*
X56913479Y-60632748D01*
X56785330Y-60942128D01*
X56720000Y-61270565D01*
X56720000Y-61605435D01*
X56785330Y-61933872D01*
X56913479Y-62243252D01*
X57099523Y-62521687D01*
X57336313Y-62758477D01*
X57614748Y-62944521D01*
X57768230Y-63008095D01*
X57783355Y-63036392D01*
X57813128Y-63072670D01*
X57878578Y-63152422D01*
X57907653Y-63176284D01*
X58233428Y-63502058D01*
X58233428Y-63756250D01*
X58249892Y-63923408D01*
X58298650Y-64084142D01*
X58377829Y-64232275D01*
X58484385Y-64362115D01*
X58614225Y-64468671D01*
X58762358Y-64547850D01*
X58923092Y-64596608D01*
X59090250Y-64613072D01*
X59527750Y-64613072D01*
X59694908Y-64596608D01*
X59855642Y-64547850D01*
X60003775Y-64468671D01*
X60096500Y-64392574D01*
X60189225Y-64468671D01*
X60337358Y-64547850D01*
X60498092Y-64596608D01*
X60665250Y-64613072D01*
X60949950Y-64613072D01*
X61050285Y-64666702D01*
X61193922Y-64710274D01*
X61305874Y-64721300D01*
X61305876Y-64721300D01*
X61343299Y-64724986D01*
X61380722Y-64721300D01*
X62278806Y-64721300D01*
X60528307Y-66471800D01*
X59437385Y-66471800D01*
X59433812Y-66435518D01*
X59397502Y-66315820D01*
X59338537Y-66205506D01*
X59259185Y-66108815D01*
X59162494Y-66029463D01*
X59146200Y-66020754D01*
X59146200Y-65887901D01*
X59150254Y-65846738D01*
X59146200Y-65805575D01*
X59146200Y-65805568D01*
X59134071Y-65682422D01*
X59086142Y-65524421D01*
X59008309Y-65378806D01*
X58903564Y-65251174D01*
X58871588Y-65224932D01*
X56464200Y-62817545D01*
X56464200Y-61448741D01*
X56488115Y-61429115D01*
X56594671Y-61299275D01*
X56673850Y-61151142D01*
X56722608Y-60990408D01*
X56739072Y-60823250D01*
X56739072Y-60385750D01*
X56722608Y-60218592D01*
X56673850Y-60057858D01*
X56594671Y-59909725D01*
X56576900Y-59888070D01*
X56631537Y-59821494D01*
X56690502Y-59711180D01*
X56726812Y-59591482D01*
X56739072Y-59467000D01*
X56736000Y-59315250D01*
X56577250Y-59156500D01*
X55753000Y-59156500D01*
X55753000Y-59176500D01*
X55499000Y-59176500D01*
X55499000Y-59156500D01*
X54674750Y-59156500D01*
X54516000Y-59315250D01*
X54512928Y-59467000D01*
X54525188Y-59591482D01*
X54561498Y-59711180D01*
X54620463Y-59821494D01*
X54675100Y-59888070D01*
X54657329Y-59909725D01*
X54578150Y-60057858D01*
X54529392Y-60218592D01*
X54523097Y-60282505D01*
X54426582Y-60230916D01*
X54278745Y-60186071D01*
X54125000Y-60170928D01*
X53825000Y-60170928D01*
X53726466Y-60180633D01*
X53737126Y-60154898D01*
X53776900Y-59954939D01*
X53776900Y-59751061D01*
X53737126Y-59551102D01*
X53659105Y-59362744D01*
X53545837Y-59193226D01*
X53401674Y-59049063D01*
X53232156Y-58935795D01*
X53043798Y-58857774D01*
X52843839Y-58818000D01*
X52639961Y-58818000D01*
X52440002Y-58857774D01*
X52251644Y-58935795D01*
X52082126Y-59049063D01*
X51937963Y-59193226D01*
X51824695Y-59362744D01*
X51746674Y-59551102D01*
X51706900Y-59751061D01*
X51706900Y-59954939D01*
X51746674Y-60154898D01*
X51762581Y-60193302D01*
X51738745Y-60186071D01*
X51585000Y-60170928D01*
X51285000Y-60170928D01*
X51131255Y-60186071D01*
X50983418Y-60230916D01*
X50849064Y-60302730D01*
X50819494Y-60278463D01*
X50709180Y-60219498D01*
X50589482Y-60183188D01*
X50465000Y-60170928D01*
X50450750Y-60174000D01*
X50292002Y-60332748D01*
X50292002Y-60174000D01*
X50232800Y-60174000D01*
X50232800Y-58447072D01*
X50315000Y-58447072D01*
X50468745Y-58431929D01*
X50616582Y-58387084D01*
X50752829Y-58314258D01*
X50800000Y-58275546D01*
X50847171Y-58314258D01*
X50983418Y-58387084D01*
X51131255Y-58431929D01*
X51285000Y-58447072D01*
X51585000Y-58447072D01*
X51738745Y-58431929D01*
X51886582Y-58387084D01*
X52022829Y-58314258D01*
X52070000Y-58275546D01*
X52117171Y-58314258D01*
X52253418Y-58387084D01*
X52401255Y-58431929D01*
X52555000Y-58447072D01*
X52855000Y-58447072D01*
X53008745Y-58431929D01*
X53156582Y-58387084D01*
X53292829Y-58314258D01*
X53340000Y-58275546D01*
X53387171Y-58314258D01*
X53523418Y-58387084D01*
X53671255Y-58431929D01*
X53825000Y-58447072D01*
X54125000Y-58447072D01*
X54278745Y-58431929D01*
X54426582Y-58387084D01*
X54562829Y-58314258D01*
X54592417Y-58289976D01*
X54561498Y-58347820D01*
X54525188Y-58467518D01*
X54512928Y-58592000D01*
X54516000Y-58743750D01*
X54674750Y-58902500D01*
X55499000Y-58902500D01*
X55499000Y-58115750D01*
X55753000Y-58115750D01*
X55753000Y-58902500D01*
X56577250Y-58902500D01*
X56736000Y-58743750D01*
X56739072Y-58592000D01*
X56726812Y-58467518D01*
X56690502Y-58347820D01*
X56631537Y-58237506D01*
X56552185Y-58140815D01*
X56455494Y-58061463D01*
X56345180Y-58002498D01*
X56225482Y-57966188D01*
X56101000Y-57953928D01*
X55911750Y-57957000D01*
X55753000Y-58115750D01*
X55499000Y-58115750D01*
X55340250Y-57957000D01*
X55151000Y-57953928D01*
X55026518Y-57966188D01*
X54906820Y-58002498D01*
X54800224Y-58059476D01*
X54853084Y-57960582D01*
X54897929Y-57812745D01*
X54913072Y-57659000D01*
X54913072Y-56009000D01*
X54897929Y-55855255D01*
X54853084Y-55707418D01*
X54780258Y-55571171D01*
X54737000Y-55518461D01*
X54737000Y-55002923D01*
X54740686Y-54965500D01*
X54736923Y-54927292D01*
X54725974Y-54816122D01*
X54695072Y-54714252D01*
X54695072Y-54353750D01*
X54678608Y-54186592D01*
X54629850Y-54025858D01*
X54550671Y-53877725D01*
X54444115Y-53747885D01*
X54314275Y-53641329D01*
X54166142Y-53562150D01*
X54005408Y-53513392D01*
X53838250Y-53496928D01*
X53614702Y-53496928D01*
X54094831Y-53016800D01*
X54154139Y-53016800D01*
X54354098Y-52977026D01*
X54542456Y-52899005D01*
X54711974Y-52785737D01*
X54856137Y-52641574D01*
X54969405Y-52472056D01*
X55047426Y-52283698D01*
X55087200Y-52083739D01*
X55087200Y-51977400D01*
X55935177Y-51977400D01*
X55972600Y-51981086D01*
X56010023Y-51977400D01*
X56010026Y-51977400D01*
X56121978Y-51966374D01*
X56265615Y-51922802D01*
X56397992Y-51852045D01*
X56514022Y-51756822D01*
X56537884Y-51727746D01*
X56939641Y-51325989D01*
X57003815Y-51404185D01*
G36*
X66423607Y-60751000D02*
G01*
X66420998Y-60751000D01*
X66420998Y-60909748D01*
X66262250Y-60751000D01*
X66073000Y-60747928D01*
X65948518Y-60760188D01*
X65828820Y-60796498D01*
X65718506Y-60855463D01*
X65621815Y-60934815D01*
X65542463Y-61031506D01*
X65483498Y-61141820D01*
X65447188Y-61261518D01*
X65434928Y-61386000D01*
X65438000Y-61537750D01*
X65596750Y-61696500D01*
X66421000Y-61696500D01*
X66421000Y-61676500D01*
X66592401Y-61676500D01*
X66592401Y-61970500D01*
X66421000Y-61970500D01*
X66421000Y-61950500D01*
X65596750Y-61950500D01*
X65438000Y-62109250D01*
X65434928Y-62261000D01*
X65447188Y-62385482D01*
X65454170Y-62408500D01*
X64624117Y-62408500D01*
X64594180Y-62392498D01*
X64477159Y-62357000D01*
X64594180Y-62321502D01*
X64704494Y-62262537D01*
X64801185Y-62183185D01*
X64880537Y-62086494D01*
X64939502Y-61976180D01*
X64975812Y-61856482D01*
X64988072Y-61732000D01*
X64988072Y-61082000D01*
X64975812Y-60957518D01*
X64939502Y-60837820D01*
X64880537Y-60727506D01*
X64801185Y-60630815D01*
X64788738Y-60620600D01*
X66293207Y-60620600D01*
X66423607Y-60751000D01*
G37*
X66423607Y-60751000D02*
X66420998Y-60751000D01*
X66420998Y-60909748D01*
X66262250Y-60751000D01*
X66073000Y-60747928D01*
X65948518Y-60760188D01*
X65828820Y-60796498D01*
X65718506Y-60855463D01*
X65621815Y-60934815D01*
X65542463Y-61031506D01*
X65483498Y-61141820D01*
X65447188Y-61261518D01*
X65434928Y-61386000D01*
X65438000Y-61537750D01*
X65596750Y-61696500D01*
X66421000Y-61696500D01*
X66421000Y-61676500D01*
X66592401Y-61676500D01*
X66592401Y-61970500D01*
X66421000Y-61970500D01*
X66421000Y-61950500D01*
X65596750Y-61950500D01*
X65438000Y-62109250D01*
X65434928Y-62261000D01*
X65447188Y-62385482D01*
X65454170Y-62408500D01*
X64624117Y-62408500D01*
X64594180Y-62392498D01*
X64477159Y-62357000D01*
X64594180Y-62321502D01*
X64704494Y-62262537D01*
X64801185Y-62183185D01*
X64880537Y-62086494D01*
X64939502Y-61976180D01*
X64975812Y-61856482D01*
X64988072Y-61732000D01*
X64988072Y-61082000D01*
X64975812Y-60957518D01*
X64939502Y-60837820D01*
X64880537Y-60727506D01*
X64801185Y-60630815D01*
X64788738Y-60620600D01*
X66293207Y-60620600D01*
X66423607Y-60751000D01*
G36*
X50292000Y-61657000D02*
G01*
X50312000Y-61657000D01*
X50312000Y-61911000D01*
X50292000Y-61911000D01*
X50292000Y-61931000D01*
X50232800Y-61931000D01*
X50232800Y-61637000D01*
X50292000Y-61637000D01*
X50292000Y-61657000D01*
G37*
X50292000Y-61657000D02*
X50312000Y-61657000D01*
X50312000Y-61911000D01*
X50292000Y-61911000D01*
X50292000Y-61931000D01*
X50232800Y-61931000D01*
X50232800Y-61637000D01*
X50292000Y-61637000D01*
X50292000Y-61657000D01*
G36*
X62265421Y-50550351D02*
G01*
X62289278Y-50579422D01*
X62405308Y-50674645D01*
X62537685Y-50745402D01*
X62681322Y-50788974D01*
X62726782Y-50793451D01*
X62854525Y-50984632D01*
X63061368Y-51191475D01*
X63243534Y-51313195D01*
X63126645Y-51382822D01*
X62910412Y-51577731D01*
X62736359Y-51811080D01*
X62611175Y-52073901D01*
X62566524Y-52221110D01*
X62687845Y-52451000D01*
X63881000Y-52451000D01*
X63881000Y-52431000D01*
X64135000Y-52431000D01*
X64135000Y-52451000D01*
X64155000Y-52451000D01*
X64155000Y-52705000D01*
X64135000Y-52705000D01*
X64135000Y-52725000D01*
X63881000Y-52725000D01*
X63881000Y-52705000D01*
X62687845Y-52705000D01*
X62566524Y-52934890D01*
X62584241Y-52993300D01*
X62085163Y-52993300D01*
X62044000Y-52989246D01*
X62002837Y-52993300D01*
X62002830Y-52993300D01*
X61879684Y-53005429D01*
X61721683Y-53053358D01*
X61576068Y-53131191D01*
X61483048Y-53207531D01*
X61448436Y-53235936D01*
X61422193Y-53267913D01*
X60685179Y-54004928D01*
X60538750Y-54004928D01*
X60371592Y-54021392D01*
X60210858Y-54070150D01*
X60062725Y-54149329D01*
X59970000Y-54225426D01*
X59877275Y-54149329D01*
X59812102Y-54114493D01*
X59926521Y-53943252D01*
X60054670Y-53633872D01*
X60120000Y-53305435D01*
X60120000Y-52970565D01*
X60057675Y-52657236D01*
X60130802Y-52687526D01*
X60330761Y-52727300D01*
X60534639Y-52727300D01*
X60734598Y-52687526D01*
X60922956Y-52609505D01*
X61092474Y-52496237D01*
X61236637Y-52352074D01*
X61349905Y-52182556D01*
X61427926Y-51994198D01*
X61467700Y-51794239D01*
X61467700Y-51590361D01*
X61427926Y-51390402D01*
X61391323Y-51302036D01*
X61420671Y-51266275D01*
X61499850Y-51118142D01*
X61548608Y-50957408D01*
X61565072Y-50790250D01*
X61565072Y-50352750D01*
X61548608Y-50185592D01*
X61499850Y-50024858D01*
X61420671Y-49876725D01*
X61344574Y-49784000D01*
X61365501Y-49758500D01*
X61473570Y-49758500D01*
X62265421Y-50550351D01*
G37*
X62265421Y-50550351D02*
X62289278Y-50579422D01*
X62405308Y-50674645D01*
X62537685Y-50745402D01*
X62681322Y-50788974D01*
X62726782Y-50793451D01*
X62854525Y-50984632D01*
X63061368Y-51191475D01*
X63243534Y-51313195D01*
X63126645Y-51382822D01*
X62910412Y-51577731D01*
X62736359Y-51811080D01*
X62611175Y-52073901D01*
X62566524Y-52221110D01*
X62687845Y-52451000D01*
X63881000Y-52451000D01*
X63881000Y-52431000D01*
X64135000Y-52431000D01*
X64135000Y-52451000D01*
X64155000Y-52451000D01*
X64155000Y-52705000D01*
X64135000Y-52705000D01*
X64135000Y-52725000D01*
X63881000Y-52725000D01*
X63881000Y-52705000D01*
X62687845Y-52705000D01*
X62566524Y-52934890D01*
X62584241Y-52993300D01*
X62085163Y-52993300D01*
X62044000Y-52989246D01*
X62002837Y-52993300D01*
X62002830Y-52993300D01*
X61879684Y-53005429D01*
X61721683Y-53053358D01*
X61576068Y-53131191D01*
X61483048Y-53207531D01*
X61448436Y-53235936D01*
X61422193Y-53267913D01*
X60685179Y-54004928D01*
X60538750Y-54004928D01*
X60371592Y-54021392D01*
X60210858Y-54070150D01*
X60062725Y-54149329D01*
X59970000Y-54225426D01*
X59877275Y-54149329D01*
X59812102Y-54114493D01*
X59926521Y-53943252D01*
X60054670Y-53633872D01*
X60120000Y-53305435D01*
X60120000Y-52970565D01*
X60057675Y-52657236D01*
X60130802Y-52687526D01*
X60330761Y-52727300D01*
X60534639Y-52727300D01*
X60734598Y-52687526D01*
X60922956Y-52609505D01*
X61092474Y-52496237D01*
X61236637Y-52352074D01*
X61349905Y-52182556D01*
X61427926Y-51994198D01*
X61467700Y-51794239D01*
X61467700Y-51590361D01*
X61427926Y-51390402D01*
X61391323Y-51302036D01*
X61420671Y-51266275D01*
X61499850Y-51118142D01*
X61548608Y-50957408D01*
X61565072Y-50790250D01*
X61565072Y-50352750D01*
X61548608Y-50185592D01*
X61499850Y-50024858D01*
X61420671Y-49876725D01*
X61344574Y-49784000D01*
X61365501Y-49758500D01*
X61473570Y-49758500D01*
X62265421Y-50550351D01*
G36*
X58547000Y-49911000D02*
G01*
X58567000Y-49911000D01*
X58567000Y-50165000D01*
X58547000Y-50165000D01*
X58547000Y-50185000D01*
X58293000Y-50185000D01*
X58293000Y-50165000D01*
X58273000Y-50165000D01*
X58273000Y-49911000D01*
X58293000Y-49911000D01*
X58293000Y-49891000D01*
X58547000Y-49891000D01*
X58547000Y-49911000D01*
G37*
X58547000Y-49911000D02*
X58567000Y-49911000D01*
X58567000Y-50165000D01*
X58547000Y-50165000D01*
X58547000Y-50185000D01*
X58293000Y-50185000D01*
X58293000Y-50165000D01*
X58273000Y-50165000D01*
X58273000Y-49911000D01*
X58293000Y-49911000D01*
X58293000Y-49891000D01*
X58547000Y-49891000D01*
X58547000Y-49911000D01*
G36*
X53983928Y-41678000D02*
G01*
X53996188Y-41802482D01*
X54032498Y-41922180D01*
X54091463Y-42032494D01*
X54170815Y-42129185D01*
X54267506Y-42208537D01*
X54377820Y-42267502D01*
X54497518Y-42303812D01*
X54565555Y-42310513D01*
X54593858Y-42403816D01*
X54671691Y-42549431D01*
X54776436Y-42677064D01*
X54808418Y-42703311D01*
X56553194Y-44448088D01*
X56579436Y-44480064D01*
X56611412Y-44506306D01*
X56611414Y-44506308D01*
X56633998Y-44524842D01*
X56707068Y-44584809D01*
X56852683Y-44662642D01*
X56959931Y-44695175D01*
X54554418Y-47100689D01*
X54522436Y-47126936D01*
X54417691Y-47254569D01*
X54339858Y-47400184D01*
X54311555Y-47493487D01*
X54243518Y-47500188D01*
X54123820Y-47536498D01*
X54013506Y-47595463D01*
X53922139Y-47670446D01*
X53898155Y-47625000D01*
X52705000Y-47625000D01*
X52705000Y-47645000D01*
X52451000Y-47645000D01*
X52451000Y-47625000D01*
X50165000Y-47625000D01*
X50165000Y-47645000D01*
X49911000Y-47645000D01*
X49911000Y-47625000D01*
X49891000Y-47625000D01*
X49891000Y-47371000D01*
X49911000Y-47371000D01*
X49911000Y-45085000D01*
X50165000Y-45085000D01*
X50165000Y-47371000D01*
X52451000Y-47371000D01*
X52451000Y-45085000D01*
X52705000Y-45085000D01*
X52705000Y-47371000D01*
X53898155Y-47371000D01*
X54019476Y-47141110D01*
X53974825Y-46993901D01*
X53849641Y-46731080D01*
X53675588Y-46497731D01*
X53459355Y-46302822D01*
X53333745Y-46228000D01*
X53459355Y-46153178D01*
X53675588Y-45958269D01*
X53849641Y-45724920D01*
X53974825Y-45462099D01*
X54019476Y-45314890D01*
X53898155Y-45085000D01*
X52705000Y-45085000D01*
X52451000Y-45085000D01*
X50165000Y-45085000D01*
X49911000Y-45085000D01*
X49891000Y-45085000D01*
X49891000Y-44831000D01*
X49911000Y-44831000D01*
X49911000Y-42545000D01*
X50165000Y-42545000D01*
X50165000Y-44831000D01*
X52451000Y-44831000D01*
X52451000Y-42545000D01*
X52705000Y-42545000D01*
X52705000Y-44831000D01*
X53898155Y-44831000D01*
X54019476Y-44601110D01*
X53974825Y-44453901D01*
X53849641Y-44191080D01*
X53675588Y-43957731D01*
X53459355Y-43762822D01*
X53333745Y-43688000D01*
X53459355Y-43613178D01*
X53675588Y-43418269D01*
X53849641Y-43184920D01*
X53974825Y-42922099D01*
X54019476Y-42774890D01*
X53898155Y-42545000D01*
X52705000Y-42545000D01*
X52451000Y-42545000D01*
X50165000Y-42545000D01*
X49911000Y-42545000D01*
X49891000Y-42545000D01*
X49891000Y-42291000D01*
X49911000Y-42291000D01*
X49911000Y-42271000D01*
X50165000Y-42271000D01*
X50165000Y-42291000D01*
X52451000Y-42291000D01*
X52451000Y-42271000D01*
X52705000Y-42271000D01*
X52705000Y-42291000D01*
X53898155Y-42291000D01*
X54019476Y-42061110D01*
X53974825Y-41913901D01*
X53849641Y-41651080D01*
X53675588Y-41417731D01*
X53459355Y-41222822D01*
X53342466Y-41153195D01*
X53524632Y-41031475D01*
X53731475Y-40824632D01*
X53803927Y-40716200D01*
X53983928Y-40716200D01*
X53983928Y-41678000D01*
G37*
X53983928Y-41678000D02*
X53996188Y-41802482D01*
X54032498Y-41922180D01*
X54091463Y-42032494D01*
X54170815Y-42129185D01*
X54267506Y-42208537D01*
X54377820Y-42267502D01*
X54497518Y-42303812D01*
X54565555Y-42310513D01*
X54593858Y-42403816D01*
X54671691Y-42549431D01*
X54776436Y-42677064D01*
X54808418Y-42703311D01*
X56553194Y-44448088D01*
X56579436Y-44480064D01*
X56611412Y-44506306D01*
X56611414Y-44506308D01*
X56633998Y-44524842D01*
X56707068Y-44584809D01*
X56852683Y-44662642D01*
X56959931Y-44695175D01*
X54554418Y-47100689D01*
X54522436Y-47126936D01*
X54417691Y-47254569D01*
X54339858Y-47400184D01*
X54311555Y-47493487D01*
X54243518Y-47500188D01*
X54123820Y-47536498D01*
X54013506Y-47595463D01*
X53922139Y-47670446D01*
X53898155Y-47625000D01*
X52705000Y-47625000D01*
X52705000Y-47645000D01*
X52451000Y-47645000D01*
X52451000Y-47625000D01*
X50165000Y-47625000D01*
X50165000Y-47645000D01*
X49911000Y-47645000D01*
X49911000Y-47625000D01*
X49891000Y-47625000D01*
X49891000Y-47371000D01*
X49911000Y-47371000D01*
X49911000Y-45085000D01*
X50165000Y-45085000D01*
X50165000Y-47371000D01*
X52451000Y-47371000D01*
X52451000Y-45085000D01*
X52705000Y-45085000D01*
X52705000Y-47371000D01*
X53898155Y-47371000D01*
X54019476Y-47141110D01*
X53974825Y-46993901D01*
X53849641Y-46731080D01*
X53675588Y-46497731D01*
X53459355Y-46302822D01*
X53333745Y-46228000D01*
X53459355Y-46153178D01*
X53675588Y-45958269D01*
X53849641Y-45724920D01*
X53974825Y-45462099D01*
X54019476Y-45314890D01*
X53898155Y-45085000D01*
X52705000Y-45085000D01*
X52451000Y-45085000D01*
X50165000Y-45085000D01*
X49911000Y-45085000D01*
X49891000Y-45085000D01*
X49891000Y-44831000D01*
X49911000Y-44831000D01*
X49911000Y-42545000D01*
X50165000Y-42545000D01*
X50165000Y-44831000D01*
X52451000Y-44831000D01*
X52451000Y-42545000D01*
X52705000Y-42545000D01*
X52705000Y-44831000D01*
X53898155Y-44831000D01*
X54019476Y-44601110D01*
X53974825Y-44453901D01*
X53849641Y-44191080D01*
X53675588Y-43957731D01*
X53459355Y-43762822D01*
X53333745Y-43688000D01*
X53459355Y-43613178D01*
X53675588Y-43418269D01*
X53849641Y-43184920D01*
X53974825Y-42922099D01*
X54019476Y-42774890D01*
X53898155Y-42545000D01*
X52705000Y-42545000D01*
X52451000Y-42545000D01*
X50165000Y-42545000D01*
X49911000Y-42545000D01*
X49891000Y-42545000D01*
X49891000Y-42291000D01*
X49911000Y-42291000D01*
X49911000Y-42271000D01*
X50165000Y-42271000D01*
X50165000Y-42291000D01*
X52451000Y-42291000D01*
X52451000Y-42271000D01*
X52705000Y-42271000D01*
X52705000Y-42291000D01*
X53898155Y-42291000D01*
X54019476Y-42061110D01*
X53974825Y-41913901D01*
X53849641Y-41651080D01*
X53675588Y-41417731D01*
X53459355Y-41222822D01*
X53342466Y-41153195D01*
X53524632Y-41031475D01*
X53731475Y-40824632D01*
X53803927Y-40716200D01*
X53983928Y-40716200D01*
X53983928Y-41678000D01*
G36*
X62566524Y-44601110D02*
G01*
X62687845Y-44831000D01*
X63881000Y-44831000D01*
X63881000Y-44811000D01*
X64135000Y-44811000D01*
X64135000Y-44831000D01*
X64155000Y-44831000D01*
X64155000Y-45085000D01*
X64135000Y-45085000D01*
X64135000Y-45105000D01*
X63881000Y-45105000D01*
X63881000Y-45085000D01*
X62687845Y-45085000D01*
X62566524Y-45314890D01*
X62611175Y-45462099D01*
X62736359Y-45724920D01*
X62910412Y-45958269D01*
X63126645Y-46153178D01*
X63243534Y-46222805D01*
X63061368Y-46344525D01*
X62854525Y-46551368D01*
X62692010Y-46794589D01*
X62686554Y-46807761D01*
X60601493Y-44722700D01*
X61836037Y-44722700D01*
X61877200Y-44726754D01*
X61918363Y-44722700D01*
X61918370Y-44722700D01*
X62041516Y-44710571D01*
X62199517Y-44662642D01*
X62345132Y-44584809D01*
X62396442Y-44542700D01*
X62584241Y-44542700D01*
X62566524Y-44601110D01*
G37*
X62566524Y-44601110D02*
X62687845Y-44831000D01*
X63881000Y-44831000D01*
X63881000Y-44811000D01*
X64135000Y-44811000D01*
X64135000Y-44831000D01*
X64155000Y-44831000D01*
X64155000Y-45085000D01*
X64135000Y-45085000D01*
X64135000Y-45105000D01*
X63881000Y-45105000D01*
X63881000Y-45085000D01*
X62687845Y-45085000D01*
X62566524Y-45314890D01*
X62611175Y-45462099D01*
X62736359Y-45724920D01*
X62910412Y-45958269D01*
X63126645Y-46153178D01*
X63243534Y-46222805D01*
X63061368Y-46344525D01*
X62854525Y-46551368D01*
X62692010Y-46794589D01*
X62686554Y-46807761D01*
X60601493Y-44722700D01*
X61836037Y-44722700D01*
X61877200Y-44726754D01*
X61918363Y-44722700D01*
X61918370Y-44722700D01*
X62041516Y-44710571D01*
X62199517Y-44662642D01*
X62345132Y-44584809D01*
X62396442Y-44542700D01*
X62584241Y-44542700D01*
X62566524Y-44601110D01*
G36*
X62611175Y-41913901D02*
G01*
X62566524Y-42061110D01*
X62687845Y-42291000D01*
X63881000Y-42291000D01*
X63881000Y-42271000D01*
X64135000Y-42271000D01*
X64135000Y-42291000D01*
X64155000Y-42291000D01*
X64155000Y-42545000D01*
X64135000Y-42545000D01*
X64135000Y-42565000D01*
X63881000Y-42565000D01*
X63881000Y-42545000D01*
X62687845Y-42545000D01*
X62578351Y-42752480D01*
X62576326Y-42742302D01*
X62498305Y-42553944D01*
X62385037Y-42384426D01*
X62240874Y-42240263D01*
X62071356Y-42126995D01*
X61882998Y-42048974D01*
X61683039Y-42009200D01*
X61479161Y-42009200D01*
X61450840Y-42014833D01*
X61499850Y-41923142D01*
X61503837Y-41910000D01*
X62613033Y-41910000D01*
X62611175Y-41913901D01*
G37*
X62611175Y-41913901D02*
X62566524Y-42061110D01*
X62687845Y-42291000D01*
X63881000Y-42291000D01*
X63881000Y-42271000D01*
X64135000Y-42271000D01*
X64135000Y-42291000D01*
X64155000Y-42291000D01*
X64155000Y-42545000D01*
X64135000Y-42545000D01*
X64135000Y-42565000D01*
X63881000Y-42565000D01*
X63881000Y-42545000D01*
X62687845Y-42545000D01*
X62578351Y-42752480D01*
X62576326Y-42742302D01*
X62498305Y-42553944D01*
X62385037Y-42384426D01*
X62240874Y-42240263D01*
X62071356Y-42126995D01*
X61882998Y-42048974D01*
X61683039Y-42009200D01*
X61479161Y-42009200D01*
X61450840Y-42014833D01*
X61499850Y-41923142D01*
X61503837Y-41910000D01*
X62613033Y-41910000D01*
X62611175Y-41913901D01*
%TD*%
M02*
