%TF.GenerationSoftware,KiCad,Pcbnew,(5.1.6)-1*%
%TF.CreationDate,2021-03-13T16:13:42+00:00*%
%TF.ProjectId,expander,65787061-6e64-4657-922e-6b696361645f,rev?*%
%TF.SameCoordinates,Original*%
%TF.FileFunction,Legend,Top*%
%TF.FilePolarity,Positive*%
%FSLAX46Y46*%
G04 Gerber Fmt 4.6, Leading zero omitted, Abs format (unit mm)*
G04 Created by KiCad (PCBNEW (5.1.6)-1) date 2021-03-13 16:13:42*
%MOMM*%
%LPD*%
G01*
G04 APERTURE LIST*
%ADD10C,0.300000*%
%ADD11C,0.150000*%
%ADD12C,0.120000*%
%ADD13C,0.200000*%
%ADD14C,0.010000*%
G04 APERTURE END LIST*
D10*
X62611000Y-60579000D02*
X62611000Y-59055000D01*
X68326000Y-60579000D02*
X68326000Y-59055000D01*
X68326000Y-58988000D02*
X62611000Y-58988000D01*
X68326000Y-60579000D02*
X62611000Y-60579000D01*
D11*
X30940952Y-143597380D02*
X30940952Y-144311666D01*
X30893333Y-144454523D01*
X30798095Y-144549761D01*
X30655238Y-144597380D01*
X30560000Y-144597380D01*
X31893333Y-144597380D02*
X31417142Y-144597380D01*
X31417142Y-143597380D01*
X32798095Y-144502142D02*
X32750476Y-144549761D01*
X32607619Y-144597380D01*
X32512380Y-144597380D01*
X32369523Y-144549761D01*
X32274285Y-144454523D01*
X32226666Y-144359285D01*
X32179047Y-144168809D01*
X32179047Y-144025952D01*
X32226666Y-143835476D01*
X32274285Y-143740238D01*
X32369523Y-143645000D01*
X32512380Y-143597380D01*
X32607619Y-143597380D01*
X32750476Y-143645000D01*
X32798095Y-143692619D01*
X33512380Y-143597380D02*
X33512380Y-144311666D01*
X33464761Y-144454523D01*
X33369523Y-144549761D01*
X33226666Y-144597380D01*
X33131428Y-144597380D01*
X34464761Y-144597380D02*
X33988571Y-144597380D01*
X33988571Y-143597380D01*
X35369523Y-144502142D02*
X35321904Y-144549761D01*
X35179047Y-144597380D01*
X35083809Y-144597380D01*
X34940952Y-144549761D01*
X34845714Y-144454523D01*
X34798095Y-144359285D01*
X34750476Y-144168809D01*
X34750476Y-144025952D01*
X34798095Y-143835476D01*
X34845714Y-143740238D01*
X34940952Y-143645000D01*
X35083809Y-143597380D01*
X35179047Y-143597380D01*
X35321904Y-143645000D01*
X35369523Y-143692619D01*
X36083809Y-143597380D02*
X36083809Y-144311666D01*
X36036190Y-144454523D01*
X35940952Y-144549761D01*
X35798095Y-144597380D01*
X35702857Y-144597380D01*
X37036190Y-144597380D02*
X36560000Y-144597380D01*
X36560000Y-143597380D01*
X37940952Y-144502142D02*
X37893333Y-144549761D01*
X37750476Y-144597380D01*
X37655238Y-144597380D01*
X37512380Y-144549761D01*
X37417142Y-144454523D01*
X37369523Y-144359285D01*
X37321904Y-144168809D01*
X37321904Y-144025952D01*
X37369523Y-143835476D01*
X37417142Y-143740238D01*
X37512380Y-143645000D01*
X37655238Y-143597380D01*
X37750476Y-143597380D01*
X37893333Y-143645000D01*
X37940952Y-143692619D01*
X38655238Y-143597380D02*
X38655238Y-144311666D01*
X38607619Y-144454523D01*
X38512380Y-144549761D01*
X38369523Y-144597380D01*
X38274285Y-144597380D01*
X39607619Y-144597380D02*
X39131428Y-144597380D01*
X39131428Y-143597380D01*
X40512380Y-144502142D02*
X40464761Y-144549761D01*
X40321904Y-144597380D01*
X40226666Y-144597380D01*
X40083809Y-144549761D01*
X39988571Y-144454523D01*
X39940952Y-144359285D01*
X39893333Y-144168809D01*
X39893333Y-144025952D01*
X39940952Y-143835476D01*
X39988571Y-143740238D01*
X40083809Y-143645000D01*
X40226666Y-143597380D01*
X40321904Y-143597380D01*
X40464761Y-143645000D01*
X40512380Y-143692619D01*
X50197619Y-138660714D02*
X50197619Y-139660714D01*
X50197619Y-138708333D02*
X50292857Y-138660714D01*
X50483333Y-138660714D01*
X50578571Y-138708333D01*
X50626190Y-138755952D01*
X50673809Y-138851190D01*
X50673809Y-139136904D01*
X50626190Y-139232142D01*
X50578571Y-139279761D01*
X50483333Y-139327380D01*
X50292857Y-139327380D01*
X50197619Y-139279761D01*
X51245238Y-139327380D02*
X51150000Y-139279761D01*
X51102380Y-139184523D01*
X51102380Y-138327380D01*
X51626190Y-139327380D02*
X51626190Y-138660714D01*
X51626190Y-138327380D02*
X51578571Y-138375000D01*
X51626190Y-138422619D01*
X51673809Y-138375000D01*
X51626190Y-138327380D01*
X51626190Y-138422619D01*
X52102380Y-138660714D02*
X52102380Y-139327380D01*
X52102380Y-138755952D02*
X52150000Y-138708333D01*
X52245238Y-138660714D01*
X52388095Y-138660714D01*
X52483333Y-138708333D01*
X52530952Y-138803571D01*
X52530952Y-139327380D01*
X53007142Y-139327380D02*
X53007142Y-138327380D01*
X53102380Y-138946428D02*
X53388095Y-139327380D01*
X53388095Y-138660714D02*
X53007142Y-139041666D01*
X53721428Y-138660714D02*
X53959523Y-139327380D01*
X54197619Y-138660714D02*
X53959523Y-139327380D01*
X53864285Y-139565476D01*
X53816666Y-139613095D01*
X53721428Y-139660714D01*
X55721428Y-139279761D02*
X55626190Y-139327380D01*
X55435714Y-139327380D01*
X55340476Y-139279761D01*
X55292857Y-139184523D01*
X55292857Y-138803571D01*
X55340476Y-138708333D01*
X55435714Y-138660714D01*
X55626190Y-138660714D01*
X55721428Y-138708333D01*
X55769047Y-138803571D01*
X55769047Y-138898809D01*
X55292857Y-138994047D01*
X56102380Y-139327380D02*
X56626190Y-138660714D01*
X56102380Y-138660714D02*
X56626190Y-139327380D01*
X57007142Y-138660714D02*
X57007142Y-139660714D01*
X57007142Y-138708333D02*
X57102380Y-138660714D01*
X57292857Y-138660714D01*
X57388095Y-138708333D01*
X57435714Y-138755952D01*
X57483333Y-138851190D01*
X57483333Y-139136904D01*
X57435714Y-139232142D01*
X57388095Y-139279761D01*
X57292857Y-139327380D01*
X57102380Y-139327380D01*
X57007142Y-139279761D01*
X58340476Y-139327380D02*
X58340476Y-138803571D01*
X58292857Y-138708333D01*
X58197619Y-138660714D01*
X58007142Y-138660714D01*
X57911904Y-138708333D01*
X58340476Y-139279761D02*
X58245238Y-139327380D01*
X58007142Y-139327380D01*
X57911904Y-139279761D01*
X57864285Y-139184523D01*
X57864285Y-139089285D01*
X57911904Y-138994047D01*
X58007142Y-138946428D01*
X58245238Y-138946428D01*
X58340476Y-138898809D01*
X58816666Y-138660714D02*
X58816666Y-139327380D01*
X58816666Y-138755952D02*
X58864285Y-138708333D01*
X58959523Y-138660714D01*
X59102380Y-138660714D01*
X59197619Y-138708333D01*
X59245238Y-138803571D01*
X59245238Y-139327380D01*
X60150000Y-139327380D02*
X60150000Y-138327380D01*
X60150000Y-139279761D02*
X60054761Y-139327380D01*
X59864285Y-139327380D01*
X59769047Y-139279761D01*
X59721428Y-139232142D01*
X59673809Y-139136904D01*
X59673809Y-138851190D01*
X59721428Y-138755952D01*
X59769047Y-138708333D01*
X59864285Y-138660714D01*
X60054761Y-138660714D01*
X60150000Y-138708333D01*
X61007142Y-139279761D02*
X60911904Y-139327380D01*
X60721428Y-139327380D01*
X60626190Y-139279761D01*
X60578571Y-139184523D01*
X60578571Y-138803571D01*
X60626190Y-138708333D01*
X60721428Y-138660714D01*
X60911904Y-138660714D01*
X61007142Y-138708333D01*
X61054761Y-138803571D01*
X61054761Y-138898809D01*
X60578571Y-138994047D01*
X61483333Y-139327380D02*
X61483333Y-138660714D01*
X61483333Y-138851190D02*
X61530952Y-138755952D01*
X61578571Y-138708333D01*
X61673809Y-138660714D01*
X61769047Y-138660714D01*
X62769047Y-138660714D02*
X63007142Y-139327380D01*
X63245238Y-138660714D01*
X64149999Y-139327380D02*
X63578571Y-139327380D01*
X63864285Y-139327380D02*
X63864285Y-138327380D01*
X63769047Y-138470238D01*
X63673809Y-138565476D01*
X63578571Y-138613095D01*
X49483333Y-140977380D02*
X49483333Y-139977380D01*
X49483333Y-140358333D02*
X49578571Y-140310714D01*
X49769047Y-140310714D01*
X49864285Y-140358333D01*
X49911904Y-140405952D01*
X49959523Y-140501190D01*
X49959523Y-140786904D01*
X49911904Y-140882142D01*
X49864285Y-140929761D01*
X49769047Y-140977380D01*
X49578571Y-140977380D01*
X49483333Y-140929761D01*
X50292857Y-140310714D02*
X50530952Y-140977380D01*
X50769047Y-140310714D02*
X50530952Y-140977380D01*
X50435714Y-141215476D01*
X50388095Y-141263095D01*
X50292857Y-141310714D01*
X51911904Y-140977380D02*
X51911904Y-140310714D01*
X51911904Y-140405952D02*
X51959523Y-140358333D01*
X52054761Y-140310714D01*
X52197619Y-140310714D01*
X52292857Y-140358333D01*
X52340476Y-140453571D01*
X52340476Y-140977380D01*
X52340476Y-140453571D02*
X52388095Y-140358333D01*
X52483333Y-140310714D01*
X52626190Y-140310714D01*
X52721428Y-140358333D01*
X52769047Y-140453571D01*
X52769047Y-140977380D01*
X53245238Y-140977380D02*
X53245238Y-140310714D01*
X53245238Y-140405952D02*
X53292857Y-140358333D01*
X53388095Y-140310714D01*
X53530952Y-140310714D01*
X53626190Y-140358333D01*
X53673809Y-140453571D01*
X53673809Y-140977380D01*
X53673809Y-140453571D02*
X53721428Y-140358333D01*
X53816666Y-140310714D01*
X53959523Y-140310714D01*
X54054761Y-140358333D01*
X54102380Y-140453571D01*
X54102380Y-140977380D01*
X55007142Y-140977380D02*
X55007142Y-140453571D01*
X54959523Y-140358333D01*
X54864285Y-140310714D01*
X54673809Y-140310714D01*
X54578571Y-140358333D01*
X55007142Y-140929761D02*
X54911904Y-140977380D01*
X54673809Y-140977380D01*
X54578571Y-140929761D01*
X54530952Y-140834523D01*
X54530952Y-140739285D01*
X54578571Y-140644047D01*
X54673809Y-140596428D01*
X54911904Y-140596428D01*
X55007142Y-140548809D01*
X55626190Y-140977380D02*
X55530952Y-140929761D01*
X55483333Y-140834523D01*
X55483333Y-139977380D01*
X56388095Y-140929761D02*
X56292857Y-140977380D01*
X56102380Y-140977380D01*
X56007142Y-140929761D01*
X55959523Y-140834523D01*
X55959523Y-140453571D01*
X56007142Y-140358333D01*
X56102380Y-140310714D01*
X56292857Y-140310714D01*
X56388095Y-140358333D01*
X56435714Y-140453571D01*
X56435714Y-140548809D01*
X55959523Y-140644047D01*
X56769047Y-140977380D02*
X57292857Y-140310714D01*
X56769047Y-140310714D02*
X57292857Y-140977380D01*
X58435714Y-140310714D02*
X58435714Y-141167857D01*
X58388095Y-141263095D01*
X58292857Y-141310714D01*
X58245238Y-141310714D01*
X58435714Y-139977380D02*
X58388095Y-140025000D01*
X58435714Y-140072619D01*
X58483333Y-140025000D01*
X58435714Y-139977380D01*
X58435714Y-140072619D01*
X59340476Y-140977380D02*
X59340476Y-140453571D01*
X59292857Y-140358333D01*
X59197619Y-140310714D01*
X59007142Y-140310714D01*
X58911904Y-140358333D01*
X59340476Y-140929761D02*
X59245238Y-140977380D01*
X59007142Y-140977380D01*
X58911904Y-140929761D01*
X58864285Y-140834523D01*
X58864285Y-140739285D01*
X58911904Y-140644047D01*
X59007142Y-140596428D01*
X59245238Y-140596428D01*
X59340476Y-140548809D01*
X59816666Y-140310714D02*
X59816666Y-140977380D01*
X59816666Y-140405952D02*
X59864285Y-140358333D01*
X59959523Y-140310714D01*
X60102380Y-140310714D01*
X60197619Y-140358333D01*
X60245238Y-140453571D01*
X60245238Y-140977380D01*
X61435714Y-140072619D02*
X61483333Y-140025000D01*
X61578571Y-139977380D01*
X61816666Y-139977380D01*
X61911904Y-140025000D01*
X61959523Y-140072619D01*
X62007142Y-140167857D01*
X62007142Y-140263095D01*
X61959523Y-140405952D01*
X61388095Y-140977380D01*
X62007142Y-140977380D01*
X62626190Y-139977380D02*
X62721428Y-139977380D01*
X62816666Y-140025000D01*
X62864285Y-140072619D01*
X62911904Y-140167857D01*
X62959523Y-140358333D01*
X62959523Y-140596428D01*
X62911904Y-140786904D01*
X62864285Y-140882142D01*
X62816666Y-140929761D01*
X62721428Y-140977380D01*
X62626190Y-140977380D01*
X62530952Y-140929761D01*
X62483333Y-140882142D01*
X62435714Y-140786904D01*
X62388095Y-140596428D01*
X62388095Y-140358333D01*
X62435714Y-140167857D01*
X62483333Y-140072619D01*
X62530952Y-140025000D01*
X62626190Y-139977380D01*
X63340476Y-140072619D02*
X63388095Y-140025000D01*
X63483333Y-139977380D01*
X63721428Y-139977380D01*
X63816666Y-140025000D01*
X63864285Y-140072619D01*
X63911904Y-140167857D01*
X63911904Y-140263095D01*
X63864285Y-140405952D01*
X63292857Y-140977380D01*
X63911904Y-140977380D01*
X64864285Y-140977380D02*
X64292857Y-140977380D01*
X64578571Y-140977380D02*
X64578571Y-139977380D01*
X64483333Y-140120238D01*
X64388095Y-140215476D01*
X64292857Y-140263095D01*
X49294142Y-38444714D02*
X49294142Y-37682714D01*
X49584428Y-37682714D01*
X49657000Y-37719000D01*
X49693285Y-37755285D01*
X49729571Y-37827857D01*
X49729571Y-37936714D01*
X49693285Y-38009285D01*
X49657000Y-38045571D01*
X49584428Y-38081857D01*
X49294142Y-38081857D01*
X50201285Y-37682714D02*
X50346428Y-37682714D01*
X50419000Y-37719000D01*
X50491571Y-37791571D01*
X50527857Y-37936714D01*
X50527857Y-38190714D01*
X50491571Y-38335857D01*
X50419000Y-38408428D01*
X50346428Y-38444714D01*
X50201285Y-38444714D01*
X50128714Y-38408428D01*
X50056142Y-38335857D01*
X50019857Y-38190714D01*
X50019857Y-37936714D01*
X50056142Y-37791571D01*
X50128714Y-37719000D01*
X50201285Y-37682714D01*
X50781857Y-37682714D02*
X50963285Y-38444714D01*
X51108428Y-37900428D01*
X51253571Y-38444714D01*
X51435000Y-37682714D01*
X51725285Y-38045571D02*
X51979285Y-38045571D01*
X52088142Y-38444714D02*
X51725285Y-38444714D01*
X51725285Y-37682714D01*
X52088142Y-37682714D01*
X52850142Y-38444714D02*
X52596142Y-38081857D01*
X52414714Y-38444714D02*
X52414714Y-37682714D01*
X52705000Y-37682714D01*
X52777571Y-37719000D01*
X52813857Y-37755285D01*
X52850142Y-37827857D01*
X52850142Y-37936714D01*
X52813857Y-38009285D01*
X52777571Y-38045571D01*
X52705000Y-38081857D01*
X52414714Y-38081857D01*
X60031690Y-38317714D02*
X59729309Y-38317714D01*
X59729309Y-37555714D01*
X60243357Y-38317714D02*
X60243357Y-37555714D01*
X60545738Y-38317714D02*
X60545738Y-37555714D01*
X60908595Y-38317714D01*
X60908595Y-37555714D01*
X61210976Y-38317714D02*
X61210976Y-37555714D01*
X61573833Y-38317714D02*
X61301690Y-37882285D01*
X61573833Y-37555714D02*
X61210976Y-37991142D01*
X61966928Y-37954857D02*
X61966928Y-38317714D01*
X61755261Y-37555714D02*
X61966928Y-37954857D01*
X62178595Y-37555714D01*
X62783357Y-37555714D02*
X63146214Y-37555714D01*
X62964785Y-38317714D02*
X62964785Y-37555714D01*
X63478833Y-37555714D02*
X63599785Y-37555714D01*
X63660261Y-37592000D01*
X63720738Y-37664571D01*
X63750976Y-37809714D01*
X63750976Y-38063714D01*
X63720738Y-38208857D01*
X63660261Y-38281428D01*
X63599785Y-38317714D01*
X63478833Y-38317714D01*
X63418357Y-38281428D01*
X63357880Y-38208857D01*
X63327642Y-38063714D01*
X63327642Y-37809714D01*
X63357880Y-37664571D01*
X63418357Y-37592000D01*
X63478833Y-37555714D01*
X64506928Y-38317714D02*
X64506928Y-37555714D01*
X64748833Y-37555714D01*
X64809309Y-37592000D01*
X64839547Y-37628285D01*
X64869785Y-37700857D01*
X64869785Y-37809714D01*
X64839547Y-37882285D01*
X64809309Y-37918571D01*
X64748833Y-37954857D01*
X64506928Y-37954857D01*
X65444309Y-38317714D02*
X65141928Y-38317714D01*
X65141928Y-37555714D01*
X65655976Y-38317714D02*
X65655976Y-37555714D01*
X65958357Y-38317714D02*
X65958357Y-37555714D01*
X66321214Y-38317714D01*
X66321214Y-37555714D01*
X66623595Y-38317714D02*
X66623595Y-37555714D01*
X66986452Y-38317714D02*
X66714309Y-37882285D01*
X66986452Y-37555714D02*
X66623595Y-37991142D01*
X67379547Y-37954857D02*
X67379547Y-38317714D01*
X67167880Y-37555714D02*
X67379547Y-37954857D01*
X67591214Y-37555714D01*
X67802880Y-37809714D02*
X68286690Y-38027428D01*
X67802880Y-38245142D01*
D12*
X60642500Y-39878000D02*
G75*
G03*
X60642500Y-39878000I-63500J0D01*
G01*
X60960000Y-41148000D02*
X58674000Y-39878000D01*
X60960000Y-38608000D02*
X60960000Y-41148000D01*
X58674000Y-39878000D02*
X60960000Y-38608000D01*
X59182000Y-39878000D02*
X60198000Y-39878000D01*
D13*
X61269619Y-38815523D02*
X62269619Y-38815523D01*
X62269619Y-39053619D01*
X62222000Y-39196476D01*
X62126761Y-39291714D01*
X62031523Y-39339333D01*
X61841047Y-39386952D01*
X61698190Y-39386952D01*
X61507714Y-39339333D01*
X61412476Y-39291714D01*
X61317238Y-39196476D01*
X61269619Y-39053619D01*
X61269619Y-38815523D01*
X62269619Y-40006000D02*
X62269619Y-40196476D01*
X62222000Y-40291714D01*
X62126761Y-40386952D01*
X61936285Y-40434571D01*
X61602952Y-40434571D01*
X61412476Y-40386952D01*
X61317238Y-40291714D01*
X61269619Y-40196476D01*
X61269619Y-40006000D01*
X61317238Y-39910761D01*
X61412476Y-39815523D01*
X61602952Y-39767904D01*
X61936285Y-39767904D01*
X62126761Y-39815523D01*
X62222000Y-39910761D01*
X62269619Y-40006000D01*
X61269619Y-40863142D02*
X62269619Y-40863142D01*
X61269619Y-41434571D01*
X62269619Y-41434571D01*
X62269619Y-41767904D02*
X62269619Y-42339333D01*
X61269619Y-42053619D02*
X62269619Y-42053619D01*
X61269619Y-43434571D02*
X62269619Y-43434571D01*
X62269619Y-43815523D01*
X62222000Y-43910761D01*
X62174380Y-43958380D01*
X62079142Y-44006000D01*
X61936285Y-44006000D01*
X61841047Y-43958380D01*
X61793428Y-43910761D01*
X61745809Y-43815523D01*
X61745809Y-43434571D01*
X62269619Y-44434571D02*
X61460095Y-44434571D01*
X61364857Y-44482190D01*
X61317238Y-44529809D01*
X61269619Y-44625047D01*
X61269619Y-44815523D01*
X61317238Y-44910761D01*
X61364857Y-44958380D01*
X61460095Y-45006000D01*
X62269619Y-45006000D01*
X62269619Y-45339333D02*
X62269619Y-45910761D01*
X61269619Y-45625047D02*
X62269619Y-45625047D01*
X61269619Y-47006000D02*
X62269619Y-47006000D01*
X62269619Y-47386952D01*
X62222000Y-47482190D01*
X62174380Y-47529809D01*
X62079142Y-47577428D01*
X61936285Y-47577428D01*
X61841047Y-47529809D01*
X61793428Y-47482190D01*
X61745809Y-47386952D01*
X61745809Y-47006000D01*
X62269619Y-48196476D02*
X62269619Y-48386952D01*
X62222000Y-48482190D01*
X62126761Y-48577428D01*
X61936285Y-48625047D01*
X61602952Y-48625047D01*
X61412476Y-48577428D01*
X61317238Y-48482190D01*
X61269619Y-48386952D01*
X61269619Y-48196476D01*
X61317238Y-48101238D01*
X61412476Y-48006000D01*
X61602952Y-47958380D01*
X61936285Y-47958380D01*
X62126761Y-48006000D01*
X62222000Y-48101238D01*
X62269619Y-48196476D01*
X62269619Y-48958380D02*
X61269619Y-49196476D01*
X61983904Y-49386952D01*
X61269619Y-49577428D01*
X62269619Y-49815523D01*
X61793428Y-50196476D02*
X61793428Y-50529809D01*
X61269619Y-50672666D02*
X61269619Y-50196476D01*
X62269619Y-50196476D01*
X62269619Y-50672666D01*
X61269619Y-51672666D02*
X61745809Y-51339333D01*
X61269619Y-51101238D02*
X62269619Y-51101238D01*
X62269619Y-51482190D01*
X62222000Y-51577428D01*
X62174380Y-51625047D01*
X62079142Y-51672666D01*
X61936285Y-51672666D01*
X61841047Y-51625047D01*
X61793428Y-51577428D01*
X61745809Y-51482190D01*
X61745809Y-51101238D01*
X61269619Y-52863142D02*
X62269619Y-52863142D01*
X61793428Y-52863142D02*
X61793428Y-53434571D01*
X61269619Y-53434571D02*
X62269619Y-53434571D01*
X61793428Y-53910761D02*
X61793428Y-54244095D01*
X61269619Y-54386952D02*
X61269619Y-53910761D01*
X62269619Y-53910761D01*
X62269619Y-54386952D01*
X61269619Y-55386952D02*
X61745809Y-55053619D01*
X61269619Y-54815523D02*
X62269619Y-54815523D01*
X62269619Y-55196476D01*
X62222000Y-55291714D01*
X62174380Y-55339333D01*
X62079142Y-55386952D01*
X61936285Y-55386952D01*
X61841047Y-55339333D01*
X61793428Y-55291714D01*
X61745809Y-55196476D01*
X61745809Y-54815523D01*
X61793428Y-55815523D02*
X61793428Y-56148857D01*
X61269619Y-56291714D02*
X61269619Y-55815523D01*
X62269619Y-55815523D01*
X62269619Y-56291714D01*
X61364857Y-56720285D02*
X61317238Y-56767904D01*
X61269619Y-56720285D01*
X61317238Y-56672666D01*
X61364857Y-56720285D01*
X61269619Y-56720285D01*
X61650571Y-56720285D02*
X62222000Y-56672666D01*
X62269619Y-56720285D01*
X62222000Y-56767904D01*
X61650571Y-56720285D01*
X62269619Y-56720285D01*
X61364857Y-57196476D02*
X61317238Y-57244095D01*
X61269619Y-57196476D01*
X61317238Y-57148857D01*
X61364857Y-57196476D01*
X61269619Y-57196476D01*
X61650571Y-57196476D02*
X62222000Y-57148857D01*
X62269619Y-57196476D01*
X62222000Y-57244095D01*
X61650571Y-57196476D01*
X62269619Y-57196476D01*
D12*
X60769500Y-59563000D02*
G75*
G03*
X60769500Y-59563000I-63500J0D01*
G01*
X60706000Y-58166000D02*
X60706000Y-59182000D01*
X59436000Y-59944000D02*
X60706000Y-57658000D01*
X61976000Y-59944000D02*
X59436000Y-59944000D01*
X60706000Y-57658000D02*
X61976000Y-59944000D01*
D13*
X48823619Y-52189142D02*
X49299809Y-51855809D01*
X48823619Y-51617714D02*
X49823619Y-51617714D01*
X49823619Y-51998666D01*
X49776000Y-52093904D01*
X49728380Y-52141523D01*
X49633142Y-52189142D01*
X49490285Y-52189142D01*
X49395047Y-52141523D01*
X49347428Y-52093904D01*
X49299809Y-51998666D01*
X49299809Y-51617714D01*
X49347428Y-52617714D02*
X49347428Y-52951047D01*
X48823619Y-53093904D02*
X48823619Y-52617714D01*
X49823619Y-52617714D01*
X49823619Y-53093904D01*
X48823619Y-53522476D02*
X49823619Y-53522476D01*
X49823619Y-53760571D01*
X49776000Y-53903428D01*
X49680761Y-53998666D01*
X49585523Y-54046285D01*
X49395047Y-54093904D01*
X49252190Y-54093904D01*
X49061714Y-54046285D01*
X48966476Y-53998666D01*
X48871238Y-53903428D01*
X48823619Y-53760571D01*
X48823619Y-53522476D01*
X64889142Y-60269380D02*
X64555809Y-59793190D01*
X64317714Y-60269380D02*
X64317714Y-59269380D01*
X64698666Y-59269380D01*
X64793904Y-59317000D01*
X64841523Y-59364619D01*
X64889142Y-59459857D01*
X64889142Y-59602714D01*
X64841523Y-59697952D01*
X64793904Y-59745571D01*
X64698666Y-59793190D01*
X64317714Y-59793190D01*
X65317714Y-59745571D02*
X65651047Y-59745571D01*
X65793904Y-60269380D02*
X65317714Y-60269380D01*
X65317714Y-59269380D01*
X65793904Y-59269380D01*
X66222476Y-60269380D02*
X66222476Y-59269380D01*
X66460571Y-59269380D01*
X66603428Y-59317000D01*
X66698666Y-59412238D01*
X66746285Y-59507476D01*
X66793904Y-59697952D01*
X66793904Y-59840809D01*
X66746285Y-60031285D01*
X66698666Y-60126523D01*
X66603428Y-60221761D01*
X66460571Y-60269380D01*
X66222476Y-60269380D01*
D10*
X49971000Y-51368000D02*
X53908000Y-51368000D01*
D14*
%TO.C,G\u002A\u002A\u002A*%
G36*
X33047266Y-31428763D02*
G01*
X33087249Y-31453490D01*
X33100896Y-31502377D01*
X33091906Y-31581708D01*
X33086474Y-31607391D01*
X33042567Y-31741473D01*
X32977269Y-31858907D01*
X32896675Y-31950459D01*
X32829500Y-31996763D01*
X32754020Y-32031319D01*
X32700788Y-32043332D01*
X32656892Y-32033841D01*
X32622543Y-32013383D01*
X32595107Y-31979748D01*
X32577883Y-31933049D01*
X32573449Y-31888028D01*
X32584384Y-31859423D01*
X32594984Y-31855834D01*
X32613244Y-31837716D01*
X32627851Y-31797625D01*
X32646495Y-31755378D01*
X32685131Y-31691316D01*
X32736916Y-31616366D01*
X32763712Y-31580667D01*
X32821669Y-31506736D01*
X32862716Y-31460260D01*
X32895409Y-31434874D01*
X32928305Y-31424219D01*
X32969964Y-31421931D01*
X32977246Y-31421917D01*
X33047266Y-31428763D01*
G37*
X33047266Y-31428763D02*
X33087249Y-31453490D01*
X33100896Y-31502377D01*
X33091906Y-31581708D01*
X33086474Y-31607391D01*
X33042567Y-31741473D01*
X32977269Y-31858907D01*
X32896675Y-31950459D01*
X32829500Y-31996763D01*
X32754020Y-32031319D01*
X32700788Y-32043332D01*
X32656892Y-32033841D01*
X32622543Y-32013383D01*
X32595107Y-31979748D01*
X32577883Y-31933049D01*
X32573449Y-31888028D01*
X32584384Y-31859423D01*
X32594984Y-31855834D01*
X32613244Y-31837716D01*
X32627851Y-31797625D01*
X32646495Y-31755378D01*
X32685131Y-31691316D01*
X32736916Y-31616366D01*
X32763712Y-31580667D01*
X32821669Y-31506736D01*
X32862716Y-31460260D01*
X32895409Y-31434874D01*
X32928305Y-31424219D01*
X32969964Y-31421931D01*
X32977246Y-31421917D01*
X33047266Y-31428763D01*
G36*
X31879709Y-31648824D02*
G01*
X31951598Y-31674359D01*
X32020865Y-31709017D01*
X32074517Y-31746333D01*
X32099305Y-31778767D01*
X32112465Y-31824352D01*
X32133090Y-31891814D01*
X32147228Y-31936716D01*
X32183124Y-32049349D01*
X32130604Y-32089539D01*
X32038231Y-32142378D01*
X31951213Y-32157114D01*
X31918097Y-32151715D01*
X31857224Y-32130360D01*
X31819159Y-32112862D01*
X31783964Y-32078132D01*
X31744483Y-32016024D01*
X31707243Y-31940090D01*
X31678768Y-31863881D01*
X31665588Y-31800948D01*
X31665333Y-31793465D01*
X31683609Y-31732418D01*
X31729159Y-31677835D01*
X31788063Y-31643794D01*
X31818189Y-31638875D01*
X31879709Y-31648824D01*
G37*
X31879709Y-31648824D02*
X31951598Y-31674359D01*
X32020865Y-31709017D01*
X32074517Y-31746333D01*
X32099305Y-31778767D01*
X32112465Y-31824352D01*
X32133090Y-31891814D01*
X32147228Y-31936716D01*
X32183124Y-32049349D01*
X32130604Y-32089539D01*
X32038231Y-32142378D01*
X31951213Y-32157114D01*
X31918097Y-32151715D01*
X31857224Y-32130360D01*
X31819159Y-32112862D01*
X31783964Y-32078132D01*
X31744483Y-32016024D01*
X31707243Y-31940090D01*
X31678768Y-31863881D01*
X31665588Y-31800948D01*
X31665333Y-31793465D01*
X31683609Y-31732418D01*
X31729159Y-31677835D01*
X31788063Y-31643794D01*
X31818189Y-31638875D01*
X31879709Y-31648824D01*
G36*
X34159360Y-32051768D02*
G01*
X34220224Y-32069514D01*
X34246451Y-32101738D01*
X34238029Y-32150604D01*
X34194951Y-32218278D01*
X34117207Y-32306925D01*
X34062458Y-32362641D01*
X33967134Y-32453506D01*
X33892244Y-32515964D01*
X33831747Y-32554646D01*
X33790127Y-32571448D01*
X33682869Y-32593877D01*
X33607770Y-32589863D01*
X33574566Y-32571267D01*
X33557667Y-32534360D01*
X33549347Y-32476943D01*
X33549166Y-32467413D01*
X33551626Y-32431859D01*
X33562545Y-32399740D01*
X33587236Y-32364104D01*
X33631008Y-32318000D01*
X33699175Y-32254479D01*
X33740018Y-32217646D01*
X33930870Y-32046334D01*
X34063868Y-32046334D01*
X34159360Y-32051768D01*
G37*
X34159360Y-32051768D02*
X34220224Y-32069514D01*
X34246451Y-32101738D01*
X34238029Y-32150604D01*
X34194951Y-32218278D01*
X34117207Y-32306925D01*
X34062458Y-32362641D01*
X33967134Y-32453506D01*
X33892244Y-32515964D01*
X33831747Y-32554646D01*
X33790127Y-32571448D01*
X33682869Y-32593877D01*
X33607770Y-32589863D01*
X33574566Y-32571267D01*
X33557667Y-32534360D01*
X33549347Y-32476943D01*
X33549166Y-32467413D01*
X33551626Y-32431859D01*
X33562545Y-32399740D01*
X33587236Y-32364104D01*
X33631008Y-32318000D01*
X33699175Y-32254479D01*
X33740018Y-32217646D01*
X33930870Y-32046334D01*
X34063868Y-32046334D01*
X34159360Y-32051768D01*
G36*
X31297605Y-32358482D02*
G01*
X31351874Y-32413888D01*
X31409516Y-32491192D01*
X31451274Y-32560985D01*
X31522965Y-32697659D01*
X31483024Y-32779455D01*
X31459147Y-32824368D01*
X31434639Y-32849428D01*
X31396614Y-32861270D01*
X31332181Y-32866530D01*
X31311967Y-32867521D01*
X31180851Y-32873792D01*
X31010342Y-32699812D01*
X30933870Y-32619859D01*
X30883604Y-32561478D01*
X30854568Y-32517611D01*
X30841785Y-32481199D01*
X30839833Y-32458008D01*
X30846402Y-32406106D01*
X30870740Y-32369570D01*
X30919789Y-32343884D01*
X31000493Y-32324529D01*
X31059363Y-32315165D01*
X31215627Y-32292653D01*
X31297605Y-32358482D01*
G37*
X31297605Y-32358482D02*
X31351874Y-32413888D01*
X31409516Y-32491192D01*
X31451274Y-32560985D01*
X31522965Y-32697659D01*
X31483024Y-32779455D01*
X31459147Y-32824368D01*
X31434639Y-32849428D01*
X31396614Y-32861270D01*
X31332181Y-32866530D01*
X31311967Y-32867521D01*
X31180851Y-32873792D01*
X31010342Y-32699812D01*
X30933870Y-32619859D01*
X30883604Y-32561478D01*
X30854568Y-32517611D01*
X30841785Y-32481199D01*
X30839833Y-32458008D01*
X30846402Y-32406106D01*
X30870740Y-32369570D01*
X30919789Y-32343884D01*
X31000493Y-32324529D01*
X31059363Y-32315165D01*
X31215627Y-32292653D01*
X31297605Y-32358482D01*
G36*
X33892459Y-33385562D02*
G01*
X33973302Y-33399271D01*
X34062822Y-33418286D01*
X34147642Y-33439571D01*
X34214384Y-33460092D01*
X34245279Y-33473608D01*
X34264572Y-33507366D01*
X34267626Y-33563357D01*
X34255734Y-33625282D01*
X34230188Y-33676842D01*
X34229046Y-33678278D01*
X34200822Y-33705405D01*
X34163057Y-33721172D01*
X34103559Y-33729105D01*
X34043838Y-33731842D01*
X33953083Y-33730325D01*
X33864691Y-33721899D01*
X33808526Y-33710992D01*
X33740957Y-33684567D01*
X33684390Y-33650204D01*
X33673833Y-33640908D01*
X33646118Y-33607437D01*
X33640079Y-33573589D01*
X33652938Y-33520769D01*
X33654934Y-33514428D01*
X33688863Y-33438014D01*
X33736506Y-33396042D01*
X33808191Y-33380753D01*
X33833670Y-33380196D01*
X33892459Y-33385562D01*
G37*
X33892459Y-33385562D02*
X33973302Y-33399271D01*
X34062822Y-33418286D01*
X34147642Y-33439571D01*
X34214384Y-33460092D01*
X34245279Y-33473608D01*
X34264572Y-33507366D01*
X34267626Y-33563357D01*
X34255734Y-33625282D01*
X34230188Y-33676842D01*
X34229046Y-33678278D01*
X34200822Y-33705405D01*
X34163057Y-33721172D01*
X34103559Y-33729105D01*
X34043838Y-33731842D01*
X33953083Y-33730325D01*
X33864691Y-33721899D01*
X33808526Y-33710992D01*
X33740957Y-33684567D01*
X33684390Y-33650204D01*
X33673833Y-33640908D01*
X33646118Y-33607437D01*
X33640079Y-33573589D01*
X33652938Y-33520769D01*
X33654934Y-33514428D01*
X33688863Y-33438014D01*
X33736506Y-33396042D01*
X33808191Y-33380753D01*
X33833670Y-33380196D01*
X33892459Y-33385562D01*
G36*
X31276126Y-33509011D02*
G01*
X31284333Y-33512967D01*
X31332435Y-33552403D01*
X31340191Y-33602370D01*
X31307549Y-33663583D01*
X31270100Y-33704507D01*
X31222823Y-33748158D01*
X31187897Y-33776264D01*
X31176963Y-33782000D01*
X31154250Y-33792863D01*
X31105608Y-33821750D01*
X31040268Y-33863109D01*
X31018589Y-33877250D01*
X30940828Y-33926094D01*
X30882625Y-33954789D01*
X30829616Y-33968512D01*
X30767435Y-33972435D01*
X30754148Y-33972500D01*
X30673145Y-33967847D01*
X30622363Y-33952002D01*
X30599697Y-33933792D01*
X30570696Y-33889401D01*
X30572236Y-33846491D01*
X30606563Y-33796182D01*
X30644041Y-33758554D01*
X30790056Y-33636288D01*
X30928537Y-33549332D01*
X31057218Y-33498555D01*
X31173836Y-33484825D01*
X31276126Y-33509011D01*
G37*
X31276126Y-33509011D02*
X31284333Y-33512967D01*
X31332435Y-33552403D01*
X31340191Y-33602370D01*
X31307549Y-33663583D01*
X31270100Y-33704507D01*
X31222823Y-33748158D01*
X31187897Y-33776264D01*
X31176963Y-33782000D01*
X31154250Y-33792863D01*
X31105608Y-33821750D01*
X31040268Y-33863109D01*
X31018589Y-33877250D01*
X30940828Y-33926094D01*
X30882625Y-33954789D01*
X30829616Y-33968512D01*
X30767435Y-33972435D01*
X30754148Y-33972500D01*
X30673145Y-33967847D01*
X30622363Y-33952002D01*
X30599697Y-33933792D01*
X30570696Y-33889401D01*
X30572236Y-33846491D01*
X30606563Y-33796182D01*
X30644041Y-33758554D01*
X30790056Y-33636288D01*
X30928537Y-33549332D01*
X31057218Y-33498555D01*
X31173836Y-33484825D01*
X31276126Y-33509011D01*
G36*
X32648636Y-32767699D02*
G01*
X32770097Y-32808451D01*
X32893312Y-32883474D01*
X33014032Y-32984181D01*
X33092233Y-33064109D01*
X33145240Y-33141357D01*
X33177497Y-33227304D01*
X33193450Y-33333326D01*
X33197537Y-33453917D01*
X33196965Y-33553185D01*
X33192491Y-33624331D01*
X33181101Y-33681555D01*
X33159778Y-33739058D01*
X33125507Y-33811041D01*
X33118879Y-33824334D01*
X33079112Y-33900715D01*
X33044049Y-33954660D01*
X33003196Y-33997239D01*
X32946057Y-34039525D01*
X32868096Y-34088917D01*
X32710985Y-34174670D01*
X32569292Y-34226184D01*
X32435411Y-34244740D01*
X32301733Y-34231623D01*
X32197722Y-34202016D01*
X32115365Y-34166388D01*
X32031939Y-34119777D01*
X31960963Y-34070592D01*
X31915955Y-34027239D01*
X31915333Y-34026378D01*
X31903499Y-33996432D01*
X31886699Y-33937928D01*
X31869233Y-33866375D01*
X31855203Y-33794998D01*
X31848727Y-33729964D01*
X31849671Y-33657750D01*
X31857900Y-33564830D01*
X31865563Y-33499341D01*
X31867779Y-33486882D01*
X32263077Y-33486882D01*
X32269961Y-33540722D01*
X32292302Y-33604517D01*
X32319306Y-33664240D01*
X32351626Y-33735866D01*
X32375076Y-33793980D01*
X32384939Y-33826820D01*
X32385000Y-33828015D01*
X32402670Y-33871065D01*
X32444457Y-33909942D01*
X32493519Y-33929759D01*
X32500545Y-33930167D01*
X32542567Y-33915566D01*
X32593982Y-33878901D01*
X32612396Y-33861375D01*
X32667785Y-33790383D01*
X32719448Y-33701006D01*
X32760475Y-33607774D01*
X32783953Y-33525220D01*
X32786959Y-33494339D01*
X32777604Y-33441017D01*
X32753063Y-33368065D01*
X32724201Y-33302923D01*
X32662258Y-33200768D01*
X32595784Y-33129825D01*
X32529121Y-33093801D01*
X32477952Y-33092769D01*
X32431868Y-33121624D01*
X32380986Y-33180003D01*
X32332283Y-33256771D01*
X32292739Y-33340789D01*
X32269331Y-33420921D01*
X32268283Y-33427373D01*
X32263077Y-33486882D01*
X31867779Y-33486882D01*
X31898908Y-33311868D01*
X31950658Y-33156642D01*
X32024035Y-33026389D01*
X32122266Y-32913837D01*
X32127220Y-32909167D01*
X32193078Y-32853113D01*
X32255195Y-32816840D01*
X32332028Y-32790863D01*
X32380326Y-32779090D01*
X32521266Y-32758739D01*
X32648636Y-32767699D01*
G37*
X32648636Y-32767699D02*
X32770097Y-32808451D01*
X32893312Y-32883474D01*
X33014032Y-32984181D01*
X33092233Y-33064109D01*
X33145240Y-33141357D01*
X33177497Y-33227304D01*
X33193450Y-33333326D01*
X33197537Y-33453917D01*
X33196965Y-33553185D01*
X33192491Y-33624331D01*
X33181101Y-33681555D01*
X33159778Y-33739058D01*
X33125507Y-33811041D01*
X33118879Y-33824334D01*
X33079112Y-33900715D01*
X33044049Y-33954660D01*
X33003196Y-33997239D01*
X32946057Y-34039525D01*
X32868096Y-34088917D01*
X32710985Y-34174670D01*
X32569292Y-34226184D01*
X32435411Y-34244740D01*
X32301733Y-34231623D01*
X32197722Y-34202016D01*
X32115365Y-34166388D01*
X32031939Y-34119777D01*
X31960963Y-34070592D01*
X31915955Y-34027239D01*
X31915333Y-34026378D01*
X31903499Y-33996432D01*
X31886699Y-33937928D01*
X31869233Y-33866375D01*
X31855203Y-33794998D01*
X31848727Y-33729964D01*
X31849671Y-33657750D01*
X31857900Y-33564830D01*
X31865563Y-33499341D01*
X31867779Y-33486882D01*
X32263077Y-33486882D01*
X32269961Y-33540722D01*
X32292302Y-33604517D01*
X32319306Y-33664240D01*
X32351626Y-33735866D01*
X32375076Y-33793980D01*
X32384939Y-33826820D01*
X32385000Y-33828015D01*
X32402670Y-33871065D01*
X32444457Y-33909942D01*
X32493519Y-33929759D01*
X32500545Y-33930167D01*
X32542567Y-33915566D01*
X32593982Y-33878901D01*
X32612396Y-33861375D01*
X32667785Y-33790383D01*
X32719448Y-33701006D01*
X32760475Y-33607774D01*
X32783953Y-33525220D01*
X32786959Y-33494339D01*
X32777604Y-33441017D01*
X32753063Y-33368065D01*
X32724201Y-33302923D01*
X32662258Y-33200768D01*
X32595784Y-33129825D01*
X32529121Y-33093801D01*
X32477952Y-33092769D01*
X32431868Y-33121624D01*
X32380986Y-33180003D01*
X32332283Y-33256771D01*
X32292739Y-33340789D01*
X32269331Y-33420921D01*
X32268283Y-33427373D01*
X32263077Y-33486882D01*
X31867779Y-33486882D01*
X31898908Y-33311868D01*
X31950658Y-33156642D01*
X32024035Y-33026389D01*
X32122266Y-32913837D01*
X32127220Y-32909167D01*
X32193078Y-32853113D01*
X32255195Y-32816840D01*
X32332028Y-32790863D01*
X32380326Y-32779090D01*
X32521266Y-32758739D01*
X32648636Y-32767699D01*
G36*
X31674937Y-34132201D02*
G01*
X31716085Y-34149052D01*
X31761750Y-34187195D01*
X31782343Y-34228599D01*
X31776029Y-34276933D01*
X31740976Y-34335865D01*
X31675350Y-34409063D01*
X31577317Y-34500194D01*
X31512564Y-34556194D01*
X31431944Y-34624012D01*
X31374326Y-34668844D01*
X31330731Y-34695440D01*
X31292179Y-34708550D01*
X31249692Y-34712925D01*
X31215528Y-34713334D01*
X31131088Y-34706178D01*
X31067416Y-34686987D01*
X31056209Y-34680383D01*
X31017567Y-34642375D01*
X31006787Y-34598305D01*
X31025524Y-34543798D01*
X31075433Y-34474476D01*
X31158170Y-34385964D01*
X31173208Y-34371063D01*
X31248024Y-34300507D01*
X31319483Y-34238410D01*
X31377901Y-34192922D01*
X31405676Y-34175413D01*
X31499085Y-34140681D01*
X31593369Y-34125892D01*
X31674937Y-34132201D01*
G37*
X31674937Y-34132201D02*
X31716085Y-34149052D01*
X31761750Y-34187195D01*
X31782343Y-34228599D01*
X31776029Y-34276933D01*
X31740976Y-34335865D01*
X31675350Y-34409063D01*
X31577317Y-34500194D01*
X31512564Y-34556194D01*
X31431944Y-34624012D01*
X31374326Y-34668844D01*
X31330731Y-34695440D01*
X31292179Y-34708550D01*
X31249692Y-34712925D01*
X31215528Y-34713334D01*
X31131088Y-34706178D01*
X31067416Y-34686987D01*
X31056209Y-34680383D01*
X31017567Y-34642375D01*
X31006787Y-34598305D01*
X31025524Y-34543798D01*
X31075433Y-34474476D01*
X31158170Y-34385964D01*
X31173208Y-34371063D01*
X31248024Y-34300507D01*
X31319483Y-34238410D01*
X31377901Y-34192922D01*
X31405676Y-34175413D01*
X31499085Y-34140681D01*
X31593369Y-34125892D01*
X31674937Y-34132201D01*
G36*
X33535484Y-34343878D02*
G01*
X33637346Y-34374318D01*
X33735706Y-34418967D01*
X33822099Y-34472936D01*
X33888058Y-34531331D01*
X33925119Y-34589262D01*
X33930166Y-34616587D01*
X33910701Y-34675689D01*
X33859039Y-34729714D01*
X33785284Y-34771863D01*
X33699538Y-34795339D01*
X33660594Y-34798000D01*
X33613843Y-34793312D01*
X33566763Y-34775796D01*
X33509293Y-34740274D01*
X33431376Y-34681565D01*
X33425631Y-34677034D01*
X33356399Y-34618466D01*
X33300659Y-34564072D01*
X33266815Y-34522379D01*
X33260955Y-34509981D01*
X33262433Y-34459863D01*
X33281803Y-34401286D01*
X33283404Y-34398113D01*
X33305861Y-34360741D01*
X33332355Y-34341122D01*
X33376240Y-34333613D01*
X33438585Y-34332540D01*
X33535484Y-34343878D01*
G37*
X33535484Y-34343878D02*
X33637346Y-34374318D01*
X33735706Y-34418967D01*
X33822099Y-34472936D01*
X33888058Y-34531331D01*
X33925119Y-34589262D01*
X33930166Y-34616587D01*
X33910701Y-34675689D01*
X33859039Y-34729714D01*
X33785284Y-34771863D01*
X33699538Y-34795339D01*
X33660594Y-34798000D01*
X33613843Y-34793312D01*
X33566763Y-34775796D01*
X33509293Y-34740274D01*
X33431376Y-34681565D01*
X33425631Y-34677034D01*
X33356399Y-34618466D01*
X33300659Y-34564072D01*
X33266815Y-34522379D01*
X33260955Y-34509981D01*
X33262433Y-34459863D01*
X33281803Y-34401286D01*
X33283404Y-34398113D01*
X33305861Y-34360741D01*
X33332355Y-34341122D01*
X33376240Y-34333613D01*
X33438585Y-34332540D01*
X33535484Y-34343878D01*
G36*
X32330480Y-34981348D02*
G01*
X32380752Y-35010253D01*
X32419900Y-35062492D01*
X32439608Y-35110794D01*
X32453476Y-35163497D01*
X32475237Y-35236453D01*
X32490689Y-35284834D01*
X32509299Y-35362452D01*
X32526699Y-35474301D01*
X32542280Y-35612284D01*
X32555435Y-35768302D01*
X32565556Y-35934258D01*
X32572036Y-36102054D01*
X32574266Y-36263593D01*
X32572723Y-36378009D01*
X32568430Y-36497299D01*
X32562669Y-36581650D01*
X32554404Y-36638452D01*
X32542594Y-36675097D01*
X32527875Y-36697175D01*
X32499733Y-36736125D01*
X32490833Y-36760473D01*
X32471680Y-36780782D01*
X32422239Y-36798229D01*
X32354537Y-36811205D01*
X32280600Y-36818099D01*
X32212456Y-36817303D01*
X32162132Y-36807206D01*
X32157458Y-36805093D01*
X32138919Y-36793944D01*
X32125889Y-36777605D01*
X32117342Y-36749166D01*
X32112251Y-36701720D01*
X32109591Y-36628359D01*
X32108335Y-36522176D01*
X32108016Y-36472224D01*
X32106838Y-36361836D01*
X32104516Y-36219513D01*
X32101267Y-36055631D01*
X32097305Y-35880565D01*
X32092844Y-35704694D01*
X32089996Y-35602334D01*
X32085242Y-35433609D01*
X32082046Y-35302131D01*
X32080621Y-35202833D01*
X32081182Y-35130650D01*
X32083944Y-35080514D01*
X32089122Y-35047360D01*
X32096930Y-35026122D01*
X32107582Y-35011735D01*
X32115324Y-35004375D01*
X32175978Y-34974701D01*
X32253888Y-34967162D01*
X32330480Y-34981348D01*
G37*
X32330480Y-34981348D02*
X32380752Y-35010253D01*
X32419900Y-35062492D01*
X32439608Y-35110794D01*
X32453476Y-35163497D01*
X32475237Y-35236453D01*
X32490689Y-35284834D01*
X32509299Y-35362452D01*
X32526699Y-35474301D01*
X32542280Y-35612284D01*
X32555435Y-35768302D01*
X32565556Y-35934258D01*
X32572036Y-36102054D01*
X32574266Y-36263593D01*
X32572723Y-36378009D01*
X32568430Y-36497299D01*
X32562669Y-36581650D01*
X32554404Y-36638452D01*
X32542594Y-36675097D01*
X32527875Y-36697175D01*
X32499733Y-36736125D01*
X32490833Y-36760473D01*
X32471680Y-36780782D01*
X32422239Y-36798229D01*
X32354537Y-36811205D01*
X32280600Y-36818099D01*
X32212456Y-36817303D01*
X32162132Y-36807206D01*
X32157458Y-36805093D01*
X32138919Y-36793944D01*
X32125889Y-36777605D01*
X32117342Y-36749166D01*
X32112251Y-36701720D01*
X32109591Y-36628359D01*
X32108335Y-36522176D01*
X32108016Y-36472224D01*
X32106838Y-36361836D01*
X32104516Y-36219513D01*
X32101267Y-36055631D01*
X32097305Y-35880565D01*
X32092844Y-35704694D01*
X32089996Y-35602334D01*
X32085242Y-35433609D01*
X32082046Y-35302131D01*
X32080621Y-35202833D01*
X32081182Y-35130650D01*
X32083944Y-35080514D01*
X32089122Y-35047360D01*
X32096930Y-35026122D01*
X32107582Y-35011735D01*
X32115324Y-35004375D01*
X32175978Y-34974701D01*
X32253888Y-34967162D01*
X32330480Y-34981348D01*
G36*
X42672469Y-32150408D02*
G01*
X42767803Y-32206644D01*
X42868501Y-32296725D01*
X42913771Y-32346815D01*
X42970956Y-32412062D01*
X43048357Y-32497832D01*
X43136852Y-32594136D01*
X43227315Y-32690980D01*
X43250231Y-32715227D01*
X43344112Y-32814819D01*
X43455386Y-32933712D01*
X43572903Y-33059943D01*
X43685512Y-33181550D01*
X43737525Y-33238005D01*
X43844403Y-33352638D01*
X43926551Y-33436749D01*
X43986328Y-33492346D01*
X44026093Y-33521436D01*
X44048205Y-33526029D01*
X44055025Y-33508221D01*
X44066071Y-33483356D01*
X44095926Y-33431682D01*
X44139660Y-33361441D01*
X44178399Y-33301846D01*
X44235409Y-33214949D01*
X44288584Y-33132714D01*
X44330386Y-33066852D01*
X44347049Y-33039774D01*
X44387329Y-32980703D01*
X44428568Y-32931868D01*
X44435341Y-32925369D01*
X44467723Y-32883538D01*
X44478358Y-32849978D01*
X44493595Y-32805868D01*
X44509058Y-32788038D01*
X44535928Y-32756301D01*
X44573204Y-32700999D01*
X44601832Y-32653154D01*
X44666542Y-32553543D01*
X44745989Y-32452430D01*
X44828907Y-32363060D01*
X44902474Y-32299776D01*
X44950046Y-32272172D01*
X44995114Y-32267408D01*
X45046457Y-32278251D01*
X45146127Y-32317932D01*
X45211598Y-32372683D01*
X45239558Y-32439506D01*
X45240358Y-32453825D01*
X45225719Y-32565344D01*
X45180750Y-32693290D01*
X45103872Y-32842018D01*
X45092557Y-32861250D01*
X45047479Y-32938468D01*
X45003007Y-33016933D01*
X44983864Y-33051750D01*
X44948894Y-33112963D01*
X44900944Y-33192443D01*
X44850322Y-33273109D01*
X44849750Y-33274000D01*
X44805210Y-33348235D01*
X44749926Y-33447646D01*
X44691047Y-33559045D01*
X44637502Y-33665584D01*
X44587740Y-33765808D01*
X44540799Y-33857067D01*
X44501603Y-33930002D01*
X44475076Y-33975253D01*
X44472888Y-33978509D01*
X44437296Y-34039002D01*
X44390725Y-34131421D01*
X44336527Y-34247860D01*
X44278055Y-34380413D01*
X44218663Y-34521173D01*
X44161703Y-34662233D01*
X44110528Y-34795686D01*
X44068492Y-34913627D01*
X44044577Y-34988500D01*
X44020480Y-35058467D01*
X43984156Y-35151032D01*
X43942000Y-35251082D01*
X43900408Y-35343498D01*
X43865777Y-35413167D01*
X43862031Y-35419921D01*
X43839594Y-35466527D01*
X43814347Y-35528125D01*
X43811277Y-35536338D01*
X43790021Y-35591101D01*
X43757888Y-35670543D01*
X43720663Y-35760428D01*
X43707369Y-35792035D01*
X43674047Y-35872848D01*
X43648210Y-35939206D01*
X43633608Y-35981297D01*
X43631691Y-35990059D01*
X43622845Y-36014508D01*
X43598352Y-36070248D01*
X43561281Y-36150595D01*
X43514703Y-36248868D01*
X43475761Y-36329524D01*
X43418383Y-36448625D01*
X43362756Y-36566139D01*
X43313672Y-36671794D01*
X43275928Y-36755318D01*
X43261922Y-36787667D01*
X43191840Y-36946843D01*
X43129015Y-37069775D01*
X43068855Y-37160857D01*
X43006768Y-37224485D01*
X42938160Y-37265056D01*
X42858440Y-37286966D01*
X42763014Y-37294609D01*
X42732108Y-37294788D01*
X42648406Y-37286650D01*
X42586032Y-37259628D01*
X42564886Y-37243949D01*
X42528567Y-37210210D01*
X42512626Y-37176835D01*
X42511902Y-37127295D01*
X42516072Y-37087577D01*
X42527464Y-37017464D01*
X42542064Y-36960327D01*
X42549163Y-36942741D01*
X42568460Y-36903706D01*
X42598223Y-36840663D01*
X42627512Y-36777084D01*
X42661222Y-36706291D01*
X42691522Y-36648178D01*
X42709806Y-36618334D01*
X42729395Y-36579487D01*
X42750838Y-36517691D01*
X42759564Y-36486042D01*
X42777135Y-36433884D01*
X42809971Y-36352362D01*
X42854405Y-36249973D01*
X42906773Y-36135218D01*
X42951278Y-36041542D01*
X43008350Y-35921413D01*
X43061534Y-35805486D01*
X43106852Y-35702727D01*
X43140331Y-35622103D01*
X43155403Y-35581167D01*
X43185307Y-35500100D01*
X43225963Y-35403933D01*
X43264235Y-35322404D01*
X43298865Y-35248725D01*
X43324172Y-35186552D01*
X43335224Y-35148133D01*
X43335358Y-35145753D01*
X43345383Y-35103065D01*
X43367122Y-35055266D01*
X43389612Y-35009338D01*
X43420359Y-34938534D01*
X43455582Y-34852577D01*
X43491503Y-34761190D01*
X43524343Y-34674096D01*
X43550321Y-34601019D01*
X43565658Y-34551683D01*
X43568191Y-34537973D01*
X43581302Y-34497233D01*
X43586818Y-34490025D01*
X43602758Y-34463093D01*
X43630881Y-34406510D01*
X43666702Y-34329540D01*
X43693129Y-34270378D01*
X43734440Y-34172441D01*
X43756391Y-34106216D01*
X43758695Y-34065616D01*
X43741060Y-34044560D01*
X43703199Y-34036961D01*
X43682007Y-34036324D01*
X43598605Y-34019411D01*
X43510417Y-33976453D01*
X43434788Y-33917491D01*
X43398757Y-33872326D01*
X43354746Y-33803793D01*
X43307181Y-33738061D01*
X43300407Y-33729539D01*
X43263842Y-33684195D01*
X43210132Y-33617309D01*
X43148544Y-33540428D01*
X43121675Y-33506834D01*
X43080128Y-33455021D01*
X43043459Y-33410044D01*
X43007481Y-33367266D01*
X42968004Y-33322050D01*
X42920839Y-33269757D01*
X42861798Y-33205752D01*
X42786691Y-33125395D01*
X42691330Y-33024050D01*
X42571526Y-32897079D01*
X42557005Y-32881697D01*
X42465455Y-32783602D01*
X42380639Y-32690640D01*
X42308243Y-32609202D01*
X42253948Y-32545680D01*
X42223876Y-32507112D01*
X42182188Y-32420858D01*
X42174333Y-32339840D01*
X42200708Y-32272526D01*
X42212294Y-32259231D01*
X42255273Y-32231381D01*
X42325943Y-32200032D01*
X42410473Y-32169916D01*
X42495027Y-32145768D01*
X42565775Y-32132322D01*
X42587014Y-32131000D01*
X42672469Y-32150408D01*
G37*
X42672469Y-32150408D02*
X42767803Y-32206644D01*
X42868501Y-32296725D01*
X42913771Y-32346815D01*
X42970956Y-32412062D01*
X43048357Y-32497832D01*
X43136852Y-32594136D01*
X43227315Y-32690980D01*
X43250231Y-32715227D01*
X43344112Y-32814819D01*
X43455386Y-32933712D01*
X43572903Y-33059943D01*
X43685512Y-33181550D01*
X43737525Y-33238005D01*
X43844403Y-33352638D01*
X43926551Y-33436749D01*
X43986328Y-33492346D01*
X44026093Y-33521436D01*
X44048205Y-33526029D01*
X44055025Y-33508221D01*
X44066071Y-33483356D01*
X44095926Y-33431682D01*
X44139660Y-33361441D01*
X44178399Y-33301846D01*
X44235409Y-33214949D01*
X44288584Y-33132714D01*
X44330386Y-33066852D01*
X44347049Y-33039774D01*
X44387329Y-32980703D01*
X44428568Y-32931868D01*
X44435341Y-32925369D01*
X44467723Y-32883538D01*
X44478358Y-32849978D01*
X44493595Y-32805868D01*
X44509058Y-32788038D01*
X44535928Y-32756301D01*
X44573204Y-32700999D01*
X44601832Y-32653154D01*
X44666542Y-32553543D01*
X44745989Y-32452430D01*
X44828907Y-32363060D01*
X44902474Y-32299776D01*
X44950046Y-32272172D01*
X44995114Y-32267408D01*
X45046457Y-32278251D01*
X45146127Y-32317932D01*
X45211598Y-32372683D01*
X45239558Y-32439506D01*
X45240358Y-32453825D01*
X45225719Y-32565344D01*
X45180750Y-32693290D01*
X45103872Y-32842018D01*
X45092557Y-32861250D01*
X45047479Y-32938468D01*
X45003007Y-33016933D01*
X44983864Y-33051750D01*
X44948894Y-33112963D01*
X44900944Y-33192443D01*
X44850322Y-33273109D01*
X44849750Y-33274000D01*
X44805210Y-33348235D01*
X44749926Y-33447646D01*
X44691047Y-33559045D01*
X44637502Y-33665584D01*
X44587740Y-33765808D01*
X44540799Y-33857067D01*
X44501603Y-33930002D01*
X44475076Y-33975253D01*
X44472888Y-33978509D01*
X44437296Y-34039002D01*
X44390725Y-34131421D01*
X44336527Y-34247860D01*
X44278055Y-34380413D01*
X44218663Y-34521173D01*
X44161703Y-34662233D01*
X44110528Y-34795686D01*
X44068492Y-34913627D01*
X44044577Y-34988500D01*
X44020480Y-35058467D01*
X43984156Y-35151032D01*
X43942000Y-35251082D01*
X43900408Y-35343498D01*
X43865777Y-35413167D01*
X43862031Y-35419921D01*
X43839594Y-35466527D01*
X43814347Y-35528125D01*
X43811277Y-35536338D01*
X43790021Y-35591101D01*
X43757888Y-35670543D01*
X43720663Y-35760428D01*
X43707369Y-35792035D01*
X43674047Y-35872848D01*
X43648210Y-35939206D01*
X43633608Y-35981297D01*
X43631691Y-35990059D01*
X43622845Y-36014508D01*
X43598352Y-36070248D01*
X43561281Y-36150595D01*
X43514703Y-36248868D01*
X43475761Y-36329524D01*
X43418383Y-36448625D01*
X43362756Y-36566139D01*
X43313672Y-36671794D01*
X43275928Y-36755318D01*
X43261922Y-36787667D01*
X43191840Y-36946843D01*
X43129015Y-37069775D01*
X43068855Y-37160857D01*
X43006768Y-37224485D01*
X42938160Y-37265056D01*
X42858440Y-37286966D01*
X42763014Y-37294609D01*
X42732108Y-37294788D01*
X42648406Y-37286650D01*
X42586032Y-37259628D01*
X42564886Y-37243949D01*
X42528567Y-37210210D01*
X42512626Y-37176835D01*
X42511902Y-37127295D01*
X42516072Y-37087577D01*
X42527464Y-37017464D01*
X42542064Y-36960327D01*
X42549163Y-36942741D01*
X42568460Y-36903706D01*
X42598223Y-36840663D01*
X42627512Y-36777084D01*
X42661222Y-36706291D01*
X42691522Y-36648178D01*
X42709806Y-36618334D01*
X42729395Y-36579487D01*
X42750838Y-36517691D01*
X42759564Y-36486042D01*
X42777135Y-36433884D01*
X42809971Y-36352362D01*
X42854405Y-36249973D01*
X42906773Y-36135218D01*
X42951278Y-36041542D01*
X43008350Y-35921413D01*
X43061534Y-35805486D01*
X43106852Y-35702727D01*
X43140331Y-35622103D01*
X43155403Y-35581167D01*
X43185307Y-35500100D01*
X43225963Y-35403933D01*
X43264235Y-35322404D01*
X43298865Y-35248725D01*
X43324172Y-35186552D01*
X43335224Y-35148133D01*
X43335358Y-35145753D01*
X43345383Y-35103065D01*
X43367122Y-35055266D01*
X43389612Y-35009338D01*
X43420359Y-34938534D01*
X43455582Y-34852577D01*
X43491503Y-34761190D01*
X43524343Y-34674096D01*
X43550321Y-34601019D01*
X43565658Y-34551683D01*
X43568191Y-34537973D01*
X43581302Y-34497233D01*
X43586818Y-34490025D01*
X43602758Y-34463093D01*
X43630881Y-34406510D01*
X43666702Y-34329540D01*
X43693129Y-34270378D01*
X43734440Y-34172441D01*
X43756391Y-34106216D01*
X43758695Y-34065616D01*
X43741060Y-34044560D01*
X43703199Y-34036961D01*
X43682007Y-34036324D01*
X43598605Y-34019411D01*
X43510417Y-33976453D01*
X43434788Y-33917491D01*
X43398757Y-33872326D01*
X43354746Y-33803793D01*
X43307181Y-33738061D01*
X43300407Y-33729539D01*
X43263842Y-33684195D01*
X43210132Y-33617309D01*
X43148544Y-33540428D01*
X43121675Y-33506834D01*
X43080128Y-33455021D01*
X43043459Y-33410044D01*
X43007481Y-33367266D01*
X42968004Y-33322050D01*
X42920839Y-33269757D01*
X42861798Y-33205752D01*
X42786691Y-33125395D01*
X42691330Y-33024050D01*
X42571526Y-32897079D01*
X42557005Y-32881697D01*
X42465455Y-32783602D01*
X42380639Y-32690640D01*
X42308243Y-32609202D01*
X42253948Y-32545680D01*
X42223876Y-32507112D01*
X42182188Y-32420858D01*
X42174333Y-32339840D01*
X42200708Y-32272526D01*
X42212294Y-32259231D01*
X42255273Y-32231381D01*
X42325943Y-32200032D01*
X42410473Y-32169916D01*
X42495027Y-32145768D01*
X42565775Y-32132322D01*
X42587014Y-32131000D01*
X42672469Y-32150408D01*
G36*
X36390333Y-33981947D02*
G01*
X36535228Y-34013618D01*
X36677427Y-34072125D01*
X36804625Y-34150957D01*
X36904519Y-34243600D01*
X36919071Y-34261794D01*
X36984032Y-34362595D01*
X37048859Y-34489323D01*
X37109553Y-34631171D01*
X37162119Y-34777331D01*
X37202559Y-34916996D01*
X37226877Y-35039359D01*
X37232166Y-35108399D01*
X37236696Y-35176855D01*
X37248477Y-35265474D01*
X37262309Y-35341658D01*
X37280810Y-35443124D01*
X37297844Y-35558139D01*
X37307466Y-35640269D01*
X37314107Y-35721923D01*
X37313448Y-35772460D01*
X37304032Y-35802693D01*
X37284405Y-35823431D01*
X37282614Y-35824804D01*
X37255514Y-35847545D01*
X37263956Y-35854800D01*
X37286977Y-35855660D01*
X37316102Y-35862842D01*
X37339898Y-35886373D01*
X37359464Y-35930699D01*
X37375897Y-36000265D01*
X37390294Y-36099516D01*
X37403753Y-36232899D01*
X37415163Y-36374917D01*
X37425497Y-36506350D01*
X37436033Y-36627942D01*
X37445988Y-36731524D01*
X37454578Y-36808928D01*
X37460843Y-36851167D01*
X37464681Y-36958343D01*
X37428232Y-37052625D01*
X37351609Y-37133779D01*
X37315474Y-37158941D01*
X37248479Y-37192644D01*
X37174876Y-37208210D01*
X37106332Y-37211000D01*
X37033040Y-37208860D01*
X36989891Y-37199918D01*
X36964803Y-37180395D01*
X36954109Y-37163375D01*
X36944112Y-37125837D01*
X36933654Y-37053770D01*
X36923587Y-36954962D01*
X36914763Y-36837196D01*
X36910713Y-36766500D01*
X36898150Y-36536007D01*
X36885794Y-36343289D01*
X36873176Y-36183794D01*
X36859827Y-36052972D01*
X36845279Y-35946268D01*
X36829061Y-35859132D01*
X36810705Y-35787010D01*
X36809281Y-35782250D01*
X36784471Y-35685375D01*
X36761433Y-35570184D01*
X36744913Y-35460590D01*
X36744171Y-35454167D01*
X36730805Y-35356673D01*
X36713906Y-35262333D01*
X36696743Y-35188984D01*
X36693756Y-35179000D01*
X36671501Y-35102186D01*
X36652951Y-35027528D01*
X36649208Y-35009667D01*
X36629556Y-34946631D01*
X36592729Y-34858965D01*
X36544407Y-34757675D01*
X36490270Y-34653764D01*
X36435998Y-34558237D01*
X36387270Y-34482099D01*
X36356961Y-34443459D01*
X36279671Y-34389035D01*
X36188753Y-34373368D01*
X36088750Y-34396975D01*
X36061752Y-34409648D01*
X35994168Y-34453944D01*
X35916037Y-34519771D01*
X35833723Y-34599915D01*
X35753591Y-34687159D01*
X35682004Y-34774287D01*
X35625328Y-34854084D01*
X35589927Y-34919333D01*
X35581166Y-34954524D01*
X35571070Y-34992741D01*
X35546216Y-35046133D01*
X35540629Y-35056082D01*
X35520804Y-35102107D01*
X35493921Y-35181137D01*
X35462364Y-35284907D01*
X35428514Y-35405154D01*
X35394754Y-35533616D01*
X35363468Y-35662028D01*
X35354070Y-35703082D01*
X35331579Y-35743312D01*
X35286255Y-35792509D01*
X35255867Y-35818290D01*
X35204396Y-35857964D01*
X35167894Y-35886134D01*
X35157833Y-35893923D01*
X35154644Y-35916404D01*
X35150943Y-35975725D01*
X35146941Y-36066396D01*
X35142850Y-36182930D01*
X35138881Y-36319840D01*
X35135248Y-36471636D01*
X35134903Y-36487798D01*
X35129567Y-36697199D01*
X35123251Y-36864874D01*
X35115920Y-36991420D01*
X35107538Y-37077434D01*
X35098069Y-37123513D01*
X35096699Y-37126721D01*
X35046388Y-37190404D01*
X34963987Y-37249595D01*
X34859673Y-37297433D01*
X34828095Y-37307807D01*
X34754474Y-37328500D01*
X34708018Y-37336005D01*
X34675913Y-37331049D01*
X34650803Y-37317881D01*
X34637369Y-37299674D01*
X34627557Y-37260683D01*
X34620631Y-37194956D01*
X34615860Y-37096543D01*
X34613663Y-37016580D01*
X34612519Y-36919741D01*
X34612634Y-36793639D01*
X34613879Y-36643328D01*
X34616126Y-36473862D01*
X34619244Y-36290297D01*
X34623105Y-36097688D01*
X34627579Y-35901088D01*
X34632537Y-35705553D01*
X34637849Y-35516138D01*
X34643387Y-35337897D01*
X34649022Y-35175884D01*
X34654623Y-35035155D01*
X34660063Y-34920764D01*
X34665210Y-34837767D01*
X34669937Y-34791217D01*
X34670662Y-34787417D01*
X34683342Y-34723726D01*
X34698911Y-34636494D01*
X34714102Y-34544062D01*
X34714791Y-34539650D01*
X34744276Y-34402998D01*
X34786775Y-34302660D01*
X34846399Y-34233562D01*
X34927261Y-34190630D01*
X35013317Y-34171252D01*
X35089305Y-34167544D01*
X35146405Y-34183850D01*
X35168289Y-34196613D01*
X35232055Y-34261762D01*
X35268624Y-34348315D01*
X35271482Y-34440744D01*
X35271226Y-34442142D01*
X35258152Y-34512250D01*
X35350867Y-34426193D01*
X35451003Y-34336107D01*
X35553444Y-34248912D01*
X35649326Y-34171805D01*
X35729781Y-34111984D01*
X35771666Y-34084550D01*
X35844891Y-34053217D01*
X35947704Y-34024842D01*
X36067367Y-34001538D01*
X36191143Y-33985417D01*
X36306294Y-33978592D01*
X36390333Y-33981947D01*
G37*
X36390333Y-33981947D02*
X36535228Y-34013618D01*
X36677427Y-34072125D01*
X36804625Y-34150957D01*
X36904519Y-34243600D01*
X36919071Y-34261794D01*
X36984032Y-34362595D01*
X37048859Y-34489323D01*
X37109553Y-34631171D01*
X37162119Y-34777331D01*
X37202559Y-34916996D01*
X37226877Y-35039359D01*
X37232166Y-35108399D01*
X37236696Y-35176855D01*
X37248477Y-35265474D01*
X37262309Y-35341658D01*
X37280810Y-35443124D01*
X37297844Y-35558139D01*
X37307466Y-35640269D01*
X37314107Y-35721923D01*
X37313448Y-35772460D01*
X37304032Y-35802693D01*
X37284405Y-35823431D01*
X37282614Y-35824804D01*
X37255514Y-35847545D01*
X37263956Y-35854800D01*
X37286977Y-35855660D01*
X37316102Y-35862842D01*
X37339898Y-35886373D01*
X37359464Y-35930699D01*
X37375897Y-36000265D01*
X37390294Y-36099516D01*
X37403753Y-36232899D01*
X37415163Y-36374917D01*
X37425497Y-36506350D01*
X37436033Y-36627942D01*
X37445988Y-36731524D01*
X37454578Y-36808928D01*
X37460843Y-36851167D01*
X37464681Y-36958343D01*
X37428232Y-37052625D01*
X37351609Y-37133779D01*
X37315474Y-37158941D01*
X37248479Y-37192644D01*
X37174876Y-37208210D01*
X37106332Y-37211000D01*
X37033040Y-37208860D01*
X36989891Y-37199918D01*
X36964803Y-37180395D01*
X36954109Y-37163375D01*
X36944112Y-37125837D01*
X36933654Y-37053770D01*
X36923587Y-36954962D01*
X36914763Y-36837196D01*
X36910713Y-36766500D01*
X36898150Y-36536007D01*
X36885794Y-36343289D01*
X36873176Y-36183794D01*
X36859827Y-36052972D01*
X36845279Y-35946268D01*
X36829061Y-35859132D01*
X36810705Y-35787010D01*
X36809281Y-35782250D01*
X36784471Y-35685375D01*
X36761433Y-35570184D01*
X36744913Y-35460590D01*
X36744171Y-35454167D01*
X36730805Y-35356673D01*
X36713906Y-35262333D01*
X36696743Y-35188984D01*
X36693756Y-35179000D01*
X36671501Y-35102186D01*
X36652951Y-35027528D01*
X36649208Y-35009667D01*
X36629556Y-34946631D01*
X36592729Y-34858965D01*
X36544407Y-34757675D01*
X36490270Y-34653764D01*
X36435998Y-34558237D01*
X36387270Y-34482099D01*
X36356961Y-34443459D01*
X36279671Y-34389035D01*
X36188753Y-34373368D01*
X36088750Y-34396975D01*
X36061752Y-34409648D01*
X35994168Y-34453944D01*
X35916037Y-34519771D01*
X35833723Y-34599915D01*
X35753591Y-34687159D01*
X35682004Y-34774287D01*
X35625328Y-34854084D01*
X35589927Y-34919333D01*
X35581166Y-34954524D01*
X35571070Y-34992741D01*
X35546216Y-35046133D01*
X35540629Y-35056082D01*
X35520804Y-35102107D01*
X35493921Y-35181137D01*
X35462364Y-35284907D01*
X35428514Y-35405154D01*
X35394754Y-35533616D01*
X35363468Y-35662028D01*
X35354070Y-35703082D01*
X35331579Y-35743312D01*
X35286255Y-35792509D01*
X35255867Y-35818290D01*
X35204396Y-35857964D01*
X35167894Y-35886134D01*
X35157833Y-35893923D01*
X35154644Y-35916404D01*
X35150943Y-35975725D01*
X35146941Y-36066396D01*
X35142850Y-36182930D01*
X35138881Y-36319840D01*
X35135248Y-36471636D01*
X35134903Y-36487798D01*
X35129567Y-36697199D01*
X35123251Y-36864874D01*
X35115920Y-36991420D01*
X35107538Y-37077434D01*
X35098069Y-37123513D01*
X35096699Y-37126721D01*
X35046388Y-37190404D01*
X34963987Y-37249595D01*
X34859673Y-37297433D01*
X34828095Y-37307807D01*
X34754474Y-37328500D01*
X34708018Y-37336005D01*
X34675913Y-37331049D01*
X34650803Y-37317881D01*
X34637369Y-37299674D01*
X34627557Y-37260683D01*
X34620631Y-37194956D01*
X34615860Y-37096543D01*
X34613663Y-37016580D01*
X34612519Y-36919741D01*
X34612634Y-36793639D01*
X34613879Y-36643328D01*
X34616126Y-36473862D01*
X34619244Y-36290297D01*
X34623105Y-36097688D01*
X34627579Y-35901088D01*
X34632537Y-35705553D01*
X34637849Y-35516138D01*
X34643387Y-35337897D01*
X34649022Y-35175884D01*
X34654623Y-35035155D01*
X34660063Y-34920764D01*
X34665210Y-34837767D01*
X34669937Y-34791217D01*
X34670662Y-34787417D01*
X34683342Y-34723726D01*
X34698911Y-34636494D01*
X34714102Y-34544062D01*
X34714791Y-34539650D01*
X34744276Y-34402998D01*
X34786775Y-34302660D01*
X34846399Y-34233562D01*
X34927261Y-34190630D01*
X35013317Y-34171252D01*
X35089305Y-34167544D01*
X35146405Y-34183850D01*
X35168289Y-34196613D01*
X35232055Y-34261762D01*
X35268624Y-34348315D01*
X35271482Y-34440744D01*
X35271226Y-34442142D01*
X35258152Y-34512250D01*
X35350867Y-34426193D01*
X35451003Y-34336107D01*
X35553444Y-34248912D01*
X35649326Y-34171805D01*
X35729781Y-34111984D01*
X35771666Y-34084550D01*
X35844891Y-34053217D01*
X35947704Y-34024842D01*
X36067367Y-34001538D01*
X36191143Y-33985417D01*
X36306294Y-33978592D01*
X36390333Y-33981947D01*
G36*
X39362730Y-32220651D02*
G01*
X39374741Y-32222893D01*
X39423627Y-32256667D01*
X39465530Y-32330795D01*
X39499954Y-32443796D01*
X39526402Y-32594191D01*
X39539236Y-32713084D01*
X39545145Y-32797371D01*
X39551542Y-32916568D01*
X39558128Y-33063258D01*
X39564606Y-33230024D01*
X39570677Y-33409450D01*
X39576044Y-33594118D01*
X39578421Y-33688243D01*
X39582899Y-33859412D01*
X39587782Y-34017413D01*
X39592856Y-34157183D01*
X39597907Y-34273659D01*
X39602720Y-34361776D01*
X39607080Y-34416472D01*
X39609953Y-34432564D01*
X39630701Y-34437840D01*
X39678383Y-34427074D01*
X39755278Y-34399399D01*
X39863664Y-34353946D01*
X40005820Y-34289848D01*
X40100250Y-34245851D01*
X40188581Y-34204342D01*
X40300250Y-34151877D01*
X40420279Y-34095493D01*
X40522909Y-34047289D01*
X40638810Y-33990409D01*
X40775001Y-33919760D01*
X40915699Y-33843727D01*
X41045122Y-33770700D01*
X41063641Y-33759907D01*
X41175757Y-33694980D01*
X41259378Y-33649082D01*
X41322029Y-33619000D01*
X41371234Y-33601518D01*
X41414519Y-33593423D01*
X41457909Y-33591500D01*
X41548049Y-33603670D01*
X41605517Y-33637965D01*
X41631472Y-33691062D01*
X41627073Y-33759637D01*
X41593477Y-33840367D01*
X41531845Y-33929930D01*
X41443334Y-34025001D01*
X41329103Y-34122259D01*
X41253833Y-34176781D01*
X41189307Y-34217276D01*
X41130105Y-34248429D01*
X41105666Y-34258182D01*
X41047620Y-34283033D01*
X40999833Y-34311167D01*
X40941839Y-34344193D01*
X40894000Y-34363515D01*
X40848179Y-34381648D01*
X40780948Y-34413565D01*
X40714083Y-34448485D01*
X40632829Y-34490379D01*
X40531457Y-34539125D01*
X40429055Y-34585604D01*
X40407166Y-34595100D01*
X40321417Y-34633621D01*
X40245949Y-34670606D01*
X40192730Y-34700072D01*
X40179979Y-34708698D01*
X40132709Y-34745084D01*
X40183982Y-34855527D01*
X40217524Y-34916284D01*
X40270351Y-34998820D01*
X40335061Y-35092047D01*
X40400585Y-35180130D01*
X40470809Y-35271149D01*
X40538458Y-35358929D01*
X40595658Y-35433245D01*
X40633432Y-35482436D01*
X40683874Y-35553238D01*
X40731206Y-35627476D01*
X40745584Y-35652581D01*
X40808299Y-35758507D01*
X40897775Y-35894968D01*
X41014240Y-36062287D01*
X41157917Y-36260783D01*
X41329033Y-36490779D01*
X41411907Y-36600498D01*
X41452956Y-36662179D01*
X41480110Y-36717454D01*
X41486666Y-36744747D01*
X41471131Y-36785163D01*
X41428990Y-36842294D01*
X41380998Y-36893339D01*
X41312030Y-36954787D01*
X41251094Y-36992224D01*
X41180804Y-37015494D01*
X41155101Y-37021223D01*
X41035830Y-37035344D01*
X40942728Y-37020314D01*
X40869240Y-36973832D01*
X40813362Y-36901389D01*
X40773306Y-36838227D01*
X40718318Y-36756636D01*
X40658857Y-36672056D01*
X40645724Y-36653909D01*
X40596332Y-36584665D01*
X40558193Y-36528492D01*
X40537044Y-36493962D01*
X40534599Y-36487840D01*
X40521958Y-36463247D01*
X40492473Y-36424340D01*
X40436035Y-36354788D01*
X40363895Y-36261878D01*
X40280341Y-36151519D01*
X40189659Y-36029622D01*
X40096135Y-35902095D01*
X40004056Y-35774849D01*
X39917707Y-35653792D01*
X39841377Y-35544835D01*
X39779350Y-35453886D01*
X39735913Y-35386856D01*
X39719682Y-35358917D01*
X39683263Y-35296678D01*
X39647814Y-35245037D01*
X39629662Y-35222977D01*
X39617154Y-35217484D01*
X39607738Y-35234442D01*
X39598864Y-35279732D01*
X39587981Y-35359238D01*
X39583633Y-35393067D01*
X39573527Y-35512930D01*
X39568761Y-35667487D01*
X39569156Y-35849458D01*
X39574532Y-36051566D01*
X39584708Y-36266531D01*
X39599506Y-36487076D01*
X39615147Y-36668924D01*
X39630124Y-36831768D01*
X39640025Y-36958156D01*
X39644583Y-37053692D01*
X39643529Y-37123979D01*
X39636594Y-37174620D01*
X39623508Y-37211220D01*
X39604004Y-37239381D01*
X39586958Y-37256551D01*
X39497429Y-37330459D01*
X39414977Y-37376478D01*
X39323618Y-37402220D01*
X39263665Y-37410506D01*
X39187953Y-37417171D01*
X39140791Y-37415387D01*
X39108763Y-37402248D01*
X39078449Y-37374851D01*
X39073165Y-37369272D01*
X39055902Y-37349551D01*
X39042642Y-37327990D01*
X39032579Y-37298687D01*
X39024908Y-37255737D01*
X39018825Y-37193235D01*
X39013524Y-37105277D01*
X39008201Y-36985958D01*
X39003032Y-36854809D01*
X38998865Y-36738743D01*
X38995319Y-36620433D01*
X38992390Y-36496733D01*
X38990074Y-36364499D01*
X38988364Y-36220588D01*
X38987256Y-36061855D01*
X38986746Y-35885156D01*
X38986827Y-35687347D01*
X38987497Y-35465284D01*
X38988748Y-35215823D01*
X38990577Y-34935819D01*
X38992979Y-34622128D01*
X38995948Y-34271607D01*
X38998541Y-33983084D01*
X39001920Y-33654212D01*
X39005706Y-33365668D01*
X39009978Y-33115447D01*
X39014816Y-32901546D01*
X39020303Y-32721959D01*
X39026517Y-32574682D01*
X39033540Y-32457711D01*
X39041452Y-32369041D01*
X39050334Y-32306668D01*
X39060267Y-32268588D01*
X39067988Y-32255212D01*
X39100273Y-32241983D01*
X39160391Y-32230384D01*
X39233840Y-32221944D01*
X39306120Y-32218191D01*
X39362730Y-32220651D01*
G37*
X39362730Y-32220651D02*
X39374741Y-32222893D01*
X39423627Y-32256667D01*
X39465530Y-32330795D01*
X39499954Y-32443796D01*
X39526402Y-32594191D01*
X39539236Y-32713084D01*
X39545145Y-32797371D01*
X39551542Y-32916568D01*
X39558128Y-33063258D01*
X39564606Y-33230024D01*
X39570677Y-33409450D01*
X39576044Y-33594118D01*
X39578421Y-33688243D01*
X39582899Y-33859412D01*
X39587782Y-34017413D01*
X39592856Y-34157183D01*
X39597907Y-34273659D01*
X39602720Y-34361776D01*
X39607080Y-34416472D01*
X39609953Y-34432564D01*
X39630701Y-34437840D01*
X39678383Y-34427074D01*
X39755278Y-34399399D01*
X39863664Y-34353946D01*
X40005820Y-34289848D01*
X40100250Y-34245851D01*
X40188581Y-34204342D01*
X40300250Y-34151877D01*
X40420279Y-34095493D01*
X40522909Y-34047289D01*
X40638810Y-33990409D01*
X40775001Y-33919760D01*
X40915699Y-33843727D01*
X41045122Y-33770700D01*
X41063641Y-33759907D01*
X41175757Y-33694980D01*
X41259378Y-33649082D01*
X41322029Y-33619000D01*
X41371234Y-33601518D01*
X41414519Y-33593423D01*
X41457909Y-33591500D01*
X41548049Y-33603670D01*
X41605517Y-33637965D01*
X41631472Y-33691062D01*
X41627073Y-33759637D01*
X41593477Y-33840367D01*
X41531845Y-33929930D01*
X41443334Y-34025001D01*
X41329103Y-34122259D01*
X41253833Y-34176781D01*
X41189307Y-34217276D01*
X41130105Y-34248429D01*
X41105666Y-34258182D01*
X41047620Y-34283033D01*
X40999833Y-34311167D01*
X40941839Y-34344193D01*
X40894000Y-34363515D01*
X40848179Y-34381648D01*
X40780948Y-34413565D01*
X40714083Y-34448485D01*
X40632829Y-34490379D01*
X40531457Y-34539125D01*
X40429055Y-34585604D01*
X40407166Y-34595100D01*
X40321417Y-34633621D01*
X40245949Y-34670606D01*
X40192730Y-34700072D01*
X40179979Y-34708698D01*
X40132709Y-34745084D01*
X40183982Y-34855527D01*
X40217524Y-34916284D01*
X40270351Y-34998820D01*
X40335061Y-35092047D01*
X40400585Y-35180130D01*
X40470809Y-35271149D01*
X40538458Y-35358929D01*
X40595658Y-35433245D01*
X40633432Y-35482436D01*
X40683874Y-35553238D01*
X40731206Y-35627476D01*
X40745584Y-35652581D01*
X40808299Y-35758507D01*
X40897775Y-35894968D01*
X41014240Y-36062287D01*
X41157917Y-36260783D01*
X41329033Y-36490779D01*
X41411907Y-36600498D01*
X41452956Y-36662179D01*
X41480110Y-36717454D01*
X41486666Y-36744747D01*
X41471131Y-36785163D01*
X41428990Y-36842294D01*
X41380998Y-36893339D01*
X41312030Y-36954787D01*
X41251094Y-36992224D01*
X41180804Y-37015494D01*
X41155101Y-37021223D01*
X41035830Y-37035344D01*
X40942728Y-37020314D01*
X40869240Y-36973832D01*
X40813362Y-36901389D01*
X40773306Y-36838227D01*
X40718318Y-36756636D01*
X40658857Y-36672056D01*
X40645724Y-36653909D01*
X40596332Y-36584665D01*
X40558193Y-36528492D01*
X40537044Y-36493962D01*
X40534599Y-36487840D01*
X40521958Y-36463247D01*
X40492473Y-36424340D01*
X40436035Y-36354788D01*
X40363895Y-36261878D01*
X40280341Y-36151519D01*
X40189659Y-36029622D01*
X40096135Y-35902095D01*
X40004056Y-35774849D01*
X39917707Y-35653792D01*
X39841377Y-35544835D01*
X39779350Y-35453886D01*
X39735913Y-35386856D01*
X39719682Y-35358917D01*
X39683263Y-35296678D01*
X39647814Y-35245037D01*
X39629662Y-35222977D01*
X39617154Y-35217484D01*
X39607738Y-35234442D01*
X39598864Y-35279732D01*
X39587981Y-35359238D01*
X39583633Y-35393067D01*
X39573527Y-35512930D01*
X39568761Y-35667487D01*
X39569156Y-35849458D01*
X39574532Y-36051566D01*
X39584708Y-36266531D01*
X39599506Y-36487076D01*
X39615147Y-36668924D01*
X39630124Y-36831768D01*
X39640025Y-36958156D01*
X39644583Y-37053692D01*
X39643529Y-37123979D01*
X39636594Y-37174620D01*
X39623508Y-37211220D01*
X39604004Y-37239381D01*
X39586958Y-37256551D01*
X39497429Y-37330459D01*
X39414977Y-37376478D01*
X39323618Y-37402220D01*
X39263665Y-37410506D01*
X39187953Y-37417171D01*
X39140791Y-37415387D01*
X39108763Y-37402248D01*
X39078449Y-37374851D01*
X39073165Y-37369272D01*
X39055902Y-37349551D01*
X39042642Y-37327990D01*
X39032579Y-37298687D01*
X39024908Y-37255737D01*
X39018825Y-37193235D01*
X39013524Y-37105277D01*
X39008201Y-36985958D01*
X39003032Y-36854809D01*
X38998865Y-36738743D01*
X38995319Y-36620433D01*
X38992390Y-36496733D01*
X38990074Y-36364499D01*
X38988364Y-36220588D01*
X38987256Y-36061855D01*
X38986746Y-35885156D01*
X38986827Y-35687347D01*
X38987497Y-35465284D01*
X38988748Y-35215823D01*
X38990577Y-34935819D01*
X38992979Y-34622128D01*
X38995948Y-34271607D01*
X38998541Y-33983084D01*
X39001920Y-33654212D01*
X39005706Y-33365668D01*
X39009978Y-33115447D01*
X39014816Y-32901546D01*
X39020303Y-32721959D01*
X39026517Y-32574682D01*
X39033540Y-32457711D01*
X39041452Y-32369041D01*
X39050334Y-32306668D01*
X39060267Y-32268588D01*
X39067988Y-32255212D01*
X39100273Y-32241983D01*
X39160391Y-32230384D01*
X39233840Y-32221944D01*
X39306120Y-32218191D01*
X39362730Y-32220651D01*
G36*
X27681295Y-31511412D02*
G01*
X27888542Y-31558296D01*
X28083266Y-31644811D01*
X28267691Y-31771592D01*
X28367842Y-31860940D01*
X28438881Y-31931407D01*
X28489623Y-31988615D01*
X28528039Y-32044843D01*
X28562100Y-32112371D01*
X28599777Y-32203477D01*
X28614255Y-32240530D01*
X28649497Y-32335091D01*
X28677984Y-32418776D01*
X28696500Y-32481661D01*
X28702000Y-32511456D01*
X28711633Y-32561723D01*
X28734827Y-32619916D01*
X28735114Y-32620472D01*
X28761225Y-32698655D01*
X28777375Y-32805509D01*
X28782794Y-32928384D01*
X28776711Y-33054628D01*
X28766258Y-33132319D01*
X28747808Y-33219102D01*
X28723535Y-33308586D01*
X28696692Y-33391305D01*
X28670533Y-33457792D01*
X28648310Y-33498583D01*
X28637540Y-33506834D01*
X28630057Y-33524433D01*
X28632873Y-33557419D01*
X28630126Y-33605900D01*
X28612271Y-33672367D01*
X28598188Y-33708276D01*
X28572762Y-33770169D01*
X28556716Y-33817718D01*
X28553833Y-33832825D01*
X28544791Y-33859300D01*
X28519848Y-33916421D01*
X28482274Y-33997087D01*
X28435342Y-34094201D01*
X28406291Y-34152926D01*
X28339336Y-34283315D01*
X28282713Y-34383534D01*
X28230645Y-34462561D01*
X28177355Y-34529374D01*
X28134209Y-34575750D01*
X28037108Y-34670378D01*
X27939766Y-34757462D01*
X27849699Y-34830828D01*
X27774422Y-34884299D01*
X27728333Y-34909237D01*
X27670425Y-34932406D01*
X27633083Y-34947490D01*
X27582513Y-34962232D01*
X27518785Y-34974077D01*
X27516666Y-34974358D01*
X27453067Y-34986017D01*
X27372244Y-35005167D01*
X27326166Y-35017753D01*
X27208448Y-35040935D01*
X27067179Y-35052117D01*
X26917361Y-35051529D01*
X26773997Y-35039401D01*
X26652088Y-35015965D01*
X26622459Y-35006939D01*
X26528152Y-34970058D01*
X26460085Y-34933565D01*
X26424104Y-34900971D01*
X26420200Y-34885438D01*
X26419569Y-34871055D01*
X26411237Y-34842901D01*
X26391802Y-34790304D01*
X26380515Y-34760959D01*
X26371783Y-34750895D01*
X26363855Y-34769178D01*
X26356657Y-34817428D01*
X26350113Y-34897264D01*
X26344146Y-35010304D01*
X26338681Y-35158170D01*
X26333642Y-35342480D01*
X26328953Y-35564853D01*
X26324539Y-35826909D01*
X26321838Y-36015084D01*
X26317707Y-36288082D01*
X26313080Y-36522247D01*
X26307662Y-36721077D01*
X26301159Y-36888070D01*
X26293276Y-37026725D01*
X26283719Y-37140542D01*
X26272193Y-37233018D01*
X26258405Y-37307653D01*
X26242058Y-37367945D01*
X26222860Y-37417394D01*
X26200514Y-37459498D01*
X26200224Y-37459976D01*
X26142798Y-37532985D01*
X26084814Y-37565341D01*
X26027799Y-37556368D01*
X26009651Y-37544375D01*
X25983984Y-37502206D01*
X25960605Y-37418704D01*
X25939599Y-37294816D01*
X25921054Y-37131484D01*
X25905056Y-36929654D01*
X25891694Y-36690270D01*
X25881054Y-36414276D01*
X25873224Y-36102617D01*
X25872379Y-36057417D01*
X25860206Y-35380084D01*
X25926436Y-35297798D01*
X25977599Y-35214914D01*
X25992666Y-35148573D01*
X25999159Y-35094669D01*
X26014619Y-35059680D01*
X26025746Y-35023173D01*
X26014619Y-34979986D01*
X26007355Y-34940083D01*
X26001118Y-34865990D01*
X25996326Y-34765846D01*
X25993394Y-34647789D01*
X25992666Y-34550440D01*
X25990735Y-34402046D01*
X25985377Y-34253709D01*
X25977242Y-34117958D01*
X25966983Y-34007321D01*
X25962745Y-33975026D01*
X25947654Y-33869591D01*
X25929681Y-33739850D01*
X25911251Y-33603496D01*
X25897121Y-33496250D01*
X25881399Y-33378908D01*
X25865102Y-33263720D01*
X25850170Y-33164044D01*
X25838696Y-33094084D01*
X25824619Y-32996597D01*
X25814216Y-32890566D01*
X25811351Y-32840973D01*
X25811549Y-32796939D01*
X26127978Y-32796939D01*
X26145021Y-32882182D01*
X26149138Y-32898423D01*
X26179202Y-33031899D01*
X26208395Y-33191990D01*
X26234187Y-33363011D01*
X26254052Y-33529276D01*
X26258667Y-33578031D01*
X26273257Y-33744478D01*
X26415883Y-33807475D01*
X26500408Y-33848951D01*
X26555904Y-33888429D01*
X26594209Y-33934946D01*
X26603671Y-33950826D01*
X26632138Y-34011785D01*
X26647790Y-34065343D01*
X26648833Y-34076975D01*
X26658347Y-34129877D01*
X26677560Y-34179926D01*
X26702642Y-34243611D01*
X26719720Y-34307657D01*
X26742602Y-34377135D01*
X26775660Y-34437924D01*
X26804445Y-34483461D01*
X26818011Y-34514985D01*
X26818166Y-34516849D01*
X26835476Y-34551537D01*
X26879704Y-34594998D01*
X26939300Y-34638334D01*
X27002711Y-34672651D01*
X27036250Y-34684797D01*
X27128233Y-34705631D01*
X27204601Y-34709592D01*
X27288278Y-34697326D01*
X27309987Y-34692504D01*
X27383032Y-34676132D01*
X27450158Y-34661840D01*
X27462187Y-34659415D01*
X27509454Y-34636527D01*
X27575042Y-34586655D01*
X27651954Y-34516746D01*
X27733195Y-34433744D01*
X27811768Y-34344596D01*
X27880677Y-34256246D01*
X27907521Y-34217302D01*
X27964885Y-34118276D01*
X28028445Y-33989597D01*
X28093456Y-33842507D01*
X28155175Y-33688250D01*
X28208857Y-33538067D01*
X28247501Y-33411584D01*
X28273974Y-33314884D01*
X28299534Y-33222401D01*
X28319875Y-33149681D01*
X28325057Y-33131454D01*
X28336564Y-33081113D01*
X28338438Y-33032721D01*
X28329572Y-32973159D01*
X28308861Y-32889308D01*
X28302763Y-32866871D01*
X28275843Y-32766363D01*
X28249212Y-32663079D01*
X28228132Y-32577476D01*
X28226111Y-32568875D01*
X28201786Y-32486133D01*
X28165533Y-32387292D01*
X28125182Y-32293693D01*
X28125015Y-32293342D01*
X28088385Y-32220494D01*
X28053322Y-32165729D01*
X28010325Y-32118372D01*
X27949896Y-32067747D01*
X27874590Y-32011895D01*
X27766998Y-31934886D01*
X27685522Y-31880377D01*
X27622484Y-31845370D01*
X27570208Y-31826867D01*
X27521017Y-31821870D01*
X27467234Y-31827380D01*
X27423487Y-31835730D01*
X27344301Y-31856855D01*
X27244263Y-31890254D01*
X27140727Y-31929962D01*
X27103916Y-31945535D01*
X27014106Y-31983539D01*
X26931890Y-32016210D01*
X26869603Y-32038737D01*
X26849418Y-32044786D01*
X26786686Y-32064873D01*
X26739685Y-32085357D01*
X26681201Y-32104954D01*
X26639641Y-32109834D01*
X26584395Y-32123869D01*
X26551659Y-32146875D01*
X26512522Y-32197550D01*
X26460832Y-32274976D01*
X26403365Y-32368238D01*
X26346899Y-32466425D01*
X26307991Y-32539250D01*
X26257714Y-32622142D01*
X26209752Y-32672332D01*
X26192503Y-32681808D01*
X26149992Y-32705380D01*
X26129059Y-32740881D01*
X26127978Y-32796939D01*
X25811549Y-32796939D01*
X25811706Y-32762133D01*
X25822771Y-32707677D01*
X25848893Y-32660132D01*
X25860168Y-32644798D01*
X25899047Y-32576908D01*
X25927424Y-32497878D01*
X25930981Y-32481742D01*
X25972256Y-32346179D01*
X26041257Y-32212912D01*
X26130326Y-32092860D01*
X26231810Y-31996939D01*
X26302630Y-31951764D01*
X26375169Y-31908703D01*
X26445686Y-31857912D01*
X26453778Y-31851222D01*
X26505181Y-31814413D01*
X26549284Y-31793875D01*
X26559272Y-31792334D01*
X26593189Y-31783897D01*
X26655071Y-31761210D01*
X26734656Y-31728210D01*
X26786077Y-31705351D01*
X26907408Y-31650200D01*
X26997454Y-31609906D01*
X27063391Y-31581637D01*
X27112394Y-31562560D01*
X27151640Y-31549845D01*
X27188305Y-31540660D01*
X27220333Y-31534004D01*
X27459300Y-31503526D01*
X27681295Y-31511412D01*
G37*
X27681295Y-31511412D02*
X27888542Y-31558296D01*
X28083266Y-31644811D01*
X28267691Y-31771592D01*
X28367842Y-31860940D01*
X28438881Y-31931407D01*
X28489623Y-31988615D01*
X28528039Y-32044843D01*
X28562100Y-32112371D01*
X28599777Y-32203477D01*
X28614255Y-32240530D01*
X28649497Y-32335091D01*
X28677984Y-32418776D01*
X28696500Y-32481661D01*
X28702000Y-32511456D01*
X28711633Y-32561723D01*
X28734827Y-32619916D01*
X28735114Y-32620472D01*
X28761225Y-32698655D01*
X28777375Y-32805509D01*
X28782794Y-32928384D01*
X28776711Y-33054628D01*
X28766258Y-33132319D01*
X28747808Y-33219102D01*
X28723535Y-33308586D01*
X28696692Y-33391305D01*
X28670533Y-33457792D01*
X28648310Y-33498583D01*
X28637540Y-33506834D01*
X28630057Y-33524433D01*
X28632873Y-33557419D01*
X28630126Y-33605900D01*
X28612271Y-33672367D01*
X28598188Y-33708276D01*
X28572762Y-33770169D01*
X28556716Y-33817718D01*
X28553833Y-33832825D01*
X28544791Y-33859300D01*
X28519848Y-33916421D01*
X28482274Y-33997087D01*
X28435342Y-34094201D01*
X28406291Y-34152926D01*
X28339336Y-34283315D01*
X28282713Y-34383534D01*
X28230645Y-34462561D01*
X28177355Y-34529374D01*
X28134209Y-34575750D01*
X28037108Y-34670378D01*
X27939766Y-34757462D01*
X27849699Y-34830828D01*
X27774422Y-34884299D01*
X27728333Y-34909237D01*
X27670425Y-34932406D01*
X27633083Y-34947490D01*
X27582513Y-34962232D01*
X27518785Y-34974077D01*
X27516666Y-34974358D01*
X27453067Y-34986017D01*
X27372244Y-35005167D01*
X27326166Y-35017753D01*
X27208448Y-35040935D01*
X27067179Y-35052117D01*
X26917361Y-35051529D01*
X26773997Y-35039401D01*
X26652088Y-35015965D01*
X26622459Y-35006939D01*
X26528152Y-34970058D01*
X26460085Y-34933565D01*
X26424104Y-34900971D01*
X26420200Y-34885438D01*
X26419569Y-34871055D01*
X26411237Y-34842901D01*
X26391802Y-34790304D01*
X26380515Y-34760959D01*
X26371783Y-34750895D01*
X26363855Y-34769178D01*
X26356657Y-34817428D01*
X26350113Y-34897264D01*
X26344146Y-35010304D01*
X26338681Y-35158170D01*
X26333642Y-35342480D01*
X26328953Y-35564853D01*
X26324539Y-35826909D01*
X26321838Y-36015084D01*
X26317707Y-36288082D01*
X26313080Y-36522247D01*
X26307662Y-36721077D01*
X26301159Y-36888070D01*
X26293276Y-37026725D01*
X26283719Y-37140542D01*
X26272193Y-37233018D01*
X26258405Y-37307653D01*
X26242058Y-37367945D01*
X26222860Y-37417394D01*
X26200514Y-37459498D01*
X26200224Y-37459976D01*
X26142798Y-37532985D01*
X26084814Y-37565341D01*
X26027799Y-37556368D01*
X26009651Y-37544375D01*
X25983984Y-37502206D01*
X25960605Y-37418704D01*
X25939599Y-37294816D01*
X25921054Y-37131484D01*
X25905056Y-36929654D01*
X25891694Y-36690270D01*
X25881054Y-36414276D01*
X25873224Y-36102617D01*
X25872379Y-36057417D01*
X25860206Y-35380084D01*
X25926436Y-35297798D01*
X25977599Y-35214914D01*
X25992666Y-35148573D01*
X25999159Y-35094669D01*
X26014619Y-35059680D01*
X26025746Y-35023173D01*
X26014619Y-34979986D01*
X26007355Y-34940083D01*
X26001118Y-34865990D01*
X25996326Y-34765846D01*
X25993394Y-34647789D01*
X25992666Y-34550440D01*
X25990735Y-34402046D01*
X25985377Y-34253709D01*
X25977242Y-34117958D01*
X25966983Y-34007321D01*
X25962745Y-33975026D01*
X25947654Y-33869591D01*
X25929681Y-33739850D01*
X25911251Y-33603496D01*
X25897121Y-33496250D01*
X25881399Y-33378908D01*
X25865102Y-33263720D01*
X25850170Y-33164044D01*
X25838696Y-33094084D01*
X25824619Y-32996597D01*
X25814216Y-32890566D01*
X25811351Y-32840973D01*
X25811549Y-32796939D01*
X26127978Y-32796939D01*
X26145021Y-32882182D01*
X26149138Y-32898423D01*
X26179202Y-33031899D01*
X26208395Y-33191990D01*
X26234187Y-33363011D01*
X26254052Y-33529276D01*
X26258667Y-33578031D01*
X26273257Y-33744478D01*
X26415883Y-33807475D01*
X26500408Y-33848951D01*
X26555904Y-33888429D01*
X26594209Y-33934946D01*
X26603671Y-33950826D01*
X26632138Y-34011785D01*
X26647790Y-34065343D01*
X26648833Y-34076975D01*
X26658347Y-34129877D01*
X26677560Y-34179926D01*
X26702642Y-34243611D01*
X26719720Y-34307657D01*
X26742602Y-34377135D01*
X26775660Y-34437924D01*
X26804445Y-34483461D01*
X26818011Y-34514985D01*
X26818166Y-34516849D01*
X26835476Y-34551537D01*
X26879704Y-34594998D01*
X26939300Y-34638334D01*
X27002711Y-34672651D01*
X27036250Y-34684797D01*
X27128233Y-34705631D01*
X27204601Y-34709592D01*
X27288278Y-34697326D01*
X27309987Y-34692504D01*
X27383032Y-34676132D01*
X27450158Y-34661840D01*
X27462187Y-34659415D01*
X27509454Y-34636527D01*
X27575042Y-34586655D01*
X27651954Y-34516746D01*
X27733195Y-34433744D01*
X27811768Y-34344596D01*
X27880677Y-34256246D01*
X27907521Y-34217302D01*
X27964885Y-34118276D01*
X28028445Y-33989597D01*
X28093456Y-33842507D01*
X28155175Y-33688250D01*
X28208857Y-33538067D01*
X28247501Y-33411584D01*
X28273974Y-33314884D01*
X28299534Y-33222401D01*
X28319875Y-33149681D01*
X28325057Y-33131454D01*
X28336564Y-33081113D01*
X28338438Y-33032721D01*
X28329572Y-32973159D01*
X28308861Y-32889308D01*
X28302763Y-32866871D01*
X28275843Y-32766363D01*
X28249212Y-32663079D01*
X28228132Y-32577476D01*
X28226111Y-32568875D01*
X28201786Y-32486133D01*
X28165533Y-32387292D01*
X28125182Y-32293693D01*
X28125015Y-32293342D01*
X28088385Y-32220494D01*
X28053322Y-32165729D01*
X28010325Y-32118372D01*
X27949896Y-32067747D01*
X27874590Y-32011895D01*
X27766998Y-31934886D01*
X27685522Y-31880377D01*
X27622484Y-31845370D01*
X27570208Y-31826867D01*
X27521017Y-31821870D01*
X27467234Y-31827380D01*
X27423487Y-31835730D01*
X27344301Y-31856855D01*
X27244263Y-31890254D01*
X27140727Y-31929962D01*
X27103916Y-31945535D01*
X27014106Y-31983539D01*
X26931890Y-32016210D01*
X26869603Y-32038737D01*
X26849418Y-32044786D01*
X26786686Y-32064873D01*
X26739685Y-32085357D01*
X26681201Y-32104954D01*
X26639641Y-32109834D01*
X26584395Y-32123869D01*
X26551659Y-32146875D01*
X26512522Y-32197550D01*
X26460832Y-32274976D01*
X26403365Y-32368238D01*
X26346899Y-32466425D01*
X26307991Y-32539250D01*
X26257714Y-32622142D01*
X26209752Y-32672332D01*
X26192503Y-32681808D01*
X26149992Y-32705380D01*
X26129059Y-32740881D01*
X26127978Y-32796939D01*
X25811549Y-32796939D01*
X25811706Y-32762133D01*
X25822771Y-32707677D01*
X25848893Y-32660132D01*
X25860168Y-32644798D01*
X25899047Y-32576908D01*
X25927424Y-32497878D01*
X25930981Y-32481742D01*
X25972256Y-32346179D01*
X26041257Y-32212912D01*
X26130326Y-32092860D01*
X26231810Y-31996939D01*
X26302630Y-31951764D01*
X26375169Y-31908703D01*
X26445686Y-31857912D01*
X26453778Y-31851222D01*
X26505181Y-31814413D01*
X26549284Y-31793875D01*
X26559272Y-31792334D01*
X26593189Y-31783897D01*
X26655071Y-31761210D01*
X26734656Y-31728210D01*
X26786077Y-31705351D01*
X26907408Y-31650200D01*
X26997454Y-31609906D01*
X27063391Y-31581637D01*
X27112394Y-31562560D01*
X27151640Y-31549845D01*
X27188305Y-31540660D01*
X27220333Y-31534004D01*
X27459300Y-31503526D01*
X27681295Y-31511412D01*
G36*
X29675080Y-33194150D02*
G01*
X29744795Y-33206259D01*
X29767856Y-33217134D01*
X29813250Y-33246880D01*
X29810923Y-34376982D01*
X29809882Y-34654049D01*
X29807985Y-34902493D01*
X29805276Y-35120153D01*
X29801798Y-35304868D01*
X29797595Y-35454476D01*
X29792711Y-35566817D01*
X29787188Y-35639730D01*
X29785157Y-35655250D01*
X29778330Y-35719930D01*
X29772265Y-35818533D01*
X29767271Y-35942653D01*
X29763655Y-36083882D01*
X29761726Y-36233814D01*
X29761490Y-36300834D01*
X29761700Y-36461312D01*
X29762778Y-36585518D01*
X29765154Y-36679511D01*
X29769254Y-36749348D01*
X29775507Y-36801090D01*
X29784341Y-36840795D01*
X29796183Y-36874522D01*
X29803131Y-36890520D01*
X29827941Y-36949560D01*
X29842954Y-36993708D01*
X29845000Y-37005084D01*
X29855714Y-37033926D01*
X29883381Y-37085139D01*
X29910918Y-37130102D01*
X29976837Y-37232828D01*
X30037918Y-37136512D01*
X30072092Y-37079680D01*
X30094259Y-37037159D01*
X30099000Y-37023097D01*
X30109388Y-36989075D01*
X30136638Y-36929994D01*
X30174882Y-36856506D01*
X30218247Y-36779262D01*
X30260865Y-36708916D01*
X30296865Y-36656119D01*
X30309996Y-36640218D01*
X30368649Y-36594021D01*
X30440113Y-36558312D01*
X30451782Y-36554445D01*
X30515727Y-36540221D01*
X30566897Y-36545914D01*
X30614538Y-36565391D01*
X30665001Y-36594172D01*
X30686864Y-36627209D01*
X30691665Y-36682208D01*
X30691666Y-36683763D01*
X30688554Y-36722222D01*
X30677694Y-36767669D01*
X30656801Y-36825439D01*
X30623589Y-36900867D01*
X30575773Y-36999289D01*
X30511066Y-37126039D01*
X30461257Y-37221584D01*
X30377351Y-37360704D01*
X30286212Y-37464593D01*
X30178701Y-37540155D01*
X30045676Y-37594299D01*
X29928746Y-37623944D01*
X29812529Y-37646297D01*
X29727590Y-37655571D01*
X29664491Y-37650282D01*
X29613796Y-37628944D01*
X29566069Y-37590075D01*
X29539562Y-37562733D01*
X29470153Y-37472802D01*
X29399701Y-37355871D01*
X29335420Y-37226460D01*
X29284526Y-37099090D01*
X29254321Y-36988750D01*
X29247796Y-36933151D01*
X29242124Y-36847683D01*
X29237389Y-36739647D01*
X29233671Y-36616344D01*
X29231056Y-36485076D01*
X29229625Y-36353143D01*
X29229461Y-36227847D01*
X29229673Y-36207968D01*
X29280775Y-36207968D01*
X29284083Y-36216167D01*
X29303103Y-36236359D01*
X29306499Y-36237334D01*
X29315590Y-36220957D01*
X29315833Y-36216167D01*
X29299561Y-36195814D01*
X29293417Y-36195000D01*
X29280775Y-36207968D01*
X29229673Y-36207968D01*
X29230649Y-36116487D01*
X29233270Y-36026366D01*
X29237407Y-35964785D01*
X29242399Y-35939949D01*
X29245461Y-35914933D01*
X29248989Y-35851581D01*
X29252867Y-35753885D01*
X29256984Y-35625837D01*
X29261223Y-35471431D01*
X29265472Y-35294658D01*
X29269615Y-35099513D01*
X29273540Y-34889986D01*
X29275219Y-34791196D01*
X29280138Y-34494491D01*
X29284799Y-34237271D01*
X29289724Y-34016696D01*
X29295436Y-33829925D01*
X29302458Y-33674116D01*
X29311311Y-33546430D01*
X29322517Y-33444025D01*
X29336600Y-33364062D01*
X29354082Y-33303698D01*
X29375484Y-33260093D01*
X29401329Y-33230407D01*
X29432140Y-33211798D01*
X29468438Y-33201426D01*
X29510747Y-33196450D01*
X29559588Y-33194030D01*
X29568957Y-33193653D01*
X29675080Y-33194150D01*
G37*
X29675080Y-33194150D02*
X29744795Y-33206259D01*
X29767856Y-33217134D01*
X29813250Y-33246880D01*
X29810923Y-34376982D01*
X29809882Y-34654049D01*
X29807985Y-34902493D01*
X29805276Y-35120153D01*
X29801798Y-35304868D01*
X29797595Y-35454476D01*
X29792711Y-35566817D01*
X29787188Y-35639730D01*
X29785157Y-35655250D01*
X29778330Y-35719930D01*
X29772265Y-35818533D01*
X29767271Y-35942653D01*
X29763655Y-36083882D01*
X29761726Y-36233814D01*
X29761490Y-36300834D01*
X29761700Y-36461312D01*
X29762778Y-36585518D01*
X29765154Y-36679511D01*
X29769254Y-36749348D01*
X29775507Y-36801090D01*
X29784341Y-36840795D01*
X29796183Y-36874522D01*
X29803131Y-36890520D01*
X29827941Y-36949560D01*
X29842954Y-36993708D01*
X29845000Y-37005084D01*
X29855714Y-37033926D01*
X29883381Y-37085139D01*
X29910918Y-37130102D01*
X29976837Y-37232828D01*
X30037918Y-37136512D01*
X30072092Y-37079680D01*
X30094259Y-37037159D01*
X30099000Y-37023097D01*
X30109388Y-36989075D01*
X30136638Y-36929994D01*
X30174882Y-36856506D01*
X30218247Y-36779262D01*
X30260865Y-36708916D01*
X30296865Y-36656119D01*
X30309996Y-36640218D01*
X30368649Y-36594021D01*
X30440113Y-36558312D01*
X30451782Y-36554445D01*
X30515727Y-36540221D01*
X30566897Y-36545914D01*
X30614538Y-36565391D01*
X30665001Y-36594172D01*
X30686864Y-36627209D01*
X30691665Y-36682208D01*
X30691666Y-36683763D01*
X30688554Y-36722222D01*
X30677694Y-36767669D01*
X30656801Y-36825439D01*
X30623589Y-36900867D01*
X30575773Y-36999289D01*
X30511066Y-37126039D01*
X30461257Y-37221584D01*
X30377351Y-37360704D01*
X30286212Y-37464593D01*
X30178701Y-37540155D01*
X30045676Y-37594299D01*
X29928746Y-37623944D01*
X29812529Y-37646297D01*
X29727590Y-37655571D01*
X29664491Y-37650282D01*
X29613796Y-37628944D01*
X29566069Y-37590075D01*
X29539562Y-37562733D01*
X29470153Y-37472802D01*
X29399701Y-37355871D01*
X29335420Y-37226460D01*
X29284526Y-37099090D01*
X29254321Y-36988750D01*
X29247796Y-36933151D01*
X29242124Y-36847683D01*
X29237389Y-36739647D01*
X29233671Y-36616344D01*
X29231056Y-36485076D01*
X29229625Y-36353143D01*
X29229461Y-36227847D01*
X29229673Y-36207968D01*
X29280775Y-36207968D01*
X29284083Y-36216167D01*
X29303103Y-36236359D01*
X29306499Y-36237334D01*
X29315590Y-36220957D01*
X29315833Y-36216167D01*
X29299561Y-36195814D01*
X29293417Y-36195000D01*
X29280775Y-36207968D01*
X29229673Y-36207968D01*
X29230649Y-36116487D01*
X29233270Y-36026366D01*
X29237407Y-35964785D01*
X29242399Y-35939949D01*
X29245461Y-35914933D01*
X29248989Y-35851581D01*
X29252867Y-35753885D01*
X29256984Y-35625837D01*
X29261223Y-35471431D01*
X29265472Y-35294658D01*
X29269615Y-35099513D01*
X29273540Y-34889986D01*
X29275219Y-34791196D01*
X29280138Y-34494491D01*
X29284799Y-34237271D01*
X29289724Y-34016696D01*
X29295436Y-33829925D01*
X29302458Y-33674116D01*
X29311311Y-33546430D01*
X29322517Y-33444025D01*
X29336600Y-33364062D01*
X29354082Y-33303698D01*
X29375484Y-33260093D01*
X29401329Y-33230407D01*
X29432140Y-33211798D01*
X29468438Y-33201426D01*
X29510747Y-33196450D01*
X29559588Y-33194030D01*
X29568957Y-33193653D01*
X29675080Y-33194150D01*
D12*
%TO.C,D8*%
X42748000Y-136335000D02*
X38863000Y-136335000D01*
X38863000Y-136335000D02*
X38863000Y-139255000D01*
X38863000Y-139255000D02*
X42748000Y-139255000D01*
X41338500Y-139458000D02*
X41338500Y-140410500D01*
X41338500Y-140410500D02*
X40830500Y-139902500D01*
X40830500Y-139902500D02*
X41338500Y-139458000D01*
%TO.C,D7*%
X39548000Y-136715000D02*
X43433000Y-136715000D01*
X43433000Y-136715000D02*
X43433000Y-133795000D01*
X43433000Y-133795000D02*
X39548000Y-133795000D01*
X40957500Y-133592000D02*
X40957500Y-132639500D01*
X40957500Y-132639500D02*
X41465500Y-133147500D01*
X41465500Y-133147500D02*
X40957500Y-133592000D01*
%TO.C,D6*%
X31572000Y-121095000D02*
X27687000Y-121095000D01*
X27687000Y-121095000D02*
X27687000Y-124015000D01*
X27687000Y-124015000D02*
X31572000Y-124015000D01*
X30162500Y-124218000D02*
X30162500Y-125170500D01*
X30162500Y-125170500D02*
X29654500Y-124662500D01*
X29654500Y-124662500D02*
X30162500Y-124218000D01*
%TO.C,D5*%
X28372000Y-121475000D02*
X32257000Y-121475000D01*
X32257000Y-121475000D02*
X32257000Y-118555000D01*
X32257000Y-118555000D02*
X28372000Y-118555000D01*
X29781500Y-118352000D02*
X29781500Y-117399500D01*
X29781500Y-117399500D02*
X30289500Y-117907500D01*
X30289500Y-117907500D02*
X29781500Y-118352000D01*
%TO.C,D4*%
X42748000Y-105855000D02*
X38863000Y-105855000D01*
X38863000Y-105855000D02*
X38863000Y-108775000D01*
X38863000Y-108775000D02*
X42748000Y-108775000D01*
X41338500Y-108978000D02*
X41338500Y-109930500D01*
X41338500Y-109930500D02*
X40830500Y-109422500D01*
X40830500Y-109422500D02*
X41338500Y-108978000D01*
%TO.C,D3*%
X39548000Y-106235000D02*
X43433000Y-106235000D01*
X43433000Y-106235000D02*
X43433000Y-103315000D01*
X43433000Y-103315000D02*
X39548000Y-103315000D01*
X40957500Y-103112000D02*
X40957500Y-102159500D01*
X40957500Y-102159500D02*
X41465500Y-102667500D01*
X41465500Y-102667500D02*
X40957500Y-103112000D01*
%TO.C,D2*%
X31572000Y-90615000D02*
X27687000Y-90615000D01*
X27687000Y-90615000D02*
X27687000Y-93535000D01*
X27687000Y-93535000D02*
X31572000Y-93535000D01*
X30162500Y-93738000D02*
X30162500Y-94690500D01*
X30162500Y-94690500D02*
X29654500Y-94182500D01*
X29654500Y-94182500D02*
X30162500Y-93738000D01*
%TO.C,D1*%
X28372000Y-90995000D02*
X32257000Y-90995000D01*
X32257000Y-90995000D02*
X32257000Y-88075000D01*
X32257000Y-88075000D02*
X28372000Y-88075000D01*
X29781500Y-87872000D02*
X29781500Y-86919500D01*
X29781500Y-86919500D02*
X30289500Y-87427500D01*
X30289500Y-87427500D02*
X29781500Y-87872000D01*
%TO.C,U2*%
X62340000Y-61657000D02*
X62340000Y-63057000D01*
X64660000Y-63057000D02*
X64660000Y-61157000D01*
%TO.C,J11*%
X45272000Y-110430000D02*
X45272000Y-115630000D01*
X45272000Y-115630000D02*
X44702000Y-115630000D01*
X43182000Y-115630000D02*
X42162000Y-115630000D01*
X40642000Y-115630000D02*
X39622000Y-115630000D01*
X38102000Y-115630000D02*
X37082000Y-115630000D01*
X35562000Y-115630000D02*
X34992000Y-115630000D01*
X34992000Y-110430000D02*
X34992000Y-115630000D01*
X45272000Y-110430000D02*
X44702000Y-110430000D01*
X43182000Y-110430000D02*
X42162000Y-110430000D01*
X40642000Y-110430000D02*
X39622000Y-110430000D01*
X38102000Y-110430000D02*
X37082000Y-110430000D01*
X35562000Y-110430000D02*
X34992000Y-110430000D01*
X44702000Y-115630000D02*
X44702000Y-116990000D01*
%TO.C,R29*%
X60259279Y-62990000D02*
X59933721Y-62990000D01*
X60259279Y-64010000D02*
X59933721Y-64010000D01*
%TO.C,JP3*%
X56258000Y-66310000D02*
X59058000Y-66310000D01*
X59058000Y-66310000D02*
X59058000Y-68310000D01*
X59058000Y-68310000D02*
X56258000Y-68310000D01*
X56258000Y-68310000D02*
X56258000Y-66310000D01*
%TO.C,U8*%
X55646000Y-84709000D02*
X55646000Y-81259000D01*
X55646000Y-84709000D02*
X55646000Y-86659000D01*
X50526000Y-84709000D02*
X50526000Y-82759000D01*
X50526000Y-84709000D02*
X50526000Y-86659000D01*
%TO.C,U7*%
X66060000Y-130429000D02*
X66060000Y-126979000D01*
X66060000Y-130429000D02*
X66060000Y-132379000D01*
X60940000Y-130429000D02*
X60940000Y-128479000D01*
X60940000Y-130429000D02*
X60940000Y-132379000D01*
%TO.C,U6*%
X55900000Y-115189000D02*
X55900000Y-111739000D01*
X55900000Y-115189000D02*
X55900000Y-117139000D01*
X50780000Y-115189000D02*
X50780000Y-113239000D01*
X50780000Y-115189000D02*
X50780000Y-117139000D01*
%TO.C,U5*%
X66060000Y-99949000D02*
X66060000Y-96499000D01*
X66060000Y-99949000D02*
X66060000Y-101899000D01*
X60940000Y-99949000D02*
X60940000Y-97999000D01*
X60940000Y-99949000D02*
X60940000Y-101899000D01*
D11*
%TO.C,U4*%
X60809000Y-75512000D02*
X59584000Y-75512000D01*
X60809000Y-78637000D02*
X64159000Y-78637000D01*
X60809000Y-75287000D02*
X64159000Y-75287000D01*
X60809000Y-78637000D02*
X60809000Y-78337000D01*
X64159000Y-78637000D02*
X64159000Y-78337000D01*
X64159000Y-75287000D02*
X64159000Y-75587000D01*
X60809000Y-75287000D02*
X60809000Y-75512000D01*
D12*
%TO.C,U3*%
X54630000Y-59309000D02*
X54630000Y-55859000D01*
X54630000Y-59309000D02*
X54630000Y-61259000D01*
X49510000Y-59309000D02*
X49510000Y-57359000D01*
X49510000Y-59309000D02*
X49510000Y-61259000D01*
%TO.C,U1*%
X56967000Y-87501000D02*
X56967000Y-86041000D01*
X60127000Y-87501000D02*
X60127000Y-85341000D01*
X60127000Y-87501000D02*
X59197000Y-87501000D01*
X56967000Y-87501000D02*
X57897000Y-87501000D01*
%TO.C,R28*%
X51941000Y-90261221D02*
X51941000Y-90586779D01*
X52961000Y-90261221D02*
X52961000Y-90586779D01*
%TO.C,R27*%
X66546000Y-126781779D02*
X66546000Y-126456221D01*
X67566000Y-126781779D02*
X67566000Y-126456221D01*
%TO.C,R26*%
X62956221Y-119128000D02*
X63281779Y-119128000D01*
X62956221Y-118108000D02*
X63281779Y-118108000D01*
%TO.C,R25*%
X55026779Y-103503000D02*
X54701221Y-103503000D01*
X55026779Y-104523000D02*
X54701221Y-104523000D01*
%TO.C,R24*%
X67820000Y-87665779D02*
X67820000Y-87340221D01*
X66800000Y-87665779D02*
X66800000Y-87340221D01*
%TO.C,R23*%
X67312000Y-137068779D02*
X67312000Y-136743221D01*
X66292000Y-137068779D02*
X66292000Y-136743221D01*
%TO.C,R22*%
X66583779Y-118108000D02*
X66258221Y-118108000D01*
X66583779Y-119128000D02*
X66258221Y-119128000D01*
%TO.C,R21*%
X53050221Y-106555000D02*
X53375779Y-106555000D01*
X53050221Y-105535000D02*
X53375779Y-105535000D01*
%TO.C,R20*%
X53592000Y-78704221D02*
X53592000Y-79029779D01*
X54612000Y-78704221D02*
X54612000Y-79029779D01*
%TO.C,R19*%
X64551779Y-124966000D02*
X64226221Y-124966000D01*
X64551779Y-125986000D02*
X64226221Y-125986000D01*
%TO.C,R18*%
X53502779Y-108075000D02*
X53177221Y-108075000D01*
X53502779Y-109095000D02*
X53177221Y-109095000D01*
%TO.C,R17*%
X64297779Y-94359000D02*
X63972221Y-94359000D01*
X64297779Y-95379000D02*
X63972221Y-95379000D01*
%TO.C,R16*%
X55336221Y-75948000D02*
X55661779Y-75948000D01*
X55336221Y-74928000D02*
X55661779Y-74928000D01*
%TO.C,R15*%
X64226221Y-122811000D02*
X64551779Y-122811000D01*
X64226221Y-121791000D02*
X64551779Y-121791000D01*
%TO.C,R14*%
X52199000Y-102524779D02*
X52199000Y-102199221D01*
X51179000Y-102524779D02*
X51179000Y-102199221D01*
%TO.C,R13*%
X63756000Y-91094779D02*
X63756000Y-90769221D01*
X62736000Y-91094779D02*
X62736000Y-90769221D01*
%TO.C,R12*%
X66800000Y-74005221D02*
X66800000Y-74330779D01*
X67820000Y-74005221D02*
X67820000Y-74330779D01*
%TO.C,R11*%
X65784000Y-68925221D02*
X65784000Y-69250779D01*
X66804000Y-68925221D02*
X66804000Y-69250779D01*
%TO.C,R10*%
X59942000Y-42001221D02*
X59942000Y-42326779D01*
X60962000Y-42001221D02*
X60962000Y-42326779D01*
%TO.C,R9*%
X60132779Y-54608000D02*
X59807221Y-54608000D01*
X60132779Y-55628000D02*
X59807221Y-55628000D01*
%TO.C,R8*%
X60962000Y-49946779D02*
X60962000Y-49621221D01*
X59942000Y-49946779D02*
X59942000Y-49621221D01*
%TO.C,R7*%
X59438000Y-42326779D02*
X59438000Y-42001221D01*
X58418000Y-42326779D02*
X58418000Y-42001221D01*
%TO.C,R6*%
X53177221Y-64391000D02*
X53502779Y-64391000D01*
X53177221Y-63371000D02*
X53502779Y-63371000D01*
%TO.C,R5*%
X56640000Y-78069221D02*
X56640000Y-78394779D01*
X57660000Y-78069221D02*
X57660000Y-78394779D01*
%TO.C,R4*%
X58384221Y-82933000D02*
X58709779Y-82933000D01*
X58384221Y-81913000D02*
X58709779Y-81913000D01*
%TO.C,R3*%
X51978779Y-52322000D02*
X51653221Y-52322000D01*
X51978779Y-53342000D02*
X51653221Y-53342000D01*
%TO.C,R2*%
X52669221Y-55120000D02*
X52994779Y-55120000D01*
X52669221Y-54100000D02*
X52994779Y-54100000D01*
%TO.C,R1*%
X61724000Y-86649779D02*
X61724000Y-86324221D01*
X60704000Y-86649779D02*
X60704000Y-86324221D01*
%TO.C,JP2*%
X56118000Y-47876000D02*
X56118000Y-50676000D01*
X56118000Y-50676000D02*
X54118000Y-50676000D01*
X54118000Y-50676000D02*
X54118000Y-47876000D01*
X54118000Y-47876000D02*
X56118000Y-47876000D01*
%TO.C,JP1*%
X54372000Y-41928000D02*
X54372000Y-39128000D01*
X54372000Y-39128000D02*
X56372000Y-39128000D01*
X56372000Y-39128000D02*
X56372000Y-41928000D01*
X56372000Y-41928000D02*
X54372000Y-41928000D01*
%TO.C,J4*%
X53908000Y-51368000D02*
X52578000Y-51368000D01*
X53908000Y-50038000D02*
X53908000Y-51368000D01*
X51308000Y-51368000D02*
X48708000Y-51368000D01*
X51308000Y-48768000D02*
X51308000Y-51368000D01*
X53908000Y-48768000D02*
X51308000Y-48768000D01*
X48708000Y-51368000D02*
X48708000Y-38548000D01*
X53908000Y-48768000D02*
X53908000Y-38548000D01*
X53908000Y-38548000D02*
X48708000Y-38548000D01*
%TO.C,J1*%
X67878000Y-58988000D02*
X66548000Y-58988000D01*
X67878000Y-57658000D02*
X67878000Y-58988000D01*
X65278000Y-58988000D02*
X62678000Y-58988000D01*
X65278000Y-56388000D02*
X65278000Y-58988000D01*
X67878000Y-56388000D02*
X65278000Y-56388000D01*
X62678000Y-58988000D02*
X62678000Y-38548000D01*
X67878000Y-56388000D02*
X67878000Y-38548000D01*
X67878000Y-38548000D02*
X62678000Y-38548000D01*
%TO.C,C13*%
X52068000Y-78704221D02*
X52068000Y-79029779D01*
X53088000Y-78704221D02*
X53088000Y-79029779D01*
%TO.C,C12*%
X64551779Y-123442000D02*
X64226221Y-123442000D01*
X64551779Y-124462000D02*
X64226221Y-124462000D01*
%TO.C,C11*%
X53502779Y-109599000D02*
X53177221Y-109599000D01*
X53502779Y-110619000D02*
X53177221Y-110619000D01*
%TO.C,C10*%
X64297779Y-92835000D02*
X63972221Y-92835000D01*
X64297779Y-93855000D02*
X63972221Y-93855000D01*
%TO.C,C9*%
X50040000Y-83347779D02*
X50040000Y-83022221D01*
X49020000Y-83347779D02*
X49020000Y-83022221D01*
%TO.C,C8*%
X67820000Y-131607779D02*
X67820000Y-131282221D01*
X66800000Y-131607779D02*
X66800000Y-131282221D01*
%TO.C,C7*%
X50294000Y-113573779D02*
X50294000Y-113248221D01*
X49274000Y-113573779D02*
X49274000Y-113248221D01*
%TO.C,C6*%
X67820000Y-101889779D02*
X67820000Y-101564221D01*
X66800000Y-101889779D02*
X66800000Y-101564221D01*
%TO.C,C5*%
X66673000Y-77561221D02*
X66673000Y-77886779D01*
X67693000Y-77561221D02*
X67693000Y-77886779D01*
%TO.C,C4*%
X56136000Y-59979779D02*
X56136000Y-59654221D01*
X55116000Y-59979779D02*
X55116000Y-59654221D01*
%TO.C,C3*%
X67058000Y-62773779D02*
X67058000Y-62448221D01*
X66038000Y-62773779D02*
X66038000Y-62448221D01*
%TO.C,C1*%
X58384221Y-84711000D02*
X58709779Y-84711000D01*
X58384221Y-83691000D02*
X58709779Y-83691000D01*
%TO.C,D8*%
D11*
X38600380Y-138533095D02*
X37600380Y-138533095D01*
X37600380Y-138295000D01*
X37648000Y-138152142D01*
X37743238Y-138056904D01*
X37838476Y-138009285D01*
X38028952Y-137961666D01*
X38171809Y-137961666D01*
X38362285Y-138009285D01*
X38457523Y-138056904D01*
X38552761Y-138152142D01*
X38600380Y-138295000D01*
X38600380Y-138533095D01*
X38028952Y-137390238D02*
X37981333Y-137485476D01*
X37933714Y-137533095D01*
X37838476Y-137580714D01*
X37790857Y-137580714D01*
X37695619Y-137533095D01*
X37648000Y-137485476D01*
X37600380Y-137390238D01*
X37600380Y-137199761D01*
X37648000Y-137104523D01*
X37695619Y-137056904D01*
X37790857Y-137009285D01*
X37838476Y-137009285D01*
X37933714Y-137056904D01*
X37981333Y-137104523D01*
X38028952Y-137199761D01*
X38028952Y-137390238D01*
X38076571Y-137485476D01*
X38124190Y-137533095D01*
X38219428Y-137580714D01*
X38409904Y-137580714D01*
X38505142Y-137533095D01*
X38552761Y-137485476D01*
X38600380Y-137390238D01*
X38600380Y-137199761D01*
X38552761Y-137104523D01*
X38505142Y-137056904D01*
X38409904Y-137009285D01*
X38219428Y-137009285D01*
X38124190Y-137056904D01*
X38076571Y-137104523D01*
X38028952Y-137199761D01*
X44076571Y-138626547D02*
X44124190Y-138535833D01*
X44171809Y-138505595D01*
X44267047Y-138475357D01*
X44409904Y-138475357D01*
X44505142Y-138505595D01*
X44552761Y-138535833D01*
X44600380Y-138596309D01*
X44600380Y-138838214D01*
X43600380Y-138838214D01*
X43600380Y-138626547D01*
X43648000Y-138566071D01*
X43695619Y-138535833D01*
X43790857Y-138505595D01*
X43886095Y-138505595D01*
X43981333Y-138535833D01*
X44028952Y-138566071D01*
X44076571Y-138626547D01*
X44076571Y-138838214D01*
X44600380Y-137900833D02*
X44600380Y-138203214D01*
X43600380Y-138203214D01*
X43600380Y-137689166D02*
X44409904Y-137689166D01*
X44505142Y-137658928D01*
X44552761Y-137628690D01*
X44600380Y-137568214D01*
X44600380Y-137447261D01*
X44552761Y-137386785D01*
X44505142Y-137356547D01*
X44409904Y-137326309D01*
X43600380Y-137326309D01*
X44076571Y-137023928D02*
X44076571Y-136812261D01*
X44600380Y-136721547D02*
X44600380Y-137023928D01*
X43600380Y-137023928D01*
X43600380Y-136721547D01*
%TO.C,D7*%
X44600380Y-135993095D02*
X43600380Y-135993095D01*
X43600380Y-135755000D01*
X43648000Y-135612142D01*
X43743238Y-135516904D01*
X43838476Y-135469285D01*
X44028952Y-135421666D01*
X44171809Y-135421666D01*
X44362285Y-135469285D01*
X44457523Y-135516904D01*
X44552761Y-135612142D01*
X44600380Y-135755000D01*
X44600380Y-135993095D01*
X43600380Y-135088333D02*
X43600380Y-134421666D01*
X44600380Y-134850238D01*
X37600380Y-136540119D02*
X38600380Y-136388928D01*
X37886095Y-136267976D01*
X38600380Y-136147023D01*
X37600380Y-135995833D01*
X38600380Y-135753928D02*
X37600380Y-135753928D01*
X38076571Y-135753928D02*
X38076571Y-135391071D01*
X38600380Y-135391071D02*
X37600380Y-135391071D01*
X38600380Y-135088690D02*
X37600380Y-135088690D01*
X37600380Y-134877023D02*
X37600380Y-134514166D01*
X38600380Y-134695595D02*
X37600380Y-134695595D01*
X38076571Y-134302500D02*
X38076571Y-134090833D01*
X38600380Y-134000119D02*
X38600380Y-134302500D01*
X37600380Y-134302500D01*
X37600380Y-134000119D01*
%TO.C,D6*%
X27424380Y-123293095D02*
X26424380Y-123293095D01*
X26424380Y-123055000D01*
X26472000Y-122912142D01*
X26567238Y-122816904D01*
X26662476Y-122769285D01*
X26852952Y-122721666D01*
X26995809Y-122721666D01*
X27186285Y-122769285D01*
X27281523Y-122816904D01*
X27376761Y-122912142D01*
X27424380Y-123055000D01*
X27424380Y-123293095D01*
X26424380Y-121864523D02*
X26424380Y-122055000D01*
X26472000Y-122150238D01*
X26519619Y-122197857D01*
X26662476Y-122293095D01*
X26852952Y-122340714D01*
X27233904Y-122340714D01*
X27329142Y-122293095D01*
X27376761Y-122245476D01*
X27424380Y-122150238D01*
X27424380Y-121959761D01*
X27376761Y-121864523D01*
X27329142Y-121816904D01*
X27233904Y-121769285D01*
X26995809Y-121769285D01*
X26900571Y-121816904D01*
X26852952Y-121864523D01*
X26805333Y-121959761D01*
X26805333Y-122150238D01*
X26852952Y-122245476D01*
X26900571Y-122293095D01*
X26995809Y-122340714D01*
X32900571Y-123386547D02*
X32948190Y-123295833D01*
X32995809Y-123265595D01*
X33091047Y-123235357D01*
X33233904Y-123235357D01*
X33329142Y-123265595D01*
X33376761Y-123295833D01*
X33424380Y-123356309D01*
X33424380Y-123598214D01*
X32424380Y-123598214D01*
X32424380Y-123386547D01*
X32472000Y-123326071D01*
X32519619Y-123295833D01*
X32614857Y-123265595D01*
X32710095Y-123265595D01*
X32805333Y-123295833D01*
X32852952Y-123326071D01*
X32900571Y-123386547D01*
X32900571Y-123598214D01*
X33424380Y-122660833D02*
X33424380Y-122963214D01*
X32424380Y-122963214D01*
X32424380Y-122449166D02*
X33233904Y-122449166D01*
X33329142Y-122418928D01*
X33376761Y-122388690D01*
X33424380Y-122328214D01*
X33424380Y-122207261D01*
X33376761Y-122146785D01*
X33329142Y-122116547D01*
X33233904Y-122086309D01*
X32424380Y-122086309D01*
X32900571Y-121783928D02*
X32900571Y-121572261D01*
X33424380Y-121481547D02*
X33424380Y-121783928D01*
X32424380Y-121783928D01*
X32424380Y-121481547D01*
%TO.C,D5*%
X33424380Y-120753095D02*
X32424380Y-120753095D01*
X32424380Y-120515000D01*
X32472000Y-120372142D01*
X32567238Y-120276904D01*
X32662476Y-120229285D01*
X32852952Y-120181666D01*
X32995809Y-120181666D01*
X33186285Y-120229285D01*
X33281523Y-120276904D01*
X33376761Y-120372142D01*
X33424380Y-120515000D01*
X33424380Y-120753095D01*
X32424380Y-119276904D02*
X32424380Y-119753095D01*
X32900571Y-119800714D01*
X32852952Y-119753095D01*
X32805333Y-119657857D01*
X32805333Y-119419761D01*
X32852952Y-119324523D01*
X32900571Y-119276904D01*
X32995809Y-119229285D01*
X33233904Y-119229285D01*
X33329142Y-119276904D01*
X33376761Y-119324523D01*
X33424380Y-119419761D01*
X33424380Y-119657857D01*
X33376761Y-119753095D01*
X33329142Y-119800714D01*
X26424380Y-121300119D02*
X27424380Y-121148928D01*
X26710095Y-121027976D01*
X27424380Y-120907023D01*
X26424380Y-120755833D01*
X27424380Y-120513928D02*
X26424380Y-120513928D01*
X26900571Y-120513928D02*
X26900571Y-120151071D01*
X27424380Y-120151071D02*
X26424380Y-120151071D01*
X27424380Y-119848690D02*
X26424380Y-119848690D01*
X26424380Y-119637023D02*
X26424380Y-119274166D01*
X27424380Y-119455595D02*
X26424380Y-119455595D01*
X26900571Y-119062500D02*
X26900571Y-118850833D01*
X27424380Y-118760119D02*
X27424380Y-119062500D01*
X26424380Y-119062500D01*
X26424380Y-118760119D01*
%TO.C,D4*%
X38600380Y-108053095D02*
X37600380Y-108053095D01*
X37600380Y-107815000D01*
X37648000Y-107672142D01*
X37743238Y-107576904D01*
X37838476Y-107529285D01*
X38028952Y-107481666D01*
X38171809Y-107481666D01*
X38362285Y-107529285D01*
X38457523Y-107576904D01*
X38552761Y-107672142D01*
X38600380Y-107815000D01*
X38600380Y-108053095D01*
X37933714Y-106624523D02*
X38600380Y-106624523D01*
X37552761Y-106862619D02*
X38267047Y-107100714D01*
X38267047Y-106481666D01*
X44076571Y-108146547D02*
X44124190Y-108055833D01*
X44171809Y-108025595D01*
X44267047Y-107995357D01*
X44409904Y-107995357D01*
X44505142Y-108025595D01*
X44552761Y-108055833D01*
X44600380Y-108116309D01*
X44600380Y-108358214D01*
X43600380Y-108358214D01*
X43600380Y-108146547D01*
X43648000Y-108086071D01*
X43695619Y-108055833D01*
X43790857Y-108025595D01*
X43886095Y-108025595D01*
X43981333Y-108055833D01*
X44028952Y-108086071D01*
X44076571Y-108146547D01*
X44076571Y-108358214D01*
X44600380Y-107420833D02*
X44600380Y-107723214D01*
X43600380Y-107723214D01*
X43600380Y-107209166D02*
X44409904Y-107209166D01*
X44505142Y-107178928D01*
X44552761Y-107148690D01*
X44600380Y-107088214D01*
X44600380Y-106967261D01*
X44552761Y-106906785D01*
X44505142Y-106876547D01*
X44409904Y-106846309D01*
X43600380Y-106846309D01*
X44076571Y-106543928D02*
X44076571Y-106332261D01*
X44600380Y-106241547D02*
X44600380Y-106543928D01*
X43600380Y-106543928D01*
X43600380Y-106241547D01*
%TO.C,D3*%
X44600380Y-105513095D02*
X43600380Y-105513095D01*
X43600380Y-105275000D01*
X43648000Y-105132142D01*
X43743238Y-105036904D01*
X43838476Y-104989285D01*
X44028952Y-104941666D01*
X44171809Y-104941666D01*
X44362285Y-104989285D01*
X44457523Y-105036904D01*
X44552761Y-105132142D01*
X44600380Y-105275000D01*
X44600380Y-105513095D01*
X43600380Y-104608333D02*
X43600380Y-103989285D01*
X43981333Y-104322619D01*
X43981333Y-104179761D01*
X44028952Y-104084523D01*
X44076571Y-104036904D01*
X44171809Y-103989285D01*
X44409904Y-103989285D01*
X44505142Y-104036904D01*
X44552761Y-104084523D01*
X44600380Y-104179761D01*
X44600380Y-104465476D01*
X44552761Y-104560714D01*
X44505142Y-104608333D01*
X37600380Y-106060119D02*
X38600380Y-105908928D01*
X37886095Y-105787976D01*
X38600380Y-105667023D01*
X37600380Y-105515833D01*
X38600380Y-105273928D02*
X37600380Y-105273928D01*
X38076571Y-105273928D02*
X38076571Y-104911071D01*
X38600380Y-104911071D02*
X37600380Y-104911071D01*
X38600380Y-104608690D02*
X37600380Y-104608690D01*
X37600380Y-104397023D02*
X37600380Y-104034166D01*
X38600380Y-104215595D02*
X37600380Y-104215595D01*
X38076571Y-103822500D02*
X38076571Y-103610833D01*
X38600380Y-103520119D02*
X38600380Y-103822500D01*
X37600380Y-103822500D01*
X37600380Y-103520119D01*
%TO.C,D2*%
X27424380Y-92813095D02*
X26424380Y-92813095D01*
X26424380Y-92575000D01*
X26472000Y-92432142D01*
X26567238Y-92336904D01*
X26662476Y-92289285D01*
X26852952Y-92241666D01*
X26995809Y-92241666D01*
X27186285Y-92289285D01*
X27281523Y-92336904D01*
X27376761Y-92432142D01*
X27424380Y-92575000D01*
X27424380Y-92813095D01*
X26519619Y-91860714D02*
X26472000Y-91813095D01*
X26424380Y-91717857D01*
X26424380Y-91479761D01*
X26472000Y-91384523D01*
X26519619Y-91336904D01*
X26614857Y-91289285D01*
X26710095Y-91289285D01*
X26852952Y-91336904D01*
X27424380Y-91908333D01*
X27424380Y-91289285D01*
X32900571Y-92906547D02*
X32948190Y-92815833D01*
X32995809Y-92785595D01*
X33091047Y-92755357D01*
X33233904Y-92755357D01*
X33329142Y-92785595D01*
X33376761Y-92815833D01*
X33424380Y-92876309D01*
X33424380Y-93118214D01*
X32424380Y-93118214D01*
X32424380Y-92906547D01*
X32472000Y-92846071D01*
X32519619Y-92815833D01*
X32614857Y-92785595D01*
X32710095Y-92785595D01*
X32805333Y-92815833D01*
X32852952Y-92846071D01*
X32900571Y-92906547D01*
X32900571Y-93118214D01*
X33424380Y-92180833D02*
X33424380Y-92483214D01*
X32424380Y-92483214D01*
X32424380Y-91969166D02*
X33233904Y-91969166D01*
X33329142Y-91938928D01*
X33376761Y-91908690D01*
X33424380Y-91848214D01*
X33424380Y-91727261D01*
X33376761Y-91666785D01*
X33329142Y-91636547D01*
X33233904Y-91606309D01*
X32424380Y-91606309D01*
X32900571Y-91303928D02*
X32900571Y-91092261D01*
X33424380Y-91001547D02*
X33424380Y-91303928D01*
X32424380Y-91303928D01*
X32424380Y-91001547D01*
X31591047Y-90146428D02*
X32352952Y-90146428D01*
X31972000Y-90527380D02*
X31972000Y-89765476D01*
%TO.C,D1*%
X33424380Y-90273095D02*
X32424380Y-90273095D01*
X32424380Y-90035000D01*
X32472000Y-89892142D01*
X32567238Y-89796904D01*
X32662476Y-89749285D01*
X32852952Y-89701666D01*
X32995809Y-89701666D01*
X33186285Y-89749285D01*
X33281523Y-89796904D01*
X33376761Y-89892142D01*
X33424380Y-90035000D01*
X33424380Y-90273095D01*
X33424380Y-88749285D02*
X33424380Y-89320714D01*
X33424380Y-89035000D02*
X32424380Y-89035000D01*
X32567238Y-89130238D01*
X32662476Y-89225476D01*
X32710095Y-89320714D01*
X26424380Y-90820119D02*
X27424380Y-90668928D01*
X26710095Y-90547976D01*
X27424380Y-90427023D01*
X26424380Y-90275833D01*
X27424380Y-90033928D02*
X26424380Y-90033928D01*
X26900571Y-90033928D02*
X26900571Y-89671071D01*
X27424380Y-89671071D02*
X26424380Y-89671071D01*
X27424380Y-89368690D02*
X26424380Y-89368690D01*
X26424380Y-89157023D02*
X26424380Y-88794166D01*
X27424380Y-88975595D02*
X26424380Y-88975595D01*
X26900571Y-88582500D02*
X26900571Y-88370833D01*
X27424380Y-88280119D02*
X27424380Y-88582500D01*
X26424380Y-88582500D01*
X26424380Y-88280119D01*
X31591047Y-91606428D02*
X32352952Y-91606428D01*
%TO.C,U2*%
X64952380Y-63118904D02*
X65761904Y-63118904D01*
X65857142Y-63071285D01*
X65904761Y-63023666D01*
X65952380Y-62928428D01*
X65952380Y-62737952D01*
X65904761Y-62642714D01*
X65857142Y-62595095D01*
X65761904Y-62547476D01*
X64952380Y-62547476D01*
X65047619Y-62118904D02*
X65000000Y-62071285D01*
X64952380Y-61976047D01*
X64952380Y-61737952D01*
X65000000Y-61642714D01*
X65047619Y-61595095D01*
X65142857Y-61547476D01*
X65238095Y-61547476D01*
X65380952Y-61595095D01*
X65952380Y-62166523D01*
X65952380Y-61547476D01*
%TO.C,J11*%
X46164380Y-113839523D02*
X46878666Y-113839523D01*
X47021523Y-113887142D01*
X47116761Y-113982380D01*
X47164380Y-114125238D01*
X47164380Y-114220476D01*
X47164380Y-112839523D02*
X47164380Y-113410952D01*
X47164380Y-113125238D02*
X46164380Y-113125238D01*
X46307238Y-113220476D01*
X46402476Y-113315714D01*
X46450095Y-113410952D01*
X47164380Y-111887142D02*
X47164380Y-112458571D01*
X47164380Y-112172857D02*
X46164380Y-112172857D01*
X46307238Y-112268095D01*
X46402476Y-112363333D01*
X46450095Y-112458571D01*
%TO.C,R29*%
X59936142Y-65349380D02*
X59602809Y-64873190D01*
X59364714Y-65349380D02*
X59364714Y-64349380D01*
X59745666Y-64349380D01*
X59840904Y-64397000D01*
X59888523Y-64444619D01*
X59936142Y-64539857D01*
X59936142Y-64682714D01*
X59888523Y-64777952D01*
X59840904Y-64825571D01*
X59745666Y-64873190D01*
X59364714Y-64873190D01*
X60317095Y-64444619D02*
X60364714Y-64397000D01*
X60459952Y-64349380D01*
X60698047Y-64349380D01*
X60793285Y-64397000D01*
X60840904Y-64444619D01*
X60888523Y-64539857D01*
X60888523Y-64635095D01*
X60840904Y-64777952D01*
X60269476Y-65349380D01*
X60888523Y-65349380D01*
X61364714Y-65349380D02*
X61555190Y-65349380D01*
X61650428Y-65301761D01*
X61698047Y-65254142D01*
X61793285Y-65111285D01*
X61840904Y-64920809D01*
X61840904Y-64539857D01*
X61793285Y-64444619D01*
X61745666Y-64397000D01*
X61650428Y-64349380D01*
X61459952Y-64349380D01*
X61364714Y-64397000D01*
X61317095Y-64444619D01*
X61269476Y-64539857D01*
X61269476Y-64777952D01*
X61317095Y-64873190D01*
X61364714Y-64920809D01*
X61459952Y-64968428D01*
X61650428Y-64968428D01*
X61745666Y-64920809D01*
X61793285Y-64873190D01*
X61840904Y-64777952D01*
%TO.C,JP3*%
X56824666Y-64962380D02*
X56824666Y-65676666D01*
X56777047Y-65819523D01*
X56681809Y-65914761D01*
X56538952Y-65962380D01*
X56443714Y-65962380D01*
X57300857Y-65962380D02*
X57300857Y-64962380D01*
X57681809Y-64962380D01*
X57777047Y-65010000D01*
X57824666Y-65057619D01*
X57872285Y-65152857D01*
X57872285Y-65295714D01*
X57824666Y-65390952D01*
X57777047Y-65438571D01*
X57681809Y-65486190D01*
X57300857Y-65486190D01*
X58205619Y-64962380D02*
X58824666Y-64962380D01*
X58491333Y-65343333D01*
X58634190Y-65343333D01*
X58729428Y-65390952D01*
X58777047Y-65438571D01*
X58824666Y-65533809D01*
X58824666Y-65771904D01*
X58777047Y-65867142D01*
X58729428Y-65914761D01*
X58634190Y-65962380D01*
X58348476Y-65962380D01*
X58253238Y-65914761D01*
X58205619Y-65867142D01*
%TO.C,U8*%
X55840380Y-82930904D02*
X56649904Y-82930904D01*
X56745142Y-82883285D01*
X56792761Y-82835666D01*
X56840380Y-82740428D01*
X56840380Y-82549952D01*
X56792761Y-82454714D01*
X56745142Y-82407095D01*
X56649904Y-82359476D01*
X55840380Y-82359476D01*
X56268952Y-81740428D02*
X56221333Y-81835666D01*
X56173714Y-81883285D01*
X56078476Y-81930904D01*
X56030857Y-81930904D01*
X55935619Y-81883285D01*
X55888000Y-81835666D01*
X55840380Y-81740428D01*
X55840380Y-81549952D01*
X55888000Y-81454714D01*
X55935619Y-81407095D01*
X56030857Y-81359476D01*
X56078476Y-81359476D01*
X56173714Y-81407095D01*
X56221333Y-81454714D01*
X56268952Y-81549952D01*
X56268952Y-81740428D01*
X56316571Y-81835666D01*
X56364190Y-81883285D01*
X56459428Y-81930904D01*
X56649904Y-81930904D01*
X56745142Y-81883285D01*
X56792761Y-81835666D01*
X56840380Y-81740428D01*
X56840380Y-81549952D01*
X56792761Y-81454714D01*
X56745142Y-81407095D01*
X56649904Y-81359476D01*
X56459428Y-81359476D01*
X56364190Y-81407095D01*
X56316571Y-81454714D01*
X56268952Y-81549952D01*
%TO.C,U7*%
X66548095Y-128357380D02*
X66548095Y-129166904D01*
X66595714Y-129262142D01*
X66643333Y-129309761D01*
X66738571Y-129357380D01*
X66929047Y-129357380D01*
X67024285Y-129309761D01*
X67071904Y-129262142D01*
X67119523Y-129166904D01*
X67119523Y-128357380D01*
X67500476Y-128357380D02*
X68167142Y-128357380D01*
X67738571Y-129357380D01*
%TO.C,U6*%
X56192380Y-113410904D02*
X57001904Y-113410904D01*
X57097142Y-113363285D01*
X57144761Y-113315666D01*
X57192380Y-113220428D01*
X57192380Y-113029952D01*
X57144761Y-112934714D01*
X57097142Y-112887095D01*
X57001904Y-112839476D01*
X56192380Y-112839476D01*
X56192380Y-111934714D02*
X56192380Y-112125190D01*
X56240000Y-112220428D01*
X56287619Y-112268047D01*
X56430476Y-112363285D01*
X56620952Y-112410904D01*
X57001904Y-112410904D01*
X57097142Y-112363285D01*
X57144761Y-112315666D01*
X57192380Y-112220428D01*
X57192380Y-112029952D01*
X57144761Y-111934714D01*
X57097142Y-111887095D01*
X57001904Y-111839476D01*
X56763809Y-111839476D01*
X56668571Y-111887095D01*
X56620952Y-111934714D01*
X56573333Y-112029952D01*
X56573333Y-112220428D01*
X56620952Y-112315666D01*
X56668571Y-112363285D01*
X56763809Y-112410904D01*
%TO.C,U5*%
X66000380Y-98170904D02*
X66809904Y-98170904D01*
X66905142Y-98123285D01*
X66952761Y-98075666D01*
X67000380Y-97980428D01*
X67000380Y-97789952D01*
X66952761Y-97694714D01*
X66905142Y-97647095D01*
X66809904Y-97599476D01*
X66000380Y-97599476D01*
X66000380Y-96647095D02*
X66000380Y-97123285D01*
X66476571Y-97170904D01*
X66428952Y-97123285D01*
X66381333Y-97028047D01*
X66381333Y-96789952D01*
X66428952Y-96694714D01*
X66476571Y-96647095D01*
X66571809Y-96599476D01*
X66809904Y-96599476D01*
X66905142Y-96647095D01*
X66952761Y-96694714D01*
X67000380Y-96789952D01*
X67000380Y-97028047D01*
X66952761Y-97123285D01*
X66905142Y-97170904D01*
%TO.C,U4*%
X61722095Y-73814380D02*
X61722095Y-74623904D01*
X61769714Y-74719142D01*
X61817333Y-74766761D01*
X61912571Y-74814380D01*
X62103047Y-74814380D01*
X62198285Y-74766761D01*
X62245904Y-74719142D01*
X62293523Y-74623904D01*
X62293523Y-73814380D01*
X63198285Y-74147714D02*
X63198285Y-74814380D01*
X62960190Y-73766761D02*
X62722095Y-74481047D01*
X63341142Y-74481047D01*
%TO.C,U3*%
X54824380Y-57403904D02*
X55633904Y-57403904D01*
X55729142Y-57356285D01*
X55776761Y-57308666D01*
X55824380Y-57213428D01*
X55824380Y-57022952D01*
X55776761Y-56927714D01*
X55729142Y-56880095D01*
X55633904Y-56832476D01*
X54824380Y-56832476D01*
X54824380Y-56451523D02*
X54824380Y-55832476D01*
X55205333Y-56165809D01*
X55205333Y-56022952D01*
X55252952Y-55927714D01*
X55300571Y-55880095D01*
X55395809Y-55832476D01*
X55633904Y-55832476D01*
X55729142Y-55880095D01*
X55776761Y-55927714D01*
X55824380Y-56022952D01*
X55824380Y-56308666D01*
X55776761Y-56403904D01*
X55729142Y-56451523D01*
%TO.C,U1*%
X56388095Y-87717380D02*
X56388095Y-88526904D01*
X56435714Y-88622142D01*
X56483333Y-88669761D01*
X56578571Y-88717380D01*
X56769047Y-88717380D01*
X56864285Y-88669761D01*
X56911904Y-88622142D01*
X56959523Y-88526904D01*
X56959523Y-87717380D01*
X57959523Y-88717380D02*
X57388095Y-88717380D01*
X57673809Y-88717380D02*
X57673809Y-87717380D01*
X57578571Y-87860238D01*
X57483333Y-87955476D01*
X57388095Y-88003095D01*
%TO.C,R28*%
X51379380Y-91066857D02*
X50903190Y-91400190D01*
X51379380Y-91638285D02*
X50379380Y-91638285D01*
X50379380Y-91257333D01*
X50427000Y-91162095D01*
X50474619Y-91114476D01*
X50569857Y-91066857D01*
X50712714Y-91066857D01*
X50807952Y-91114476D01*
X50855571Y-91162095D01*
X50903190Y-91257333D01*
X50903190Y-91638285D01*
X50474619Y-90685904D02*
X50427000Y-90638285D01*
X50379380Y-90543047D01*
X50379380Y-90304952D01*
X50427000Y-90209714D01*
X50474619Y-90162095D01*
X50569857Y-90114476D01*
X50665095Y-90114476D01*
X50807952Y-90162095D01*
X51379380Y-90733523D01*
X51379380Y-90114476D01*
X50807952Y-89543047D02*
X50760333Y-89638285D01*
X50712714Y-89685904D01*
X50617476Y-89733523D01*
X50569857Y-89733523D01*
X50474619Y-89685904D01*
X50427000Y-89638285D01*
X50379380Y-89543047D01*
X50379380Y-89352571D01*
X50427000Y-89257333D01*
X50474619Y-89209714D01*
X50569857Y-89162095D01*
X50617476Y-89162095D01*
X50712714Y-89209714D01*
X50760333Y-89257333D01*
X50807952Y-89352571D01*
X50807952Y-89543047D01*
X50855571Y-89638285D01*
X50903190Y-89685904D01*
X50998428Y-89733523D01*
X51188904Y-89733523D01*
X51284142Y-89685904D01*
X51331761Y-89638285D01*
X51379380Y-89543047D01*
X51379380Y-89352571D01*
X51331761Y-89257333D01*
X51284142Y-89209714D01*
X51188904Y-89162095D01*
X50998428Y-89162095D01*
X50903190Y-89209714D01*
X50855571Y-89257333D01*
X50807952Y-89352571D01*
%TO.C,R27*%
X67254380Y-124213857D02*
X66778190Y-124547190D01*
X67254380Y-124785285D02*
X66254380Y-124785285D01*
X66254380Y-124404333D01*
X66302000Y-124309095D01*
X66349619Y-124261476D01*
X66444857Y-124213857D01*
X66587714Y-124213857D01*
X66682952Y-124261476D01*
X66730571Y-124309095D01*
X66778190Y-124404333D01*
X66778190Y-124785285D01*
X66349619Y-123832904D02*
X66302000Y-123785285D01*
X66254380Y-123690047D01*
X66254380Y-123451952D01*
X66302000Y-123356714D01*
X66349619Y-123309095D01*
X66444857Y-123261476D01*
X66540095Y-123261476D01*
X66682952Y-123309095D01*
X67254380Y-123880523D01*
X67254380Y-123261476D01*
X66254380Y-122928142D02*
X66254380Y-122261476D01*
X67254380Y-122690047D01*
%TO.C,R26*%
X62476142Y-117640380D02*
X62142809Y-117164190D01*
X61904714Y-117640380D02*
X61904714Y-116640380D01*
X62285666Y-116640380D01*
X62380904Y-116688000D01*
X62428523Y-116735619D01*
X62476142Y-116830857D01*
X62476142Y-116973714D01*
X62428523Y-117068952D01*
X62380904Y-117116571D01*
X62285666Y-117164190D01*
X61904714Y-117164190D01*
X62857095Y-116735619D02*
X62904714Y-116688000D01*
X62999952Y-116640380D01*
X63238047Y-116640380D01*
X63333285Y-116688000D01*
X63380904Y-116735619D01*
X63428523Y-116830857D01*
X63428523Y-116926095D01*
X63380904Y-117068952D01*
X62809476Y-117640380D01*
X63428523Y-117640380D01*
X64285666Y-116640380D02*
X64095190Y-116640380D01*
X63999952Y-116688000D01*
X63952333Y-116735619D01*
X63857095Y-116878476D01*
X63809476Y-117068952D01*
X63809476Y-117449904D01*
X63857095Y-117545142D01*
X63904714Y-117592761D01*
X63999952Y-117640380D01*
X64190428Y-117640380D01*
X64285666Y-117592761D01*
X64333285Y-117545142D01*
X64380904Y-117449904D01*
X64380904Y-117211809D01*
X64333285Y-117116571D01*
X64285666Y-117068952D01*
X64190428Y-117021333D01*
X63999952Y-117021333D01*
X63904714Y-117068952D01*
X63857095Y-117116571D01*
X63809476Y-117211809D01*
%TO.C,R25*%
X54475142Y-103068380D02*
X54141809Y-102592190D01*
X53903714Y-103068380D02*
X53903714Y-102068380D01*
X54284666Y-102068380D01*
X54379904Y-102116000D01*
X54427523Y-102163619D01*
X54475142Y-102258857D01*
X54475142Y-102401714D01*
X54427523Y-102496952D01*
X54379904Y-102544571D01*
X54284666Y-102592190D01*
X53903714Y-102592190D01*
X54856095Y-102163619D02*
X54903714Y-102116000D01*
X54998952Y-102068380D01*
X55237047Y-102068380D01*
X55332285Y-102116000D01*
X55379904Y-102163619D01*
X55427523Y-102258857D01*
X55427523Y-102354095D01*
X55379904Y-102496952D01*
X54808476Y-103068380D01*
X55427523Y-103068380D01*
X56332285Y-102068380D02*
X55856095Y-102068380D01*
X55808476Y-102544571D01*
X55856095Y-102496952D01*
X55951333Y-102449333D01*
X56189428Y-102449333D01*
X56284666Y-102496952D01*
X56332285Y-102544571D01*
X56379904Y-102639809D01*
X56379904Y-102877904D01*
X56332285Y-102973142D01*
X56284666Y-103020761D01*
X56189428Y-103068380D01*
X55951333Y-103068380D01*
X55856095Y-103020761D01*
X55808476Y-102973142D01*
%TO.C,R24*%
X66332380Y-88145857D02*
X65856190Y-88479190D01*
X66332380Y-88717285D02*
X65332380Y-88717285D01*
X65332380Y-88336333D01*
X65380000Y-88241095D01*
X65427619Y-88193476D01*
X65522857Y-88145857D01*
X65665714Y-88145857D01*
X65760952Y-88193476D01*
X65808571Y-88241095D01*
X65856190Y-88336333D01*
X65856190Y-88717285D01*
X65427619Y-87764904D02*
X65380000Y-87717285D01*
X65332380Y-87622047D01*
X65332380Y-87383952D01*
X65380000Y-87288714D01*
X65427619Y-87241095D01*
X65522857Y-87193476D01*
X65618095Y-87193476D01*
X65760952Y-87241095D01*
X66332380Y-87812523D01*
X66332380Y-87193476D01*
X65665714Y-86336333D02*
X66332380Y-86336333D01*
X65284761Y-86574428D02*
X65999047Y-86812523D01*
X65999047Y-86193476D01*
%TO.C,R23*%
X67762380Y-140342857D02*
X67286190Y-140676190D01*
X67762380Y-140914285D02*
X66762380Y-140914285D01*
X66762380Y-140533333D01*
X66810000Y-140438095D01*
X66857619Y-140390476D01*
X66952857Y-140342857D01*
X67095714Y-140342857D01*
X67190952Y-140390476D01*
X67238571Y-140438095D01*
X67286190Y-140533333D01*
X67286190Y-140914285D01*
X66857619Y-139961904D02*
X66810000Y-139914285D01*
X66762380Y-139819047D01*
X66762380Y-139580952D01*
X66810000Y-139485714D01*
X66857619Y-139438095D01*
X66952857Y-139390476D01*
X67048095Y-139390476D01*
X67190952Y-139438095D01*
X67762380Y-140009523D01*
X67762380Y-139390476D01*
X66762380Y-139057142D02*
X66762380Y-138438095D01*
X67143333Y-138771428D01*
X67143333Y-138628571D01*
X67190952Y-138533333D01*
X67238571Y-138485714D01*
X67333809Y-138438095D01*
X67571904Y-138438095D01*
X67667142Y-138485714D01*
X67714761Y-138533333D01*
X67762380Y-138628571D01*
X67762380Y-138914285D01*
X67714761Y-139009523D01*
X67667142Y-139057142D01*
%TO.C,R22*%
X65778142Y-117546380D02*
X65444809Y-117070190D01*
X65206714Y-117546380D02*
X65206714Y-116546380D01*
X65587666Y-116546380D01*
X65682904Y-116594000D01*
X65730523Y-116641619D01*
X65778142Y-116736857D01*
X65778142Y-116879714D01*
X65730523Y-116974952D01*
X65682904Y-117022571D01*
X65587666Y-117070190D01*
X65206714Y-117070190D01*
X66159095Y-116641619D02*
X66206714Y-116594000D01*
X66301952Y-116546380D01*
X66540047Y-116546380D01*
X66635285Y-116594000D01*
X66682904Y-116641619D01*
X66730523Y-116736857D01*
X66730523Y-116832095D01*
X66682904Y-116974952D01*
X66111476Y-117546380D01*
X66730523Y-117546380D01*
X67111476Y-116641619D02*
X67159095Y-116594000D01*
X67254333Y-116546380D01*
X67492428Y-116546380D01*
X67587666Y-116594000D01*
X67635285Y-116641619D01*
X67682904Y-116736857D01*
X67682904Y-116832095D01*
X67635285Y-116974952D01*
X67063857Y-117546380D01*
X67682904Y-117546380D01*
%TO.C,R21*%
X55951380Y-106941857D02*
X55475190Y-107275190D01*
X55951380Y-107513285D02*
X54951380Y-107513285D01*
X54951380Y-107132333D01*
X54999000Y-107037095D01*
X55046619Y-106989476D01*
X55141857Y-106941857D01*
X55284714Y-106941857D01*
X55379952Y-106989476D01*
X55427571Y-107037095D01*
X55475190Y-107132333D01*
X55475190Y-107513285D01*
X55046619Y-106560904D02*
X54999000Y-106513285D01*
X54951380Y-106418047D01*
X54951380Y-106179952D01*
X54999000Y-106084714D01*
X55046619Y-106037095D01*
X55141857Y-105989476D01*
X55237095Y-105989476D01*
X55379952Y-106037095D01*
X55951380Y-106608523D01*
X55951380Y-105989476D01*
X55951380Y-105037095D02*
X55951380Y-105608523D01*
X55951380Y-105322809D02*
X54951380Y-105322809D01*
X55094238Y-105418047D01*
X55189476Y-105513285D01*
X55237095Y-105608523D01*
%TO.C,R20*%
X55984380Y-79509857D02*
X55508190Y-79843190D01*
X55984380Y-80081285D02*
X54984380Y-80081285D01*
X54984380Y-79700333D01*
X55032000Y-79605095D01*
X55079619Y-79557476D01*
X55174857Y-79509857D01*
X55317714Y-79509857D01*
X55412952Y-79557476D01*
X55460571Y-79605095D01*
X55508190Y-79700333D01*
X55508190Y-80081285D01*
X55079619Y-79128904D02*
X55032000Y-79081285D01*
X54984380Y-78986047D01*
X54984380Y-78747952D01*
X55032000Y-78652714D01*
X55079619Y-78605095D01*
X55174857Y-78557476D01*
X55270095Y-78557476D01*
X55412952Y-78605095D01*
X55984380Y-79176523D01*
X55984380Y-78557476D01*
X54984380Y-77938428D02*
X54984380Y-77843190D01*
X55032000Y-77747952D01*
X55079619Y-77700333D01*
X55174857Y-77652714D01*
X55365333Y-77605095D01*
X55603428Y-77605095D01*
X55793904Y-77652714D01*
X55889142Y-77700333D01*
X55936761Y-77747952D01*
X55984380Y-77843190D01*
X55984380Y-77938428D01*
X55936761Y-78033666D01*
X55889142Y-78081285D01*
X55793904Y-78128904D01*
X55603428Y-78176523D01*
X55365333Y-78176523D01*
X55174857Y-78128904D01*
X55079619Y-78081285D01*
X55032000Y-78033666D01*
X54984380Y-77938428D01*
%TO.C,R19*%
X60698142Y-125928380D02*
X60364809Y-125452190D01*
X60126714Y-125928380D02*
X60126714Y-124928380D01*
X60507666Y-124928380D01*
X60602904Y-124976000D01*
X60650523Y-125023619D01*
X60698142Y-125118857D01*
X60698142Y-125261714D01*
X60650523Y-125356952D01*
X60602904Y-125404571D01*
X60507666Y-125452190D01*
X60126714Y-125452190D01*
X61650523Y-125928380D02*
X61079095Y-125928380D01*
X61364809Y-125928380D02*
X61364809Y-124928380D01*
X61269571Y-125071238D01*
X61174333Y-125166476D01*
X61079095Y-125214095D01*
X62126714Y-125928380D02*
X62317190Y-125928380D01*
X62412428Y-125880761D01*
X62460047Y-125833142D01*
X62555285Y-125690285D01*
X62602904Y-125499809D01*
X62602904Y-125118857D01*
X62555285Y-125023619D01*
X62507666Y-124976000D01*
X62412428Y-124928380D01*
X62221952Y-124928380D01*
X62126714Y-124976000D01*
X62079095Y-125023619D01*
X62031476Y-125118857D01*
X62031476Y-125356952D01*
X62079095Y-125452190D01*
X62126714Y-125499809D01*
X62221952Y-125547428D01*
X62412428Y-125547428D01*
X62507666Y-125499809D01*
X62555285Y-125452190D01*
X62602904Y-125356952D01*
%TO.C,R18*%
X49522142Y-109037380D02*
X49188809Y-108561190D01*
X48950714Y-109037380D02*
X48950714Y-108037380D01*
X49331666Y-108037380D01*
X49426904Y-108085000D01*
X49474523Y-108132619D01*
X49522142Y-108227857D01*
X49522142Y-108370714D01*
X49474523Y-108465952D01*
X49426904Y-108513571D01*
X49331666Y-108561190D01*
X48950714Y-108561190D01*
X50474523Y-109037380D02*
X49903095Y-109037380D01*
X50188809Y-109037380D02*
X50188809Y-108037380D01*
X50093571Y-108180238D01*
X49998333Y-108275476D01*
X49903095Y-108323095D01*
X51045952Y-108465952D02*
X50950714Y-108418333D01*
X50903095Y-108370714D01*
X50855476Y-108275476D01*
X50855476Y-108227857D01*
X50903095Y-108132619D01*
X50950714Y-108085000D01*
X51045952Y-108037380D01*
X51236428Y-108037380D01*
X51331666Y-108085000D01*
X51379285Y-108132619D01*
X51426904Y-108227857D01*
X51426904Y-108275476D01*
X51379285Y-108370714D01*
X51331666Y-108418333D01*
X51236428Y-108465952D01*
X51045952Y-108465952D01*
X50950714Y-108513571D01*
X50903095Y-108561190D01*
X50855476Y-108656428D01*
X50855476Y-108846904D01*
X50903095Y-108942142D01*
X50950714Y-108989761D01*
X51045952Y-109037380D01*
X51236428Y-109037380D01*
X51331666Y-108989761D01*
X51379285Y-108942142D01*
X51426904Y-108846904D01*
X51426904Y-108656428D01*
X51379285Y-108561190D01*
X51331666Y-108513571D01*
X51236428Y-108465952D01*
%TO.C,R17*%
X60444142Y-95321380D02*
X60110809Y-94845190D01*
X59872714Y-95321380D02*
X59872714Y-94321380D01*
X60253666Y-94321380D01*
X60348904Y-94369000D01*
X60396523Y-94416619D01*
X60444142Y-94511857D01*
X60444142Y-94654714D01*
X60396523Y-94749952D01*
X60348904Y-94797571D01*
X60253666Y-94845190D01*
X59872714Y-94845190D01*
X61396523Y-95321380D02*
X60825095Y-95321380D01*
X61110809Y-95321380D02*
X61110809Y-94321380D01*
X61015571Y-94464238D01*
X60920333Y-94559476D01*
X60825095Y-94607095D01*
X61729857Y-94321380D02*
X62396523Y-94321380D01*
X61967952Y-95321380D01*
%TO.C,R16*%
X57904142Y-75890380D02*
X57570809Y-75414190D01*
X57332714Y-75890380D02*
X57332714Y-74890380D01*
X57713666Y-74890380D01*
X57808904Y-74938000D01*
X57856523Y-74985619D01*
X57904142Y-75080857D01*
X57904142Y-75223714D01*
X57856523Y-75318952D01*
X57808904Y-75366571D01*
X57713666Y-75414190D01*
X57332714Y-75414190D01*
X58856523Y-75890380D02*
X58285095Y-75890380D01*
X58570809Y-75890380D02*
X58570809Y-74890380D01*
X58475571Y-75033238D01*
X58380333Y-75128476D01*
X58285095Y-75176095D01*
X59713666Y-74890380D02*
X59523190Y-74890380D01*
X59427952Y-74938000D01*
X59380333Y-74985619D01*
X59285095Y-75128476D01*
X59237476Y-75318952D01*
X59237476Y-75699904D01*
X59285095Y-75795142D01*
X59332714Y-75842761D01*
X59427952Y-75890380D01*
X59618428Y-75890380D01*
X59713666Y-75842761D01*
X59761285Y-75795142D01*
X59808904Y-75699904D01*
X59808904Y-75461809D01*
X59761285Y-75366571D01*
X59713666Y-75318952D01*
X59618428Y-75271333D01*
X59427952Y-75271333D01*
X59332714Y-75318952D01*
X59285095Y-75366571D01*
X59237476Y-75461809D01*
%TO.C,R15*%
X60825142Y-122753380D02*
X60491809Y-122277190D01*
X60253714Y-122753380D02*
X60253714Y-121753380D01*
X60634666Y-121753380D01*
X60729904Y-121801000D01*
X60777523Y-121848619D01*
X60825142Y-121943857D01*
X60825142Y-122086714D01*
X60777523Y-122181952D01*
X60729904Y-122229571D01*
X60634666Y-122277190D01*
X60253714Y-122277190D01*
X61777523Y-122753380D02*
X61206095Y-122753380D01*
X61491809Y-122753380D02*
X61491809Y-121753380D01*
X61396571Y-121896238D01*
X61301333Y-121991476D01*
X61206095Y-122039095D01*
X62682285Y-121753380D02*
X62206095Y-121753380D01*
X62158476Y-122229571D01*
X62206095Y-122181952D01*
X62301333Y-122134333D01*
X62539428Y-122134333D01*
X62634666Y-122181952D01*
X62682285Y-122229571D01*
X62729904Y-122324809D01*
X62729904Y-122562904D01*
X62682285Y-122658142D01*
X62634666Y-122705761D01*
X62539428Y-122753380D01*
X62301333Y-122753380D01*
X62206095Y-122705761D01*
X62158476Y-122658142D01*
%TO.C,R14*%
X50617380Y-102877857D02*
X50141190Y-103211190D01*
X50617380Y-103449285D02*
X49617380Y-103449285D01*
X49617380Y-103068333D01*
X49665000Y-102973095D01*
X49712619Y-102925476D01*
X49807857Y-102877857D01*
X49950714Y-102877857D01*
X50045952Y-102925476D01*
X50093571Y-102973095D01*
X50141190Y-103068333D01*
X50141190Y-103449285D01*
X50617380Y-101925476D02*
X50617380Y-102496904D01*
X50617380Y-102211190D02*
X49617380Y-102211190D01*
X49760238Y-102306428D01*
X49855476Y-102401666D01*
X49903095Y-102496904D01*
X49950714Y-101068333D02*
X50617380Y-101068333D01*
X49569761Y-101306428D02*
X50284047Y-101544523D01*
X50284047Y-100925476D01*
%TO.C,R13*%
X63698380Y-88526857D02*
X63222190Y-88860190D01*
X63698380Y-89098285D02*
X62698380Y-89098285D01*
X62698380Y-88717333D01*
X62746000Y-88622095D01*
X62793619Y-88574476D01*
X62888857Y-88526857D01*
X63031714Y-88526857D01*
X63126952Y-88574476D01*
X63174571Y-88622095D01*
X63222190Y-88717333D01*
X63222190Y-89098285D01*
X63698380Y-87574476D02*
X63698380Y-88145904D01*
X63698380Y-87860190D02*
X62698380Y-87860190D01*
X62841238Y-87955428D01*
X62936476Y-88050666D01*
X62984095Y-88145904D01*
X62698380Y-87241142D02*
X62698380Y-86622095D01*
X63079333Y-86955428D01*
X63079333Y-86812571D01*
X63126952Y-86717333D01*
X63174571Y-86669714D01*
X63269809Y-86622095D01*
X63507904Y-86622095D01*
X63603142Y-86669714D01*
X63650761Y-86717333D01*
X63698380Y-86812571D01*
X63698380Y-87098285D01*
X63650761Y-87193523D01*
X63603142Y-87241142D01*
%TO.C,R12*%
X66492380Y-75318857D02*
X66016190Y-75652190D01*
X66492380Y-75890285D02*
X65492380Y-75890285D01*
X65492380Y-75509333D01*
X65540000Y-75414095D01*
X65587619Y-75366476D01*
X65682857Y-75318857D01*
X65825714Y-75318857D01*
X65920952Y-75366476D01*
X65968571Y-75414095D01*
X66016190Y-75509333D01*
X66016190Y-75890285D01*
X66492380Y-74366476D02*
X66492380Y-74937904D01*
X66492380Y-74652190D02*
X65492380Y-74652190D01*
X65635238Y-74747428D01*
X65730476Y-74842666D01*
X65778095Y-74937904D01*
X65587619Y-73985523D02*
X65540000Y-73937904D01*
X65492380Y-73842666D01*
X65492380Y-73604571D01*
X65540000Y-73509333D01*
X65587619Y-73461714D01*
X65682857Y-73414095D01*
X65778095Y-73414095D01*
X65920952Y-73461714D01*
X66492380Y-74033142D01*
X66492380Y-73414095D01*
%TO.C,R11*%
X68176380Y-69730857D02*
X67700190Y-70064190D01*
X68176380Y-70302285D02*
X67176380Y-70302285D01*
X67176380Y-69921333D01*
X67224000Y-69826095D01*
X67271619Y-69778476D01*
X67366857Y-69730857D01*
X67509714Y-69730857D01*
X67604952Y-69778476D01*
X67652571Y-69826095D01*
X67700190Y-69921333D01*
X67700190Y-70302285D01*
X68176380Y-68778476D02*
X68176380Y-69349904D01*
X68176380Y-69064190D02*
X67176380Y-69064190D01*
X67319238Y-69159428D01*
X67414476Y-69254666D01*
X67462095Y-69349904D01*
X68176380Y-67826095D02*
X68176380Y-68397523D01*
X68176380Y-68111809D02*
X67176380Y-68111809D01*
X67319238Y-68207047D01*
X67414476Y-68302285D01*
X67462095Y-68397523D01*
%TO.C,R10*%
X60904380Y-45600857D02*
X60428190Y-45934190D01*
X60904380Y-46172285D02*
X59904380Y-46172285D01*
X59904380Y-45791333D01*
X59952000Y-45696095D01*
X59999619Y-45648476D01*
X60094857Y-45600857D01*
X60237714Y-45600857D01*
X60332952Y-45648476D01*
X60380571Y-45696095D01*
X60428190Y-45791333D01*
X60428190Y-46172285D01*
X60904380Y-44648476D02*
X60904380Y-45219904D01*
X60904380Y-44934190D02*
X59904380Y-44934190D01*
X60047238Y-45029428D01*
X60142476Y-45124666D01*
X60190095Y-45219904D01*
X59904380Y-44029428D02*
X59904380Y-43934190D01*
X59952000Y-43838952D01*
X59999619Y-43791333D01*
X60094857Y-43743714D01*
X60285333Y-43696095D01*
X60523428Y-43696095D01*
X60713904Y-43743714D01*
X60809142Y-43791333D01*
X60856761Y-43838952D01*
X60904380Y-43934190D01*
X60904380Y-44029428D01*
X60856761Y-44124666D01*
X60809142Y-44172285D01*
X60713904Y-44219904D01*
X60523428Y-44267523D01*
X60285333Y-44267523D01*
X60094857Y-44219904D01*
X59999619Y-44172285D01*
X59952000Y-44124666D01*
X59904380Y-44029428D01*
%TO.C,R9*%
X59803333Y-57000380D02*
X59470000Y-56524190D01*
X59231904Y-57000380D02*
X59231904Y-56000380D01*
X59612857Y-56000380D01*
X59708095Y-56048000D01*
X59755714Y-56095619D01*
X59803333Y-56190857D01*
X59803333Y-56333714D01*
X59755714Y-56428952D01*
X59708095Y-56476571D01*
X59612857Y-56524190D01*
X59231904Y-56524190D01*
X60279523Y-57000380D02*
X60470000Y-57000380D01*
X60565238Y-56952761D01*
X60612857Y-56905142D01*
X60708095Y-56762285D01*
X60755714Y-56571809D01*
X60755714Y-56190857D01*
X60708095Y-56095619D01*
X60660476Y-56048000D01*
X60565238Y-56000380D01*
X60374761Y-56000380D01*
X60279523Y-56048000D01*
X60231904Y-56095619D01*
X60184285Y-56190857D01*
X60184285Y-56428952D01*
X60231904Y-56524190D01*
X60279523Y-56571809D01*
X60374761Y-56619428D01*
X60565238Y-56619428D01*
X60660476Y-56571809D01*
X60708095Y-56524190D01*
X60755714Y-56428952D01*
%TO.C,R8*%
X60904380Y-52236666D02*
X60428190Y-52570000D01*
X60904380Y-52808095D02*
X59904380Y-52808095D01*
X59904380Y-52427142D01*
X59952000Y-52331904D01*
X59999619Y-52284285D01*
X60094857Y-52236666D01*
X60237714Y-52236666D01*
X60332952Y-52284285D01*
X60380571Y-52331904D01*
X60428190Y-52427142D01*
X60428190Y-52808095D01*
X60332952Y-51665238D02*
X60285333Y-51760476D01*
X60237714Y-51808095D01*
X60142476Y-51855714D01*
X60094857Y-51855714D01*
X59999619Y-51808095D01*
X59952000Y-51760476D01*
X59904380Y-51665238D01*
X59904380Y-51474761D01*
X59952000Y-51379523D01*
X59999619Y-51331904D01*
X60094857Y-51284285D01*
X60142476Y-51284285D01*
X60237714Y-51331904D01*
X60285333Y-51379523D01*
X60332952Y-51474761D01*
X60332952Y-51665238D01*
X60380571Y-51760476D01*
X60428190Y-51808095D01*
X60523428Y-51855714D01*
X60713904Y-51855714D01*
X60809142Y-51808095D01*
X60856761Y-51760476D01*
X60904380Y-51665238D01*
X60904380Y-51474761D01*
X60856761Y-51379523D01*
X60809142Y-51331904D01*
X60713904Y-51284285D01*
X60523428Y-51284285D01*
X60428190Y-51331904D01*
X60380571Y-51379523D01*
X60332952Y-51474761D01*
%TO.C,R7*%
X59380380Y-44870666D02*
X58904190Y-45204000D01*
X59380380Y-45442095D02*
X58380380Y-45442095D01*
X58380380Y-45061142D01*
X58428000Y-44965904D01*
X58475619Y-44918285D01*
X58570857Y-44870666D01*
X58713714Y-44870666D01*
X58808952Y-44918285D01*
X58856571Y-44965904D01*
X58904190Y-45061142D01*
X58904190Y-45442095D01*
X58380380Y-44537333D02*
X58380380Y-43870666D01*
X59380380Y-44299238D01*
%TO.C,R6*%
X53427333Y-65730380D02*
X53094000Y-65254190D01*
X52855904Y-65730380D02*
X52855904Y-64730380D01*
X53236857Y-64730380D01*
X53332095Y-64778000D01*
X53379714Y-64825619D01*
X53427333Y-64920857D01*
X53427333Y-65063714D01*
X53379714Y-65158952D01*
X53332095Y-65206571D01*
X53236857Y-65254190D01*
X52855904Y-65254190D01*
X54284476Y-64730380D02*
X54094000Y-64730380D01*
X53998761Y-64778000D01*
X53951142Y-64825619D01*
X53855904Y-64968476D01*
X53808285Y-65158952D01*
X53808285Y-65539904D01*
X53855904Y-65635142D01*
X53903523Y-65682761D01*
X53998761Y-65730380D01*
X54189238Y-65730380D01*
X54284476Y-65682761D01*
X54332095Y-65635142D01*
X54379714Y-65539904D01*
X54379714Y-65301809D01*
X54332095Y-65206571D01*
X54284476Y-65158952D01*
X54189238Y-65111333D01*
X53998761Y-65111333D01*
X53903523Y-65158952D01*
X53855904Y-65206571D01*
X53808285Y-65301809D01*
%TO.C,R5*%
X59032380Y-78398666D02*
X58556190Y-78732000D01*
X59032380Y-78970095D02*
X58032380Y-78970095D01*
X58032380Y-78589142D01*
X58080000Y-78493904D01*
X58127619Y-78446285D01*
X58222857Y-78398666D01*
X58365714Y-78398666D01*
X58460952Y-78446285D01*
X58508571Y-78493904D01*
X58556190Y-78589142D01*
X58556190Y-78970095D01*
X58032380Y-77493904D02*
X58032380Y-77970095D01*
X58508571Y-78017714D01*
X58460952Y-77970095D01*
X58413333Y-77874857D01*
X58413333Y-77636761D01*
X58460952Y-77541523D01*
X58508571Y-77493904D01*
X58603809Y-77446285D01*
X58841904Y-77446285D01*
X58937142Y-77493904D01*
X58984761Y-77541523D01*
X59032380Y-77636761D01*
X59032380Y-77874857D01*
X58984761Y-77970095D01*
X58937142Y-78017714D01*
%TO.C,R4*%
X60793333Y-82875380D02*
X60460000Y-82399190D01*
X60221904Y-82875380D02*
X60221904Y-81875380D01*
X60602857Y-81875380D01*
X60698095Y-81923000D01*
X60745714Y-81970619D01*
X60793333Y-82065857D01*
X60793333Y-82208714D01*
X60745714Y-82303952D01*
X60698095Y-82351571D01*
X60602857Y-82399190D01*
X60221904Y-82399190D01*
X61650476Y-82208714D02*
X61650476Y-82875380D01*
X61412380Y-81827761D02*
X61174285Y-82542047D01*
X61793333Y-82542047D01*
%TO.C,R3*%
X54951333Y-55316380D02*
X54618000Y-54840190D01*
X54379904Y-55316380D02*
X54379904Y-54316380D01*
X54760857Y-54316380D01*
X54856095Y-54364000D01*
X54903714Y-54411619D01*
X54951333Y-54506857D01*
X54951333Y-54649714D01*
X54903714Y-54744952D01*
X54856095Y-54792571D01*
X54760857Y-54840190D01*
X54379904Y-54840190D01*
X55284666Y-54316380D02*
X55903714Y-54316380D01*
X55570380Y-54697333D01*
X55713238Y-54697333D01*
X55808476Y-54744952D01*
X55856095Y-54792571D01*
X55903714Y-54887809D01*
X55903714Y-55125904D01*
X55856095Y-55221142D01*
X55808476Y-55268761D01*
X55713238Y-55316380D01*
X55427523Y-55316380D01*
X55332285Y-55268761D01*
X55284666Y-55221142D01*
%TO.C,R2*%
X54189333Y-53284380D02*
X53856000Y-52808190D01*
X53617904Y-53284380D02*
X53617904Y-52284380D01*
X53998857Y-52284380D01*
X54094095Y-52332000D01*
X54141714Y-52379619D01*
X54189333Y-52474857D01*
X54189333Y-52617714D01*
X54141714Y-52712952D01*
X54094095Y-52760571D01*
X53998857Y-52808190D01*
X53617904Y-52808190D01*
X54570285Y-52379619D02*
X54617904Y-52332000D01*
X54713142Y-52284380D01*
X54951238Y-52284380D01*
X55046476Y-52332000D01*
X55094095Y-52379619D01*
X55141714Y-52474857D01*
X55141714Y-52570095D01*
X55094095Y-52712952D01*
X54522666Y-53284380D01*
X55141714Y-53284380D01*
%TO.C,R1*%
X61666380Y-88939666D02*
X61190190Y-89273000D01*
X61666380Y-89511095D02*
X60666380Y-89511095D01*
X60666380Y-89130142D01*
X60714000Y-89034904D01*
X60761619Y-88987285D01*
X60856857Y-88939666D01*
X60999714Y-88939666D01*
X61094952Y-88987285D01*
X61142571Y-89034904D01*
X61190190Y-89130142D01*
X61190190Y-89511095D01*
X61666380Y-87987285D02*
X61666380Y-88558714D01*
X61666380Y-88273000D02*
X60666380Y-88273000D01*
X60809238Y-88368238D01*
X60904476Y-88463476D01*
X60952095Y-88558714D01*
%TO.C,JP2*%
X54284666Y-46696380D02*
X54284666Y-47410666D01*
X54237047Y-47553523D01*
X54141809Y-47648761D01*
X53998952Y-47696380D01*
X53903714Y-47696380D01*
X54760857Y-47696380D02*
X54760857Y-46696380D01*
X55141809Y-46696380D01*
X55237047Y-46744000D01*
X55284666Y-46791619D01*
X55332285Y-46886857D01*
X55332285Y-47029714D01*
X55284666Y-47124952D01*
X55237047Y-47172571D01*
X55141809Y-47220190D01*
X54760857Y-47220190D01*
X55713238Y-46791619D02*
X55760857Y-46744000D01*
X55856095Y-46696380D01*
X56094190Y-46696380D01*
X56189428Y-46744000D01*
X56237047Y-46791619D01*
X56284666Y-46886857D01*
X56284666Y-46982095D01*
X56237047Y-47124952D01*
X55665619Y-47696380D01*
X56284666Y-47696380D01*
%TO.C,JP1*%
X54538666Y-42124380D02*
X54538666Y-42838666D01*
X54491047Y-42981523D01*
X54395809Y-43076761D01*
X54252952Y-43124380D01*
X54157714Y-43124380D01*
X55014857Y-43124380D02*
X55014857Y-42124380D01*
X55395809Y-42124380D01*
X55491047Y-42172000D01*
X55538666Y-42219619D01*
X55586285Y-42314857D01*
X55586285Y-42457714D01*
X55538666Y-42552952D01*
X55491047Y-42600571D01*
X55395809Y-42648190D01*
X55014857Y-42648190D01*
X56538666Y-43124380D02*
X55967238Y-43124380D01*
X56252952Y-43124380D02*
X56252952Y-42124380D01*
X56157714Y-42267238D01*
X56062476Y-42362476D01*
X55967238Y-42410095D01*
%TO.C,C13*%
X51665142Y-79509857D02*
X51712761Y-79557476D01*
X51760380Y-79700333D01*
X51760380Y-79795571D01*
X51712761Y-79938428D01*
X51617523Y-80033666D01*
X51522285Y-80081285D01*
X51331809Y-80128904D01*
X51188952Y-80128904D01*
X50998476Y-80081285D01*
X50903238Y-80033666D01*
X50808000Y-79938428D01*
X50760380Y-79795571D01*
X50760380Y-79700333D01*
X50808000Y-79557476D01*
X50855619Y-79509857D01*
X51760380Y-78557476D02*
X51760380Y-79128904D01*
X51760380Y-78843190D02*
X50760380Y-78843190D01*
X50903238Y-78938428D01*
X50998476Y-79033666D01*
X51046095Y-79128904D01*
X50760380Y-78224142D02*
X50760380Y-77605095D01*
X51141333Y-77938428D01*
X51141333Y-77795571D01*
X51188952Y-77700333D01*
X51236571Y-77652714D01*
X51331809Y-77605095D01*
X51569904Y-77605095D01*
X51665142Y-77652714D01*
X51712761Y-77700333D01*
X51760380Y-77795571D01*
X51760380Y-78081285D01*
X51712761Y-78176523D01*
X51665142Y-78224142D01*
%TO.C,C12*%
X60825142Y-124309142D02*
X60777523Y-124356761D01*
X60634666Y-124404380D01*
X60539428Y-124404380D01*
X60396571Y-124356761D01*
X60301333Y-124261523D01*
X60253714Y-124166285D01*
X60206095Y-123975809D01*
X60206095Y-123832952D01*
X60253714Y-123642476D01*
X60301333Y-123547238D01*
X60396571Y-123452000D01*
X60539428Y-123404380D01*
X60634666Y-123404380D01*
X60777523Y-123452000D01*
X60825142Y-123499619D01*
X61777523Y-124404380D02*
X61206095Y-124404380D01*
X61491809Y-124404380D02*
X61491809Y-123404380D01*
X61396571Y-123547238D01*
X61301333Y-123642476D01*
X61206095Y-123690095D01*
X62158476Y-123499619D02*
X62206095Y-123452000D01*
X62301333Y-123404380D01*
X62539428Y-123404380D01*
X62634666Y-123452000D01*
X62682285Y-123499619D01*
X62729904Y-123594857D01*
X62729904Y-123690095D01*
X62682285Y-123832952D01*
X62110857Y-124404380D01*
X62729904Y-124404380D01*
%TO.C,C11*%
X49649142Y-110339142D02*
X49601523Y-110386761D01*
X49458666Y-110434380D01*
X49363428Y-110434380D01*
X49220571Y-110386761D01*
X49125333Y-110291523D01*
X49077714Y-110196285D01*
X49030095Y-110005809D01*
X49030095Y-109862952D01*
X49077714Y-109672476D01*
X49125333Y-109577238D01*
X49220571Y-109482000D01*
X49363428Y-109434380D01*
X49458666Y-109434380D01*
X49601523Y-109482000D01*
X49649142Y-109529619D01*
X50601523Y-110434380D02*
X50030095Y-110434380D01*
X50315809Y-110434380D02*
X50315809Y-109434380D01*
X50220571Y-109577238D01*
X50125333Y-109672476D01*
X50030095Y-109720095D01*
X51553904Y-110434380D02*
X50982476Y-110434380D01*
X51268190Y-110434380D02*
X51268190Y-109434380D01*
X51172952Y-109577238D01*
X51077714Y-109672476D01*
X50982476Y-109720095D01*
%TO.C,C10*%
X60571142Y-93956142D02*
X60523523Y-94003761D01*
X60380666Y-94051380D01*
X60285428Y-94051380D01*
X60142571Y-94003761D01*
X60047333Y-93908523D01*
X59999714Y-93813285D01*
X59952095Y-93622809D01*
X59952095Y-93479952D01*
X59999714Y-93289476D01*
X60047333Y-93194238D01*
X60142571Y-93099000D01*
X60285428Y-93051380D01*
X60380666Y-93051380D01*
X60523523Y-93099000D01*
X60571142Y-93146619D01*
X61523523Y-94051380D02*
X60952095Y-94051380D01*
X61237809Y-94051380D02*
X61237809Y-93051380D01*
X61142571Y-93194238D01*
X61047333Y-93289476D01*
X60952095Y-93337095D01*
X62142571Y-93051380D02*
X62237809Y-93051380D01*
X62333047Y-93099000D01*
X62380666Y-93146619D01*
X62428285Y-93241857D01*
X62475904Y-93432333D01*
X62475904Y-93670428D01*
X62428285Y-93860904D01*
X62380666Y-93956142D01*
X62333047Y-94003761D01*
X62237809Y-94051380D01*
X62142571Y-94051380D01*
X62047333Y-94003761D01*
X61999714Y-93956142D01*
X61952095Y-93860904D01*
X61904476Y-93670428D01*
X61904476Y-93432333D01*
X61952095Y-93241857D01*
X61999714Y-93146619D01*
X62047333Y-93099000D01*
X62142571Y-93051380D01*
%TO.C,C9*%
X49633142Y-85637666D02*
X49680761Y-85685285D01*
X49728380Y-85828142D01*
X49728380Y-85923380D01*
X49680761Y-86066238D01*
X49585523Y-86161476D01*
X49490285Y-86209095D01*
X49299809Y-86256714D01*
X49156952Y-86256714D01*
X48966476Y-86209095D01*
X48871238Y-86161476D01*
X48776000Y-86066238D01*
X48728380Y-85923380D01*
X48728380Y-85828142D01*
X48776000Y-85685285D01*
X48823619Y-85637666D01*
X49728380Y-85161476D02*
X49728380Y-84971000D01*
X49680761Y-84875761D01*
X49633142Y-84828142D01*
X49490285Y-84732904D01*
X49299809Y-84685285D01*
X48918857Y-84685285D01*
X48823619Y-84732904D01*
X48776000Y-84780523D01*
X48728380Y-84875761D01*
X48728380Y-85066238D01*
X48776000Y-85161476D01*
X48823619Y-85209095D01*
X48918857Y-85256714D01*
X49156952Y-85256714D01*
X49252190Y-85209095D01*
X49299809Y-85161476D01*
X49347428Y-85066238D01*
X49347428Y-84875761D01*
X49299809Y-84780523D01*
X49252190Y-84732904D01*
X49156952Y-84685285D01*
%TO.C,C8*%
X67667142Y-134151666D02*
X67714761Y-134199285D01*
X67762380Y-134342142D01*
X67762380Y-134437380D01*
X67714761Y-134580238D01*
X67619523Y-134675476D01*
X67524285Y-134723095D01*
X67333809Y-134770714D01*
X67190952Y-134770714D01*
X67000476Y-134723095D01*
X66905238Y-134675476D01*
X66810000Y-134580238D01*
X66762380Y-134437380D01*
X66762380Y-134342142D01*
X66810000Y-134199285D01*
X66857619Y-134151666D01*
X67190952Y-133580238D02*
X67143333Y-133675476D01*
X67095714Y-133723095D01*
X67000476Y-133770714D01*
X66952857Y-133770714D01*
X66857619Y-133723095D01*
X66810000Y-133675476D01*
X66762380Y-133580238D01*
X66762380Y-133389761D01*
X66810000Y-133294523D01*
X66857619Y-133246904D01*
X66952857Y-133199285D01*
X67000476Y-133199285D01*
X67095714Y-133246904D01*
X67143333Y-133294523D01*
X67190952Y-133389761D01*
X67190952Y-133580238D01*
X67238571Y-133675476D01*
X67286190Y-133723095D01*
X67381428Y-133770714D01*
X67571904Y-133770714D01*
X67667142Y-133723095D01*
X67714761Y-133675476D01*
X67762380Y-133580238D01*
X67762380Y-133389761D01*
X67714761Y-133294523D01*
X67667142Y-133246904D01*
X67571904Y-133199285D01*
X67381428Y-133199285D01*
X67286190Y-133246904D01*
X67238571Y-133294523D01*
X67190952Y-133389761D01*
%TO.C,C7*%
X50141142Y-115863666D02*
X50188761Y-115911285D01*
X50236380Y-116054142D01*
X50236380Y-116149380D01*
X50188761Y-116292238D01*
X50093523Y-116387476D01*
X49998285Y-116435095D01*
X49807809Y-116482714D01*
X49664952Y-116482714D01*
X49474476Y-116435095D01*
X49379238Y-116387476D01*
X49284000Y-116292238D01*
X49236380Y-116149380D01*
X49236380Y-116054142D01*
X49284000Y-115911285D01*
X49331619Y-115863666D01*
X49236380Y-115530333D02*
X49236380Y-114863666D01*
X50236380Y-115292238D01*
%TO.C,C6*%
X67667142Y-104179666D02*
X67714761Y-104227285D01*
X67762380Y-104370142D01*
X67762380Y-104465380D01*
X67714761Y-104608238D01*
X67619523Y-104703476D01*
X67524285Y-104751095D01*
X67333809Y-104798714D01*
X67190952Y-104798714D01*
X67000476Y-104751095D01*
X66905238Y-104703476D01*
X66810000Y-104608238D01*
X66762380Y-104465380D01*
X66762380Y-104370142D01*
X66810000Y-104227285D01*
X66857619Y-104179666D01*
X66762380Y-103322523D02*
X66762380Y-103513000D01*
X66810000Y-103608238D01*
X66857619Y-103655857D01*
X67000476Y-103751095D01*
X67190952Y-103798714D01*
X67571904Y-103798714D01*
X67667142Y-103751095D01*
X67714761Y-103703476D01*
X67762380Y-103608238D01*
X67762380Y-103417761D01*
X67714761Y-103322523D01*
X67667142Y-103274904D01*
X67571904Y-103227285D01*
X67333809Y-103227285D01*
X67238571Y-103274904D01*
X67190952Y-103322523D01*
X67143333Y-103417761D01*
X67143333Y-103608238D01*
X67190952Y-103703476D01*
X67238571Y-103751095D01*
X67333809Y-103798714D01*
%TO.C,C5*%
X67413142Y-80430666D02*
X67460761Y-80478285D01*
X67508380Y-80621142D01*
X67508380Y-80716380D01*
X67460761Y-80859238D01*
X67365523Y-80954476D01*
X67270285Y-81002095D01*
X67079809Y-81049714D01*
X66936952Y-81049714D01*
X66746476Y-81002095D01*
X66651238Y-80954476D01*
X66556000Y-80859238D01*
X66508380Y-80716380D01*
X66508380Y-80621142D01*
X66556000Y-80478285D01*
X66603619Y-80430666D01*
X66508380Y-79525904D02*
X66508380Y-80002095D01*
X66984571Y-80049714D01*
X66936952Y-80002095D01*
X66889333Y-79906857D01*
X66889333Y-79668761D01*
X66936952Y-79573523D01*
X66984571Y-79525904D01*
X67079809Y-79478285D01*
X67317904Y-79478285D01*
X67413142Y-79525904D01*
X67460761Y-79573523D01*
X67508380Y-79668761D01*
X67508380Y-79906857D01*
X67460761Y-80002095D01*
X67413142Y-80049714D01*
%TO.C,C4*%
X57253142Y-59983666D02*
X57300761Y-60031285D01*
X57348380Y-60174142D01*
X57348380Y-60269380D01*
X57300761Y-60412238D01*
X57205523Y-60507476D01*
X57110285Y-60555095D01*
X56919809Y-60602714D01*
X56776952Y-60602714D01*
X56586476Y-60555095D01*
X56491238Y-60507476D01*
X56396000Y-60412238D01*
X56348380Y-60269380D01*
X56348380Y-60174142D01*
X56396000Y-60031285D01*
X56443619Y-59983666D01*
X56681714Y-59126523D02*
X57348380Y-59126523D01*
X56300761Y-59364619D02*
X57015047Y-59602714D01*
X57015047Y-58983666D01*
%TO.C,C3*%
X66905142Y-65190666D02*
X66952761Y-65238285D01*
X67000380Y-65381142D01*
X67000380Y-65476380D01*
X66952761Y-65619238D01*
X66857523Y-65714476D01*
X66762285Y-65762095D01*
X66571809Y-65809714D01*
X66428952Y-65809714D01*
X66238476Y-65762095D01*
X66143238Y-65714476D01*
X66048000Y-65619238D01*
X66000380Y-65476380D01*
X66000380Y-65381142D01*
X66048000Y-65238285D01*
X66095619Y-65190666D01*
X66000380Y-64857333D02*
X66000380Y-64238285D01*
X66381333Y-64571619D01*
X66381333Y-64428761D01*
X66428952Y-64333523D01*
X66476571Y-64285904D01*
X66571809Y-64238285D01*
X66809904Y-64238285D01*
X66905142Y-64285904D01*
X66952761Y-64333523D01*
X67000380Y-64428761D01*
X67000380Y-64714476D01*
X66952761Y-64809714D01*
X66905142Y-64857333D01*
%TO.C,C1*%
X60793333Y-84558142D02*
X60745714Y-84605761D01*
X60602857Y-84653380D01*
X60507619Y-84653380D01*
X60364761Y-84605761D01*
X60269523Y-84510523D01*
X60221904Y-84415285D01*
X60174285Y-84224809D01*
X60174285Y-84081952D01*
X60221904Y-83891476D01*
X60269523Y-83796238D01*
X60364761Y-83701000D01*
X60507619Y-83653380D01*
X60602857Y-83653380D01*
X60745714Y-83701000D01*
X60793333Y-83748619D01*
X61745714Y-84653380D02*
X61174285Y-84653380D01*
X61460000Y-84653380D02*
X61460000Y-83653380D01*
X61364761Y-83796238D01*
X61269523Y-83891476D01*
X61174285Y-83939095D01*
%TD*%
M02*
