%TF.GenerationSoftware,KiCad,Pcbnew,(5.1.6)-1*%
%TF.CreationDate,2021-03-13T16:13:42+00:00*%
%TF.ProjectId,expander,65787061-6e64-4657-922e-6b696361645f,rev?*%
%TF.SameCoordinates,Original*%
%TF.FileFunction,Copper,L2,Bot*%
%TF.FilePolarity,Positive*%
%FSLAX46Y46*%
G04 Gerber Fmt 4.6, Leading zero omitted, Abs format (unit mm)*
G04 Created by KiCad (PCBNEW (5.1.6)-1) date 2021-03-13 16:13:42*
%MOMM*%
%LPD*%
G01*
G04 APERTURE LIST*
%TA.AperFunction,ComponentPad*%
%ADD10C,1.400000*%
%TD*%
%TA.AperFunction,ComponentPad*%
%ADD11C,3.000000*%
%TD*%
%TA.AperFunction,ComponentPad*%
%ADD12R,1.400000X1.400000*%
%TD*%
%TA.AperFunction,ComponentPad*%
%ADD13O,1.700000X1.700000*%
%TD*%
%TA.AperFunction,ComponentPad*%
%ADD14R,1.700000X1.700000*%
%TD*%
%TA.AperFunction,ComponentPad*%
%ADD15C,2.130000*%
%TD*%
%TA.AperFunction,ComponentPad*%
%ADD16R,1.930000X1.830000*%
%TD*%
%TA.AperFunction,ComponentPad*%
%ADD17R,1.830000X1.930000*%
%TD*%
%TA.AperFunction,ViaPad*%
%ADD18C,0.800000*%
%TD*%
%TA.AperFunction,Conductor*%
%ADD19C,0.254000*%
%TD*%
%TA.AperFunction,Conductor*%
%ADD20C,0.406400*%
%TD*%
%TA.AperFunction,Conductor*%
%ADD21C,0.228600*%
%TD*%
G04 APERTURE END LIST*
D10*
%TO.P,J9,2*%
%TO.N,DM*%
X59650000Y-69850000D03*
D11*
%TO.P,J9,6*%
%TO.N,Net-(J9-Pad6)*%
X64420000Y-72560000D03*
D12*
%TO.P,J9,1*%
%TO.N,Net-(J9-Pad1)*%
X57150000Y-69850000D03*
D10*
%TO.P,J9,3*%
%TO.N,DP*%
X59650000Y-73050000D03*
%TO.P,J9,4*%
%TO.N,GND*%
X57150000Y-73050000D03*
D11*
%TO.P,J9,5*%
%TO.N,Net-(J9-Pad5)*%
X52380000Y-72560000D03*
%TD*%
D13*
%TO.P,J10,8*%
%TO.N,N4*%
X59182000Y-111760000D03*
%TO.P,J10,7*%
%TO.N,P4*%
X59182000Y-114300000D03*
%TO.P,J10,6*%
%TO.N,N3*%
X61722000Y-111760000D03*
%TO.P,J10,5*%
%TO.N,P3*%
X61722000Y-114300000D03*
%TO.P,J10,4*%
%TO.N,N2*%
X64262000Y-111760000D03*
%TO.P,J10,3*%
%TO.N,P2*%
X64262000Y-114300000D03*
%TO.P,J10,2*%
%TO.N,N1*%
X66802000Y-111760000D03*
D14*
%TO.P,J10,1*%
%TO.N,P1*%
X66802000Y-114300000D03*
%TD*%
D15*
%TO.P,J3,T*%
%TO.N,/_MIDIIN1*%
X58420000Y-38638000D03*
D16*
%TO.P,J3,S*%
%TO.N,GND*%
X58420000Y-50038000D03*
D15*
%TO.P,J3,TN*%
%TO.N,/_MIDIIN2*%
X58420000Y-46938000D03*
%TD*%
%TO.P,J2,T*%
%TO.N,Net-(J2-PadT)*%
X58420000Y-61438000D03*
D16*
%TO.P,J2,S*%
%TO.N,GND*%
X58420000Y-50038000D03*
D15*
%TO.P,J2,TN*%
%TO.N,Net-(J2-PadTN)*%
X58420000Y-53138000D03*
%TD*%
%TO.P,J8,T*%
%TO.N,Net-(J8-PadT)*%
X67280000Y-90805000D03*
D17*
%TO.P,J8,S*%
%TO.N,GND*%
X55880000Y-90805000D03*
D15*
%TO.P,J8,TN*%
%TO.N,N/C*%
X58980000Y-90805000D03*
%TD*%
%TO.P,J7,T*%
%TO.N,Net-(J7-PadT)*%
X49560000Y-136525000D03*
D17*
%TO.P,J7,S*%
%TO.N,GND*%
X60960000Y-136525000D03*
D15*
%TO.P,J7,TN*%
%TO.N,N/C*%
X57860000Y-136525000D03*
%TD*%
%TO.P,J6,T*%
%TO.N,Net-(J6-PadT)*%
X67280000Y-121285000D03*
D17*
%TO.P,J6,S*%
%TO.N,GND*%
X55880000Y-121285000D03*
D15*
%TO.P,J6,TN*%
%TO.N,N/C*%
X58980000Y-121285000D03*
%TD*%
%TO.P,J5,T*%
%TO.N,Net-(J5-PadT)*%
X49560000Y-106045000D03*
D17*
%TO.P,J5,S*%
%TO.N,GND*%
X60960000Y-106045000D03*
D15*
%TO.P,J5,TN*%
%TO.N,N/C*%
X57860000Y-106045000D03*
%TD*%
D13*
%TO.P,J4,10*%
%TO.N,+12V*%
X50038000Y-39878000D03*
%TO.P,J4,9*%
X52578000Y-39878000D03*
%TO.P,J4,8*%
%TO.N,GND*%
X50038000Y-42418000D03*
%TO.P,J4,7*%
X52578000Y-42418000D03*
%TO.P,J4,6*%
X50038000Y-44958000D03*
%TO.P,J4,5*%
X52578000Y-44958000D03*
%TO.P,J4,4*%
X50038000Y-47498000D03*
%TO.P,J4,3*%
X52578000Y-47498000D03*
%TO.P,J4,2*%
%TO.N,-12V*%
X50038000Y-50038000D03*
D14*
%TO.P,J4,1*%
X52578000Y-50038000D03*
%TD*%
D13*
%TO.P,J1,16*%
%TO.N,Net-(J1-Pad16)*%
X64008000Y-39878000D03*
%TO.P,J1,15*%
%TO.N,Net-(J1-Pad15)*%
X66548000Y-39878000D03*
%TO.P,J1,14*%
%TO.N,GND*%
X64008000Y-42418000D03*
%TO.P,J1,13*%
%TO.N,Net-(J1-Pad13)*%
X66548000Y-42418000D03*
%TO.P,J1,12*%
%TO.N,GND*%
X64008000Y-44958000D03*
%TO.P,J1,11*%
%TO.N,+12VB*%
X66548000Y-44958000D03*
%TO.P,J1,10*%
%TO.N,MISO*%
X64008000Y-47498000D03*
%TO.P,J1,9*%
%TO.N,Net-(J1-Pad9)*%
X66548000Y-47498000D03*
%TO.P,J1,8*%
%TO.N,Net-(J1-Pad8)*%
X64008000Y-50038000D03*
%TO.P,J1,7*%
%TO.N,-12VB*%
X66548000Y-50038000D03*
%TO.P,J1,6*%
%TO.N,GND*%
X64008000Y-52578000D03*
%TO.P,J1,5*%
%TO.N,+5V*%
X66548000Y-52578000D03*
%TO.P,J1,4*%
%TO.N,DM*%
X64008000Y-55118000D03*
%TO.P,J1,3*%
%TO.N,DP*%
X66548000Y-55118000D03*
%TO.P,J1,2*%
%TO.N,+3V3*%
X64008000Y-57658000D03*
D14*
%TO.P,J1,1*%
X66548000Y-57658000D03*
%TD*%
D18*
%TO.N,Net-(C1-Pad2)*%
X63327100Y-75782100D03*
X60597300Y-82433600D03*
%TO.N,GND*%
X62094700Y-78065200D03*
X58146600Y-76712900D03*
X64770000Y-135890000D03*
X52070000Y-133985000D03*
X59055000Y-125095000D03*
X56515000Y-109855000D03*
X57057500Y-99152500D03*
X66675000Y-84455000D03*
X65405000Y-80010000D03*
X52705000Y-66675000D03*
X56515000Y-62865000D03*
X58394500Y-59029500D03*
X61468000Y-60706000D03*
X55118000Y-45212000D03*
X55118000Y-53340000D03*
X55372000Y-76962000D03*
X61214000Y-92964000D03*
X49530000Y-123952000D03*
X53594000Y-74422000D03*
X55903500Y-84859500D03*
%TO.N,+12V*%
X58838100Y-107722900D03*
X49855400Y-116542500D03*
X53432900Y-115763700D03*
X55906400Y-86715000D03*
X50933300Y-84426500D03*
%TO.N,-12V*%
X53230700Y-101529800D03*
X50513300Y-111673600D03*
%TO.N,RX*%
X57417400Y-42975500D03*
X52741900Y-59853000D03*
%TO.N,MOSI*%
X60432700Y-51692300D03*
X58608700Y-72010800D03*
%TO.N,+3V3*%
X64008000Y-67052600D03*
%TO.N,TX*%
X61581100Y-43044200D03*
X61500344Y-58436256D03*
%TO.N,/_MIDIIN1*%
X54052200Y-51981800D03*
%TO.N,DACX*%
X57533300Y-94573500D03*
X59324400Y-78983900D03*
%TO.N,DACY*%
X62962700Y-120347200D03*
X60246700Y-80347000D03*
%TO.N,Net-(J1-Pad9)*%
X67725400Y-72306700D03*
%TO.N,Net-(J5-PadT)*%
X52388100Y-104927100D03*
%TO.N,N4*%
X63096500Y-131080400D03*
X67670600Y-128438900D03*
%TO.N,P4*%
X61789300Y-130949621D03*
%TO.N,N3*%
X53975000Y-119761000D03*
X56261000Y-110871000D03*
%TO.N,P3*%
X61894600Y-122892400D03*
%TO.N,N1*%
X53467000Y-89027000D03*
X53467000Y-96393000D03*
X56769000Y-95377000D03*
X61763200Y-104394000D03*
X63754000Y-105156000D03*
%TO.N,P1*%
X60223300Y-88804800D03*
%TD*%
D19*
%TO.N,Net-(C1-Pad2)*%
X60597300Y-82433600D02*
X63327100Y-79703800D01*
X63327100Y-79703800D02*
X63327100Y-75782100D01*
D20*
%TO.N,GND*%
X58146600Y-78065200D02*
X58146600Y-87169900D01*
X58146600Y-87169900D02*
X55880000Y-89436500D01*
X58146600Y-76712900D02*
X58146600Y-78065200D01*
X58146600Y-78065200D02*
X62094700Y-78065200D01*
X58146600Y-76712900D02*
X58146600Y-74046600D01*
X58146600Y-74046600D02*
X57150000Y-73050000D01*
X55880000Y-90805000D02*
X55880000Y-89436500D01*
X60960000Y-106045000D02*
X59641500Y-106045000D01*
X64008000Y-42418000D02*
X64008000Y-44958000D01*
X50038000Y-44958000D02*
X50038000Y-42418000D01*
X50038000Y-47498000D02*
X50038000Y-44958000D01*
X52578000Y-44958000D02*
X52578000Y-42418000D01*
X52578000Y-47498000D02*
X52578000Y-44958000D01*
X65261500Y-51324500D02*
X64008000Y-52578000D01*
X65261500Y-46338500D02*
X65261500Y-51324500D01*
X64008000Y-44958000D02*
X64008000Y-45085000D01*
X64008000Y-45085000D02*
X65261500Y-46338500D01*
X59436000Y-105839500D02*
X59641500Y-106045000D01*
X59436000Y-101531000D02*
X59436000Y-105839500D01*
X55880000Y-90805000D02*
X55880000Y-97975000D01*
X55880000Y-97975000D02*
X57057500Y-99152500D01*
X57198500Y-122603500D02*
X55880000Y-121285000D01*
X60960000Y-136525000D02*
X57198500Y-132763500D01*
X57198500Y-132763500D02*
X57198500Y-122603500D01*
X57057500Y-99152500D02*
X59436000Y-101531000D01*
X55880000Y-119916500D02*
X55880000Y-121285000D01*
X55880000Y-112776000D02*
X55880000Y-119916500D01*
X59641600Y-109014400D02*
X55880000Y-112776000D01*
X59641600Y-107390100D02*
X59641600Y-109014400D01*
X59641500Y-106045000D02*
X59641500Y-107390000D01*
X59641500Y-107390000D02*
X59641600Y-107390100D01*
%TO.N,+12V*%
X54829800Y-108070900D02*
X58490100Y-108070900D01*
X58490100Y-108070900D02*
X58838100Y-107722900D01*
X54518800Y-86715000D02*
X54518800Y-107759900D01*
X54518800Y-107759900D02*
X54829800Y-108070900D01*
X53432900Y-115763700D02*
X50634200Y-115763700D01*
X50634200Y-115763700D02*
X49855400Y-116542500D01*
X54518800Y-86715000D02*
X55906400Y-86715000D01*
X50933300Y-84426500D02*
X50933300Y-84679900D01*
X50933300Y-84679900D02*
X52968400Y-86715000D01*
X52968400Y-86715000D02*
X54518800Y-86715000D01*
X52578000Y-39878000D02*
X51839900Y-39878000D01*
X51839900Y-39878000D02*
X50038000Y-39878000D01*
X52959000Y-115289800D02*
X53432900Y-115763700D01*
X52959000Y-110563700D02*
X52959000Y-115289800D01*
X54829800Y-108070900D02*
X54829800Y-108692900D01*
X54829800Y-108692900D02*
X52959000Y-110563700D01*
X51324400Y-60415800D02*
X50100000Y-61640200D01*
X50100000Y-83593200D02*
X50933300Y-84426500D01*
X50100000Y-61640200D02*
X50100000Y-83593200D01*
X51839900Y-39878000D02*
X51324400Y-40393500D01*
X51324400Y-40393500D02*
X51324400Y-60415800D01*
%TO.N,-12V*%
X53230700Y-101529800D02*
X53230700Y-108956200D01*
X53230700Y-108956200D02*
X50513300Y-111673600D01*
X49394600Y-51934900D02*
X49394600Y-97693700D01*
X50038000Y-50038000D02*
X50038000Y-51291500D01*
X49394600Y-97693700D02*
X53230700Y-101529800D01*
X50038000Y-51291500D02*
X49394600Y-51934900D01*
D19*
%TO.N,RX*%
X57417400Y-42975500D02*
X56350300Y-44042600D01*
X56350300Y-44042600D02*
X56350300Y-56244600D01*
X56350300Y-56244600D02*
X52741900Y-59853000D01*
%TO.N,MOSI*%
X58420000Y-71822100D02*
X58608700Y-72010800D01*
X58420000Y-66877700D02*
X58420000Y-71822100D01*
X60432700Y-51692300D02*
X60432700Y-64865000D01*
X60432700Y-64865000D02*
X58420000Y-66877700D01*
D20*
%TO.N,+3V3*%
X64008000Y-57658000D02*
X64008000Y-67052600D01*
D19*
%TO.N,TX*%
X61581100Y-43044200D02*
X61581100Y-58355500D01*
X61581100Y-58355500D02*
X61500344Y-58436256D01*
%TO.N,/_MIDIIN1*%
X54052200Y-51981800D02*
X54052200Y-43005800D01*
X54052200Y-43005800D02*
X58420000Y-38638000D01*
%TO.N,DACX*%
X57533300Y-94573500D02*
X57533300Y-89823700D01*
X57533300Y-89823700D02*
X59107300Y-88249700D01*
X59107300Y-88249700D02*
X59107300Y-79201000D01*
X59107300Y-79201000D02*
X59324400Y-78983900D01*
%TO.N,DACY*%
X62962700Y-120347200D02*
X62962700Y-92673600D01*
X62962700Y-92673600D02*
X59496000Y-89206900D01*
X59496000Y-89206900D02*
X59496000Y-88503500D01*
X59496000Y-88503500D02*
X59667500Y-88332000D01*
X59667500Y-88332000D02*
X59667500Y-80926200D01*
X59667500Y-80926200D02*
X60246700Y-80347000D01*
%TO.N,Net-(J1-Pad9)*%
X67900000Y-72132100D02*
X67725400Y-72306700D01*
X67900000Y-48977000D02*
X67900000Y-72132100D01*
X66548000Y-47498000D02*
X66548000Y-47625000D01*
X66548000Y-47625000D02*
X67900000Y-48977000D01*
%TO.N,DM*%
X62827900Y-56425100D02*
X62827900Y-66672100D01*
X64008000Y-55118000D02*
X64008000Y-55245000D01*
X62827900Y-66672100D02*
X59650000Y-69850000D01*
X64008000Y-55245000D02*
X62827900Y-56425100D01*
%TO.N,DP*%
X65151000Y-67549000D02*
X59650000Y-73050000D01*
X65151000Y-58256962D02*
X65151000Y-67549000D01*
X65185001Y-58222961D02*
X65151000Y-58256962D01*
X66421000Y-55118000D02*
X65151000Y-56388000D01*
X65151000Y-57059038D02*
X65185001Y-57093039D01*
X65151000Y-56388000D02*
X65151000Y-57059038D01*
X66548000Y-55118000D02*
X66421000Y-55118000D01*
X65185001Y-57093039D02*
X65185001Y-58222961D01*
%TO.N,Net-(J5-PadT)*%
X49560000Y-106045000D02*
X50677900Y-104927100D01*
X50677900Y-104927100D02*
X52388100Y-104927100D01*
%TO.N,N4*%
X67670600Y-128438900D02*
X65738000Y-128438900D01*
X65738000Y-128438900D02*
X63096500Y-131080400D01*
X60452000Y-116135200D02*
X60452000Y-113030000D01*
X61167300Y-116850500D02*
X60452000Y-116135200D01*
X65738000Y-128438900D02*
X61167300Y-123868200D01*
X60452000Y-113030000D02*
X59182000Y-111760000D01*
X61167300Y-123868200D02*
X61167300Y-116850500D01*
%TO.N,P4*%
X60712900Y-129873221D02*
X61789300Y-130949621D01*
X60712900Y-117540981D02*
X60712900Y-129873221D01*
X59182000Y-114300000D02*
X59182000Y-116010081D01*
X59182000Y-116010081D02*
X60712900Y-117540981D01*
%TO.N,N3*%
X54374999Y-112757001D02*
X56261000Y-110871000D01*
X53975000Y-119761000D02*
X54374999Y-119361001D01*
X54374999Y-119361001D02*
X54374999Y-112757001D01*
%TO.N,P3*%
X61894600Y-116157900D02*
X61894600Y-122892400D01*
X61722000Y-114300000D02*
X61722000Y-115985300D01*
X61722000Y-115985300D02*
X61894600Y-116157900D01*
D21*
%TO.N,N1*%
X53467000Y-89027000D02*
X53467000Y-96266000D01*
X66802000Y-112268000D02*
X66802000Y-107442000D01*
X53467000Y-96266000D02*
X53467000Y-96393000D01*
X56769000Y-95377000D02*
X61763200Y-100371200D01*
X61763200Y-100371200D02*
X61763200Y-104394000D01*
X64516000Y-105156000D02*
X66802000Y-107442000D01*
X63754000Y-105156000D02*
X64516000Y-105156000D01*
D19*
%TO.N,P1*%
X67945000Y-96526500D02*
X60223300Y-88804800D01*
X66802000Y-114681000D02*
X68199000Y-113284000D01*
X66802000Y-114808000D02*
X66802000Y-114681000D01*
X68199000Y-113284000D02*
X68199000Y-109855000D01*
X68199000Y-109855000D02*
X67945000Y-109601000D01*
X67945000Y-109601000D02*
X67945000Y-96526500D01*
%TD*%
%TO.N,GND*%
G36*
X61087000Y-105918000D02*
G01*
X61107000Y-105918000D01*
X61107000Y-106172000D01*
X61087000Y-106172000D01*
X61087000Y-107486250D01*
X61245750Y-107645000D01*
X61875000Y-107648072D01*
X61999482Y-107635812D01*
X62119180Y-107599502D01*
X62200700Y-107555928D01*
X62200700Y-110350932D01*
X62155158Y-110332068D01*
X61868260Y-110275000D01*
X61575740Y-110275000D01*
X61288842Y-110332068D01*
X61018589Y-110444010D01*
X60775368Y-110606525D01*
X60568525Y-110813368D01*
X60452000Y-110987760D01*
X60335475Y-110813368D01*
X60128632Y-110606525D01*
X59885411Y-110444010D01*
X59615158Y-110332068D01*
X59328260Y-110275000D01*
X59035740Y-110275000D01*
X58748842Y-110332068D01*
X58478589Y-110444010D01*
X58235368Y-110606525D01*
X58028525Y-110813368D01*
X57866010Y-111056589D01*
X57754068Y-111326842D01*
X57697000Y-111613740D01*
X57697000Y-111906260D01*
X57754068Y-112193158D01*
X57866010Y-112463411D01*
X58028525Y-112706632D01*
X58235368Y-112913475D01*
X58409760Y-113030000D01*
X58235368Y-113146525D01*
X58028525Y-113353368D01*
X57866010Y-113596589D01*
X57754068Y-113866842D01*
X57697000Y-114153740D01*
X57697000Y-114446260D01*
X57754068Y-114733158D01*
X57866010Y-115003411D01*
X58028525Y-115246632D01*
X58235368Y-115453475D01*
X58420001Y-115576843D01*
X58420001Y-115972648D01*
X58416314Y-116010081D01*
X58431027Y-116159459D01*
X58474599Y-116303096D01*
X58545355Y-116435473D01*
X58596384Y-116497651D01*
X58640579Y-116551503D01*
X58669649Y-116575360D01*
X59950900Y-117856611D01*
X59950900Y-119889161D01*
X59785252Y-119778479D01*
X59475872Y-119650330D01*
X59147435Y-119585000D01*
X58812565Y-119585000D01*
X58484128Y-119650330D01*
X58174748Y-119778479D01*
X57896313Y-119964523D01*
X57659523Y-120201313D01*
X57473479Y-120479748D01*
X57431895Y-120580140D01*
X57433072Y-120320000D01*
X57420812Y-120195518D01*
X57384502Y-120075820D01*
X57325537Y-119965506D01*
X57246185Y-119868815D01*
X57149494Y-119789463D01*
X57039180Y-119730498D01*
X56919482Y-119694188D01*
X56795000Y-119681928D01*
X56165750Y-119685000D01*
X56007000Y-119843750D01*
X56007000Y-121158000D01*
X56027000Y-121158000D01*
X56027000Y-121412000D01*
X56007000Y-121412000D01*
X56007000Y-122726250D01*
X56165750Y-122885000D01*
X56795000Y-122888072D01*
X56919482Y-122875812D01*
X57039180Y-122839502D01*
X57149494Y-122780537D01*
X57246185Y-122701185D01*
X57325537Y-122604494D01*
X57384502Y-122494180D01*
X57420812Y-122374482D01*
X57433072Y-122250000D01*
X57431895Y-121989860D01*
X57473479Y-122090252D01*
X57659523Y-122368687D01*
X57896313Y-122605477D01*
X58174748Y-122791521D01*
X58484128Y-122919670D01*
X58812565Y-122985000D01*
X59147435Y-122985000D01*
X59475872Y-122919670D01*
X59785252Y-122791521D01*
X59950900Y-122680838D01*
X59950901Y-129835788D01*
X59947214Y-129873221D01*
X59961927Y-130022599D01*
X60005499Y-130166236D01*
X60076255Y-130298613D01*
X60147621Y-130385572D01*
X60171479Y-130414643D01*
X60200549Y-130438500D01*
X60754300Y-130992252D01*
X60754300Y-131051560D01*
X60794074Y-131251519D01*
X60872095Y-131439877D01*
X60985363Y-131609395D01*
X61129526Y-131753558D01*
X61299044Y-131866826D01*
X61487402Y-131944847D01*
X61687361Y-131984621D01*
X61891239Y-131984621D01*
X62091198Y-131944847D01*
X62279556Y-131866826D01*
X62363276Y-131810887D01*
X62436726Y-131884337D01*
X62606244Y-131997605D01*
X62794602Y-132075626D01*
X62994561Y-132115400D01*
X63198439Y-132115400D01*
X63398398Y-132075626D01*
X63586756Y-131997605D01*
X63756274Y-131884337D01*
X63900437Y-131740174D01*
X64013705Y-131570656D01*
X64091726Y-131382298D01*
X64131500Y-131182339D01*
X64131500Y-131123030D01*
X66053631Y-129200900D01*
X66968889Y-129200900D01*
X67010826Y-129242837D01*
X67180344Y-129356105D01*
X67368702Y-129434126D01*
X67568661Y-129473900D01*
X67772539Y-129473900D01*
X67920001Y-129444568D01*
X67920001Y-140945000D01*
X49022000Y-140945000D01*
X49022000Y-138142220D01*
X49064128Y-138159670D01*
X49392565Y-138225000D01*
X49727435Y-138225000D01*
X50055872Y-138159670D01*
X50365252Y-138031521D01*
X50643687Y-137845477D01*
X50880477Y-137608687D01*
X51066521Y-137330252D01*
X51194670Y-137020872D01*
X51260000Y-136692435D01*
X51260000Y-136357565D01*
X56160000Y-136357565D01*
X56160000Y-136692435D01*
X56225330Y-137020872D01*
X56353479Y-137330252D01*
X56539523Y-137608687D01*
X56776313Y-137845477D01*
X57054748Y-138031521D01*
X57364128Y-138159670D01*
X57692565Y-138225000D01*
X58027435Y-138225000D01*
X58355872Y-138159670D01*
X58665252Y-138031521D01*
X58943687Y-137845477D01*
X59180477Y-137608687D01*
X59366521Y-137330252D01*
X59408105Y-137229860D01*
X59406928Y-137490000D01*
X59419188Y-137614482D01*
X59455498Y-137734180D01*
X59514463Y-137844494D01*
X59593815Y-137941185D01*
X59690506Y-138020537D01*
X59800820Y-138079502D01*
X59920518Y-138115812D01*
X60045000Y-138128072D01*
X60674250Y-138125000D01*
X60833000Y-137966250D01*
X60833000Y-136652000D01*
X61087000Y-136652000D01*
X61087000Y-137966250D01*
X61245750Y-138125000D01*
X61875000Y-138128072D01*
X61999482Y-138115812D01*
X62119180Y-138079502D01*
X62229494Y-138020537D01*
X62326185Y-137941185D01*
X62405537Y-137844494D01*
X62464502Y-137734180D01*
X62500812Y-137614482D01*
X62513072Y-137490000D01*
X62510000Y-136810750D01*
X62351250Y-136652000D01*
X61087000Y-136652000D01*
X60833000Y-136652000D01*
X60813000Y-136652000D01*
X60813000Y-136398000D01*
X60833000Y-136398000D01*
X60833000Y-135083750D01*
X61087000Y-135083750D01*
X61087000Y-136398000D01*
X62351250Y-136398000D01*
X62510000Y-136239250D01*
X62513072Y-135560000D01*
X62500812Y-135435518D01*
X62464502Y-135315820D01*
X62405537Y-135205506D01*
X62326185Y-135108815D01*
X62229494Y-135029463D01*
X62119180Y-134970498D01*
X61999482Y-134934188D01*
X61875000Y-134921928D01*
X61245750Y-134925000D01*
X61087000Y-135083750D01*
X60833000Y-135083750D01*
X60674250Y-134925000D01*
X60045000Y-134921928D01*
X59920518Y-134934188D01*
X59800820Y-134970498D01*
X59690506Y-135029463D01*
X59593815Y-135108815D01*
X59514463Y-135205506D01*
X59455498Y-135315820D01*
X59419188Y-135435518D01*
X59406928Y-135560000D01*
X59408105Y-135820140D01*
X59366521Y-135719748D01*
X59180477Y-135441313D01*
X58943687Y-135204523D01*
X58665252Y-135018479D01*
X58355872Y-134890330D01*
X58027435Y-134825000D01*
X57692565Y-134825000D01*
X57364128Y-134890330D01*
X57054748Y-135018479D01*
X56776313Y-135204523D01*
X56539523Y-135441313D01*
X56353479Y-135719748D01*
X56225330Y-136029128D01*
X56160000Y-136357565D01*
X51260000Y-136357565D01*
X51194670Y-136029128D01*
X51066521Y-135719748D01*
X50880477Y-135441313D01*
X50643687Y-135204523D01*
X50365252Y-135018479D01*
X50055872Y-134890330D01*
X49727435Y-134825000D01*
X49392565Y-134825000D01*
X49064128Y-134890330D01*
X49022000Y-134907780D01*
X49022000Y-127039545D01*
X49044277Y-127006205D01*
X49110990Y-126845145D01*
X49145000Y-126674165D01*
X49145000Y-126499835D01*
X49110990Y-126328855D01*
X49044277Y-126167795D01*
X49022000Y-126134455D01*
X49022000Y-126039545D01*
X49044277Y-126006205D01*
X49110990Y-125845145D01*
X49145000Y-125674165D01*
X49145000Y-125499835D01*
X49110990Y-125328855D01*
X49044277Y-125167795D01*
X49022000Y-125134455D01*
X49022000Y-125039545D01*
X49044277Y-125006205D01*
X49110990Y-124845145D01*
X49145000Y-124674165D01*
X49145000Y-124499835D01*
X49110990Y-124328855D01*
X49044277Y-124167795D01*
X49022000Y-124134455D01*
X49022000Y-124039545D01*
X49044277Y-124006205D01*
X49110990Y-123845145D01*
X49145000Y-123674165D01*
X49145000Y-123499835D01*
X49110990Y-123328855D01*
X49044277Y-123167795D01*
X49022000Y-123134455D01*
X49022000Y-123039545D01*
X49044277Y-123006205D01*
X49110990Y-122845145D01*
X49145000Y-122674165D01*
X49145000Y-122499835D01*
X49110990Y-122328855D01*
X49078328Y-122250000D01*
X54326928Y-122250000D01*
X54339188Y-122374482D01*
X54375498Y-122494180D01*
X54434463Y-122604494D01*
X54513815Y-122701185D01*
X54610506Y-122780537D01*
X54720820Y-122839502D01*
X54840518Y-122875812D01*
X54965000Y-122888072D01*
X55594250Y-122885000D01*
X55753000Y-122726250D01*
X55753000Y-121412000D01*
X54488750Y-121412000D01*
X54330000Y-121570750D01*
X54326928Y-122250000D01*
X49078328Y-122250000D01*
X49044277Y-122167795D01*
X49022000Y-122134455D01*
X49022000Y-117158179D01*
X49051463Y-117202274D01*
X49195626Y-117346437D01*
X49365144Y-117459705D01*
X49553502Y-117537726D01*
X49753461Y-117577500D01*
X49957339Y-117577500D01*
X50157298Y-117537726D01*
X50345656Y-117459705D01*
X50515174Y-117346437D01*
X50659337Y-117202274D01*
X50772605Y-117032756D01*
X50850626Y-116844398D01*
X50878369Y-116704924D01*
X50981393Y-116601900D01*
X52824404Y-116601900D01*
X52942644Y-116680905D01*
X53131002Y-116758926D01*
X53330961Y-116798700D01*
X53534839Y-116798700D01*
X53612999Y-116783153D01*
X53612999Y-118790670D01*
X53484744Y-118843795D01*
X53315226Y-118957063D01*
X53171063Y-119101226D01*
X53057795Y-119270744D01*
X52979774Y-119459102D01*
X52940000Y-119659061D01*
X52940000Y-119862939D01*
X52979774Y-120062898D01*
X53057795Y-120251256D01*
X53171063Y-120420774D01*
X53315226Y-120564937D01*
X53484744Y-120678205D01*
X53673102Y-120756226D01*
X53873061Y-120796000D01*
X54076939Y-120796000D01*
X54276898Y-120756226D01*
X54328804Y-120734726D01*
X54330000Y-120999250D01*
X54488750Y-121158000D01*
X55753000Y-121158000D01*
X55753000Y-119843750D01*
X55594250Y-119685000D01*
X55067215Y-119682427D01*
X55082401Y-119654016D01*
X55125973Y-119510379D01*
X55136999Y-119398427D01*
X55136999Y-119398425D01*
X55140685Y-119361002D01*
X55136999Y-119323579D01*
X55136999Y-113072631D01*
X56303631Y-111906000D01*
X56362939Y-111906000D01*
X56562898Y-111866226D01*
X56751256Y-111788205D01*
X56920774Y-111674937D01*
X57064937Y-111530774D01*
X57178205Y-111361256D01*
X57256226Y-111172898D01*
X57296000Y-110972939D01*
X57296000Y-110769061D01*
X57256226Y-110569102D01*
X57178205Y-110380744D01*
X57064937Y-110211226D01*
X56920774Y-110067063D01*
X56751256Y-109953795D01*
X56562898Y-109875774D01*
X56362939Y-109836000D01*
X56159061Y-109836000D01*
X55959102Y-109875774D01*
X55770744Y-109953795D01*
X55601226Y-110067063D01*
X55457063Y-110211226D01*
X55343795Y-110380744D01*
X55265774Y-110569102D01*
X55226000Y-110769061D01*
X55226000Y-110828369D01*
X53862648Y-112191722D01*
X53833578Y-112215579D01*
X53809721Y-112244649D01*
X53809720Y-112244650D01*
X53797200Y-112259906D01*
X53797200Y-110910893D01*
X55393388Y-109314706D01*
X55425364Y-109288464D01*
X55530109Y-109160832D01*
X55607942Y-109015217D01*
X55640132Y-108909100D01*
X58448937Y-108909100D01*
X58490100Y-108913154D01*
X58531263Y-108909100D01*
X58531270Y-108909100D01*
X58654416Y-108896971D01*
X58812417Y-108849042D01*
X58958032Y-108771209D01*
X58985193Y-108748918D01*
X59139998Y-108718126D01*
X59328356Y-108640105D01*
X59497874Y-108526837D01*
X59642037Y-108382674D01*
X59755305Y-108213156D01*
X59833326Y-108024798D01*
X59873100Y-107824839D01*
X59873100Y-107621428D01*
X59920518Y-107635812D01*
X60045000Y-107648072D01*
X60674250Y-107645000D01*
X60833000Y-107486250D01*
X60833000Y-106172000D01*
X60813000Y-106172000D01*
X60813000Y-105918000D01*
X60833000Y-105918000D01*
X60833000Y-105898000D01*
X61087000Y-105898000D01*
X61087000Y-105918000D01*
G37*
X61087000Y-105918000D02*
X61107000Y-105918000D01*
X61107000Y-106172000D01*
X61087000Y-106172000D01*
X61087000Y-107486250D01*
X61245750Y-107645000D01*
X61875000Y-107648072D01*
X61999482Y-107635812D01*
X62119180Y-107599502D01*
X62200700Y-107555928D01*
X62200700Y-110350932D01*
X62155158Y-110332068D01*
X61868260Y-110275000D01*
X61575740Y-110275000D01*
X61288842Y-110332068D01*
X61018589Y-110444010D01*
X60775368Y-110606525D01*
X60568525Y-110813368D01*
X60452000Y-110987760D01*
X60335475Y-110813368D01*
X60128632Y-110606525D01*
X59885411Y-110444010D01*
X59615158Y-110332068D01*
X59328260Y-110275000D01*
X59035740Y-110275000D01*
X58748842Y-110332068D01*
X58478589Y-110444010D01*
X58235368Y-110606525D01*
X58028525Y-110813368D01*
X57866010Y-111056589D01*
X57754068Y-111326842D01*
X57697000Y-111613740D01*
X57697000Y-111906260D01*
X57754068Y-112193158D01*
X57866010Y-112463411D01*
X58028525Y-112706632D01*
X58235368Y-112913475D01*
X58409760Y-113030000D01*
X58235368Y-113146525D01*
X58028525Y-113353368D01*
X57866010Y-113596589D01*
X57754068Y-113866842D01*
X57697000Y-114153740D01*
X57697000Y-114446260D01*
X57754068Y-114733158D01*
X57866010Y-115003411D01*
X58028525Y-115246632D01*
X58235368Y-115453475D01*
X58420001Y-115576843D01*
X58420001Y-115972648D01*
X58416314Y-116010081D01*
X58431027Y-116159459D01*
X58474599Y-116303096D01*
X58545355Y-116435473D01*
X58596384Y-116497651D01*
X58640579Y-116551503D01*
X58669649Y-116575360D01*
X59950900Y-117856611D01*
X59950900Y-119889161D01*
X59785252Y-119778479D01*
X59475872Y-119650330D01*
X59147435Y-119585000D01*
X58812565Y-119585000D01*
X58484128Y-119650330D01*
X58174748Y-119778479D01*
X57896313Y-119964523D01*
X57659523Y-120201313D01*
X57473479Y-120479748D01*
X57431895Y-120580140D01*
X57433072Y-120320000D01*
X57420812Y-120195518D01*
X57384502Y-120075820D01*
X57325537Y-119965506D01*
X57246185Y-119868815D01*
X57149494Y-119789463D01*
X57039180Y-119730498D01*
X56919482Y-119694188D01*
X56795000Y-119681928D01*
X56165750Y-119685000D01*
X56007000Y-119843750D01*
X56007000Y-121158000D01*
X56027000Y-121158000D01*
X56027000Y-121412000D01*
X56007000Y-121412000D01*
X56007000Y-122726250D01*
X56165750Y-122885000D01*
X56795000Y-122888072D01*
X56919482Y-122875812D01*
X57039180Y-122839502D01*
X57149494Y-122780537D01*
X57246185Y-122701185D01*
X57325537Y-122604494D01*
X57384502Y-122494180D01*
X57420812Y-122374482D01*
X57433072Y-122250000D01*
X57431895Y-121989860D01*
X57473479Y-122090252D01*
X57659523Y-122368687D01*
X57896313Y-122605477D01*
X58174748Y-122791521D01*
X58484128Y-122919670D01*
X58812565Y-122985000D01*
X59147435Y-122985000D01*
X59475872Y-122919670D01*
X59785252Y-122791521D01*
X59950900Y-122680838D01*
X59950901Y-129835788D01*
X59947214Y-129873221D01*
X59961927Y-130022599D01*
X60005499Y-130166236D01*
X60076255Y-130298613D01*
X60147621Y-130385572D01*
X60171479Y-130414643D01*
X60200549Y-130438500D01*
X60754300Y-130992252D01*
X60754300Y-131051560D01*
X60794074Y-131251519D01*
X60872095Y-131439877D01*
X60985363Y-131609395D01*
X61129526Y-131753558D01*
X61299044Y-131866826D01*
X61487402Y-131944847D01*
X61687361Y-131984621D01*
X61891239Y-131984621D01*
X62091198Y-131944847D01*
X62279556Y-131866826D01*
X62363276Y-131810887D01*
X62436726Y-131884337D01*
X62606244Y-131997605D01*
X62794602Y-132075626D01*
X62994561Y-132115400D01*
X63198439Y-132115400D01*
X63398398Y-132075626D01*
X63586756Y-131997605D01*
X63756274Y-131884337D01*
X63900437Y-131740174D01*
X64013705Y-131570656D01*
X64091726Y-131382298D01*
X64131500Y-131182339D01*
X64131500Y-131123030D01*
X66053631Y-129200900D01*
X66968889Y-129200900D01*
X67010826Y-129242837D01*
X67180344Y-129356105D01*
X67368702Y-129434126D01*
X67568661Y-129473900D01*
X67772539Y-129473900D01*
X67920001Y-129444568D01*
X67920001Y-140945000D01*
X49022000Y-140945000D01*
X49022000Y-138142220D01*
X49064128Y-138159670D01*
X49392565Y-138225000D01*
X49727435Y-138225000D01*
X50055872Y-138159670D01*
X50365252Y-138031521D01*
X50643687Y-137845477D01*
X50880477Y-137608687D01*
X51066521Y-137330252D01*
X51194670Y-137020872D01*
X51260000Y-136692435D01*
X51260000Y-136357565D01*
X56160000Y-136357565D01*
X56160000Y-136692435D01*
X56225330Y-137020872D01*
X56353479Y-137330252D01*
X56539523Y-137608687D01*
X56776313Y-137845477D01*
X57054748Y-138031521D01*
X57364128Y-138159670D01*
X57692565Y-138225000D01*
X58027435Y-138225000D01*
X58355872Y-138159670D01*
X58665252Y-138031521D01*
X58943687Y-137845477D01*
X59180477Y-137608687D01*
X59366521Y-137330252D01*
X59408105Y-137229860D01*
X59406928Y-137490000D01*
X59419188Y-137614482D01*
X59455498Y-137734180D01*
X59514463Y-137844494D01*
X59593815Y-137941185D01*
X59690506Y-138020537D01*
X59800820Y-138079502D01*
X59920518Y-138115812D01*
X60045000Y-138128072D01*
X60674250Y-138125000D01*
X60833000Y-137966250D01*
X60833000Y-136652000D01*
X61087000Y-136652000D01*
X61087000Y-137966250D01*
X61245750Y-138125000D01*
X61875000Y-138128072D01*
X61999482Y-138115812D01*
X62119180Y-138079502D01*
X62229494Y-138020537D01*
X62326185Y-137941185D01*
X62405537Y-137844494D01*
X62464502Y-137734180D01*
X62500812Y-137614482D01*
X62513072Y-137490000D01*
X62510000Y-136810750D01*
X62351250Y-136652000D01*
X61087000Y-136652000D01*
X60833000Y-136652000D01*
X60813000Y-136652000D01*
X60813000Y-136398000D01*
X60833000Y-136398000D01*
X60833000Y-135083750D01*
X61087000Y-135083750D01*
X61087000Y-136398000D01*
X62351250Y-136398000D01*
X62510000Y-136239250D01*
X62513072Y-135560000D01*
X62500812Y-135435518D01*
X62464502Y-135315820D01*
X62405537Y-135205506D01*
X62326185Y-135108815D01*
X62229494Y-135029463D01*
X62119180Y-134970498D01*
X61999482Y-134934188D01*
X61875000Y-134921928D01*
X61245750Y-134925000D01*
X61087000Y-135083750D01*
X60833000Y-135083750D01*
X60674250Y-134925000D01*
X60045000Y-134921928D01*
X59920518Y-134934188D01*
X59800820Y-134970498D01*
X59690506Y-135029463D01*
X59593815Y-135108815D01*
X59514463Y-135205506D01*
X59455498Y-135315820D01*
X59419188Y-135435518D01*
X59406928Y-135560000D01*
X59408105Y-135820140D01*
X59366521Y-135719748D01*
X59180477Y-135441313D01*
X58943687Y-135204523D01*
X58665252Y-135018479D01*
X58355872Y-134890330D01*
X58027435Y-134825000D01*
X57692565Y-134825000D01*
X57364128Y-134890330D01*
X57054748Y-135018479D01*
X56776313Y-135204523D01*
X56539523Y-135441313D01*
X56353479Y-135719748D01*
X56225330Y-136029128D01*
X56160000Y-136357565D01*
X51260000Y-136357565D01*
X51194670Y-136029128D01*
X51066521Y-135719748D01*
X50880477Y-135441313D01*
X50643687Y-135204523D01*
X50365252Y-135018479D01*
X50055872Y-134890330D01*
X49727435Y-134825000D01*
X49392565Y-134825000D01*
X49064128Y-134890330D01*
X49022000Y-134907780D01*
X49022000Y-127039545D01*
X49044277Y-127006205D01*
X49110990Y-126845145D01*
X49145000Y-126674165D01*
X49145000Y-126499835D01*
X49110990Y-126328855D01*
X49044277Y-126167795D01*
X49022000Y-126134455D01*
X49022000Y-126039545D01*
X49044277Y-126006205D01*
X49110990Y-125845145D01*
X49145000Y-125674165D01*
X49145000Y-125499835D01*
X49110990Y-125328855D01*
X49044277Y-125167795D01*
X49022000Y-125134455D01*
X49022000Y-125039545D01*
X49044277Y-125006205D01*
X49110990Y-124845145D01*
X49145000Y-124674165D01*
X49145000Y-124499835D01*
X49110990Y-124328855D01*
X49044277Y-124167795D01*
X49022000Y-124134455D01*
X49022000Y-124039545D01*
X49044277Y-124006205D01*
X49110990Y-123845145D01*
X49145000Y-123674165D01*
X49145000Y-123499835D01*
X49110990Y-123328855D01*
X49044277Y-123167795D01*
X49022000Y-123134455D01*
X49022000Y-123039545D01*
X49044277Y-123006205D01*
X49110990Y-122845145D01*
X49145000Y-122674165D01*
X49145000Y-122499835D01*
X49110990Y-122328855D01*
X49078328Y-122250000D01*
X54326928Y-122250000D01*
X54339188Y-122374482D01*
X54375498Y-122494180D01*
X54434463Y-122604494D01*
X54513815Y-122701185D01*
X54610506Y-122780537D01*
X54720820Y-122839502D01*
X54840518Y-122875812D01*
X54965000Y-122888072D01*
X55594250Y-122885000D01*
X55753000Y-122726250D01*
X55753000Y-121412000D01*
X54488750Y-121412000D01*
X54330000Y-121570750D01*
X54326928Y-122250000D01*
X49078328Y-122250000D01*
X49044277Y-122167795D01*
X49022000Y-122134455D01*
X49022000Y-117158179D01*
X49051463Y-117202274D01*
X49195626Y-117346437D01*
X49365144Y-117459705D01*
X49553502Y-117537726D01*
X49753461Y-117577500D01*
X49957339Y-117577500D01*
X50157298Y-117537726D01*
X50345656Y-117459705D01*
X50515174Y-117346437D01*
X50659337Y-117202274D01*
X50772605Y-117032756D01*
X50850626Y-116844398D01*
X50878369Y-116704924D01*
X50981393Y-116601900D01*
X52824404Y-116601900D01*
X52942644Y-116680905D01*
X53131002Y-116758926D01*
X53330961Y-116798700D01*
X53534839Y-116798700D01*
X53612999Y-116783153D01*
X53612999Y-118790670D01*
X53484744Y-118843795D01*
X53315226Y-118957063D01*
X53171063Y-119101226D01*
X53057795Y-119270744D01*
X52979774Y-119459102D01*
X52940000Y-119659061D01*
X52940000Y-119862939D01*
X52979774Y-120062898D01*
X53057795Y-120251256D01*
X53171063Y-120420774D01*
X53315226Y-120564937D01*
X53484744Y-120678205D01*
X53673102Y-120756226D01*
X53873061Y-120796000D01*
X54076939Y-120796000D01*
X54276898Y-120756226D01*
X54328804Y-120734726D01*
X54330000Y-120999250D01*
X54488750Y-121158000D01*
X55753000Y-121158000D01*
X55753000Y-119843750D01*
X55594250Y-119685000D01*
X55067215Y-119682427D01*
X55082401Y-119654016D01*
X55125973Y-119510379D01*
X55136999Y-119398427D01*
X55136999Y-119398425D01*
X55140685Y-119361002D01*
X55136999Y-119323579D01*
X55136999Y-113072631D01*
X56303631Y-111906000D01*
X56362939Y-111906000D01*
X56562898Y-111866226D01*
X56751256Y-111788205D01*
X56920774Y-111674937D01*
X57064937Y-111530774D01*
X57178205Y-111361256D01*
X57256226Y-111172898D01*
X57296000Y-110972939D01*
X57296000Y-110769061D01*
X57256226Y-110569102D01*
X57178205Y-110380744D01*
X57064937Y-110211226D01*
X56920774Y-110067063D01*
X56751256Y-109953795D01*
X56562898Y-109875774D01*
X56362939Y-109836000D01*
X56159061Y-109836000D01*
X55959102Y-109875774D01*
X55770744Y-109953795D01*
X55601226Y-110067063D01*
X55457063Y-110211226D01*
X55343795Y-110380744D01*
X55265774Y-110569102D01*
X55226000Y-110769061D01*
X55226000Y-110828369D01*
X53862648Y-112191722D01*
X53833578Y-112215579D01*
X53809721Y-112244649D01*
X53809720Y-112244650D01*
X53797200Y-112259906D01*
X53797200Y-110910893D01*
X55393388Y-109314706D01*
X55425364Y-109288464D01*
X55530109Y-109160832D01*
X55607942Y-109015217D01*
X55640132Y-108909100D01*
X58448937Y-108909100D01*
X58490100Y-108913154D01*
X58531263Y-108909100D01*
X58531270Y-108909100D01*
X58654416Y-108896971D01*
X58812417Y-108849042D01*
X58958032Y-108771209D01*
X58985193Y-108748918D01*
X59139998Y-108718126D01*
X59328356Y-108640105D01*
X59497874Y-108526837D01*
X59642037Y-108382674D01*
X59755305Y-108213156D01*
X59833326Y-108024798D01*
X59873100Y-107824839D01*
X59873100Y-107621428D01*
X59920518Y-107635812D01*
X60045000Y-107648072D01*
X60674250Y-107645000D01*
X60833000Y-107486250D01*
X60833000Y-106172000D01*
X60813000Y-106172000D01*
X60813000Y-105918000D01*
X60833000Y-105918000D01*
X60833000Y-105898000D01*
X61087000Y-105898000D01*
X61087000Y-105918000D01*
G36*
X57336313Y-54458477D02*
G01*
X57614748Y-54644521D01*
X57924128Y-54772670D01*
X58252565Y-54838000D01*
X58587435Y-54838000D01*
X58915872Y-54772670D01*
X59225252Y-54644521D01*
X59503687Y-54458477D01*
X59670700Y-54291464D01*
X59670701Y-60284537D01*
X59503687Y-60117523D01*
X59225252Y-59931479D01*
X58915872Y-59803330D01*
X58587435Y-59738000D01*
X58252565Y-59738000D01*
X57924128Y-59803330D01*
X57614748Y-59931479D01*
X57336313Y-60117523D01*
X57099523Y-60354313D01*
X56913479Y-60632748D01*
X56785330Y-60942128D01*
X56720000Y-61270565D01*
X56720000Y-61605435D01*
X56785330Y-61933872D01*
X56913479Y-62243252D01*
X57099523Y-62521687D01*
X57336313Y-62758477D01*
X57614748Y-62944521D01*
X57924128Y-63072670D01*
X58252565Y-63138000D01*
X58587435Y-63138000D01*
X58915872Y-63072670D01*
X59225252Y-62944521D01*
X59503687Y-62758477D01*
X59670701Y-62591463D01*
X59670701Y-64549369D01*
X57907654Y-66312416D01*
X57878578Y-66336278D01*
X57843448Y-66379085D01*
X57783355Y-66452308D01*
X57745718Y-66522722D01*
X57712598Y-66584686D01*
X57669026Y-66728323D01*
X57659851Y-66821479D01*
X57654314Y-66877700D01*
X57658000Y-66915123D01*
X57658000Y-68511928D01*
X56450000Y-68511928D01*
X56325518Y-68524188D01*
X56205820Y-68560498D01*
X56095506Y-68619463D01*
X55998815Y-68698815D01*
X55919463Y-68795506D01*
X55860498Y-68905820D01*
X55824188Y-69025518D01*
X55811928Y-69150000D01*
X55811928Y-70550000D01*
X55824188Y-70674482D01*
X55860498Y-70794180D01*
X55919463Y-70904494D01*
X55998815Y-71001185D01*
X56095506Y-71080537D01*
X56205820Y-71139502D01*
X56325518Y-71175812D01*
X56450000Y-71188072D01*
X57658001Y-71188072D01*
X57658001Y-71601405D01*
X57613474Y-71708902D01*
X57598120Y-71786095D01*
X57593758Y-71784066D01*
X57338260Y-71721817D01*
X57075527Y-71710610D01*
X56815656Y-71750875D01*
X56568634Y-71841065D01*
X56467797Y-71894963D01*
X56408336Y-72128731D01*
X57150000Y-72870395D01*
X57164143Y-72856253D01*
X57343748Y-73035858D01*
X57329605Y-73050000D01*
X58071269Y-73791664D01*
X58305037Y-73732203D01*
X58401592Y-73524596D01*
X58466939Y-73682359D01*
X58613038Y-73901013D01*
X58798987Y-74086962D01*
X59017641Y-74233061D01*
X59260595Y-74333696D01*
X59518514Y-74385000D01*
X59781486Y-74385000D01*
X60039405Y-74333696D01*
X60282359Y-74233061D01*
X60501013Y-74086962D01*
X60686962Y-73901013D01*
X60833061Y-73682359D01*
X60933696Y-73439405D01*
X60985000Y-73181486D01*
X60985000Y-72918514D01*
X60964114Y-72813516D01*
X61427909Y-72349721D01*
X62285000Y-72349721D01*
X62285000Y-72770279D01*
X62367047Y-73182756D01*
X62527988Y-73571302D01*
X62761637Y-73920983D01*
X63059017Y-74218363D01*
X63408698Y-74452012D01*
X63797244Y-74612953D01*
X64209721Y-74695000D01*
X64630279Y-74695000D01*
X65042756Y-74612953D01*
X65431302Y-74452012D01*
X65780983Y-74218363D01*
X66078363Y-73920983D01*
X66312012Y-73571302D01*
X66472953Y-73182756D01*
X66555000Y-72770279D01*
X66555000Y-72349721D01*
X66472953Y-71937244D01*
X66312012Y-71548698D01*
X66078363Y-71199017D01*
X65780983Y-70901637D01*
X65431302Y-70667988D01*
X65042756Y-70507047D01*
X64630279Y-70425000D01*
X64209721Y-70425000D01*
X63797244Y-70507047D01*
X63408698Y-70667988D01*
X63059017Y-70901637D01*
X62761637Y-71199017D01*
X62527988Y-71548698D01*
X62367047Y-71937244D01*
X62285000Y-72349721D01*
X61427909Y-72349721D01*
X65663352Y-68114279D01*
X65692422Y-68090422D01*
X65727380Y-68047826D01*
X65787645Y-67974393D01*
X65838809Y-67878671D01*
X65858402Y-67842015D01*
X65901974Y-67698378D01*
X65913000Y-67586426D01*
X65913000Y-67586423D01*
X65916686Y-67549000D01*
X65913000Y-67511577D01*
X65913000Y-59146072D01*
X67138000Y-59146072D01*
X67138001Y-71454404D01*
X67065626Y-71502763D01*
X66921463Y-71646926D01*
X66808195Y-71816444D01*
X66730174Y-72004802D01*
X66690400Y-72204761D01*
X66690400Y-72408639D01*
X66730174Y-72608598D01*
X66808195Y-72796956D01*
X66921463Y-72966474D01*
X67065626Y-73110637D01*
X67235144Y-73223905D01*
X67423502Y-73301926D01*
X67623461Y-73341700D01*
X67827339Y-73341700D01*
X67920000Y-73323269D01*
X67920000Y-89230030D01*
X67775872Y-89170330D01*
X67447435Y-89105000D01*
X67112565Y-89105000D01*
X66784128Y-89170330D01*
X66474748Y-89298479D01*
X66196313Y-89484523D01*
X65959523Y-89721313D01*
X65773479Y-89999748D01*
X65645330Y-90309128D01*
X65580000Y-90637565D01*
X65580000Y-90972435D01*
X65645330Y-91300872D01*
X65773479Y-91610252D01*
X65959523Y-91888687D01*
X66196313Y-92125477D01*
X66474748Y-92311521D01*
X66784128Y-92439670D01*
X67112565Y-92505000D01*
X67447435Y-92505000D01*
X67775872Y-92439670D01*
X67920001Y-92379970D01*
X67920001Y-95423870D01*
X61258300Y-88762170D01*
X61258300Y-88702861D01*
X61218526Y-88502902D01*
X61140505Y-88314544D01*
X61027237Y-88145026D01*
X60883074Y-88000863D01*
X60713556Y-87887595D01*
X60525198Y-87809574D01*
X60429500Y-87790539D01*
X60429500Y-83455500D01*
X60495361Y-83468600D01*
X60699239Y-83468600D01*
X60899198Y-83428826D01*
X61087556Y-83350805D01*
X61257074Y-83237537D01*
X61401237Y-83093374D01*
X61514505Y-82923856D01*
X61592526Y-82735498D01*
X61632300Y-82535539D01*
X61632300Y-82476230D01*
X63839453Y-80269078D01*
X63868522Y-80245222D01*
X63963745Y-80129192D01*
X64034502Y-79996815D01*
X64078074Y-79853178D01*
X64089100Y-79741226D01*
X64089100Y-79741224D01*
X64092786Y-79703801D01*
X64089100Y-79666378D01*
X64089100Y-76483811D01*
X64131037Y-76441874D01*
X64244305Y-76272356D01*
X64322326Y-76083998D01*
X64362100Y-75884039D01*
X64362100Y-75680161D01*
X64322326Y-75480202D01*
X64244305Y-75291844D01*
X64131037Y-75122326D01*
X63986874Y-74978163D01*
X63817356Y-74864895D01*
X63628998Y-74786874D01*
X63429039Y-74747100D01*
X63225161Y-74747100D01*
X63025202Y-74786874D01*
X62836844Y-74864895D01*
X62667326Y-74978163D01*
X62523163Y-75122326D01*
X62409895Y-75291844D01*
X62331874Y-75480202D01*
X62292100Y-75680161D01*
X62292100Y-75884039D01*
X62331874Y-76083998D01*
X62409895Y-76272356D01*
X62523163Y-76441874D01*
X62565101Y-76483812D01*
X62565100Y-79388169D01*
X61197770Y-80755500D01*
X61241926Y-80648898D01*
X61281700Y-80448939D01*
X61281700Y-80245061D01*
X61241926Y-80045102D01*
X61163905Y-79856744D01*
X61050637Y-79687226D01*
X60906474Y-79543063D01*
X60736956Y-79429795D01*
X60548598Y-79351774D01*
X60348639Y-79312000D01*
X60308773Y-79312000D01*
X60319626Y-79285798D01*
X60359400Y-79085839D01*
X60359400Y-78881961D01*
X60319626Y-78682002D01*
X60241605Y-78493644D01*
X60128337Y-78324126D01*
X59984174Y-78179963D01*
X59814656Y-78066695D01*
X59626298Y-77988674D01*
X59426339Y-77948900D01*
X59222461Y-77948900D01*
X59022502Y-77988674D01*
X58834144Y-78066695D01*
X58664626Y-78179963D01*
X58520463Y-78324126D01*
X58407195Y-78493644D01*
X58329174Y-78682002D01*
X58289400Y-78881961D01*
X58289400Y-79085839D01*
X58329174Y-79285798D01*
X58345301Y-79324732D01*
X58345300Y-87934069D01*
X57031271Y-89248099D01*
X56919482Y-89214188D01*
X56795000Y-89201928D01*
X56165750Y-89205000D01*
X56007000Y-89363750D01*
X56007000Y-90678000D01*
X56027000Y-90678000D01*
X56027000Y-90932000D01*
X56007000Y-90932000D01*
X56007000Y-92246250D01*
X56165750Y-92405000D01*
X56771300Y-92407956D01*
X56771300Y-93871789D01*
X56729363Y-93913726D01*
X56616095Y-94083244D01*
X56538074Y-94271602D01*
X56518181Y-94371614D01*
X56467102Y-94381774D01*
X56278744Y-94459795D01*
X56109226Y-94573063D01*
X55965063Y-94717226D01*
X55851795Y-94886744D01*
X55773774Y-95075102D01*
X55734000Y-95275061D01*
X55734000Y-95478939D01*
X55773774Y-95678898D01*
X55851795Y-95867256D01*
X55965063Y-96036774D01*
X56109226Y-96180937D01*
X56278744Y-96294205D01*
X56467102Y-96372226D01*
X56667061Y-96412000D01*
X56744331Y-96412000D01*
X61013900Y-100681570D01*
X61013901Y-103679588D01*
X60959263Y-103734226D01*
X60845995Y-103903744D01*
X60767974Y-104092102D01*
X60728200Y-104292061D01*
X60728200Y-104495939D01*
X60728948Y-104499698D01*
X60674250Y-104445000D01*
X60045000Y-104441928D01*
X59920518Y-104454188D01*
X59800820Y-104490498D01*
X59690506Y-104549463D01*
X59593815Y-104628815D01*
X59514463Y-104725506D01*
X59455498Y-104835820D01*
X59419188Y-104955518D01*
X59406928Y-105080000D01*
X59408105Y-105340140D01*
X59366521Y-105239748D01*
X59180477Y-104961313D01*
X58943687Y-104724523D01*
X58665252Y-104538479D01*
X58355872Y-104410330D01*
X58027435Y-104345000D01*
X57692565Y-104345000D01*
X57364128Y-104410330D01*
X57054748Y-104538479D01*
X56776313Y-104724523D01*
X56539523Y-104961313D01*
X56353479Y-105239748D01*
X56225330Y-105549128D01*
X56160000Y-105877565D01*
X56160000Y-106212435D01*
X56225330Y-106540872D01*
X56353479Y-106850252D01*
X56539523Y-107128687D01*
X56643536Y-107232700D01*
X55357000Y-107232700D01*
X55357000Y-92406158D01*
X55594250Y-92405000D01*
X55753000Y-92246250D01*
X55753000Y-90932000D01*
X55733000Y-90932000D01*
X55733000Y-90678000D01*
X55753000Y-90678000D01*
X55753000Y-89363750D01*
X55594250Y-89205000D01*
X55357000Y-89203842D01*
X55357000Y-87592686D01*
X55416144Y-87632205D01*
X55604502Y-87710226D01*
X55804461Y-87750000D01*
X56008339Y-87750000D01*
X56208298Y-87710226D01*
X56396656Y-87632205D01*
X56566174Y-87518937D01*
X56710337Y-87374774D01*
X56823605Y-87205256D01*
X56901626Y-87016898D01*
X56941400Y-86816939D01*
X56941400Y-86613061D01*
X56901626Y-86413102D01*
X56823605Y-86224744D01*
X56710337Y-86055226D01*
X56566174Y-85911063D01*
X56396656Y-85797795D01*
X56208298Y-85719774D01*
X56008339Y-85680000D01*
X55804461Y-85680000D01*
X55604502Y-85719774D01*
X55416144Y-85797795D01*
X55297904Y-85876800D01*
X54559970Y-85876800D01*
X54518800Y-85872745D01*
X54477630Y-85876800D01*
X53315594Y-85876800D01*
X51968123Y-84529330D01*
X51968300Y-84528439D01*
X51968300Y-84324561D01*
X51928526Y-84124602D01*
X51850505Y-83936244D01*
X51737237Y-83766726D01*
X51593074Y-83622563D01*
X51423556Y-83509295D01*
X51235198Y-83431274D01*
X51095725Y-83403531D01*
X50938200Y-83246007D01*
X50938200Y-74137546D01*
X51019017Y-74218363D01*
X51368698Y-74452012D01*
X51757244Y-74612953D01*
X52169721Y-74695000D01*
X52590279Y-74695000D01*
X53002756Y-74612953D01*
X53391302Y-74452012D01*
X53740983Y-74218363D01*
X53988077Y-73971269D01*
X56408336Y-73971269D01*
X56467797Y-74205037D01*
X56706242Y-74315934D01*
X56961740Y-74378183D01*
X57224473Y-74389390D01*
X57484344Y-74349125D01*
X57731366Y-74258935D01*
X57832203Y-74205037D01*
X57891664Y-73971269D01*
X57150000Y-73229605D01*
X56408336Y-73971269D01*
X53988077Y-73971269D01*
X54038363Y-73920983D01*
X54272012Y-73571302D01*
X54432953Y-73182756D01*
X54444546Y-73124473D01*
X55810610Y-73124473D01*
X55850875Y-73384344D01*
X55941065Y-73631366D01*
X55994963Y-73732203D01*
X56228731Y-73791664D01*
X56970395Y-73050000D01*
X56228731Y-72308336D01*
X55994963Y-72367797D01*
X55884066Y-72606242D01*
X55821817Y-72861740D01*
X55810610Y-73124473D01*
X54444546Y-73124473D01*
X54515000Y-72770279D01*
X54515000Y-72349721D01*
X54432953Y-71937244D01*
X54272012Y-71548698D01*
X54038363Y-71199017D01*
X53740983Y-70901637D01*
X53391302Y-70667988D01*
X53002756Y-70507047D01*
X52590279Y-70425000D01*
X52169721Y-70425000D01*
X51757244Y-70507047D01*
X51368698Y-70667988D01*
X51019017Y-70901637D01*
X50938200Y-70982454D01*
X50938200Y-61987393D01*
X51887987Y-61037607D01*
X51919964Y-61011364D01*
X51978621Y-60939891D01*
X52024709Y-60883732D01*
X52043687Y-60848226D01*
X52102542Y-60738117D01*
X52119577Y-60681961D01*
X52251644Y-60770205D01*
X52440002Y-60848226D01*
X52639961Y-60888000D01*
X52843839Y-60888000D01*
X53043798Y-60848226D01*
X53232156Y-60770205D01*
X53401674Y-60656937D01*
X53545837Y-60512774D01*
X53659105Y-60343256D01*
X53737126Y-60154898D01*
X53776900Y-59954939D01*
X53776900Y-59895630D01*
X56862652Y-56809879D01*
X56891722Y-56786022D01*
X56986945Y-56669992D01*
X57050218Y-56551617D01*
X57057701Y-56537617D01*
X57057702Y-56537615D01*
X57101274Y-56393978D01*
X57112300Y-56282026D01*
X57112300Y-56282024D01*
X57115986Y-56244601D01*
X57112300Y-56207178D01*
X57112300Y-54234464D01*
X57336313Y-54458477D01*
G37*
X57336313Y-54458477D02*
X57614748Y-54644521D01*
X57924128Y-54772670D01*
X58252565Y-54838000D01*
X58587435Y-54838000D01*
X58915872Y-54772670D01*
X59225252Y-54644521D01*
X59503687Y-54458477D01*
X59670700Y-54291464D01*
X59670701Y-60284537D01*
X59503687Y-60117523D01*
X59225252Y-59931479D01*
X58915872Y-59803330D01*
X58587435Y-59738000D01*
X58252565Y-59738000D01*
X57924128Y-59803330D01*
X57614748Y-59931479D01*
X57336313Y-60117523D01*
X57099523Y-60354313D01*
X56913479Y-60632748D01*
X56785330Y-60942128D01*
X56720000Y-61270565D01*
X56720000Y-61605435D01*
X56785330Y-61933872D01*
X56913479Y-62243252D01*
X57099523Y-62521687D01*
X57336313Y-62758477D01*
X57614748Y-62944521D01*
X57924128Y-63072670D01*
X58252565Y-63138000D01*
X58587435Y-63138000D01*
X58915872Y-63072670D01*
X59225252Y-62944521D01*
X59503687Y-62758477D01*
X59670701Y-62591463D01*
X59670701Y-64549369D01*
X57907654Y-66312416D01*
X57878578Y-66336278D01*
X57843448Y-66379085D01*
X57783355Y-66452308D01*
X57745718Y-66522722D01*
X57712598Y-66584686D01*
X57669026Y-66728323D01*
X57659851Y-66821479D01*
X57654314Y-66877700D01*
X57658000Y-66915123D01*
X57658000Y-68511928D01*
X56450000Y-68511928D01*
X56325518Y-68524188D01*
X56205820Y-68560498D01*
X56095506Y-68619463D01*
X55998815Y-68698815D01*
X55919463Y-68795506D01*
X55860498Y-68905820D01*
X55824188Y-69025518D01*
X55811928Y-69150000D01*
X55811928Y-70550000D01*
X55824188Y-70674482D01*
X55860498Y-70794180D01*
X55919463Y-70904494D01*
X55998815Y-71001185D01*
X56095506Y-71080537D01*
X56205820Y-71139502D01*
X56325518Y-71175812D01*
X56450000Y-71188072D01*
X57658001Y-71188072D01*
X57658001Y-71601405D01*
X57613474Y-71708902D01*
X57598120Y-71786095D01*
X57593758Y-71784066D01*
X57338260Y-71721817D01*
X57075527Y-71710610D01*
X56815656Y-71750875D01*
X56568634Y-71841065D01*
X56467797Y-71894963D01*
X56408336Y-72128731D01*
X57150000Y-72870395D01*
X57164143Y-72856253D01*
X57343748Y-73035858D01*
X57329605Y-73050000D01*
X58071269Y-73791664D01*
X58305037Y-73732203D01*
X58401592Y-73524596D01*
X58466939Y-73682359D01*
X58613038Y-73901013D01*
X58798987Y-74086962D01*
X59017641Y-74233061D01*
X59260595Y-74333696D01*
X59518514Y-74385000D01*
X59781486Y-74385000D01*
X60039405Y-74333696D01*
X60282359Y-74233061D01*
X60501013Y-74086962D01*
X60686962Y-73901013D01*
X60833061Y-73682359D01*
X60933696Y-73439405D01*
X60985000Y-73181486D01*
X60985000Y-72918514D01*
X60964114Y-72813516D01*
X61427909Y-72349721D01*
X62285000Y-72349721D01*
X62285000Y-72770279D01*
X62367047Y-73182756D01*
X62527988Y-73571302D01*
X62761637Y-73920983D01*
X63059017Y-74218363D01*
X63408698Y-74452012D01*
X63797244Y-74612953D01*
X64209721Y-74695000D01*
X64630279Y-74695000D01*
X65042756Y-74612953D01*
X65431302Y-74452012D01*
X65780983Y-74218363D01*
X66078363Y-73920983D01*
X66312012Y-73571302D01*
X66472953Y-73182756D01*
X66555000Y-72770279D01*
X66555000Y-72349721D01*
X66472953Y-71937244D01*
X66312012Y-71548698D01*
X66078363Y-71199017D01*
X65780983Y-70901637D01*
X65431302Y-70667988D01*
X65042756Y-70507047D01*
X64630279Y-70425000D01*
X64209721Y-70425000D01*
X63797244Y-70507047D01*
X63408698Y-70667988D01*
X63059017Y-70901637D01*
X62761637Y-71199017D01*
X62527988Y-71548698D01*
X62367047Y-71937244D01*
X62285000Y-72349721D01*
X61427909Y-72349721D01*
X65663352Y-68114279D01*
X65692422Y-68090422D01*
X65727380Y-68047826D01*
X65787645Y-67974393D01*
X65838809Y-67878671D01*
X65858402Y-67842015D01*
X65901974Y-67698378D01*
X65913000Y-67586426D01*
X65913000Y-67586423D01*
X65916686Y-67549000D01*
X65913000Y-67511577D01*
X65913000Y-59146072D01*
X67138000Y-59146072D01*
X67138001Y-71454404D01*
X67065626Y-71502763D01*
X66921463Y-71646926D01*
X66808195Y-71816444D01*
X66730174Y-72004802D01*
X66690400Y-72204761D01*
X66690400Y-72408639D01*
X66730174Y-72608598D01*
X66808195Y-72796956D01*
X66921463Y-72966474D01*
X67065626Y-73110637D01*
X67235144Y-73223905D01*
X67423502Y-73301926D01*
X67623461Y-73341700D01*
X67827339Y-73341700D01*
X67920000Y-73323269D01*
X67920000Y-89230030D01*
X67775872Y-89170330D01*
X67447435Y-89105000D01*
X67112565Y-89105000D01*
X66784128Y-89170330D01*
X66474748Y-89298479D01*
X66196313Y-89484523D01*
X65959523Y-89721313D01*
X65773479Y-89999748D01*
X65645330Y-90309128D01*
X65580000Y-90637565D01*
X65580000Y-90972435D01*
X65645330Y-91300872D01*
X65773479Y-91610252D01*
X65959523Y-91888687D01*
X66196313Y-92125477D01*
X66474748Y-92311521D01*
X66784128Y-92439670D01*
X67112565Y-92505000D01*
X67447435Y-92505000D01*
X67775872Y-92439670D01*
X67920001Y-92379970D01*
X67920001Y-95423870D01*
X61258300Y-88762170D01*
X61258300Y-88702861D01*
X61218526Y-88502902D01*
X61140505Y-88314544D01*
X61027237Y-88145026D01*
X60883074Y-88000863D01*
X60713556Y-87887595D01*
X60525198Y-87809574D01*
X60429500Y-87790539D01*
X60429500Y-83455500D01*
X60495361Y-83468600D01*
X60699239Y-83468600D01*
X60899198Y-83428826D01*
X61087556Y-83350805D01*
X61257074Y-83237537D01*
X61401237Y-83093374D01*
X61514505Y-82923856D01*
X61592526Y-82735498D01*
X61632300Y-82535539D01*
X61632300Y-82476230D01*
X63839453Y-80269078D01*
X63868522Y-80245222D01*
X63963745Y-80129192D01*
X64034502Y-79996815D01*
X64078074Y-79853178D01*
X64089100Y-79741226D01*
X64089100Y-79741224D01*
X64092786Y-79703801D01*
X64089100Y-79666378D01*
X64089100Y-76483811D01*
X64131037Y-76441874D01*
X64244305Y-76272356D01*
X64322326Y-76083998D01*
X64362100Y-75884039D01*
X64362100Y-75680161D01*
X64322326Y-75480202D01*
X64244305Y-75291844D01*
X64131037Y-75122326D01*
X63986874Y-74978163D01*
X63817356Y-74864895D01*
X63628998Y-74786874D01*
X63429039Y-74747100D01*
X63225161Y-74747100D01*
X63025202Y-74786874D01*
X62836844Y-74864895D01*
X62667326Y-74978163D01*
X62523163Y-75122326D01*
X62409895Y-75291844D01*
X62331874Y-75480202D01*
X62292100Y-75680161D01*
X62292100Y-75884039D01*
X62331874Y-76083998D01*
X62409895Y-76272356D01*
X62523163Y-76441874D01*
X62565101Y-76483812D01*
X62565100Y-79388169D01*
X61197770Y-80755500D01*
X61241926Y-80648898D01*
X61281700Y-80448939D01*
X61281700Y-80245061D01*
X61241926Y-80045102D01*
X61163905Y-79856744D01*
X61050637Y-79687226D01*
X60906474Y-79543063D01*
X60736956Y-79429795D01*
X60548598Y-79351774D01*
X60348639Y-79312000D01*
X60308773Y-79312000D01*
X60319626Y-79285798D01*
X60359400Y-79085839D01*
X60359400Y-78881961D01*
X60319626Y-78682002D01*
X60241605Y-78493644D01*
X60128337Y-78324126D01*
X59984174Y-78179963D01*
X59814656Y-78066695D01*
X59626298Y-77988674D01*
X59426339Y-77948900D01*
X59222461Y-77948900D01*
X59022502Y-77988674D01*
X58834144Y-78066695D01*
X58664626Y-78179963D01*
X58520463Y-78324126D01*
X58407195Y-78493644D01*
X58329174Y-78682002D01*
X58289400Y-78881961D01*
X58289400Y-79085839D01*
X58329174Y-79285798D01*
X58345301Y-79324732D01*
X58345300Y-87934069D01*
X57031271Y-89248099D01*
X56919482Y-89214188D01*
X56795000Y-89201928D01*
X56165750Y-89205000D01*
X56007000Y-89363750D01*
X56007000Y-90678000D01*
X56027000Y-90678000D01*
X56027000Y-90932000D01*
X56007000Y-90932000D01*
X56007000Y-92246250D01*
X56165750Y-92405000D01*
X56771300Y-92407956D01*
X56771300Y-93871789D01*
X56729363Y-93913726D01*
X56616095Y-94083244D01*
X56538074Y-94271602D01*
X56518181Y-94371614D01*
X56467102Y-94381774D01*
X56278744Y-94459795D01*
X56109226Y-94573063D01*
X55965063Y-94717226D01*
X55851795Y-94886744D01*
X55773774Y-95075102D01*
X55734000Y-95275061D01*
X55734000Y-95478939D01*
X55773774Y-95678898D01*
X55851795Y-95867256D01*
X55965063Y-96036774D01*
X56109226Y-96180937D01*
X56278744Y-96294205D01*
X56467102Y-96372226D01*
X56667061Y-96412000D01*
X56744331Y-96412000D01*
X61013900Y-100681570D01*
X61013901Y-103679588D01*
X60959263Y-103734226D01*
X60845995Y-103903744D01*
X60767974Y-104092102D01*
X60728200Y-104292061D01*
X60728200Y-104495939D01*
X60728948Y-104499698D01*
X60674250Y-104445000D01*
X60045000Y-104441928D01*
X59920518Y-104454188D01*
X59800820Y-104490498D01*
X59690506Y-104549463D01*
X59593815Y-104628815D01*
X59514463Y-104725506D01*
X59455498Y-104835820D01*
X59419188Y-104955518D01*
X59406928Y-105080000D01*
X59408105Y-105340140D01*
X59366521Y-105239748D01*
X59180477Y-104961313D01*
X58943687Y-104724523D01*
X58665252Y-104538479D01*
X58355872Y-104410330D01*
X58027435Y-104345000D01*
X57692565Y-104345000D01*
X57364128Y-104410330D01*
X57054748Y-104538479D01*
X56776313Y-104724523D01*
X56539523Y-104961313D01*
X56353479Y-105239748D01*
X56225330Y-105549128D01*
X56160000Y-105877565D01*
X56160000Y-106212435D01*
X56225330Y-106540872D01*
X56353479Y-106850252D01*
X56539523Y-107128687D01*
X56643536Y-107232700D01*
X55357000Y-107232700D01*
X55357000Y-92406158D01*
X55594250Y-92405000D01*
X55753000Y-92246250D01*
X55753000Y-90932000D01*
X55733000Y-90932000D01*
X55733000Y-90678000D01*
X55753000Y-90678000D01*
X55753000Y-89363750D01*
X55594250Y-89205000D01*
X55357000Y-89203842D01*
X55357000Y-87592686D01*
X55416144Y-87632205D01*
X55604502Y-87710226D01*
X55804461Y-87750000D01*
X56008339Y-87750000D01*
X56208298Y-87710226D01*
X56396656Y-87632205D01*
X56566174Y-87518937D01*
X56710337Y-87374774D01*
X56823605Y-87205256D01*
X56901626Y-87016898D01*
X56941400Y-86816939D01*
X56941400Y-86613061D01*
X56901626Y-86413102D01*
X56823605Y-86224744D01*
X56710337Y-86055226D01*
X56566174Y-85911063D01*
X56396656Y-85797795D01*
X56208298Y-85719774D01*
X56008339Y-85680000D01*
X55804461Y-85680000D01*
X55604502Y-85719774D01*
X55416144Y-85797795D01*
X55297904Y-85876800D01*
X54559970Y-85876800D01*
X54518800Y-85872745D01*
X54477630Y-85876800D01*
X53315594Y-85876800D01*
X51968123Y-84529330D01*
X51968300Y-84528439D01*
X51968300Y-84324561D01*
X51928526Y-84124602D01*
X51850505Y-83936244D01*
X51737237Y-83766726D01*
X51593074Y-83622563D01*
X51423556Y-83509295D01*
X51235198Y-83431274D01*
X51095725Y-83403531D01*
X50938200Y-83246007D01*
X50938200Y-74137546D01*
X51019017Y-74218363D01*
X51368698Y-74452012D01*
X51757244Y-74612953D01*
X52169721Y-74695000D01*
X52590279Y-74695000D01*
X53002756Y-74612953D01*
X53391302Y-74452012D01*
X53740983Y-74218363D01*
X53988077Y-73971269D01*
X56408336Y-73971269D01*
X56467797Y-74205037D01*
X56706242Y-74315934D01*
X56961740Y-74378183D01*
X57224473Y-74389390D01*
X57484344Y-74349125D01*
X57731366Y-74258935D01*
X57832203Y-74205037D01*
X57891664Y-73971269D01*
X57150000Y-73229605D01*
X56408336Y-73971269D01*
X53988077Y-73971269D01*
X54038363Y-73920983D01*
X54272012Y-73571302D01*
X54432953Y-73182756D01*
X54444546Y-73124473D01*
X55810610Y-73124473D01*
X55850875Y-73384344D01*
X55941065Y-73631366D01*
X55994963Y-73732203D01*
X56228731Y-73791664D01*
X56970395Y-73050000D01*
X56228731Y-72308336D01*
X55994963Y-72367797D01*
X55884066Y-72606242D01*
X55821817Y-72861740D01*
X55810610Y-73124473D01*
X54444546Y-73124473D01*
X54515000Y-72770279D01*
X54515000Y-72349721D01*
X54432953Y-71937244D01*
X54272012Y-71548698D01*
X54038363Y-71199017D01*
X53740983Y-70901637D01*
X53391302Y-70667988D01*
X53002756Y-70507047D01*
X52590279Y-70425000D01*
X52169721Y-70425000D01*
X51757244Y-70507047D01*
X51368698Y-70667988D01*
X51019017Y-70901637D01*
X50938200Y-70982454D01*
X50938200Y-61987393D01*
X51887987Y-61037607D01*
X51919964Y-61011364D01*
X51978621Y-60939891D01*
X52024709Y-60883732D01*
X52043687Y-60848226D01*
X52102542Y-60738117D01*
X52119577Y-60681961D01*
X52251644Y-60770205D01*
X52440002Y-60848226D01*
X52639961Y-60888000D01*
X52843839Y-60888000D01*
X53043798Y-60848226D01*
X53232156Y-60770205D01*
X53401674Y-60656937D01*
X53545837Y-60512774D01*
X53659105Y-60343256D01*
X53737126Y-60154898D01*
X53776900Y-59954939D01*
X53776900Y-59895630D01*
X56862652Y-56809879D01*
X56891722Y-56786022D01*
X56986945Y-56669992D01*
X57050218Y-56551617D01*
X57057701Y-56537617D01*
X57057702Y-56537615D01*
X57101274Y-56393978D01*
X57112300Y-56282026D01*
X57112300Y-56282024D01*
X57115986Y-56244601D01*
X57112300Y-56207178D01*
X57112300Y-54234464D01*
X57336313Y-54458477D01*
G36*
X62200701Y-92989232D02*
G01*
X62200701Y-99749031D01*
X57966152Y-95514483D01*
X58023556Y-95490705D01*
X58193074Y-95377437D01*
X58337237Y-95233274D01*
X58450505Y-95063756D01*
X58528526Y-94875398D01*
X58568300Y-94675439D01*
X58568300Y-94471561D01*
X58528526Y-94271602D01*
X58450505Y-94083244D01*
X58337237Y-93913726D01*
X58295300Y-93871789D01*
X58295300Y-92361455D01*
X58484128Y-92439670D01*
X58812565Y-92505000D01*
X59147435Y-92505000D01*
X59475872Y-92439670D01*
X59785252Y-92311521D01*
X60063687Y-92125477D01*
X60300477Y-91888687D01*
X60486521Y-91610252D01*
X60584699Y-91373229D01*
X62200701Y-92989232D01*
G37*
X62200701Y-92989232D02*
X62200701Y-99749031D01*
X57966152Y-95514483D01*
X58023556Y-95490705D01*
X58193074Y-95377437D01*
X58337237Y-95233274D01*
X58450505Y-95063756D01*
X58528526Y-94875398D01*
X58568300Y-94675439D01*
X58568300Y-94471561D01*
X58528526Y-94271602D01*
X58450505Y-94083244D01*
X58337237Y-93913726D01*
X58295300Y-93871789D01*
X58295300Y-92361455D01*
X58484128Y-92439670D01*
X58812565Y-92505000D01*
X59147435Y-92505000D01*
X59475872Y-92439670D01*
X59785252Y-92311521D01*
X60063687Y-92125477D01*
X60300477Y-91888687D01*
X60486521Y-91610252D01*
X60584699Y-91373229D01*
X62200701Y-92989232D01*
G36*
X62065901Y-66356468D02*
G01*
X59886484Y-68535886D01*
X59781486Y-68515000D01*
X59518514Y-68515000D01*
X59260595Y-68566304D01*
X59182000Y-68598859D01*
X59182000Y-67193330D01*
X60945046Y-65430284D01*
X60974122Y-65406422D01*
X61034557Y-65332781D01*
X61069345Y-65290393D01*
X61140101Y-65158016D01*
X61140102Y-65158015D01*
X61183674Y-65014378D01*
X61194700Y-64902426D01*
X61194700Y-64902423D01*
X61198386Y-64865000D01*
X61194700Y-64827577D01*
X61194700Y-59429930D01*
X61198446Y-59431482D01*
X61398405Y-59471256D01*
X61602283Y-59471256D01*
X61802242Y-59431482D01*
X61990600Y-59353461D01*
X62065900Y-59303147D01*
X62065901Y-66356468D01*
G37*
X62065901Y-66356468D02*
X59886484Y-68535886D01*
X59781486Y-68515000D01*
X59518514Y-68515000D01*
X59260595Y-68566304D01*
X59182000Y-68598859D01*
X59182000Y-67193330D01*
X60945046Y-65430284D01*
X60974122Y-65406422D01*
X61034557Y-65332781D01*
X61069345Y-65290393D01*
X61140101Y-65158016D01*
X61140102Y-65158015D01*
X61183674Y-65014378D01*
X61194700Y-64902426D01*
X61194700Y-64902423D01*
X61198386Y-64865000D01*
X61194700Y-64827577D01*
X61194700Y-59429930D01*
X61198446Y-59431482D01*
X61398405Y-59471256D01*
X61602283Y-59471256D01*
X61802242Y-59431482D01*
X61990600Y-59353461D01*
X62065900Y-59303147D01*
X62065901Y-66356468D01*
G36*
X67920000Y-39309810D02*
G01*
X67863990Y-39174589D01*
X67701475Y-38931368D01*
X67494632Y-38724525D01*
X67251411Y-38562010D01*
X66981158Y-38450068D01*
X66694260Y-38393000D01*
X66401740Y-38393000D01*
X66114842Y-38450068D01*
X65844589Y-38562010D01*
X65601368Y-38724525D01*
X65394525Y-38931368D01*
X65278000Y-39105760D01*
X65161475Y-38931368D01*
X64954632Y-38724525D01*
X64711411Y-38562010D01*
X64441158Y-38450068D01*
X64154260Y-38393000D01*
X63861740Y-38393000D01*
X63574842Y-38450068D01*
X63304589Y-38562010D01*
X63061368Y-38724525D01*
X62854525Y-38931368D01*
X62692010Y-39174589D01*
X62580068Y-39444842D01*
X62523000Y-39731740D01*
X62523000Y-40024260D01*
X62580068Y-40311158D01*
X62692010Y-40581411D01*
X62854525Y-40824632D01*
X63061368Y-41031475D01*
X63243534Y-41153195D01*
X63126645Y-41222822D01*
X62910412Y-41417731D01*
X62736359Y-41651080D01*
X62611175Y-41913901D01*
X62566524Y-42061110D01*
X62687845Y-42291000D01*
X63881000Y-42291000D01*
X63881000Y-42271000D01*
X64135000Y-42271000D01*
X64135000Y-42291000D01*
X64155000Y-42291000D01*
X64155000Y-42545000D01*
X64135000Y-42545000D01*
X64135000Y-44831000D01*
X64155000Y-44831000D01*
X64155000Y-45085000D01*
X64135000Y-45085000D01*
X64135000Y-45105000D01*
X63881000Y-45105000D01*
X63881000Y-45085000D01*
X62687845Y-45085000D01*
X62566524Y-45314890D01*
X62611175Y-45462099D01*
X62736359Y-45724920D01*
X62910412Y-45958269D01*
X63126645Y-46153178D01*
X63243534Y-46222805D01*
X63061368Y-46344525D01*
X62854525Y-46551368D01*
X62692010Y-46794589D01*
X62580068Y-47064842D01*
X62523000Y-47351740D01*
X62523000Y-47644260D01*
X62580068Y-47931158D01*
X62692010Y-48201411D01*
X62854525Y-48444632D01*
X63061368Y-48651475D01*
X63235760Y-48768000D01*
X63061368Y-48884525D01*
X62854525Y-49091368D01*
X62692010Y-49334589D01*
X62580068Y-49604842D01*
X62523000Y-49891740D01*
X62523000Y-50184260D01*
X62580068Y-50471158D01*
X62692010Y-50741411D01*
X62854525Y-50984632D01*
X63061368Y-51191475D01*
X63243534Y-51313195D01*
X63126645Y-51382822D01*
X62910412Y-51577731D01*
X62736359Y-51811080D01*
X62611175Y-52073901D01*
X62566524Y-52221110D01*
X62687845Y-52451000D01*
X63881000Y-52451000D01*
X63881000Y-52431000D01*
X64135000Y-52431000D01*
X64135000Y-52451000D01*
X64155000Y-52451000D01*
X64155000Y-52705000D01*
X64135000Y-52705000D01*
X64135000Y-52725000D01*
X63881000Y-52725000D01*
X63881000Y-52705000D01*
X62687845Y-52705000D01*
X62566524Y-52934890D01*
X62611175Y-53082099D01*
X62736359Y-53344920D01*
X62910412Y-53578269D01*
X63126645Y-53773178D01*
X63243534Y-53842805D01*
X63061368Y-53964525D01*
X62854525Y-54171368D01*
X62692010Y-54414589D01*
X62580068Y-54684842D01*
X62523000Y-54971740D01*
X62523000Y-55264260D01*
X62580068Y-55551158D01*
X62592997Y-55582372D01*
X62343100Y-55832270D01*
X62343100Y-43745911D01*
X62385037Y-43703974D01*
X62498305Y-43534456D01*
X62576326Y-43346098D01*
X62616100Y-43146139D01*
X62616100Y-42942261D01*
X62612745Y-42925396D01*
X62736359Y-43184920D01*
X62910412Y-43418269D01*
X63126645Y-43613178D01*
X63252255Y-43688000D01*
X63126645Y-43762822D01*
X62910412Y-43957731D01*
X62736359Y-44191080D01*
X62611175Y-44453901D01*
X62566524Y-44601110D01*
X62687845Y-44831000D01*
X63881000Y-44831000D01*
X63881000Y-42545000D01*
X62687845Y-42545000D01*
X62578351Y-42752480D01*
X62576326Y-42742302D01*
X62498305Y-42553944D01*
X62385037Y-42384426D01*
X62240874Y-42240263D01*
X62071356Y-42126995D01*
X61882998Y-42048974D01*
X61683039Y-42009200D01*
X61479161Y-42009200D01*
X61279202Y-42048974D01*
X61090844Y-42126995D01*
X60921326Y-42240263D01*
X60777163Y-42384426D01*
X60663895Y-42553944D01*
X60585874Y-42742302D01*
X60546100Y-42942261D01*
X60546100Y-43146139D01*
X60585874Y-43346098D01*
X60663895Y-43534456D01*
X60777163Y-43703974D01*
X60819100Y-43745911D01*
X60819101Y-50732076D01*
X60734598Y-50697074D01*
X60534639Y-50657300D01*
X60330761Y-50657300D01*
X60130802Y-50697074D01*
X60022043Y-50742124D01*
X60020000Y-50323750D01*
X59861250Y-50165000D01*
X58547000Y-50165000D01*
X58547000Y-50185000D01*
X58293000Y-50185000D01*
X58293000Y-50165000D01*
X58273000Y-50165000D01*
X58273000Y-49911000D01*
X58293000Y-49911000D01*
X58293000Y-49891000D01*
X58547000Y-49891000D01*
X58547000Y-49911000D01*
X59861250Y-49911000D01*
X60020000Y-49752250D01*
X60023072Y-49123000D01*
X60010812Y-48998518D01*
X59974502Y-48878820D01*
X59915537Y-48768506D01*
X59836185Y-48671815D01*
X59739494Y-48592463D01*
X59629180Y-48533498D01*
X59509482Y-48497188D01*
X59385000Y-48484928D01*
X59124860Y-48486105D01*
X59225252Y-48444521D01*
X59503687Y-48258477D01*
X59740477Y-48021687D01*
X59926521Y-47743252D01*
X60054670Y-47433872D01*
X60120000Y-47105435D01*
X60120000Y-46770565D01*
X60054670Y-46442128D01*
X59926521Y-46132748D01*
X59740477Y-45854313D01*
X59503687Y-45617523D01*
X59225252Y-45431479D01*
X58915872Y-45303330D01*
X58587435Y-45238000D01*
X58252565Y-45238000D01*
X57924128Y-45303330D01*
X57614748Y-45431479D01*
X57336313Y-45617523D01*
X57112300Y-45841536D01*
X57112300Y-44358230D01*
X57460031Y-44010500D01*
X57519339Y-44010500D01*
X57719298Y-43970726D01*
X57907656Y-43892705D01*
X58077174Y-43779437D01*
X58221337Y-43635274D01*
X58334605Y-43465756D01*
X58412626Y-43277398D01*
X58452400Y-43077439D01*
X58452400Y-42873561D01*
X58412626Y-42673602D01*
X58334605Y-42485244D01*
X58221337Y-42315726D01*
X58077174Y-42171563D01*
X57907656Y-42058295D01*
X57719298Y-41980274D01*
X57519339Y-41940500D01*
X57315461Y-41940500D01*
X57115502Y-41980274D01*
X56927144Y-42058295D01*
X56757626Y-42171563D01*
X56613463Y-42315726D01*
X56500195Y-42485244D01*
X56422174Y-42673602D01*
X56382400Y-42873561D01*
X56382400Y-42932869D01*
X55837954Y-43477316D01*
X55808878Y-43501178D01*
X55781568Y-43534456D01*
X55713655Y-43617208D01*
X55700166Y-43642445D01*
X55642898Y-43749586D01*
X55599326Y-43893223D01*
X55592973Y-43957731D01*
X55584614Y-44042600D01*
X55588300Y-44080023D01*
X55588301Y-55928968D01*
X52699270Y-58818000D01*
X52639961Y-58818000D01*
X52440002Y-58857774D01*
X52251644Y-58935795D01*
X52162600Y-58995292D01*
X52162600Y-51526072D01*
X53120693Y-51526072D01*
X53056974Y-51679902D01*
X53017200Y-51879861D01*
X53017200Y-52083739D01*
X53056974Y-52283698D01*
X53134995Y-52472056D01*
X53248263Y-52641574D01*
X53392426Y-52785737D01*
X53561944Y-52899005D01*
X53750302Y-52977026D01*
X53950261Y-53016800D01*
X54154139Y-53016800D01*
X54354098Y-52977026D01*
X54542456Y-52899005D01*
X54711974Y-52785737D01*
X54856137Y-52641574D01*
X54969405Y-52472056D01*
X55047426Y-52283698D01*
X55087200Y-52083739D01*
X55087200Y-51879861D01*
X55047426Y-51679902D01*
X54969405Y-51491544D01*
X54856137Y-51322026D01*
X54814200Y-51280089D01*
X54814200Y-43321430D01*
X57880876Y-40254755D01*
X57924128Y-40272670D01*
X58252565Y-40338000D01*
X58587435Y-40338000D01*
X58915872Y-40272670D01*
X59225252Y-40144521D01*
X59503687Y-39958477D01*
X59740477Y-39721687D01*
X59926521Y-39443252D01*
X60054670Y-39133872D01*
X60120000Y-38805435D01*
X60120000Y-38470565D01*
X60054670Y-38142128D01*
X59994970Y-37998000D01*
X67920000Y-37998000D01*
X67920000Y-39309810D01*
G37*
X67920000Y-39309810D02*
X67863990Y-39174589D01*
X67701475Y-38931368D01*
X67494632Y-38724525D01*
X67251411Y-38562010D01*
X66981158Y-38450068D01*
X66694260Y-38393000D01*
X66401740Y-38393000D01*
X66114842Y-38450068D01*
X65844589Y-38562010D01*
X65601368Y-38724525D01*
X65394525Y-38931368D01*
X65278000Y-39105760D01*
X65161475Y-38931368D01*
X64954632Y-38724525D01*
X64711411Y-38562010D01*
X64441158Y-38450068D01*
X64154260Y-38393000D01*
X63861740Y-38393000D01*
X63574842Y-38450068D01*
X63304589Y-38562010D01*
X63061368Y-38724525D01*
X62854525Y-38931368D01*
X62692010Y-39174589D01*
X62580068Y-39444842D01*
X62523000Y-39731740D01*
X62523000Y-40024260D01*
X62580068Y-40311158D01*
X62692010Y-40581411D01*
X62854525Y-40824632D01*
X63061368Y-41031475D01*
X63243534Y-41153195D01*
X63126645Y-41222822D01*
X62910412Y-41417731D01*
X62736359Y-41651080D01*
X62611175Y-41913901D01*
X62566524Y-42061110D01*
X62687845Y-42291000D01*
X63881000Y-42291000D01*
X63881000Y-42271000D01*
X64135000Y-42271000D01*
X64135000Y-42291000D01*
X64155000Y-42291000D01*
X64155000Y-42545000D01*
X64135000Y-42545000D01*
X64135000Y-44831000D01*
X64155000Y-44831000D01*
X64155000Y-45085000D01*
X64135000Y-45085000D01*
X64135000Y-45105000D01*
X63881000Y-45105000D01*
X63881000Y-45085000D01*
X62687845Y-45085000D01*
X62566524Y-45314890D01*
X62611175Y-45462099D01*
X62736359Y-45724920D01*
X62910412Y-45958269D01*
X63126645Y-46153178D01*
X63243534Y-46222805D01*
X63061368Y-46344525D01*
X62854525Y-46551368D01*
X62692010Y-46794589D01*
X62580068Y-47064842D01*
X62523000Y-47351740D01*
X62523000Y-47644260D01*
X62580068Y-47931158D01*
X62692010Y-48201411D01*
X62854525Y-48444632D01*
X63061368Y-48651475D01*
X63235760Y-48768000D01*
X63061368Y-48884525D01*
X62854525Y-49091368D01*
X62692010Y-49334589D01*
X62580068Y-49604842D01*
X62523000Y-49891740D01*
X62523000Y-50184260D01*
X62580068Y-50471158D01*
X62692010Y-50741411D01*
X62854525Y-50984632D01*
X63061368Y-51191475D01*
X63243534Y-51313195D01*
X63126645Y-51382822D01*
X62910412Y-51577731D01*
X62736359Y-51811080D01*
X62611175Y-52073901D01*
X62566524Y-52221110D01*
X62687845Y-52451000D01*
X63881000Y-52451000D01*
X63881000Y-52431000D01*
X64135000Y-52431000D01*
X64135000Y-52451000D01*
X64155000Y-52451000D01*
X64155000Y-52705000D01*
X64135000Y-52705000D01*
X64135000Y-52725000D01*
X63881000Y-52725000D01*
X63881000Y-52705000D01*
X62687845Y-52705000D01*
X62566524Y-52934890D01*
X62611175Y-53082099D01*
X62736359Y-53344920D01*
X62910412Y-53578269D01*
X63126645Y-53773178D01*
X63243534Y-53842805D01*
X63061368Y-53964525D01*
X62854525Y-54171368D01*
X62692010Y-54414589D01*
X62580068Y-54684842D01*
X62523000Y-54971740D01*
X62523000Y-55264260D01*
X62580068Y-55551158D01*
X62592997Y-55582372D01*
X62343100Y-55832270D01*
X62343100Y-43745911D01*
X62385037Y-43703974D01*
X62498305Y-43534456D01*
X62576326Y-43346098D01*
X62616100Y-43146139D01*
X62616100Y-42942261D01*
X62612745Y-42925396D01*
X62736359Y-43184920D01*
X62910412Y-43418269D01*
X63126645Y-43613178D01*
X63252255Y-43688000D01*
X63126645Y-43762822D01*
X62910412Y-43957731D01*
X62736359Y-44191080D01*
X62611175Y-44453901D01*
X62566524Y-44601110D01*
X62687845Y-44831000D01*
X63881000Y-44831000D01*
X63881000Y-42545000D01*
X62687845Y-42545000D01*
X62578351Y-42752480D01*
X62576326Y-42742302D01*
X62498305Y-42553944D01*
X62385037Y-42384426D01*
X62240874Y-42240263D01*
X62071356Y-42126995D01*
X61882998Y-42048974D01*
X61683039Y-42009200D01*
X61479161Y-42009200D01*
X61279202Y-42048974D01*
X61090844Y-42126995D01*
X60921326Y-42240263D01*
X60777163Y-42384426D01*
X60663895Y-42553944D01*
X60585874Y-42742302D01*
X60546100Y-42942261D01*
X60546100Y-43146139D01*
X60585874Y-43346098D01*
X60663895Y-43534456D01*
X60777163Y-43703974D01*
X60819100Y-43745911D01*
X60819101Y-50732076D01*
X60734598Y-50697074D01*
X60534639Y-50657300D01*
X60330761Y-50657300D01*
X60130802Y-50697074D01*
X60022043Y-50742124D01*
X60020000Y-50323750D01*
X59861250Y-50165000D01*
X58547000Y-50165000D01*
X58547000Y-50185000D01*
X58293000Y-50185000D01*
X58293000Y-50165000D01*
X58273000Y-50165000D01*
X58273000Y-49911000D01*
X58293000Y-49911000D01*
X58293000Y-49891000D01*
X58547000Y-49891000D01*
X58547000Y-49911000D01*
X59861250Y-49911000D01*
X60020000Y-49752250D01*
X60023072Y-49123000D01*
X60010812Y-48998518D01*
X59974502Y-48878820D01*
X59915537Y-48768506D01*
X59836185Y-48671815D01*
X59739494Y-48592463D01*
X59629180Y-48533498D01*
X59509482Y-48497188D01*
X59385000Y-48484928D01*
X59124860Y-48486105D01*
X59225252Y-48444521D01*
X59503687Y-48258477D01*
X59740477Y-48021687D01*
X59926521Y-47743252D01*
X60054670Y-47433872D01*
X60120000Y-47105435D01*
X60120000Y-46770565D01*
X60054670Y-46442128D01*
X59926521Y-46132748D01*
X59740477Y-45854313D01*
X59503687Y-45617523D01*
X59225252Y-45431479D01*
X58915872Y-45303330D01*
X58587435Y-45238000D01*
X58252565Y-45238000D01*
X57924128Y-45303330D01*
X57614748Y-45431479D01*
X57336313Y-45617523D01*
X57112300Y-45841536D01*
X57112300Y-44358230D01*
X57460031Y-44010500D01*
X57519339Y-44010500D01*
X57719298Y-43970726D01*
X57907656Y-43892705D01*
X58077174Y-43779437D01*
X58221337Y-43635274D01*
X58334605Y-43465756D01*
X58412626Y-43277398D01*
X58452400Y-43077439D01*
X58452400Y-42873561D01*
X58412626Y-42673602D01*
X58334605Y-42485244D01*
X58221337Y-42315726D01*
X58077174Y-42171563D01*
X57907656Y-42058295D01*
X57719298Y-41980274D01*
X57519339Y-41940500D01*
X57315461Y-41940500D01*
X57115502Y-41980274D01*
X56927144Y-42058295D01*
X56757626Y-42171563D01*
X56613463Y-42315726D01*
X56500195Y-42485244D01*
X56422174Y-42673602D01*
X56382400Y-42873561D01*
X56382400Y-42932869D01*
X55837954Y-43477316D01*
X55808878Y-43501178D01*
X55781568Y-43534456D01*
X55713655Y-43617208D01*
X55700166Y-43642445D01*
X55642898Y-43749586D01*
X55599326Y-43893223D01*
X55592973Y-43957731D01*
X55584614Y-44042600D01*
X55588300Y-44080023D01*
X55588301Y-55928968D01*
X52699270Y-58818000D01*
X52639961Y-58818000D01*
X52440002Y-58857774D01*
X52251644Y-58935795D01*
X52162600Y-58995292D01*
X52162600Y-51526072D01*
X53120693Y-51526072D01*
X53056974Y-51679902D01*
X53017200Y-51879861D01*
X53017200Y-52083739D01*
X53056974Y-52283698D01*
X53134995Y-52472056D01*
X53248263Y-52641574D01*
X53392426Y-52785737D01*
X53561944Y-52899005D01*
X53750302Y-52977026D01*
X53950261Y-53016800D01*
X54154139Y-53016800D01*
X54354098Y-52977026D01*
X54542456Y-52899005D01*
X54711974Y-52785737D01*
X54856137Y-52641574D01*
X54969405Y-52472056D01*
X55047426Y-52283698D01*
X55087200Y-52083739D01*
X55087200Y-51879861D01*
X55047426Y-51679902D01*
X54969405Y-51491544D01*
X54856137Y-51322026D01*
X54814200Y-51280089D01*
X54814200Y-43321430D01*
X57880876Y-40254755D01*
X57924128Y-40272670D01*
X58252565Y-40338000D01*
X58587435Y-40338000D01*
X58915872Y-40272670D01*
X59225252Y-40144521D01*
X59503687Y-39958477D01*
X59740477Y-39721687D01*
X59926521Y-39443252D01*
X60054670Y-39133872D01*
X60120000Y-38805435D01*
X60120000Y-38470565D01*
X60054670Y-38142128D01*
X59994970Y-37998000D01*
X67920000Y-37998000D01*
X67920000Y-39309810D01*
G36*
X65394525Y-50984632D02*
G01*
X65601368Y-51191475D01*
X65775760Y-51308000D01*
X65601368Y-51424525D01*
X65394525Y-51631368D01*
X65276900Y-51807406D01*
X65105588Y-51577731D01*
X64889355Y-51382822D01*
X64772466Y-51313195D01*
X64954632Y-51191475D01*
X65161475Y-50984632D01*
X65278000Y-50810240D01*
X65394525Y-50984632D01*
G37*
X65394525Y-50984632D02*
X65601368Y-51191475D01*
X65775760Y-51308000D01*
X65601368Y-51424525D01*
X65394525Y-51631368D01*
X65276900Y-51807406D01*
X65105588Y-51577731D01*
X64889355Y-51382822D01*
X64772466Y-51313195D01*
X64954632Y-51191475D01*
X65161475Y-50984632D01*
X65278000Y-50810240D01*
X65394525Y-50984632D01*
G36*
X52705000Y-42291000D02*
G01*
X52725000Y-42291000D01*
X52725000Y-42545000D01*
X52705000Y-42545000D01*
X52705000Y-44831000D01*
X52725000Y-44831000D01*
X52725000Y-45085000D01*
X52705000Y-45085000D01*
X52705000Y-47371000D01*
X52725000Y-47371000D01*
X52725000Y-47625000D01*
X52705000Y-47625000D01*
X52705000Y-47645000D01*
X52451000Y-47645000D01*
X52451000Y-47625000D01*
X52431000Y-47625000D01*
X52431000Y-47371000D01*
X52451000Y-47371000D01*
X52451000Y-45085000D01*
X52431000Y-45085000D01*
X52431000Y-44831000D01*
X52451000Y-44831000D01*
X52451000Y-42545000D01*
X52431000Y-42545000D01*
X52431000Y-42291000D01*
X52451000Y-42291000D01*
X52451000Y-42271000D01*
X52705000Y-42271000D01*
X52705000Y-42291000D01*
G37*
X52705000Y-42291000D02*
X52725000Y-42291000D01*
X52725000Y-42545000D01*
X52705000Y-42545000D01*
X52705000Y-44831000D01*
X52725000Y-44831000D01*
X52725000Y-45085000D01*
X52705000Y-45085000D01*
X52705000Y-47371000D01*
X52725000Y-47371000D01*
X52725000Y-47625000D01*
X52705000Y-47625000D01*
X52705000Y-47645000D01*
X52451000Y-47645000D01*
X52451000Y-47625000D01*
X52431000Y-47625000D01*
X52431000Y-47371000D01*
X52451000Y-47371000D01*
X52451000Y-45085000D01*
X52431000Y-45085000D01*
X52431000Y-44831000D01*
X52451000Y-44831000D01*
X52451000Y-42545000D01*
X52431000Y-42545000D01*
X52431000Y-42291000D01*
X52451000Y-42291000D01*
X52451000Y-42271000D01*
X52705000Y-42271000D01*
X52705000Y-42291000D01*
G36*
X50165000Y-42291000D02*
G01*
X50185000Y-42291000D01*
X50185000Y-42545000D01*
X50165000Y-42545000D01*
X50165000Y-44831000D01*
X50185000Y-44831000D01*
X50185000Y-45085000D01*
X50165000Y-45085000D01*
X50165000Y-47371000D01*
X50185000Y-47371000D01*
X50185000Y-47625000D01*
X50165000Y-47625000D01*
X50165000Y-47645000D01*
X49911000Y-47645000D01*
X49911000Y-47625000D01*
X49891000Y-47625000D01*
X49891000Y-47371000D01*
X49911000Y-47371000D01*
X49911000Y-45085000D01*
X49891000Y-45085000D01*
X49891000Y-44831000D01*
X49911000Y-44831000D01*
X49911000Y-42545000D01*
X49891000Y-42545000D01*
X49891000Y-42291000D01*
X49911000Y-42291000D01*
X49911000Y-42271000D01*
X50165000Y-42271000D01*
X50165000Y-42291000D01*
G37*
X50165000Y-42291000D02*
X50185000Y-42291000D01*
X50185000Y-42545000D01*
X50165000Y-42545000D01*
X50165000Y-44831000D01*
X50185000Y-44831000D01*
X50185000Y-45085000D01*
X50165000Y-45085000D01*
X50165000Y-47371000D01*
X50185000Y-47371000D01*
X50185000Y-47625000D01*
X50165000Y-47625000D01*
X50165000Y-47645000D01*
X49911000Y-47645000D01*
X49911000Y-47625000D01*
X49891000Y-47625000D01*
X49891000Y-47371000D01*
X49911000Y-47371000D01*
X49911000Y-45085000D01*
X49891000Y-45085000D01*
X49891000Y-44831000D01*
X49911000Y-44831000D01*
X49911000Y-42545000D01*
X49891000Y-42545000D01*
X49891000Y-42291000D01*
X49911000Y-42291000D01*
X49911000Y-42271000D01*
X50165000Y-42271000D01*
X50165000Y-42291000D01*
G36*
X65394525Y-45904632D02*
G01*
X65601368Y-46111475D01*
X65775760Y-46228000D01*
X65601368Y-46344525D01*
X65394525Y-46551368D01*
X65278000Y-46725760D01*
X65161475Y-46551368D01*
X64954632Y-46344525D01*
X64772466Y-46222805D01*
X64889355Y-46153178D01*
X65105588Y-45958269D01*
X65276900Y-45728594D01*
X65394525Y-45904632D01*
G37*
X65394525Y-45904632D02*
X65601368Y-46111475D01*
X65775760Y-46228000D01*
X65601368Y-46344525D01*
X65394525Y-46551368D01*
X65278000Y-46725760D01*
X65161475Y-46551368D01*
X64954632Y-46344525D01*
X64772466Y-46222805D01*
X64889355Y-46153178D01*
X65105588Y-45958269D01*
X65276900Y-45728594D01*
X65394525Y-45904632D01*
%TD*%
M02*
