%TF.GenerationSoftware,KiCad,Pcbnew,(5.1.6)-1*%
%TF.CreationDate,2021-03-13T16:13:42+00:00*%
%TF.ProjectId,expander,65787061-6e64-4657-922e-6b696361645f,rev?*%
%TF.SameCoordinates,Original*%
%TF.FileFunction,Soldermask,Bot*%
%TF.FilePolarity,Negative*%
%FSLAX46Y46*%
G04 Gerber Fmt 4.6, Leading zero omitted, Abs format (unit mm)*
G04 Created by KiCad (PCBNEW (5.1.6)-1) date 2021-03-13 16:13:42*
%MOMM*%
%LPD*%
G01*
G04 APERTURE LIST*
%ADD10O,1.801800X1.801800*%
%ADD11C,0.600000*%
%ADD12C,1.500000*%
%ADD13C,3.100000*%
%ADD14R,1.500000X1.500000*%
%ADD15O,6.000000X3.400000*%
%ADD16O,1.800000X1.800000*%
%ADD17R,1.800000X1.800000*%
%ADD18C,2.230000*%
%ADD19R,2.030000X1.930000*%
%ADD20R,1.930000X2.030000*%
G04 APERTURE END LIST*
D10*
%TO.C,D8*%
X41148000Y-137795000D03*
%TD*%
%TO.C,D7*%
X41148000Y-135255000D03*
%TD*%
%TO.C,D6*%
X29972000Y-122555000D03*
%TD*%
%TO.C,D5*%
X29972000Y-120015000D03*
%TD*%
%TO.C,D4*%
X41148000Y-107315000D03*
%TD*%
%TO.C,D3*%
X41148000Y-104775000D03*
%TD*%
%TO.C,D2*%
X29972000Y-92075000D03*
%TD*%
%TO.C,D1*%
X29972000Y-89535000D03*
%TD*%
D11*
%TO.C,REF\u002A\u002A*%
X45720000Y-124587000D03*
X45720000Y-123587000D03*
X45720000Y-122587000D03*
X45720000Y-125587000D03*
X45720000Y-126587000D03*
%TD*%
%TO.C,REF\u002A\u002A*%
X48260000Y-126587000D03*
X48260000Y-125587000D03*
X48260000Y-122587000D03*
X48260000Y-123587000D03*
X48260000Y-124587000D03*
%TD*%
%TO.C,REF\u002A\u002A*%
X48260000Y-56785000D03*
X48260000Y-55785000D03*
X48260000Y-54785000D03*
X48260000Y-57785000D03*
X48260000Y-58785000D03*
%TD*%
%TO.C,REF\u002A\u002A*%
X45720000Y-58785000D03*
X45720000Y-57785000D03*
X45720000Y-54785000D03*
X45720000Y-55785000D03*
X45720000Y-56785000D03*
%TD*%
D12*
%TO.C,J9*%
X59650000Y-69850000D03*
D13*
X64420000Y-72560000D03*
D14*
X57150000Y-69850000D03*
D12*
X59650000Y-73050000D03*
X57150000Y-73050000D03*
D13*
X52380000Y-72560000D03*
%TD*%
D15*
%TO.C,REF\u002A\u002A*%
X38270000Y-28400000D03*
%TD*%
%TO.C,REF\u002A\u002A*%
X38270000Y-150670000D03*
%TD*%
D16*
%TO.C,J10*%
X59182000Y-111760000D03*
X59182000Y-114300000D03*
X61722000Y-111760000D03*
X61722000Y-114300000D03*
X64262000Y-111760000D03*
X64262000Y-114300000D03*
X66802000Y-111760000D03*
D17*
X66802000Y-114300000D03*
%TD*%
D18*
%TO.C,J3*%
X58420000Y-38638000D03*
D19*
X58420000Y-50038000D03*
D18*
X58420000Y-46938000D03*
%TD*%
%TO.C,J2*%
X58420000Y-61438000D03*
D19*
X58420000Y-50038000D03*
D18*
X58420000Y-53138000D03*
%TD*%
%TO.C,J8*%
X67280000Y-90805000D03*
D20*
X55880000Y-90805000D03*
D18*
X58980000Y-90805000D03*
%TD*%
%TO.C,J7*%
X49560000Y-136525000D03*
D20*
X60960000Y-136525000D03*
D18*
X57860000Y-136525000D03*
%TD*%
%TO.C,J6*%
X67280000Y-121285000D03*
D20*
X55880000Y-121285000D03*
D18*
X58980000Y-121285000D03*
%TD*%
%TO.C,J5*%
X49560000Y-106045000D03*
D20*
X60960000Y-106045000D03*
D18*
X57860000Y-106045000D03*
%TD*%
D16*
%TO.C,J4*%
X50038000Y-39878000D03*
X52578000Y-39878000D03*
X50038000Y-42418000D03*
X52578000Y-42418000D03*
X50038000Y-44958000D03*
X52578000Y-44958000D03*
X50038000Y-47498000D03*
X52578000Y-47498000D03*
X50038000Y-50038000D03*
D17*
X52578000Y-50038000D03*
%TD*%
D16*
%TO.C,J1*%
X64008000Y-39878000D03*
X66548000Y-39878000D03*
X64008000Y-42418000D03*
X66548000Y-42418000D03*
X64008000Y-44958000D03*
X66548000Y-44958000D03*
X64008000Y-47498000D03*
X66548000Y-47498000D03*
X64008000Y-50038000D03*
X66548000Y-50038000D03*
X64008000Y-52578000D03*
X66548000Y-52578000D03*
X64008000Y-55118000D03*
X66548000Y-55118000D03*
X64008000Y-57658000D03*
D17*
X66548000Y-57658000D03*
%TD*%
M02*
